# Blender v2.76 (sub 0) OBJ File: ''
# www.blender.org
mtllib haus02.mtl
o SketchUp_ID2.004
v 4.053389 0.000000 -5.527754
v -4.956611 0.000000 2.472246
v -4.956611 0.000000 -5.527754
v -0.017431 0.000000 2.472246
v -0.017431 0.000000 6.862246
v 4.053389 0.000000 6.862246
v 4.053389 0.000000 6.862246
v 4.053389 0.000000 -5.527754
v -0.017431 0.000000 6.862246
v -0.017431 0.000000 2.472246
v -4.956611 0.000000 2.472246
v -4.956611 0.000000 -5.527754
v -4.956611 3.010000 -5.527754
v 4.053389 0.000000 -5.527754
v -4.956611 0.000000 -5.527754
v 4.053389 3.010000 -5.527754
v 4.053389 3.010000 -5.527754
v -4.956611 3.010000 -5.527754
v 4.053389 0.000000 -5.527754
v -4.956611 0.000000 -5.527754
v 4.053389 0.000000 -5.527754
v 4.053389 3.010000 6.862246
v 4.053389 0.000000 6.862246
v 4.053389 3.010000 2.472246
v 4.053389 5.850000 -1.527754
v 4.053389 3.010000 -5.527754
v 4.053389 3.010000 -5.527754
v 4.053389 0.000000 -5.527754
v 4.053389 5.850000 -1.527754
v 4.053389 3.010000 2.472246
v 4.053389 3.010000 6.862246
v 4.053389 0.000000 6.862246
v 4.053389 3.010000 6.862246
v -0.017431 0.000000 6.862246
v 4.053389 0.000000 6.862246
v -0.017431 3.010000 6.862246
v -0.017431 3.010000 6.862246
v 4.053389 3.010000 6.862246
v -0.017431 0.000000 6.862246
v 4.053389 0.000000 6.862246
v -0.017431 3.010000 2.472246
v -0.017431 0.000000 6.862246
v -0.017431 3.010000 6.862246
v -0.017431 0.000000 2.472246
v -0.017431 0.000000 2.472246
v -0.017431 3.010000 2.472246
v -0.017431 0.000000 6.862246
v -0.017431 3.010000 6.862246
v -0.017431 3.010000 2.472246
v -4.956611 0.000000 2.472246
v -0.017431 0.000000 2.472246
v -4.956611 3.010000 2.472246
v -4.956611 3.010000 2.472246
v -0.017431 3.010000 2.472246
v -4.956611 0.000000 2.472246
v -0.017431 0.000000 2.472246
v -4.956611 5.850000 -1.527754
v -4.956611 0.000000 2.472246
v -4.956611 3.010000 2.472246
v -4.956611 0.000000 -5.527754
v -4.956611 3.010000 -5.527754
v -4.956611 3.010000 -5.527754
v -4.956611 5.850000 -1.527754
v -4.956611 0.000000 -5.527754
v -4.956611 0.000000 2.472246
v -4.956611 3.010000 2.472246
v 2.017979 5.850000 -1.527754
v -4.956611 3.010000 -5.527754
v -4.956611 5.850000 -1.527754
v 4.053389 3.010000 -5.527754
v 4.053389 5.850000 -1.527754
v 4.053389 5.850000 -1.527754
v 2.017979 5.850000 -1.527754
v 4.053389 3.010000 -5.527754
v -4.956611 3.010000 -5.527754
v -4.956611 5.850000 -1.527754
v 4.053389 5.850000 -1.527754
v 2.017979 5.850000 -1.527754
v 4.053389 3.010000 2.472246
v 4.053389 3.010000 2.472246
v 2.017979 5.850000 -1.527754
v 4.053389 5.850000 -1.527754
v 4.053389 3.010000 6.862246
v -0.017431 3.010000 2.472246
v -0.017431 3.010000 6.862246
v 4.053389 3.010000 2.472246
v 4.053389 3.010000 2.472246
v 4.053389 3.010000 6.862246
v -0.017431 3.010000 2.472246
v -0.017431 3.010000 6.862246
v 4.053389 3.010000 2.472246
v 2.017979 5.850000 6.862246
v 4.053389 3.010000 6.862246
v 2.017979 5.850000 -1.527754
v 2.017979 5.850000 -1.527754
v 4.053389 3.010000 2.472246
v 2.017979 5.850000 6.862246
v 4.053389 3.010000 6.862246
v 2.017979 5.850000 6.862246
v 2.017979 5.850000 6.862246
v 2.017979 5.850000 -1.527754
v -0.017431 3.010000 6.862246
v 2.017979 5.850000 6.862246
v -0.017431 3.010000 2.472246
v -0.017431 3.010000 2.472246
v 2.017979 5.850000 -1.527754
v -0.017431 3.010000 6.862246
v 2.017979 5.850000 6.862246
v -0.017431 3.010000 2.472246
v -4.956611 5.850000 -1.527754
v -4.956611 3.010000 2.472246
v 2.017979 5.850000 -1.527754
v 2.017979 5.850000 -1.527754
v -0.017431 3.010000 2.472246
v -4.956611 5.850000 -1.527754
v -4.956611 3.010000 2.472246
v 4.053389 3.010000 2.472246
v 4.053389 3.010000 2.472246
vn 0.000000 -1.000000 0.000000
vn 0.000000 0.000000 -1.000000
vn 1.000000 0.000000 0.000000
vn 0.000000 0.000000 1.000000
vn -1.000000 0.000000 0.000000
vn 0.000000 0.815400 -0.578900
vn 0.000000 0.815400 0.578900
vn 0.000000 1.000000 0.000000
vn 0.812800 0.582500 0.000000
vn -0.812800 0.582500 0.000000
vn 0.000000 -0.815400 0.578900
vn 0.000000 -0.815400 -0.578900
vn -0.812800 -0.582500 0.000000
vn 0.812800 -0.582500 0.000000
usemtl material.005
s off
f 1//1 2//1 3//1
f 2//1 1//1 4//1
f 4//1 1//1 5//1
f 5//1 1//1 6//1
f 13//2 14//2 15//2
f 14//2 13//2 16//2
f 21//3 22//3 23//3
f 22//3 21//3 24//3
f 24//3 21//3 25//3
f 25//3 21//3 26//3
f 33//4 34//4 35//4
f 34//4 33//4 36//4
f 41//5 42//5 43//5
f 42//5 41//5 44//5
f 49//4 50//4 51//4
f 50//4 49//4 52//4
f 57//5 58//5 59//5
f 58//5 57//5 60//5
f 60//5 57//5 61//5
f 67//6 68//6 69//6
f 68//6 67//6 70//6
f 70//6 67//6 71//6
f 77//7 78//7 79//7
f 83//8 84//8 85//8
f 84//8 83//8 86//8
f 91//9 92//9 93//9
f 92//9 91//9 94//9
f 99//4 36//4 33//4
f 101//10 102//10 103//10
f 102//10 101//10 104//10
f 109//7 110//7 111//7
f 110//7 109//7 112//7
f 117//7 112//7 109//7
usemtl material_0.005
f 7//8 8//8 9//8
f 9//8 8//8 10//8
f 10//8 8//8 11//8
f 12//8 11//8 8//8
f 17//4 18//4 19//4
f 20//4 19//4 18//4
f 27//5 28//5 29//5
f 29//5 28//5 30//5
f 30//5 28//5 31//5
f 32//5 31//5 28//5
f 37//2 38//2 39//2
f 40//2 39//2 38//2
f 45//3 46//3 47//3
f 48//3 47//3 46//3
f 53//2 54//2 55//2
f 56//2 55//2 54//2
f 62//3 63//3 64//3
f 64//3 63//3 65//3
f 66//3 65//3 63//3
f 72//11 73//11 74//11
f 74//11 73//11 75//11
f 76//11 75//11 73//11
f 80//12 81//12 82//12
f 87//1 88//1 89//1
f 90//1 89//1 88//1
f 95//13 96//13 97//13
f 98//13 97//13 96//13
f 38//2 37//2 100//2
f 105//14 106//14 107//14
f 108//14 107//14 106//14
f 113//12 114//12 115//12
f 116//12 115//12 114//12
f 114//12 113//12 118//12
