# 3ds Max Wavefront OBJ Exporter v0.97b - (c)2007 guruware
# File Created: 06.12.2015 23:25:46

mtllib room_01.mtl

#
# object room_002
#

v  -29.8000 0.0000 19.8000
v  29.8000 0.0000 19.8000
v  29.8000 -0.0000 -19.8000
v  -29.8000 -0.0000 -19.8000
v  30.0000 30.0000 -20.0000
v  30.0000 30.0000 20.0000
v  -30.0000 30.0000 20.0000
v  -30.0000 30.0000 -20.0000
v  30.0000 1.0000 -20.0000
v  -30.0000 1.0000 -20.0000
v  -29.8000 1.0000 -19.8000
v  29.8000 1.0000 -19.8000
v  -30.0000 1.0000 20.0000
v  -29.8000 1.0000 19.8000
v  30.0000 1.0000 20.0000
v  29.8000 1.0000 19.8000
# 16 vertices

vn 0.0000 1.0000 -0.0000
vn 0.0000 -1.0000 0.0000
vn 0.0000 1.0000 0.0000
vn -0.0000 1.0000 -0.0000
vn 0.0000 0.0000 1.0000
vn 1.0000 0.0000 0.0000
vn 0.0000 -0.0000 -1.0000
vn -1.0000 0.0000 0.0000
# 8 vertex normals

vt 0.5831 0.5843 0.0000
vt 0.5831 0.0103 0.0000
vt 0.9644 0.0103 0.0000
vt 0.9644 0.5843 0.0000
vt 0.0056 0.5848 0.0000
vt 0.0056 0.2081 0.0000
vt 0.5706 0.2081 0.0000
vt 0.5706 0.5848 0.0000
vt 0.9805 0.0084 0.0000
vt 0.9805 0.5862 0.0000
vt 0.9786 0.5842 0.0000
vt 0.9786 0.0103 0.0000
vt 0.9805 0.3936 0.0000
vt 0.9786 0.3916 0.0000
vt 0.0055 0.5931 0.0000
vt 0.8370 0.5931 0.0000
vt 0.8370 0.9950 0.0000
vt 0.0055 0.9950 0.0000
vt 0.5598 0.5931 0.0000
vt 0.5598 0.9950 0.0000
vt 0.9689 0.5842 0.0000
vt 0.9689 0.0103 0.0000
vt 0.9689 0.3916 0.0000
# 23 texture coords

g room_002
usemtl 01___Default
s off
f 1/1/1 2/2/1 3/3/1 
f 3/3/1 4/4/1 1/1/1 
f 5/5/2 6/6/2 7/7/2 
f 7/7/2 8/8/2 5/5/2 
f 9/9/3 10/10/3 11/11/3 
f 11/11/1 12/12/1 9/9/1 
f 10/9/1 13/13/1 14/14/1 
f 14/14/1 11/12/1 10/9/1 
f 13/9/1 15/10/1 16/11/1 
f 16/11/1 14/12/1 13/9/1 
f 15/9/4 9/13/4 12/14/4 
f 12/14/4 16/12/4 15/9/4 
f 5/15/5 8/16/5 10/17/5 
f 10/17/5 9/18/5 5/15/5 
f 8/15/6 7/19/6 13/20/6 
f 13/20/6 10/18/6 8/15/6 
f 7/15/7 6/16/7 15/17/7 
f 15/17/7 13/18/7 7/15/7 
f 6/15/8 5/19/8 9/20/8 
f 9/20/8 15/18/8 6/15/8 
f 4/21/5 3/22/5 12/12/5 
f 12/12/5 11/11/5 4/21/5 
f 3/23/8 2/22/8 16/12/8 
f 16/12/8 12/14/8 3/23/8 
f 2/21/7 1/22/7 14/12/7 
f 14/12/7 16/11/7 2/21/7 
f 1/23/6 4/22/6 11/12/6 
f 11/12/6 14/14/6 1/23/6 
# 28 faces

