  0
SECTION
  2
HEADER
  9
$ACADVER
  1
AC1014
  9
$HANDSEED
  5
FFFF
  9
$MEASUREMENT
 70
     1
  0
ENDSEC
  0
SECTION
  2
TABLES
  0
TABLE
  2
VPORT
  5
8
330
0
100
AcDbSymbolTable
 70
     4
  0
VPORT
  5
2E
330
8
100
AcDbSymbolTableRecord
100
AcDbViewportTableRecord
  2
*ACTIVE
 70
     0
 10
0.0
 20
0.0
 11
1.0
 21
1.0
 12
210.0
 22
148.5
 13
0.0
 23
0.0
 14
10.0
 24
10.0
 15
10.0
 25
10.0
 16
0.0
 26
0.0
 36
1.0
 17
0.0
 27
0.0
 37
0.0
 40
341.0
 41
1.24
 42
50.0
 43
0.0
 44
0.0
 50
0.0
 51
0.0
 71
     0
 72
   100
 73
     1
 74
     3
 75
     0
 76
     0
 77
     0
 78
     0
  0
ENDTAB
  0
TABLE
  2
LTYPE
  5
5
330
0
100
AcDbSymbolTable
 70
     1
  0
LTYPE
  5
14
330
5
100
AcDbSymbolTableRecord
100
AcDbLinetypeTableRecord
  2
BYBLOCK
 70
     0
  3

 72
    65
 73
     0
 40
0.0
  0
LTYPE
  5
15
330
5
100
AcDbSymbolTableRecord
100
AcDbLinetypeTableRecord
  2
BYLAYER
 70
     0
  3

 72
    65
 73
     0
 40
0.0
  0
LTYPE
  5
16
330
5
100
AcDbSymbolTableRecord
100
AcDbLinetypeTableRecord
  2
CONTINUOUS
 70
     0
  3
Solid line
 72
    65
 73
     0
 40
0.0
  0
ENDTAB
  0
TABLE
  2
LAYER
  5
2
100
AcDbSymbolTable
 70
5
  0
LAYER
  5
50
100
AcDbSymbolTableRecord
100
AcDbLayerTableRecord
  2
0
 70
0
  6
CONTINUOUS
  0
LAYER
  5
51
100
AcDbSymbolTableRecord
100
AcDbLayerTableRecord
  2
M$BEL$1$100$$PCAE-PLOTVIEW$
 70
0
  6
CONTINUOUS
  0
LAYER
  5
52
100
AcDbSymbolTableRecord
100
AcDbLayerTableRecord
  2
VOM$SYSTEM$VORDEFINIERT
 70
0
  6
CONTINUOUS
  0
LAYER
  5
53
100
AcDbSymbolTableRecord
100
AcDbLayerTableRecord
  2
DOORS
 70
0
  6
CONTINUOUS
  0
LAYER
  5
54
100
AcDbSymbolTableRecord
100
AcDbLayerTableRecord
  2
WINDOWS
 70
0
  6
CONTINUOUS
  0
ENDTAB
  0
TABLE
  2
STYLE
  5
3
330
0
100
AcDbSymbolTable
 70
     1
  0
STYLE
  5
11
330
3
100
AcDbSymbolTableRecord
100
AcDbTextStyleTableRecord
  2
STANDARD
 70
     0
 40
0.0
 41
1.0
 50
0.0
 71
     0
 42
2.5
  3
txt
  4

  0
ENDTAB
  0
TABLE
  2
VIEW
  5
6
330
0
100
AcDbSymbolTable
 70
     0
  0
ENDTAB
  0
TABLE
  2
UCS
  5
7
330
0
100
AcDbSymbolTable
 70
     0
  0
ENDTAB
  0
TABLE
  2
APPID
  5
9
330
0
100
AcDbSymbolTable
 70
     2
  0
APPID
  5
12
330
9
100
AcDbSymbolTableRecord
100
AcDbRegAppTableRecord
  2
ACAD
 70
     0
  0
ENDTAB
  0
TABLE
  2
DIMSTYLE
  5
A
330
0
100
AcDbSymbolTable
 70
     1
  0
DIMSTYLE
105
27
330
A
100
AcDbSymbolTableRecord
100
AcDbDimStyleTableRecord
  2
ISO-25
 70
     0
  3

  4

  5

  6

  7

 40
1.0
 41
2.5
 42
0.625
 43
3.75
 44
1.25
 45
0.0
 46
0.0
 47
0.0
 48
0.0
140
2.5
141
2.5
142
0.0
143
0.03937007874016
144
1.0
145
0.0
146
1.0
147
0.625
 71
     0
 72
     0
 73
     0
 74
     0
 75
     0
 76
     0
 77
     1
 78
     8
170
     0
171
     3
172
     1
173
     0
174
     0
175
     0
176
     0
177
     0
178
     0
270
     2
271
     2
272
     2
273
     2
274
     3
340
11
275
     0
280
     0
281
     0
282
     0
283
     0
284
     8
285
     0
286
     0
287
     3
288
     0
  0
ENDTAB
  0
TABLE
  2
BLOCK_RECORD
  5
1
330
0
100
AcDbSymbolTable
 70
     1
  0
BLOCK_RECORD
  5
1F
330
1
100
AcDbSymbolTableRecord
100
AcDbBlockTableRecord
  2
*MODEL_SPACE
  0
BLOCK_RECORD
  5
1B
330
1
100
AcDbSymbolTableRecord
100
AcDbBlockTableRecord
  2
*PAPER_SPACE
  0
ENDTAB
  0
ENDSEC
  0
SECTION
  2
BLOCKS
  0
BLOCK
  5
20
330
1F
100
AcDbEntity
  8
0
100
AcDbBlockBegin
  2
*MODEL_SPACE
 70
     0
 10
0.0
 20
0.0
 30
0.0
  3
*MODEL_SPACE
  1

  0
ENDBLK
  5
21
330
1F
100
AcDbEntity
  8
0
100
AcDbBlockEnd
  0
BLOCK
  5
1C
330
1B
100
AcDbEntity
 67
     1
  8
0
100
AcDbBlockBegin
  2
*PAPER_SPACE
  1

  0
ENDBLK
  5
1D
330
1B
100
AcDbEntity
 67
     1
  8
0
100
AcDbBlockEnd
  0
ENDSEC
  0
SECTION
  2
ENTITIES
  0
LINE
  5
100
100
AcDbEntity
  8
VOM$SYSTEM$VORDEFINIERT
 62
3
100
AcDbLine
 10
9.402102
 20
501.218468
 30
0.0
 11
9.402102
 21
458.121156
 31
0.0
  0
LINE
  5
101
100
AcDbEntity
  8
VOM$SYSTEM$VORDEFINIERT
 62
3
100
AcDbLine
 10
9.402102
 20
458.121156
 30
0.0
 11
19.542654
 21
458.121156
 31
0.0
  0
LINE
  5
102
100
AcDbEntity
  8
VOM$SYSTEM$VORDEFINIERT
 62
3
100
AcDbLine
 10
19.542654
 20
458.121156
 30
0.0
 11
19.542654
 21
491.077932
 31
0.0
  0
LINE
  5
103
100
AcDbEntity
  8
VOM$SYSTEM$VORDEFINIERT
 62
3
100
AcDbLine
 10
19.542654
 20
491.077932
 30
0.0
 11
100.667000
 21
491.077932
 31
0.0
  0
LINE
  5
104
100
AcDbEntity
  8
VOM$SYSTEM$VORDEFINIERT
 62
3
100
AcDbLine
 10
100.667000
 20
491.077932
 30
0.0
 11
100.667000
 21
501.218468
 31
0.0
  0
LINE
  5
105
100
AcDbEntity
  8
VOM$SYSTEM$VORDEFINIERT
 62
3
100
AcDbLine
 10
100.667000
 20
501.218468
 30
0.0
 11
9.402102
 21
501.218468
 31
0.0
  0
LINE
  5
106
100
AcDbEntity
  8
VOM$SYSTEM$VORDEFINIERT
 62
3
100
AcDbLine
 10
9.402102
 20
399.813028
 30
0.0
 11
9.402102
 21
318.688684
 31
0.0
  0
LINE
  5
107
100
AcDbEntity
  8
VOM$SYSTEM$VORDEFINIERT
 62
3
100
AcDbLine
 10
9.402102
 20
318.688684
 30
0.0
 11
19.542654
 21
318.688684
 31
0.0
  0
LINE
  5
108
100
AcDbEntity
  8
VOM$SYSTEM$VORDEFINIERT
 62
3
100
AcDbLine
 10
19.542654
 20
318.688684
 30
0.0
 11
19.542654
 21
369.391404
 31
0.0
  0
LINE
  5
109
100
AcDbEntity
  8
VOM$SYSTEM$VORDEFINIERT
 62
3
100
AcDbLine
 10
19.542654
 20
369.391404
 30
0.0
 11
166.580528
 21
369.391404
 31
0.0
  0
LINE
  5
10a
100
AcDbEntity
  8
VOM$SYSTEM$VORDEFINIERT
 62
3
100
AcDbLine
 10
166.580528
 20
369.391404
 30
0.0
 11
166.580528
 21
326.294092
 31
0.0
  0
LINE
  5
10b
100
AcDbEntity
  8
VOM$SYSTEM$VORDEFINIERT
 62
3
100
AcDbLine
 10
166.580528
 20
326.294092
 30
0.0
 11
174.185936
 21
326.294092
 31
0.0
  0
LINE
  5
10c
100
AcDbEntity
  8
VOM$SYSTEM$VORDEFINIERT
 62
3
100
AcDbLine
 10
174.185936
 20
326.294092
 30
0.0
 11
174.185936
 21
369.391404
 31
0.0
  0
LINE
  5
10d
100
AcDbEntity
  8
VOM$SYSTEM$VORDEFINIERT
 62
3
100
AcDbLine
 10
174.185936
 20
369.391404
 30
0.0
 11
184.326488
 21
369.391404
 31
0.0
  0
LINE
  5
10e
100
AcDbEntity
  8
VOM$SYSTEM$VORDEFINIERT
 62
3
100
AcDbLine
 10
184.326488
 20
369.391404
 30
0.0
 11
184.326488
 21
376.996812
 31
0.0
  0
LINE
  5
10f
100
AcDbEntity
  8
VOM$SYSTEM$VORDEFINIERT
 62
3
100
AcDbLine
 10
184.326488
 20
376.996812
 30
0.0
 11
19.542654
 21
376.996812
 31
0.0
  0
LINE
  5
110
100
AcDbEntity
  8
VOM$SYSTEM$VORDEFINIERT
 62
3
100
AcDbLine
 10
19.542654
 20
376.996812
 30
0.0
 11
19.542654
 21
399.813028
 31
0.0
  0
LINE
  5
111
100
AcDbEntity
  8
VOM$SYSTEM$VORDEFINIERT
 62
3
100
AcDbLine
 10
19.542654
 20
399.813028
 30
0.0
 11
9.402102
 21
399.813028
 31
0.0
  0
LINE
  5
112
100
AcDbEntity
  8
VOM$SYSTEM$VORDEFINIERT
 62
3
100
AcDbLine
 10
166.580528
 20
288.267060
 30
0.0
 11
166.580528
 21
232.494060
 31
0.0
  0
LINE
  5
113
100
AcDbEntity
  8
VOM$SYSTEM$VORDEFINIERT
 62
3
100
AcDbLine
 10
166.580528
 20
232.494060
 30
0.0
 11
19.542654
 21
232.494060
 31
0.0
  0
LINE
  5
114
100
AcDbEntity
  8
VOM$SYSTEM$VORDEFINIERT
 62
3
100
AcDbLine
 10
19.542654
 20
232.494060
 30
0.0
 11
19.542654
 21
265.450820
 31
0.0
  0
LINE
  5
115
100
AcDbEntity
  8
VOM$SYSTEM$VORDEFINIERT
 62
3
100
AcDbLine
 10
19.542654
 20
265.450820
 30
0.0
 11
9.402102
 21
265.450820
 31
0.0
  0
LINE
  5
116
100
AcDbEntity
  8
VOM$SYSTEM$VORDEFINIERT
 62
3
100
AcDbLine
 10
9.402102
 20
265.450820
 30
0.0
 11
9.402102
 21
151.369700
 31
0.0
  0
LINE
  5
117
100
AcDbEntity
  8
VOM$SYSTEM$VORDEFINIERT
 62
3
100
AcDbLine
 10
9.402102
 20
151.369700
 30
0.0
 11
19.542654
 21
151.369700
 31
0.0
  0
LINE
  5
118
100
AcDbEntity
  8
VOM$SYSTEM$VORDEFINIERT
 62
3
100
AcDbLine
 10
19.542654
 20
151.369700
 30
0.0
 11
19.542654
 21
224.888660
 31
0.0
  0
LINE
  5
119
100
AcDbEntity
  8
VOM$SYSTEM$VORDEFINIERT
 62
3
100
AcDbLine
 10
19.542654
 20
224.888660
 30
0.0
 11
174.185936
 21
224.888660
 31
0.0
  0
LINE
  5
11a
100
AcDbEntity
  8
VOM$SYSTEM$VORDEFINIERT
 62
3
100
AcDbLine
 10
174.185936
 20
224.888660
 30
0.0
 11
174.185936
 21
288.267060
 31
0.0
  0
LINE
  5
11b
100
AcDbEntity
  8
VOM$SYSTEM$VORDEFINIERT
 62
3
100
AcDbLine
 10
174.185936
 20
288.267060
 30
0.0
 11
166.580528
 21
288.267060
 31
0.0
  0
LINE
  5
11c
100
AcDbEntity
  8
VOM$SYSTEM$VORDEFINIERT
 62
3
100
AcDbLine
 10
567.132016
 20
311.083276
 30
0.0
 11
567.132016
 21
275.591372
 31
0.0
  0
LINE
  5
11d
100
AcDbEntity
  8
VOM$SYSTEM$VORDEFINIERT
 62
3
100
AcDbLine
 10
567.132016
 20
275.591372
 30
0.0
 11
435.304952
 21
275.591372
 31
0.0
  0
LINE
  5
11e
100
AcDbEntity
  8
VOM$SYSTEM$VORDEFINIERT
 62
3
100
AcDbLine
 10
435.304952
 20
275.591372
 30
0.0
 11
435.304952
 21
267.985964
 31
0.0
  0
LINE
  5
11f
100
AcDbEntity
  8
VOM$SYSTEM$VORDEFINIERT
 62
3
100
AcDbLine
 10
435.304952
 20
267.985964
 30
0.0
 11
445.445488
 21
267.985964
 31
0.0
  0
LINE
  5
120
100
AcDbEntity
  8
VOM$SYSTEM$VORDEFINIERT
 62
3
100
AcDbLine
 10
445.445488
 20
267.985964
 30
0.0
 11
445.445488
 21
197.002156
 31
0.0
  0
LINE
  5
121
100
AcDbEntity
  8
VOM$SYSTEM$VORDEFINIERT
 62
3
100
AcDbLine
 10
445.445488
 20
197.002156
 30
0.0
 11
465.726576
 21
197.002156
 31
0.0
  0
LINE
  5
122
100
AcDbEntity
  8
VOM$SYSTEM$VORDEFINIERT
 62
3
100
AcDbLine
 10
465.726576
 20
197.002156
 30
0.0
 11
465.726576
 21
207.142700
 31
0.0
  0
LINE
  5
123
100
AcDbEntity
  8
VOM$SYSTEM$VORDEFINIERT
 62
3
100
AcDbLine
 10
465.726576
 20
207.142700
 30
0.0
 11
453.050896
 21
207.142700
 31
0.0
  0
LINE
  5
124
100
AcDbEntity
  8
VOM$SYSTEM$VORDEFINIERT
 62
3
100
AcDbLine
 10
453.050896
 20
207.142700
 30
0.0
 11
453.050896
 21
267.985964
 31
0.0
  0
LINE
  5
125
100
AcDbEntity
  8
VOM$SYSTEM$VORDEFINIERT
 62
3
100
AcDbLine
 10
453.050896
 20
267.985964
 30
0.0
 11
567.132016
 21
267.985964
 31
0.0
  0
LINE
  5
126
100
AcDbEntity
  8
VOM$SYSTEM$VORDEFINIERT
 62
3
100
AcDbLine
 10
567.132016
 20
267.985964
 30
0.0
 11
567.132016
 21
257.845412
 31
0.0
  0
LINE
  5
127
100
AcDbEntity
  8
VOM$SYSTEM$VORDEFINIERT
 62
3
100
AcDbLine
 10
567.132016
 20
257.845412
 30
0.0
 11
577.272568
 21
257.845412
 31
0.0
  0
LINE
  5
128
100
AcDbEntity
  8
VOM$SYSTEM$VORDEFINIERT
 62
3
100
AcDbLine
 10
577.272568
 20
257.845412
 30
0.0
 11
577.272568
 21
311.083276
 31
0.0
  0
LINE
  5
129
100
AcDbEntity
  8
VOM$SYSTEM$VORDEFINIERT
 62
3
100
AcDbLine
 10
577.272568
 20
311.083276
 30
0.0
 11
567.132016
 21
311.083276
 31
0.0
  0
LINE
  5
12a
100
AcDbEntity
  8
VOM$SYSTEM$VORDEFINIERT
 62
3
100
AcDbLine
 10
9.402102
 20
52.499412
 30
0.0
 11
9.402102
 21
9.402084
 31
0.0
  0
LINE
  5
12b
100
AcDbEntity
  8
VOM$SYSTEM$VORDEFINIERT
 62
3
100
AcDbLine
 10
9.402102
 20
9.402084
 30
0.0
 11
52.499413
 21
9.402084
 31
0.0
  0
LINE
  5
12c
100
AcDbEntity
  8
VOM$SYSTEM$VORDEFINIERT
 62
3
100
AcDbLine
 10
52.499413
 20
9.402084
 30
0.0
 11
52.499413
 21
19.542644
 31
0.0
  0
LINE
  5
12d
100
AcDbEntity
  8
VOM$SYSTEM$VORDEFINIERT
 62
3
100
AcDbLine
 10
52.499413
 20
19.542644
 30
0.0
 11
19.542654
 21
19.542644
 31
0.0
  0
LINE
  5
12e
100
AcDbEntity
  8
VOM$SYSTEM$VORDEFINIERT
 62
3
100
AcDbLine
 10
19.542654
 20
19.542644
 30
0.0
 11
19.542654
 21
52.499412
 31
0.0
  0
LINE
  5
12f
100
AcDbEntity
  8
VOM$SYSTEM$VORDEFINIERT
 62
3
100
AcDbLine
 10
19.542654
 20
52.499412
 30
0.0
 11
9.402102
 21
52.499412
 31
0.0
  0
LINE
  5
130
100
AcDbEntity
  8
VOM$SYSTEM$VORDEFINIERT
 62
3
100
AcDbLine
 10
224.888656
 20
501.218468
 30
0.0
 11
224.888656
 21
491.077932
 31
0.0
  0
LINE
  5
131
100
AcDbEntity
  8
VOM$SYSTEM$VORDEFINIERT
 62
3
100
AcDbLine
 10
224.888656
 20
491.077932
 30
0.0
 11
247.704888
 21
491.077932
 31
0.0
  0
LINE
  5
132
100
AcDbEntity
  8
VOM$SYSTEM$VORDEFINIERT
 62
3
100
AcDbLine
 10
247.704888
 20
491.077932
 30
0.0
 11
247.704888
 21
376.996812
 31
0.0
  0
LINE
  5
133
100
AcDbEntity
  8
VOM$SYSTEM$VORDEFINIERT
 62
3
100
AcDbLine
 10
247.704888
 20
376.996812
 30
0.0
 11
224.888656
 21
376.996812
 31
0.0
  0
LINE
  5
134
100
AcDbEntity
  8
VOM$SYSTEM$VORDEFINIERT
 62
3
100
AcDbLine
 10
224.888656
 20
376.996812
 30
0.0
 11
224.888656
 21
369.391404
 31
0.0
  0
LINE
  5
135
100
AcDbEntity
  8
VOM$SYSTEM$VORDEFINIERT
 62
3
100
AcDbLine
 10
224.888656
 20
369.391404
 30
0.0
 11
247.704888
 21
369.391404
 31
0.0
  0
LINE
  5
136
100
AcDbEntity
  8
VOM$SYSTEM$VORDEFINIERT
 62
3
100
AcDbLine
 10
247.704888
 20
369.391404
 30
0.0
 11
247.704888
 21
247.704876
 31
0.0
  0
LINE
  5
137
100
AcDbEntity
  8
VOM$SYSTEM$VORDEFINIERT
 62
3
100
AcDbLine
 10
247.704888
 20
247.704876
 30
0.0
 11
255.310296
 21
247.704876
 31
0.0
  0
LINE
  5
138
100
AcDbEntity
  8
VOM$SYSTEM$VORDEFINIERT
 62
3
100
AcDbLine
 10
255.310296
 20
247.704876
 30
0.0
 11
255.310296
 21
303.477868
 31
0.0
  0
LINE
  5
139
100
AcDbEntity
  8
VOM$SYSTEM$VORDEFINIERT
 62
3
100
AcDbLine
 10
255.310296
 20
303.477868
 30
0.0
 11
333.899512
 21
303.477868
 31
0.0
  0
LINE
  5
13a
100
AcDbEntity
  8
VOM$SYSTEM$VORDEFINIERT
 62
3
100
AcDbLine
 10
333.899512
 20
303.477868
 30
0.0
 11
333.899512
 21
311.083276
 31
0.0
  0
LINE
  5
13b
100
AcDbEntity
  8
VOM$SYSTEM$VORDEFINIERT
 62
3
100
AcDbLine
 10
333.899512
 20
311.083276
 30
0.0
 11
255.310296
 21
311.083276
 31
0.0
  0
LINE
  5
13c
100
AcDbEntity
  8
VOM$SYSTEM$VORDEFINIERT
 62
3
100
AcDbLine
 10
255.310296
 20
311.083276
 30
0.0
 11
255.310296
 21
491.077932
 31
0.0
  0
LINE
  5
13d
100
AcDbEntity
  8
VOM$SYSTEM$VORDEFINIERT
 62
3
100
AcDbLine
 10
255.310296
 20
491.077932
 30
0.0
 11
285.731928
 21
491.077932
 31
0.0
  0
LINE
  5
13e
100
AcDbEntity
  8
VOM$SYSTEM$VORDEFINIERT
 62
3
100
AcDbLine
 10
285.731928
 20
491.077932
 30
0.0
 11
285.731928
 21
501.218468
 31
0.0
  0
LINE
  5
13f
100
AcDbEntity
  8
VOM$SYSTEM$VORDEFINIERT
 62
3
100
AcDbLine
 10
285.731928
 20
501.218468
 30
0.0
 11
224.888656
 21
501.218468
 31
0.0
  0
LINE
  5
140
100
AcDbEntity
  8
VOM$SYSTEM$VORDEFINIERT
 62
3
100
AcDbLine
 10
349.110328
 20
501.218468
 30
0.0
 11
349.110328
 21
491.077932
 31
0.0
  0
LINE
  5
141
100
AcDbEntity
  8
VOM$SYSTEM$VORDEFINIERT
 62
3
100
AcDbLine
 10
349.110328
 20
491.077932
 30
0.0
 11
382.067088
 21
491.077932
 31
0.0
  0
LINE
  5
142
100
AcDbEntity
  8
VOM$SYSTEM$VORDEFINIERT
 62
3
100
AcDbLine
 10
382.067088
 20
491.077932
 30
0.0
 11
382.067088
 21
311.083276
 31
0.0
  0
LINE
  5
143
100
AcDbEntity
  8
VOM$SYSTEM$VORDEFINIERT
 62
3
100
AcDbLine
 10
382.067088
 20
311.083276
 30
0.0
 11
369.391416
 21
311.083276
 31
0.0
  0
LINE
  5
144
100
AcDbEntity
  8
VOM$SYSTEM$VORDEFINIERT
 62
3
100
AcDbLine
 10
369.391416
 20
311.083276
 30
0.0
 11
369.391416
 21
303.477868
 31
0.0
  0
LINE
  5
145
100
AcDbEntity
  8
VOM$SYSTEM$VORDEFINIERT
 62
3
100
AcDbLine
 10
369.391416
 20
303.477868
 30
0.0
 11
382.067088
 21
303.477868
 31
0.0
  0
LINE
  5
146
100
AcDbEntity
  8
VOM$SYSTEM$VORDEFINIERT
 62
3
100
AcDbLine
 10
382.067088
 20
303.477868
 30
0.0
 11
382.067088
 21
242.634604
 31
0.0
  0
LINE
  5
147
100
AcDbEntity
  8
VOM$SYSTEM$VORDEFINIERT
 62
3
100
AcDbLine
 10
382.067088
 20
242.634604
 30
0.0
 11
389.672504
 21
242.634604
 31
0.0
  0
LINE
  5
148
100
AcDbEntity
  8
VOM$SYSTEM$VORDEFINIERT
 62
3
100
AcDbLine
 10
389.672504
 20
242.634604
 30
0.0
 11
389.672504
 21
267.985964
 31
0.0
  0
LINE
  5
149
100
AcDbEntity
  8
VOM$SYSTEM$VORDEFINIERT
 62
3
100
AcDbLine
 10
389.672504
 20
267.985964
 30
0.0
 11
399.813048
 21
267.985964
 31
0.0
  0
LINE
  5
14a
100
AcDbEntity
  8
VOM$SYSTEM$VORDEFINIERT
 62
3
100
AcDbLine
 10
399.813048
 20
267.985964
 30
0.0
 11
399.813048
 21
275.591372
 31
0.0
  0
LINE
  5
14b
100
AcDbEntity
  8
VOM$SYSTEM$VORDEFINIERT
 62
3
100
AcDbLine
 10
399.813048
 20
275.591372
 30
0.0
 11
389.672504
 21
275.591372
 31
0.0
  0
LINE
  5
14c
100
AcDbEntity
  8
VOM$SYSTEM$VORDEFINIERT
 62
3
100
AcDbLine
 10
389.672504
 20
275.591372
 30
0.0
 11
389.672504
 21
491.077932
 31
0.0
  0
LINE
  5
14d
100
AcDbEntity
  8
VOM$SYSTEM$VORDEFINIERT
 62
3
100
AcDbLine
 10
389.672504
 20
491.077932
 30
0.0
 11
394.742768
 21
491.077932
 31
0.0
  0
LINE
  5
14e
100
AcDbEntity
  8
VOM$SYSTEM$VORDEFINIERT
 62
3
100
AcDbLine
 10
394.742768
 20
491.077932
 30
0.0
 11
394.742768
 21
501.218468
 31
0.0
  0
LINE
  5
14f
100
AcDbEntity
  8
VOM$SYSTEM$VORDEFINIERT
 62
3
100
AcDbLine
 10
394.742768
 20
501.218468
 30
0.0
 11
349.110328
 21
501.218468
 31
0.0
  0
LINE
  5
150
100
AcDbEntity
  8
VOM$SYSTEM$VORDEFINIERT
 62
3
100
AcDbLine
 10
442.910352
 20
501.218468
 30
0.0
 11
442.910352
 21
491.077932
 31
0.0
  0
LINE
  5
151
100
AcDbEntity
  8
VOM$SYSTEM$VORDEFINIERT
 62
3
100
AcDbLine
 10
442.910352
 20
491.077932
 30
0.0
 11
567.132016
 21
491.077932
 31
0.0
  0
LINE
  5
152
100
AcDbEntity
  8
VOM$SYSTEM$VORDEFINIERT
 62
3
100
AcDbLine
 10
567.132016
 20
491.077932
 30
0.0
 11
567.132016
 21
374.461676
 31
0.0
  0
LINE
  5
153
100
AcDbEntity
  8
VOM$SYSTEM$VORDEFINIERT
 62
3
100
AcDbLine
 10
567.132016
 20
374.461676
 30
0.0
 11
577.272568
 21
374.461676
 31
0.0
  0
LINE
  5
154
100
AcDbEntity
  8
VOM$SYSTEM$VORDEFINIERT
 62
3
100
AcDbLine
 10
577.272568
 20
374.461676
 30
0.0
 11
577.272568
 21
501.218468
 31
0.0
  0
LINE
  5
155
100
AcDbEntity
  8
VOM$SYSTEM$VORDEFINIERT
 62
3
100
AcDbLine
 10
577.272568
 20
501.218468
 30
0.0
 11
442.910352
 21
501.218468
 31
0.0
  0
LINE
  5
156
100
AcDbEntity
  8
VOM$SYSTEM$VORDEFINIERT
 62
3
100
AcDbLine
 10
567.132016
 20
217.283252
 30
0.0
 11
567.132016
 21
207.142700
 31
0.0
  0
LINE
  5
157
100
AcDbEntity
  8
VOM$SYSTEM$VORDEFINIERT
 62
3
100
AcDbLine
 10
567.132016
 20
207.142700
 30
0.0
 11
498.683352
 21
207.142700
 31
0.0
  0
LINE
  5
158
100
AcDbEntity
  8
VOM$SYSTEM$VORDEFINIERT
 62
3
100
AcDbLine
 10
498.683352
 20
207.142700
 30
0.0
 11
498.683352
 21
197.002156
 31
0.0
  0
LINE
  5
159
100
AcDbEntity
  8
VOM$SYSTEM$VORDEFINIERT
 62
3
100
AcDbLine
 10
498.683352
 20
197.002156
 30
0.0
 11
511.359032
 21
197.002156
 31
0.0
  0
LINE
  5
15a
100
AcDbEntity
  8
VOM$SYSTEM$VORDEFINIERT
 62
3
100
AcDbLine
 10
511.359032
 20
197.002156
 30
0.0
 11
511.359032
 21
181.791348
 31
0.0
  0
LINE
  5
15b
100
AcDbEntity
  8
VOM$SYSTEM$VORDEFINIERT
 62
3
100
AcDbLine
 10
511.359032
 20
181.791348
 30
0.0
 11
521.499568
 21
181.791348
 31
0.0
  0
LINE
  5
15c
100
AcDbEntity
  8
VOM$SYSTEM$VORDEFINIERT
 62
3
100
AcDbLine
 10
521.499568
 20
181.791348
 30
0.0
 11
521.499568
 21
197.002156
 31
0.0
  0
LINE
  5
15d
100
AcDbEntity
  8
VOM$SYSTEM$VORDEFINIERT
 62
3
100
AcDbLine
 10
521.499568
 20
197.002156
 30
0.0
 11
577.272568
 21
197.002156
 31
0.0
  0
LINE
  5
15e
100
AcDbEntity
  8
VOM$SYSTEM$VORDEFINIERT
 62
3
100
AcDbLine
 10
577.272568
 20
197.002156
 30
0.0
 11
577.272568
 21
217.283252
 31
0.0
  0
LINE
  5
15f
100
AcDbEntity
  8
VOM$SYSTEM$VORDEFINIERT
 62
3
100
AcDbLine
 10
577.272568
 20
217.283252
 30
0.0
 11
567.132016
 21
217.283252
 31
0.0
  0
LINE
  5
160
100
AcDbEntity
  8
VOM$SYSTEM$VORDEFINIERT
 62
3
100
AcDbLine
 10
511.359032
 20
49.964268
 30
0.0
 11
511.359032
 21
19.542644
 31
0.0
  0
LINE
  5
161
100
AcDbEntity
  8
VOM$SYSTEM$VORDEFINIERT
 62
3
100
AcDbLine
 10
511.359032
 20
19.542644
 30
0.0
 11
359.250864
 21
19.542644
 31
0.0
  0
LINE
  5
162
100
AcDbEntity
  8
VOM$SYSTEM$VORDEFINIERT
 62
3
100
AcDbLine
 10
359.250864
 20
19.542644
 30
0.0
 11
359.250864
 21
9.402084
 31
0.0
  0
LINE
  5
163
100
AcDbEntity
  8
VOM$SYSTEM$VORDEFINIERT
 62
3
100
AcDbLine
 10
359.250864
 20
9.402084
 30
0.0
 11
521.499568
 21
9.402084
 31
0.0
  0
LINE
  5
164
100
AcDbEntity
  8
VOM$SYSTEM$VORDEFINIERT
 62
3
100
AcDbLine
 10
521.499568
 20
9.402084
 30
0.0
 11
521.499568
 21
49.964268
 31
0.0
  0
LINE
  5
165
100
AcDbEntity
  8
VOM$SYSTEM$VORDEFINIERT
 62
3
100
AcDbLine
 10
521.499568
 20
49.964268
 30
0.0
 11
511.359032
 21
49.964268
 31
0.0
  0
LINE
  5
166
100
AcDbEntity
  8
VOM$SYSTEM$VORDEFINIERT
 62
3
100
AcDbLine
 10
186.861624
 20
19.542644
 30
0.0
 11
186.861624
 21
9.402084
 31
0.0
  0
LINE
  5
167
100
AcDbEntity
  8
VOM$SYSTEM$VORDEFINIERT
 62
3
100
AcDbLine
 10
186.861624
 20
9.402084
 30
0.0
 11
288.267056
 21
9.402084
 31
0.0
  0
LINE
  5
168
100
AcDbEntity
  8
VOM$SYSTEM$VORDEFINIERT
 62
3
100
AcDbLine
 10
288.267056
 20
9.402084
 30
0.0
 11
288.267056
 21
19.542644
 31
0.0
  0
LINE
  5
169
100
AcDbEntity
  8
VOM$SYSTEM$VORDEFINIERT
 62
3
100
AcDbLine
 10
288.267056
 20
19.542644
 30
0.0
 11
186.861624
 21
19.542644
 31
0.0
  0
LINE
  5
16a
100
AcDbEntity
  8
VOM$SYSTEM$VORDEFINIERT
 62
3
100
AcDbLine
 10
511.359032
 20
128.553484
 30
0.0
 11
511.359032
 21
100.666988
 31
0.0
  0
LINE
  5
16b
100
AcDbEntity
  8
VOM$SYSTEM$VORDEFINIERT
 62
3
100
AcDbLine
 10
511.359032
 20
100.666988
 30
0.0
 11
521.499568
 21
100.666988
 31
0.0
  0
LINE
  5
16c
100
AcDbEntity
  8
VOM$SYSTEM$VORDEFINIERT
 62
3
100
AcDbLine
 10
521.499568
 20
100.666988
 30
0.0
 11
521.499568
 21
128.553484
 31
0.0
  0
LINE
  5
16d
100
AcDbEntity
  8
VOM$SYSTEM$VORDEFINIERT
 62
3
100
AcDbLine
 10
521.499568
 20
128.553484
 30
0.0
 11
511.359032
 21
128.553484
 31
0.0
  0
LINE
  5
16e
100
AcDbEntity
  8
VOM$SYSTEM$VORDEFINIERT
 62
3
100
AcDbLine
 10
151.369720
 20
501.218468
 30
0.0
 11
151.369720
 21
491.077932
 31
0.0
  0
LINE
  5
16f
100
AcDbEntity
  8
VOM$SYSTEM$VORDEFINIERT
 62
3
100
AcDbLine
 10
151.369720
 20
491.077932
 30
0.0
 11
176.721080
 21
491.077932
 31
0.0
  0
LINE
  5
170
100
AcDbEntity
  8
VOM$SYSTEM$VORDEFINIERT
 62
3
100
AcDbLine
 10
176.721080
 20
491.077932
 30
0.0
 11
176.721080
 21
501.218468
 31
0.0
  0
LINE
  5
171
100
AcDbEntity
  8
VOM$SYSTEM$VORDEFINIERT
 62
3
100
AcDbLine
 10
176.721080
 20
501.218468
 30
0.0
 11
151.369720
 21
501.218468
 31
0.0
  0
LINE
  5
172
100
AcDbEntity
  8
DOORS
 62
1
100
AcDbLine
 10
184.326488
 20
376.996812
 30
0.0
 11
224.888656
 21
376.996812
 31
0.0
  0
LINE
  5
173
100
AcDbEntity
  8
DOORS
 62
1
100
AcDbLine
 10
184.326488
 20
369.391404
 30
0.0
 11
224.888656
 21
369.391404
 31
0.0
  0
LINE
  5
174
100
AcDbEntity
  8
DOORS
 62
1
100
AcDbLine
 10
166.580528
 20
326.294092
 30
0.0
 11
166.580528
 21
288.267060
 31
0.0
  0
LINE
  5
175
100
AcDbEntity
  8
DOORS
 62
1
100
AcDbLine
 10
174.185936
 20
326.294092
 30
0.0
 11
174.185936
 21
288.267060
 31
0.0
  0
LINE
  5
176
100
AcDbEntity
  8
DOORS
 62
1
100
AcDbLine
 10
333.899512
 20
311.083276
 30
0.0
 11
369.391416
 21
311.083276
 31
0.0
  0
LINE
  5
177
100
AcDbEntity
  8
DOORS
 62
1
100
AcDbLine
 10
333.899512
 20
303.477868
 30
0.0
 11
369.391416
 21
303.477868
 31
0.0
  0
LINE
  5
178
100
AcDbEntity
  8
DOORS
 62
1
100
AcDbLine
 10
399.813048
 20
275.591372
 30
0.0
 11
435.304952
 21
275.591372
 31
0.0
  0
LINE
  5
179
100
AcDbEntity
  8
DOORS
 62
1
100
AcDbLine
 10
399.813048
 20
267.985964
 30
0.0
 11
435.304952
 21
267.985964
 31
0.0
  0
LINE
  5
17a
100
AcDbEntity
  8
DOORS
 62
1
100
AcDbLine
 10
577.272568
 20
257.845412
 30
0.0
 11
577.272568
 21
217.283252
 31
0.0
  0
LINE
  5
17b
100
AcDbEntity
  8
DOORS
 62
1
100
AcDbLine
 10
567.132016
 20
257.845412
 30
0.0
 11
567.132016
 21
217.283252
 31
0.0
  0
LINE
  5
17c
100
AcDbEntity
  8
DOORS
 62
1
100
AcDbLine
 10
465.726576
 20
207.142700
 30
0.0
 11
498.683352
 21
207.142700
 31
0.0
  0
LINE
  5
17d
100
AcDbEntity
  8
DOORS
 62
1
100
AcDbLine
 10
465.726576
 20
197.002156
 30
0.0
 11
498.683352
 21
197.002156
 31
0.0
  0
LINE
  5
17e
100
AcDbEntity
  8
WINDOWS
 62
1
100
AcDbLine
 10
9.402102
 20
458.121156
 30
0.0
 11
9.402102
 21
399.813028
 31
0.0
  0
LINE
  5
17f
100
AcDbEntity
  8
WINDOWS
 62
1
100
AcDbLine
 10
19.542654
 20
458.121156
 30
0.0
 11
19.542654
 21
399.813028
 31
0.0
  0
LINE
  5
180
100
AcDbEntity
  8
WINDOWS
 62
1
100
AcDbLine
 10
9.402102
 20
318.688684
 30
0.0
 11
9.402102
 21
265.450820
 31
0.0
  0
LINE
  5
181
100
AcDbEntity
  8
WINDOWS
 62
1
100
AcDbLine
 10
19.542654
 20
318.688684
 30
0.0
 11
19.542654
 21
265.450820
 31
0.0
  0
LINE
  5
182
100
AcDbEntity
  8
WINDOWS
 62
1
100
AcDbLine
 10
9.402102
 20
151.369700
 30
0.0
 11
9.402102
 21
52.499412
 31
0.0
  0
LINE
  5
183
100
AcDbEntity
  8
WINDOWS
 62
1
100
AcDbLine
 10
19.542654
 20
151.369700
 30
0.0
 11
19.542654
 21
52.499412
 31
0.0
  0
LINE
  5
184
100
AcDbEntity
  8
WINDOWS
 62
1
100
AcDbLine
 10
176.698320
 20
501.218468
 30
0.0
 11
224.879800
 21
501.218468
 31
0.0
  0
LINE
  5
185
100
AcDbEntity
  8
WINDOWS
 62
1
100
AcDbLine
 10
285.731928
 20
501.218468
 30
0.0
 11
349.110328
 21
501.218468
 31
0.0
  0
LINE
  5
186
100
AcDbEntity
  8
WINDOWS
 62
1
100
AcDbLine
 10
285.731928
 20
491.077932
 30
0.0
 11
349.110328
 21
491.077932
 31
0.0
  0
LINE
  5
187
100
AcDbEntity
  8
WINDOWS
 62
1
100
AcDbLine
 10
567.132016
 20
374.461676
 30
0.0
 11
567.132016
 21
311.083276
 31
0.0
  0
LINE
  5
188
100
AcDbEntity
  8
WINDOWS
 62
1
100
AcDbLine
 10
577.272568
 20
374.461676
 30
0.0
 11
577.272568
 21
311.083276
 31
0.0
  0
LINE
  5
189
100
AcDbEntity
  8
WINDOWS
 62
1
100
AcDbLine
 10
394.742768
 20
501.218468
 30
0.0
 11
442.910352
 21
501.218468
 31
0.0
  0
LINE
  5
18a
100
AcDbEntity
  8
WINDOWS
 62
1
100
AcDbLine
 10
394.742768
 20
491.077932
 30
0.0
 11
442.910352
 21
491.077932
 31
0.0
  0
LINE
  5
18b
100
AcDbEntity
  8
WINDOWS
 62
1
100
AcDbLine
 10
52.499413
 20
19.542644
 30
0.0
 11
186.861624
 21
19.542644
 31
0.0
  0
LINE
  5
18c
100
AcDbEntity
  8
WINDOWS
 62
1
100
AcDbLine
 10
52.499413
 20
9.402084
 30
0.0
 11
186.861624
 21
9.402084
 31
0.0
  0
LINE
  5
18d
100
AcDbEntity
  8
WINDOWS
 62
1
100
AcDbLine
 10
288.267056
 20
19.542644
 30
0.0
 11
359.250864
 21
19.542644
 31
0.0
  0
LINE
  5
18e
100
AcDbEntity
  8
WINDOWS
 62
1
100
AcDbLine
 10
288.267056
 20
9.402084
 30
0.0
 11
359.250864
 21
9.402084
 31
0.0
  0
LINE
  5
18f
100
AcDbEntity
  8
WINDOWS
 62
1
100
AcDbLine
 10
511.359032
 20
181.791348
 30
0.0
 11
511.359032
 21
128.553484
 31
0.0
  0
LINE
  5
190
100
AcDbEntity
  8
WINDOWS
 62
1
100
AcDbLine
 10
521.499568
 20
181.791348
 30
0.0
 11
521.499568
 21
128.553484
 31
0.0
  0
LINE
  5
191
100
AcDbEntity
  8
WINDOWS
 62
1
100
AcDbLine
 10
511.359032
 20
100.666988
 30
0.0
 11
511.359032
 21
49.964268
 31
0.0
  0
LINE
  5
192
100
AcDbEntity
  8
WINDOWS
 62
1
100
AcDbLine
 10
521.499568
 20
100.666988
 30
0.0
 11
521.499568
 21
49.964268
 31
0.0
  0
LINE
  5
193
100
AcDbEntity
  8
WINDOWS
 62
1
100
AcDbLine
 10
100.668192
 20
501.207100
 30
0.0
 11
151.334016
 21
501.207100
 31
0.0
  0
LINE
  5
194
100
AcDbEntity
  8
WINDOWS
 62
1
100
AcDbLine
 10
100.712400
 20
491.081956
 30
0.0
 11
151.378224
 21
491.081956
 31
0.0
  0
LINE
  5
195
100
AcDbEntity
  8
WINDOWS
 62
1
100
AcDbLine
 10
176.713600
 20
491.086532
 30
0.0
 11
224.895080
 21
491.086532
 31
0.0
  0
ENDSEC
  0
SECTION
  2
OBJECTS
  0
DICTIONARY
  5
C
330
0
100
AcDbDictionary
  3
ACAD_GROUP
350
D
  3
ACAD_MLINESTYLE
350
17
  0
DICTIONARY
  5
D
330
C
100
AcDbDictionary
  0
DICTIONARY
  5
1A
330
C
100
AcDbDictionary
  0
DICTIONARY
  5
17
330
C
100
AcDbDictionary
  3
STANDARD
350
18
  0
DICTIONARY
  5
19
330
C
100
AcDbDictionary
  0
ENDSEC
  0
EOF
