  0
SECTION
  2
HEADER
  9
$ACADVER
  1
AC1014
  9
$HANDSEED
  5
FFFF
  9
$MEASUREMENT
 70
     1
  0
ENDSEC
  0
SECTION
  2
TABLES
  0
TABLE
  2
VPORT
  5
8
330
0
100
AcDbSymbolTable
 70
     4
  0
VPORT
  5
2E
330
8
100
AcDbSymbolTableRecord
100
AcDbViewportTableRecord
  2
*ACTIVE
 70
     0
 10
0.0
 20
0.0
 11
1.0
 21
1.0
 12
210.0
 22
148.5
 13
0.0
 23
0.0
 14
10.0
 24
10.0
 15
10.0
 25
10.0
 16
0.0
 26
0.0
 36
1.0
 17
0.0
 27
0.0
 37
0.0
 40
341.0
 41
1.24
 42
50.0
 43
0.0
 44
0.0
 50
0.0
 51
0.0
 71
     0
 72
   100
 73
     1
 74
     3
 75
     0
 76
     0
 77
     0
 78
     0
  0
ENDTAB
  0
TABLE
  2
LTYPE
  5
5
330
0
100
AcDbSymbolTable
 70
     1
  0
LTYPE
  5
14
330
5
100
AcDbSymbolTableRecord
100
AcDbLinetypeTableRecord
  2
BYBLOCK
 70
     0
  3

 72
    65
 73
     0
 40
0.0
  0
LTYPE
  5
15
330
5
100
AcDbSymbolTableRecord
100
AcDbLinetypeTableRecord
  2
BYLAYER
 70
     0
  3

 72
    65
 73
     0
 40
0.0
  0
LTYPE
  5
16
330
5
100
AcDbSymbolTableRecord
100
AcDbLinetypeTableRecord
  2
CONTINUOUS
 70
     0
  3
Solid line
 72
    65
 73
     0
 40
0.0
  0
ENDTAB
  0
TABLE
  2
LAYER
  5
2
100
AcDbSymbolTable
 70
5
  0
LAYER
  5
50
100
AcDbSymbolTableRecord
100
AcDbLayerTableRecord
  2
0
 70
0
  6
CONTINUOUS
  0
LAYER
  5
51
100
AcDbSymbolTableRecord
100
AcDbLayerTableRecord
  2
M$BEL$1$100$$PCAE-PLOTVIEW$
 70
0
  6
CONTINUOUS
  0
LAYER
  5
52
100
AcDbSymbolTableRecord
100
AcDbLayerTableRecord
  2
VOM$SYSTEM$VORDEFINIERT
 70
0
  6
CONTINUOUS
  0
LAYER
  5
53
100
AcDbSymbolTableRecord
100
AcDbLayerTableRecord
  2
DOORS
 70
0
  6
CONTINUOUS
  0
LAYER
  5
54
100
AcDbSymbolTableRecord
100
AcDbLayerTableRecord
  2
WINDOWS
 70
0
  6
CONTINUOUS
  0
ENDTAB
  0
TABLE
  2
STYLE
  5
3
330
0
100
AcDbSymbolTable
 70
     1
  0
STYLE
  5
11
330
3
100
AcDbSymbolTableRecord
100
AcDbTextStyleTableRecord
  2
STANDARD
 70
     0
 40
0.0
 41
1.0
 50
0.0
 71
     0
 42
2.5
  3
txt
  4

  0
ENDTAB
  0
TABLE
  2
VIEW
  5
6
330
0
100
AcDbSymbolTable
 70
     0
  0
ENDTAB
  0
TABLE
  2
UCS
  5
7
330
0
100
AcDbSymbolTable
 70
     0
  0
ENDTAB
  0
TABLE
  2
APPID
  5
9
330
0
100
AcDbSymbolTable
 70
     2
  0
APPID
  5
12
330
9
100
AcDbSymbolTableRecord
100
AcDbRegAppTableRecord
  2
ACAD
 70
     0
  0
ENDTAB
  0
TABLE
  2
DIMSTYLE
  5
A
330
0
100
AcDbSymbolTable
 70
     1
  0
DIMSTYLE
105
27
330
A
100
AcDbSymbolTableRecord
100
AcDbDimStyleTableRecord
  2
ISO-25
 70
     0
  3

  4

  5

  6

  7

 40
1.0
 41
2.5
 42
0.625
 43
3.75
 44
1.25
 45
0.0
 46
0.0
 47
0.0
 48
0.0
140
2.5
141
2.5
142
0.0
143
0.03937007874016
144
1.0
145
0.0
146
1.0
147
0.625
 71
     0
 72
     0
 73
     0
 74
     0
 75
     0
 76
     0
 77
     1
 78
     8
170
     0
171
     3
172
     1
173
     0
174
     0
175
     0
176
     0
177
     0
178
     0
270
     2
271
     2
272
     2
273
     2
274
     3
340
11
275
     0
280
     0
281
     0
282
     0
283
     0
284
     8
285
     0
286
     0
287
     3
288
     0
  0
ENDTAB
  0
TABLE
  2
BLOCK_RECORD
  5
1
330
0
100
AcDbSymbolTable
 70
     1
  0
BLOCK_RECORD
  5
1F
330
1
100
AcDbSymbolTableRecord
100
AcDbBlockTableRecord
  2
*MODEL_SPACE
  0
BLOCK_RECORD
  5
1B
330
1
100
AcDbSymbolTableRecord
100
AcDbBlockTableRecord
  2
*PAPER_SPACE
  0
ENDTAB
  0
ENDSEC
  0
SECTION
  2
BLOCKS
  0
BLOCK
  5
20
330
1F
100
AcDbEntity
  8
0
100
AcDbBlockBegin
  2
*MODEL_SPACE
 70
     0
 10
0.0
 20
0.0
 30
0.0
  3
*MODEL_SPACE
  1

  0
ENDBLK
  5
21
330
1F
100
AcDbEntity
  8
0
100
AcDbBlockEnd
  0
BLOCK
  5
1C
330
1B
100
AcDbEntity
 67
     1
  8
0
100
AcDbBlockBegin
  2
*PAPER_SPACE
  1

  0
ENDBLK
  5
1D
330
1B
100
AcDbEntity
 67
     1
  8
0
100
AcDbBlockEnd
  0
ENDSEC
  0
SECTION
  2
ENTITIES
  0
LINE
  5
100
100
AcDbEntity
  8
VOM$SYSTEM$VORDEFINIERT
 62
3
100
AcDbLine
 10
33.314535
 20
1775.970950
 30
0.0
 11
33.314535
 21
1623.263939
 31
0.0
  0
LINE
  5
101
100
AcDbEntity
  8
VOM$SYSTEM$VORDEFINIERT
 62
3
100
AcDbLine
 10
33.314535
 20
1623.263939
 30
0.0
 11
69.245624
 21
1623.263939
 31
0.0
  0
LINE
  5
102
100
AcDbEntity
  8
VOM$SYSTEM$VORDEFINIERT
 62
3
100
AcDbLine
 10
69.245624
 20
1623.263939
 30
0.0
 11
69.245624
 21
1740.039917
 31
0.0
  0
LINE
  5
103
100
AcDbEntity
  8
VOM$SYSTEM$VORDEFINIERT
 62
3
100
AcDbLine
 10
69.245624
 20
1740.039917
 30
0.0
 11
356.694094
 21
1740.039917
 31
0.0
  0
LINE
  5
104
100
AcDbEntity
  8
VOM$SYSTEM$VORDEFINIERT
 62
3
100
AcDbLine
 10
356.694094
 20
1740.039917
 30
0.0
 11
356.694094
 21
1775.970950
 31
0.0
  0
LINE
  5
105
100
AcDbEntity
  8
VOM$SYSTEM$VORDEFINIERT
 62
3
100
AcDbLine
 10
356.694094
 20
1775.970950
 30
0.0
 11
33.314535
 21
1775.970950
 31
0.0
  0
LINE
  5
106
100
AcDbEntity
  8
VOM$SYSTEM$VORDEFINIERT
 62
3
100
AcDbLine
 10
33.314535
 20
1416.660336
 30
0.0
 11
33.314535
 21
1129.211873
 31
0.0
  0
LINE
  5
107
100
AcDbEntity
  8
VOM$SYSTEM$VORDEFINIERT
 62
3
100
AcDbLine
 10
33.314535
 20
1129.211873
 30
0.0
 11
69.245624
 21
1129.211873
 31
0.0
  0
LINE
  5
108
100
AcDbEntity
  8
VOM$SYSTEM$VORDEFINIERT
 62
3
100
AcDbLine
 10
69.245624
 20
1129.211873
 30
0.0
 11
69.245624
 21
1308.867180
 31
0.0
  0
LINE
  5
109
100
AcDbEntity
  8
VOM$SYSTEM$VORDEFINIERT
 62
3
100
AcDbLine
 10
69.245624
 20
1308.867180
 30
0.0
 11
590.245965
 21
1308.867180
 31
0.0
  0
LINE
  5
10a
100
AcDbEntity
  8
VOM$SYSTEM$VORDEFINIERT
 62
3
100
AcDbLine
 10
590.245965
 20
1308.867180
 30
0.0
 11
590.245965
 21
1156.160169
 31
0.0
  0
LINE
  5
10b
100
AcDbEntity
  8
VOM$SYSTEM$VORDEFINIERT
 62
3
100
AcDbLine
 10
590.245965
 20
1156.160169
 30
0.0
 11
617.194261
 21
1156.160169
 31
0.0
  0
LINE
  5
10c
100
AcDbEntity
  8
VOM$SYSTEM$VORDEFINIERT
 62
3
100
AcDbLine
 10
617.194261
 20
1156.160169
 30
0.0
 11
617.194261
 21
1308.867180
 31
0.0
  0
LINE
  5
10d
100
AcDbEntity
  8
VOM$SYSTEM$VORDEFINIERT
 62
3
100
AcDbLine
 10
617.194261
 20
1308.867180
 30
0.0
 11
653.125351
 21
1308.867180
 31
0.0
  0
LINE
  5
10e
100
AcDbEntity
  8
VOM$SYSTEM$VORDEFINIERT
 62
3
100
AcDbLine
 10
653.125351
 20
1308.867180
 30
0.0
 11
653.125351
 21
1335.815476
 31
0.0
  0
LINE
  5
10f
100
AcDbEntity
  8
VOM$SYSTEM$VORDEFINIERT
 62
3
100
AcDbLine
 10
653.125351
 20
1335.815476
 30
0.0
 11
69.245624
 21
1335.815476
 31
0.0
  0
LINE
  5
110
100
AcDbEntity
  8
VOM$SYSTEM$VORDEFINIERT
 62
3
100
AcDbLine
 10
69.245624
 20
1335.815476
 30
0.0
 11
69.245624
 21
1416.660336
 31
0.0
  0
LINE
  5
111
100
AcDbEntity
  8
VOM$SYSTEM$VORDEFINIERT
 62
3
100
AcDbLine
 10
69.245624
 20
1416.660336
 30
0.0
 11
33.314535
 21
1416.660336
 31
0.0
  0
LINE
  5
112
100
AcDbEntity
  8
VOM$SYSTEM$VORDEFINIERT
 62
3
100
AcDbLine
 10
590.245965
 20
1021.418717
 30
0.0
 11
590.245965
 21
823.797851
 31
0.0
  0
LINE
  5
113
100
AcDbEntity
  8
VOM$SYSTEM$VORDEFINIERT
 62
3
100
AcDbLine
 10
590.245965
 20
823.797851
 30
0.0
 11
69.245624
 21
823.797851
 31
0.0
  0
LINE
  5
114
100
AcDbEntity
  8
VOM$SYSTEM$VORDEFINIERT
 62
3
100
AcDbLine
 10
69.245624
 20
823.797851
 30
0.0
 11
69.245624
 21
940.573772
 31
0.0
  0
LINE
  5
115
100
AcDbEntity
  8
VOM$SYSTEM$VORDEFINIERT
 62
3
100
AcDbLine
 10
69.245624
 20
940.573772
 30
0.0
 11
33.314535
 21
940.573772
 31
0.0
  0
LINE
  5
116
100
AcDbEntity
  8
VOM$SYSTEM$VORDEFINIERT
 62
3
100
AcDbLine
 10
33.314535
 20
940.573772
 30
0.0
 11
33.314535
 21
536.349331
 31
0.0
  0
LINE
  5
117
100
AcDbEntity
  8
VOM$SYSTEM$VORDEFINIERT
 62
3
100
AcDbLine
 10
33.314535
 20
536.349331
 30
0.0
 11
69.245624
 21
536.349331
 31
0.0
  0
LINE
  5
118
100
AcDbEntity
  8
VOM$SYSTEM$VORDEFINIERT
 62
3
100
AcDbLine
 10
69.245624
 20
536.349331
 30
0.0
 11
69.245624
 21
796.849583
 31
0.0
  0
LINE
  5
119
100
AcDbEntity
  8
VOM$SYSTEM$VORDEFINIERT
 62
3
100
AcDbLine
 10
69.245624
 20
796.849583
 30
0.0
 11
617.194261
 21
796.849583
 31
0.0
  0
LINE
  5
11a
100
AcDbEntity
  8
VOM$SYSTEM$VORDEFINIERT
 62
3
100
AcDbLine
 10
617.194261
 20
796.849583
 30
0.0
 11
617.194261
 21
1021.418717
 31
0.0
  0
LINE
  5
11b
100
AcDbEntity
  8
VOM$SYSTEM$VORDEFINIERT
 62
3
100
AcDbLine
 10
617.194261
 20
1021.418717
 30
0.0
 11
590.245965
 21
1021.418717
 31
0.0
  0
LINE
  5
11c
100
AcDbEntity
  8
VOM$SYSTEM$VORDEFINIERT
 62
3
100
AcDbLine
 10
2009.522891
 20
1102.263577
 30
0.0
 11
2009.522891
 21
976.504862
 31
0.0
  0
LINE
  5
11d
100
AcDbEntity
  8
VOM$SYSTEM$VORDEFINIERT
 62
3
100
AcDbLine
 10
2009.522891
 20
976.504862
 30
0.0
 11
1542.419121
 21
976.504862
 31
0.0
  0
LINE
  5
11e
100
AcDbEntity
  8
VOM$SYSTEM$VORDEFINIERT
 62
3
100
AcDbLine
 10
1542.419121
 20
976.504862
 30
0.0
 11
1542.419121
 21
949.556566
 31
0.0
  0
LINE
  5
11f
100
AcDbEntity
  8
VOM$SYSTEM$VORDEFINIERT
 62
3
100
AcDbLine
 10
1542.419121
 20
949.556566
 30
0.0
 11
1578.350154
 21
949.556566
 31
0.0
  0
LINE
  5
120
100
AcDbEntity
  8
VOM$SYSTEM$VORDEFINIERT
 62
3
100
AcDbLine
 10
1578.350154
 20
949.556566
 30
0.0
 11
1578.350154
 21
698.039136
 31
0.0
  0
LINE
  5
121
100
AcDbEntity
  8
VOM$SYSTEM$VORDEFINIERT
 62
3
100
AcDbLine
 10
1578.350154
 20
698.039136
 30
0.0
 11
1650.212277
 21
698.039136
 31
0.0
  0
LINE
  5
122
100
AcDbEntity
  8
VOM$SYSTEM$VORDEFINIERT
 62
3
100
AcDbLine
 10
1650.212277
 20
698.039136
 30
0.0
 11
1650.212277
 21
733.970197
 31
0.0
  0
LINE
  5
123
100
AcDbEntity
  8
VOM$SYSTEM$VORDEFINIERT
 62
3
100
AcDbLine
 10
1650.212277
 20
733.970197
 30
0.0
 11
1605.298450
 21
733.970197
 31
0.0
  0
LINE
  5
124
100
AcDbEntity
  8
VOM$SYSTEM$VORDEFINIERT
 62
3
100
AcDbLine
 10
1605.298450
 20
733.970197
 30
0.0
 11
1605.298450
 21
949.556566
 31
0.0
  0
LINE
  5
125
100
AcDbEntity
  8
VOM$SYSTEM$VORDEFINIERT
 62
3
100
AcDbLine
 10
1605.298450
 20
949.556566
 30
0.0
 11
2009.522891
 21
949.556566
 31
0.0
  0
LINE
  5
126
100
AcDbEntity
  8
VOM$SYSTEM$VORDEFINIERT
 62
3
100
AcDbLine
 10
2009.522891
 20
949.556566
 30
0.0
 11
2009.522891
 21
913.625476
 31
0.0
  0
LINE
  5
127
100
AcDbEntity
  8
VOM$SYSTEM$VORDEFINIERT
 62
3
100
AcDbLine
 10
2009.522891
 20
913.625476
 30
0.0
 11
2045.453981
 21
913.625476
 31
0.0
  0
LINE
  5
128
100
AcDbEntity
  8
VOM$SYSTEM$VORDEFINIERT
 62
3
100
AcDbLine
 10
2045.453981
 20
913.625476
 30
0.0
 11
2045.453981
 21
1102.263577
 31
0.0
  0
LINE
  5
129
100
AcDbEntity
  8
VOM$SYSTEM$VORDEFINIERT
 62
3
100
AcDbLine
 10
2045.453981
 20
1102.263577
 30
0.0
 11
2009.522891
 21
1102.263577
 31
0.0
  0
LINE
  5
12a
100
AcDbEntity
  8
VOM$SYSTEM$VORDEFINIERT
 62
3
100
AcDbLine
 10
33.314535
 20
186.021539
 30
0.0
 11
33.314535
 21
33.314471
 31
0.0
  0
LINE
  5
12b
100
AcDbEntity
  8
VOM$SYSTEM$VORDEFINIERT
 62
3
100
AcDbLine
 10
33.314535
 20
33.314471
 30
0.0
 11
186.021542
 21
33.314471
 31
0.0
  0
LINE
  5
12c
100
AcDbEntity
  8
VOM$SYSTEM$VORDEFINIERT
 62
3
100
AcDbLine
 10
186.021542
 20
33.314471
 30
0.0
 11
186.021542
 21
69.245589
 31
0.0
  0
LINE
  5
12d
100
AcDbEntity
  8
VOM$SYSTEM$VORDEFINIERT
 62
3
100
AcDbLine
 10
186.021542
 20
69.245589
 30
0.0
 11
69.245624
 21
69.245589
 31
0.0
  0
LINE
  5
12e
100
AcDbEntity
  8
VOM$SYSTEM$VORDEFINIERT
 62
3
100
AcDbLine
 10
69.245624
 20
69.245589
 30
0.0
 11
69.245624
 21
186.021539
 31
0.0
  0
LINE
  5
12f
100
AcDbEntity
  8
VOM$SYSTEM$VORDEFINIERT
 62
3
100
AcDbLine
 10
69.245624
 20
186.021539
 30
0.0
 11
33.314535
 21
186.021539
 31
0.0
  0
LINE
  5
130
100
AcDbEntity
  8
VOM$SYSTEM$VORDEFINIERT
 62
3
100
AcDbLine
 10
796.849569
 20
1775.970950
 30
0.0
 11
796.849569
 21
1740.039917
 31
0.0
  0
LINE
  5
131
100
AcDbEntity
  8
VOM$SYSTEM$VORDEFINIERT
 62
3
100
AcDbLine
 10
796.849569
 20
1740.039917
 30
0.0
 11
877.694485
 21
1740.039917
 31
0.0
  0
LINE
  5
132
100
AcDbEntity
  8
VOM$SYSTEM$VORDEFINIERT
 62
3
100
AcDbLine
 10
877.694485
 20
1740.039917
 30
0.0
 11
877.694485
 21
1335.815476
 31
0.0
  0
LINE
  5
133
100
AcDbEntity
  8
VOM$SYSTEM$VORDEFINIERT
 62
3
100
AcDbLine
 10
877.694485
 20
1335.815476
 30
0.0
 11
796.849569
 21
1335.815476
 31
0.0
  0
LINE
  5
134
100
AcDbEntity
  8
VOM$SYSTEM$VORDEFINIERT
 62
3
100
AcDbLine
 10
796.849569
 20
1335.815476
 30
0.0
 11
796.849569
 21
1308.867180
 31
0.0
  0
LINE
  5
135
100
AcDbEntity
  8
VOM$SYSTEM$VORDEFINIERT
 62
3
100
AcDbLine
 10
796.849569
 20
1308.867180
 30
0.0
 11
877.694485
 21
1308.867180
 31
0.0
  0
LINE
  5
136
100
AcDbEntity
  8
VOM$SYSTEM$VORDEFINIERT
 62
3
100
AcDbLine
 10
877.694485
 20
1308.867180
 30
0.0
 11
877.694485
 21
877.694443
 31
0.0
  0
LINE
  5
137
100
AcDbEntity
  8
VOM$SYSTEM$VORDEFINIERT
 62
3
100
AcDbLine
 10
877.694485
 20
877.694443
 30
0.0
 11
904.642781
 21
877.694443
 31
0.0
  0
LINE
  5
138
100
AcDbEntity
  8
VOM$SYSTEM$VORDEFINIERT
 62
3
100
AcDbLine
 10
904.642781
 20
877.694443
 30
0.0
 11
904.642781
 21
1075.315281
 31
0.0
  0
LINE
  5
139
100
AcDbEntity
  8
VOM$SYSTEM$VORDEFINIERT
 62
3
100
AcDbLine
 10
904.642781
 20
1075.315281
 30
0.0
 11
1183.108507
 21
1075.315281
 31
0.0
  0
LINE
  5
13a
100
AcDbEntity
  8
VOM$SYSTEM$VORDEFINIERT
 62
3
100
AcDbLine
 10
1183.108507
 20
1075.315281
 30
0.0
 11
1183.108507
 21
1102.263577
 31
0.0
  0
LINE
  5
13b
100
AcDbEntity
  8
VOM$SYSTEM$VORDEFINIERT
 62
3
100
AcDbLine
 10
1183.108507
 20
1102.263577
 30
0.0
 11
904.642781
 21
1102.263577
 31
0.0
  0
LINE
  5
13c
100
AcDbEntity
  8
VOM$SYSTEM$VORDEFINIERT
 62
3
100
AcDbLine
 10
904.642781
 20
1102.263577
 30
0.0
 11
904.642781
 21
1740.039917
 31
0.0
  0
LINE
  5
13d
100
AcDbEntity
  8
VOM$SYSTEM$VORDEFINIERT
 62
3
100
AcDbLine
 10
904.642781
 20
1740.039917
 30
0.0
 11
1012.435965
 21
1740.039917
 31
0.0
  0
LINE
  5
13e
100
AcDbEntity
  8
VOM$SYSTEM$VORDEFINIERT
 62
3
100
AcDbLine
 10
1012.435965
 20
1740.039917
 30
0.0
 11
1012.435965
 21
1775.970950
 31
0.0
  0
LINE
  5
13f
100
AcDbEntity
  8
VOM$SYSTEM$VORDEFINIERT
 62
3
100
AcDbLine
 10
1012.435965
 20
1775.970950
 30
0.0
 11
796.849569
 21
1775.970950
 31
0.0
  0
LINE
  5
140
100
AcDbEntity
  8
VOM$SYSTEM$VORDEFINIERT
 62
3
100
AcDbLine
 10
1237.005099
 20
1775.970950
 30
0.0
 11
1237.005099
 21
1740.039917
 31
0.0
  0
LINE
  5
141
100
AcDbEntity
  8
VOM$SYSTEM$VORDEFINIERT
 62
3
100
AcDbLine
 10
1237.005099
 20
1740.039917
 30
0.0
 11
1353.781020
 21
1740.039917
 31
0.0
  0
LINE
  5
142
100
AcDbEntity
  8
VOM$SYSTEM$VORDEFINIERT
 62
3
100
AcDbLine
 10
1353.781020
 20
1740.039917
 30
0.0
 11
1353.781020
 21
1102.263577
 31
0.0
  0
LINE
  5
143
100
AcDbEntity
  8
VOM$SYSTEM$VORDEFINIERT
 62
3
100
AcDbLine
 10
1353.781020
 20
1102.263577
 30
0.0
 11
1308.867222
 21
1102.263577
 31
0.0
  0
LINE
  5
144
100
AcDbEntity
  8
VOM$SYSTEM$VORDEFINIERT
 62
3
100
AcDbLine
 10
1308.867222
 20
1102.263577
 30
0.0
 11
1308.867222
 21
1075.315281
 31
0.0
  0
LINE
  5
145
100
AcDbEntity
  8
VOM$SYSTEM$VORDEFINIERT
 62
3
100
AcDbLine
 10
1308.867222
 20
1075.315281
 30
0.0
 11
1353.781020
 21
1075.315281
 31
0.0
  0
LINE
  5
146
100
AcDbEntity
  8
VOM$SYSTEM$VORDEFINIERT
 62
3
100
AcDbLine
 10
1353.781020
 20
1075.315281
 30
0.0
 11
1353.781020
 21
859.728912
 31
0.0
  0
LINE
  5
147
100
AcDbEntity
  8
VOM$SYSTEM$VORDEFINIERT
 62
3
100
AcDbLine
 10
1353.781020
 20
859.728912
 30
0.0
 11
1380.729345
 21
859.728912
 31
0.0
  0
LINE
  5
148
100
AcDbEntity
  8
VOM$SYSTEM$VORDEFINIERT
 62
3
100
AcDbLine
 10
1380.729345
 20
859.728912
 30
0.0
 11
1380.729345
 21
949.556566
 31
0.0
  0
LINE
  5
149
100
AcDbEntity
  8
VOM$SYSTEM$VORDEFINIERT
 62
3
100
AcDbLine
 10
1380.729345
 20
949.556566
 30
0.0
 11
1416.660406
 21
949.556566
 31
0.0
  0
LINE
  5
14a
100
AcDbEntity
  8
VOM$SYSTEM$VORDEFINIERT
 62
3
100
AcDbLine
 10
1416.660406
 20
949.556566
 30
0.0
 11
1416.660406
 21
976.504862
 31
0.0
  0
LINE
  5
14b
100
AcDbEntity
  8
VOM$SYSTEM$VORDEFINIERT
 62
3
100
AcDbLine
 10
1416.660406
 20
976.504862
 30
0.0
 11
1380.729345
 21
976.504862
 31
0.0
  0
LINE
  5
14c
100
AcDbEntity
  8
VOM$SYSTEM$VORDEFINIERT
 62
3
100
AcDbLine
 10
1380.729345
 20
976.504862
 30
0.0
 11
1380.729345
 21
1740.039917
 31
0.0
  0
LINE
  5
14d
100
AcDbEntity
  8
VOM$SYSTEM$VORDEFINIERT
 62
3
100
AcDbLine
 10
1380.729345
 20
1740.039917
 30
0.0
 11
1398.694847
 21
1740.039917
 31
0.0
  0
LINE
  5
14e
100
AcDbEntity
  8
VOM$SYSTEM$VORDEFINIERT
 62
3
100
AcDbLine
 10
1398.694847
 20
1740.039917
 30
0.0
 11
1398.694847
 21
1775.970950
 31
0.0
  0
LINE
  5
14f
100
AcDbEntity
  8
VOM$SYSTEM$VORDEFINIERT
 62
3
100
AcDbLine
 10
1398.694847
 20
1775.970950
 30
0.0
 11
1237.005099
 21
1775.970950
 31
0.0
  0
LINE
  5
150
100
AcDbEntity
  8
VOM$SYSTEM$VORDEFINIERT
 62
3
100
AcDbLine
 10
1569.367389
 20
1775.970950
 30
0.0
 11
1569.367389
 21
1740.039917
 31
0.0
  0
LINE
  5
151
100
AcDbEntity
  8
VOM$SYSTEM$VORDEFINIERT
 62
3
100
AcDbLine
 10
1569.367389
 20
1740.039917
 30
0.0
 11
2009.522891
 21
1740.039917
 31
0.0
  0
LINE
  5
152
100
AcDbEntity
  8
VOM$SYSTEM$VORDEFINIERT
 62
3
100
AcDbLine
 10
2009.522891
 20
1740.039917
 30
0.0
 11
2009.522891
 21
1326.832711
 31
0.0
  0
LINE
  5
153
100
AcDbEntity
  8
VOM$SYSTEM$VORDEFINIERT
 62
3
100
AcDbLine
 10
2009.522891
 20
1326.832711
 30
0.0
 11
2045.453981
 21
1326.832711
 31
0.0
  0
LINE
  5
154
100
AcDbEntity
  8
VOM$SYSTEM$VORDEFINIERT
 62
3
100
AcDbLine
 10
2045.453981
 20
1326.832711
 30
0.0
 11
2045.453981
 21
1775.970950
 31
0.0
  0
LINE
  5
155
100
AcDbEntity
  8
VOM$SYSTEM$VORDEFINIERT
 62
3
100
AcDbLine
 10
2045.453981
 20
1775.970950
 30
0.0
 11
1569.367389
 21
1775.970950
 31
0.0
  0
LINE
  5
156
100
AcDbEntity
  8
VOM$SYSTEM$VORDEFINIERT
 62
3
100
AcDbLine
 10
2009.522891
 20
769.901287
 30
0.0
 11
2009.522891
 21
733.970197
 31
0.0
  0
LINE
  5
157
100
AcDbEntity
  8
VOM$SYSTEM$VORDEFINIERT
 62
3
100
AcDbLine
 10
2009.522891
 20
733.970197
 30
0.0
 11
1766.988255
 21
733.970197
 31
0.0
  0
LINE
  5
158
100
AcDbEntity
  8
VOM$SYSTEM$VORDEFINIERT
 62
3
100
AcDbLine
 10
1766.988255
 20
733.970197
 30
0.0
 11
1766.988255
 21
698.039136
 31
0.0
  0
LINE
  5
159
100
AcDbEntity
  8
VOM$SYSTEM$VORDEFINIERT
 62
3
100
AcDbLine
 10
1766.988255
 20
698.039136
 30
0.0
 11
1811.902082
 21
698.039136
 31
0.0
  0
LINE
  5
15a
100
AcDbEntity
  8
VOM$SYSTEM$VORDEFINIERT
 62
3
100
AcDbLine
 10
1811.902082
 20
698.039136
 30
0.0
 11
1811.902082
 21
644.142572
 31
0.0
  0
LINE
  5
15b
100
AcDbEntity
  8
VOM$SYSTEM$VORDEFINIERT
 62
3
100
AcDbLine
 10
1811.902082
 20
644.142572
 30
0.0
 11
1847.833115
 21
644.142572
 31
0.0
  0
LINE
  5
15c
100
AcDbEntity
  8
VOM$SYSTEM$VORDEFINIERT
 62
3
100
AcDbLine
 10
1847.833115
 20
644.142572
 30
0.0
 11
1847.833115
 21
698.039136
 31
0.0
  0
LINE
  5
15d
100
AcDbEntity
  8
VOM$SYSTEM$VORDEFINIERT
 62
3
100
AcDbLine
 10
1847.833115
 20
698.039136
 30
0.0
 11
2045.453981
 21
698.039136
 31
0.0
  0
LINE
  5
15e
100
AcDbEntity
  8
VOM$SYSTEM$VORDEFINIERT
 62
3
100
AcDbLine
 10
2045.453981
 20
698.039136
 30
0.0
 11
2045.453981
 21
769.901287
 31
0.0
  0
LINE
  5
15f
100
AcDbEntity
  8
VOM$SYSTEM$VORDEFINIERT
 62
3
100
AcDbLine
 10
2045.453981
 20
769.901287
 30
0.0
 11
2009.522891
 21
769.901287
 31
0.0
  0
LINE
  5
160
100
AcDbEntity
  8
VOM$SYSTEM$VORDEFINIERT
 62
3
100
AcDbLine
 10
1811.902082
 20
177.038745
 30
0.0
 11
1811.902082
 21
69.245589
 31
0.0
  0
LINE
  5
161
100
AcDbEntity
  8
VOM$SYSTEM$VORDEFINIERT
 62
3
100
AcDbLine
 10
1811.902082
 20
69.245589
 30
0.0
 11
1272.936132
 21
69.245589
 31
0.0
  0
LINE
  5
162
100
AcDbEntity
  8
VOM$SYSTEM$VORDEFINIERT
 62
3
100
AcDbLine
 10
1272.936132
 20
69.245589
 30
0.0
 11
1272.936132
 21
33.314471
 31
0.0
  0
LINE
  5
163
100
AcDbEntity
  8
VOM$SYSTEM$VORDEFINIERT
 62
3
100
AcDbLine
 10
1272.936132
 20
33.314471
 30
0.0
 11
1847.833115
 21
33.314471
 31
0.0
  0
LINE
  5
164
100
AcDbEntity
  8
VOM$SYSTEM$VORDEFINIERT
 62
3
100
AcDbLine
 10
1847.833115
 20
33.314471
 30
0.0
 11
1847.833115
 21
177.038745
 31
0.0
  0
LINE
  5
165
100
AcDbEntity
  8
VOM$SYSTEM$VORDEFINIERT
 62
3
100
AcDbLine
 10
1847.833115
 20
177.038745
 30
0.0
 11
1811.902082
 21
177.038745
 31
0.0
  0
LINE
  5
166
100
AcDbEntity
  8
VOM$SYSTEM$VORDEFINIERT
 62
3
100
AcDbLine
 10
662.108117
 20
69.245589
 30
0.0
 11
662.108117
 21
33.314471
 31
0.0
  0
LINE
  5
167
100
AcDbEntity
  8
VOM$SYSTEM$VORDEFINIERT
 62
3
100
AcDbLine
 10
662.108117
 20
33.314471
 30
0.0
 11
1021.418702
 21
33.314471
 31
0.0
  0
LINE
  5
168
100
AcDbEntity
  8
VOM$SYSTEM$VORDEFINIERT
 62
3
100
AcDbLine
 10
1021.418702
 20
33.314471
 30
0.0
 11
1021.418702
 21
69.245589
 31
0.0
  0
LINE
  5
169
100
AcDbEntity
  8
VOM$SYSTEM$VORDEFINIERT
 62
3
100
AcDbLine
 10
1021.418702
 20
69.245589
 30
0.0
 11
662.108117
 21
69.245589
 31
0.0
  0
LINE
  5
16a
100
AcDbEntity
  8
VOM$SYSTEM$VORDEFINIERT
 62
3
100
AcDbLine
 10
1811.902082
 20
455.504471
 30
0.0
 11
1811.902082
 21
356.694052
 31
0.0
  0
LINE
  5
16b
100
AcDbEntity
  8
VOM$SYSTEM$VORDEFINIERT
 62
3
100
AcDbLine
 10
1811.902082
 20
356.694052
 30
0.0
 11
1847.833115
 21
356.694052
 31
0.0
  0
LINE
  5
16c
100
AcDbEntity
  8
VOM$SYSTEM$VORDEFINIERT
 62
3
100
AcDbLine
 10
1847.833115
 20
356.694052
 30
0.0
 11
1847.833115
 21
455.504471
 31
0.0
  0
LINE
  5
16d
100
AcDbEntity
  8
VOM$SYSTEM$VORDEFINIERT
 62
3
100
AcDbLine
 10
1847.833115
 20
455.504471
 30
0.0
 11
1811.902082
 21
455.504471
 31
0.0
  0
LINE
  5
16e
100
AcDbEntity
  8
VOM$SYSTEM$VORDEFINIERT
 62
3
100
AcDbLine
 10
536.349402
 20
1775.970950
 30
0.0
 11
536.349402
 21
1740.039917
 31
0.0
  0
LINE
  5
16f
100
AcDbEntity
  8
VOM$SYSTEM$VORDEFINIERT
 62
3
100
AcDbLine
 10
536.349402
 20
1740.039917
 30
0.0
 11
626.177055
 21
1740.039917
 31
0.0
  0
LINE
  5
170
100
AcDbEntity
  8
VOM$SYSTEM$VORDEFINIERT
 62
3
100
AcDbLine
 10
626.177055
 20
1740.039917
 30
0.0
 11
626.177055
 21
1775.970950
 31
0.0
  0
LINE
  5
171
100
AcDbEntity
  8
VOM$SYSTEM$VORDEFINIERT
 62
3
100
AcDbLine
 10
626.177055
 20
1775.970950
 30
0.0
 11
536.349402
 21
1775.970950
 31
0.0
  0
LINE
  5
172
100
AcDbEntity
  8
DOORS
 62
1
100
AcDbLine
 10
653.125351
 20
1335.815476
 30
0.0
 11
796.849569
 21
1335.815476
 31
0.0
  0
LINE
  5
173
100
AcDbEntity
  8
DOORS
 62
1
100
AcDbLine
 10
653.125351
 20
1308.867180
 30
0.0
 11
796.849569
 21
1308.867180
 31
0.0
  0
LINE
  5
174
100
AcDbEntity
  8
DOORS
 62
1
100
AcDbLine
 10
590.245965
 20
1156.160169
 30
0.0
 11
590.245965
 21
1021.418717
 31
0.0
  0
LINE
  5
175
100
AcDbEntity
  8
DOORS
 62
1
100
AcDbLine
 10
617.194261
 20
1156.160169
 30
0.0
 11
617.194261
 21
1021.418717
 31
0.0
  0
LINE
  5
176
100
AcDbEntity
  8
DOORS
 62
1
100
AcDbLine
 10
1183.108507
 20
1102.263577
 30
0.0
 11
1308.867222
 21
1102.263577
 31
0.0
  0
LINE
  5
177
100
AcDbEntity
  8
DOORS
 62
1
100
AcDbLine
 10
1183.108507
 20
1075.315281
 30
0.0
 11
1308.867222
 21
1075.315281
 31
0.0
  0
LINE
  5
178
100
AcDbEntity
  8
DOORS
 62
1
100
AcDbLine
 10
1416.660406
 20
976.504862
 30
0.0
 11
1542.419121
 21
976.504862
 31
0.0
  0
LINE
  5
179
100
AcDbEntity
  8
DOORS
 62
1
100
AcDbLine
 10
1416.660406
 20
949.556566
 30
0.0
 11
1542.419121
 21
949.556566
 31
0.0
  0
LINE
  5
17a
100
AcDbEntity
  8
DOORS
 62
1
100
AcDbLine
 10
2045.453981
 20
913.625476
 30
0.0
 11
2045.453981
 21
769.901287
 31
0.0
  0
LINE
  5
17b
100
AcDbEntity
  8
DOORS
 62
1
100
AcDbLine
 10
2009.522891
 20
913.625476
 30
0.0
 11
2009.522891
 21
769.901287
 31
0.0
  0
LINE
  5
17c
100
AcDbEntity
  8
DOORS
 62
1
100
AcDbLine
 10
1650.212277
 20
733.970197
 30
0.0
 11
1766.988255
 21
733.970197
 31
0.0
  0
LINE
  5
17d
100
AcDbEntity
  8
DOORS
 62
1
100
AcDbLine
 10
1650.212277
 20
698.039136
 30
0.0
 11
1766.988255
 21
698.039136
 31
0.0
  0
LINE
  5
17e
100
AcDbEntity
  8
WINDOWS
 62
1
100
AcDbLine
 10
33.314535
 20
1623.263939
 30
0.0
 11
33.314535
 21
1416.660336
 31
0.0
  0
LINE
  5
17f
100
AcDbEntity
  8
WINDOWS
 62
1
100
AcDbLine
 10
69.245624
 20
1623.263939
 30
0.0
 11
69.245624
 21
1416.660336
 31
0.0
  0
LINE
  5
180
100
AcDbEntity
  8
WINDOWS
 62
1
100
AcDbLine
 10
33.314535
 20
1129.211873
 30
0.0
 11
33.314535
 21
940.573772
 31
0.0
  0
LINE
  5
181
100
AcDbEntity
  8
WINDOWS
 62
1
100
AcDbLine
 10
69.245624
 20
1129.211873
 30
0.0
 11
69.245624
 21
940.573772
 31
0.0
  0
LINE
  5
182
100
AcDbEntity
  8
WINDOWS
 62
1
100
AcDbLine
 10
33.314535
 20
536.349331
 30
0.0
 11
33.314535
 21
186.021539
 31
0.0
  0
LINE
  5
183
100
AcDbEntity
  8
WINDOWS
 62
1
100
AcDbLine
 10
69.245624
 20
536.349331
 30
0.0
 11
69.245624
 21
186.021539
 31
0.0
  0
LINE
  5
184
100
AcDbEntity
  8
WINDOWS
 62
1
100
AcDbLine
 10
626.096409
 20
1775.970950
 30
0.0
 11
796.818189
 21
1775.970950
 31
0.0
  0
LINE
  5
185
100
AcDbEntity
  8
WINDOWS
 62
1
100
AcDbLine
 10
1012.435965
 20
1775.970950
 30
0.0
 11
1237.005099
 21
1775.970950
 31
0.0
  0
LINE
  5
186
100
AcDbEntity
  8
WINDOWS
 62
1
100
AcDbLine
 10
1012.435965
 20
1740.039917
 30
0.0
 11
1237.005099
 21
1740.039917
 31
0.0
  0
LINE
  5
187
100
AcDbEntity
  8
WINDOWS
 62
1
100
AcDbLine
 10
2009.522891
 20
1326.832711
 30
0.0
 11
2009.522891
 21
1102.263577
 31
0.0
  0
LINE
  5
188
100
AcDbEntity
  8
WINDOWS
 62
1
100
AcDbLine
 10
2045.453981
 20
1326.832711
 30
0.0
 11
2045.453981
 21
1102.263577
 31
0.0
  0
LINE
  5
189
100
AcDbEntity
  8
WINDOWS
 62
1
100
AcDbLine
 10
1398.694847
 20
1775.970950
 30
0.0
 11
1569.367389
 21
1775.970950
 31
0.0
  0
LINE
  5
18a
100
AcDbEntity
  8
WINDOWS
 62
1
100
AcDbLine
 10
1398.694847
 20
1740.039917
 30
0.0
 11
1569.367389
 21
1740.039917
 31
0.0
  0
LINE
  5
18b
100
AcDbEntity
  8
WINDOWS
 62
1
100
AcDbLine
 10
186.021542
 20
69.245589
 30
0.0
 11
662.108117
 21
69.245589
 31
0.0
  0
LINE
  5
18c
100
AcDbEntity
  8
WINDOWS
 62
1
100
AcDbLine
 10
186.021542
 20
33.314471
 30
0.0
 11
662.108117
 21
33.314471
 31
0.0
  0
LINE
  5
18d
100
AcDbEntity
  8
WINDOWS
 62
1
100
AcDbLine
 10
1021.418702
 20
69.245589
 30
0.0
 11
1272.936132
 21
69.245589
 31
0.0
  0
LINE
  5
18e
100
AcDbEntity
  8
WINDOWS
 62
1
100
AcDbLine
 10
1021.418702
 20
33.314471
 30
0.0
 11
1272.936132
 21
33.314471
 31
0.0
  0
LINE
  5
18f
100
AcDbEntity
  8
WINDOWS
 62
1
100
AcDbLine
 10
1811.902082
 20
644.142572
 30
0.0
 11
1811.902082
 21
455.504471
 31
0.0
  0
LINE
  5
190
100
AcDbEntity
  8
WINDOWS
 62
1
100
AcDbLine
 10
1847.833115
 20
644.142572
 30
0.0
 11
1847.833115
 21
455.504471
 31
0.0
  0
LINE
  5
191
100
AcDbEntity
  8
WINDOWS
 62
1
100
AcDbLine
 10
1811.902082
 20
356.694052
 30
0.0
 11
1811.902082
 21
177.038745
 31
0.0
  0
LINE
  5
192
100
AcDbEntity
  8
WINDOWS
 62
1
100
AcDbLine
 10
1847.833115
 20
356.694052
 30
0.0
 11
1847.833115
 21
177.038745
 31
0.0
  0
LINE
  5
193
100
AcDbEntity
  8
WINDOWS
 62
1
100
AcDbLine
 10
356.698318
 20
1775.930670
 30
0.0
 11
536.222891
 21
1775.930670
 31
0.0
  0
LINE
  5
194
100
AcDbEntity
  8
WINDOWS
 62
1
100
AcDbLine
 10
356.854961
 20
1740.054175
 30
0.0
 11
536.379534
 21
1740.054175
 31
0.0
  0
LINE
  5
195
100
AcDbEntity
  8
WINDOWS
 62
1
100
AcDbLine
 10
626.150551
 20
1740.070389
 30
0.0
 11
796.872331
 21
1740.070389
 31
0.0
  0
ENDSEC
  0
SECTION
  2
OBJECTS
  0
DICTIONARY
  5
C
330
0
100
AcDbDictionary
  3
ACAD_GROUP
350
D
  3
ACAD_MLINESTYLE
350
17
  0
DICTIONARY
  5
D
330
C
100
AcDbDictionary
  0
DICTIONARY
  5
1A
330
C
100
AcDbDictionary
  0
DICTIONARY
  5
17
330
C
100
AcDbDictionary
  3
STANDARD
350
18
  0
DICTIONARY
  5
19
330
C
100
AcDbDictionary
  0
ENDSEC
  0
EOF
