  0
SECTION
  2
HEADER
  9
$ACADVER
  1
AC1014
  9
$HANDSEED
  5
FFFF
  9
$MEASUREMENT
 70
     1
  0
ENDSEC
  0
SECTION
  2
TABLES
  0
TABLE
  2
VPORT
  5
8
330
0
100
AcDbSymbolTable
 70
     4
  0
VPORT
  5
2E
330
8
100
AcDbSymbolTableRecord
100
AcDbViewportTableRecord
  2
*ACTIVE
 70
     0
 10
0.0
 20
0.0
 11
1.0
 21
1.0
 12
210.0
 22
148.5
 13
0.0
 23
0.0
 14
10.0
 24
10.0
 15
10.0
 25
10.0
 16
0.0
 26
0.0
 36
1.0
 17
0.0
 27
0.0
 37
0.0
 40
341.0
 41
1.24
 42
50.0
 43
0.0
 44
0.0
 50
0.0
 51
0.0
 71
     0
 72
   100
 73
     1
 74
     3
 75
     0
 76
     0
 77
     0
 78
     0
  0
ENDTAB
  0
TABLE
  2
LTYPE
  5
5
330
0
100
AcDbSymbolTable
 70
     1
  0
LTYPE
  5
14
330
5
100
AcDbSymbolTableRecord
100
AcDbLinetypeTableRecord
  2
BYBLOCK
 70
     0
  3

 72
    65
 73
     0
 40
0.0
  0
LTYPE
  5
15
330
5
100
AcDbSymbolTableRecord
100
AcDbLinetypeTableRecord
  2
BYLAYER
 70
     0
  3

 72
    65
 73
     0
 40
0.0
  0
LTYPE
  5
16
330
5
100
AcDbSymbolTableRecord
100
AcDbLinetypeTableRecord
  2
CONTINUOUS
 70
     0
  3
Solid line
 72
    65
 73
     0
 40
0.0
  0
ENDTAB
  0
TABLE
  2
LAYER
  5
2
100
AcDbSymbolTable
 70
5
  0
LAYER
  5
50
100
AcDbSymbolTableRecord
100
AcDbLayerTableRecord
  2
0
 70
0
  6
CONTINUOUS
  0
LAYER
  5
51
100
AcDbSymbolTableRecord
100
AcDbLayerTableRecord
  2
M$BEL$1$100$$PCAE-PLOTVIEW$
 70
0
  6
CONTINUOUS
  0
LAYER
  5
52
100
AcDbSymbolTableRecord
100
AcDbLayerTableRecord
  2
VOM$SYSTEM$VORDEFINIERT
 70
0
  6
CONTINUOUS
  0
LAYER
  5
53
100
AcDbSymbolTableRecord
100
AcDbLayerTableRecord
  2
DOORS
 70
0
  6
CONTINUOUS
  0
LAYER
  5
54
100
AcDbSymbolTableRecord
100
AcDbLayerTableRecord
  2
WINDOWS
 70
0
  6
CONTINUOUS
  0
ENDTAB
  0
TABLE
  2
STYLE
  5
3
330
0
100
AcDbSymbolTable
 70
     1
  0
STYLE
  5
11
330
3
100
AcDbSymbolTableRecord
100
AcDbTextStyleTableRecord
  2
STANDARD
 70
     0
 40
0.0
 41
1.0
 50
0.0
 71
     0
 42
2.5
  3
txt
  4

  0
ENDTAB
  0
TABLE
  2
VIEW
  5
6
330
0
100
AcDbSymbolTable
 70
     0
  0
ENDTAB
  0
TABLE
  2
UCS
  5
7
330
0
100
AcDbSymbolTable
 70
     0
  0
ENDTAB
  0
TABLE
  2
APPID
  5
9
330
0
100
AcDbSymbolTable
 70
     2
  0
APPID
  5
12
330
9
100
AcDbSymbolTableRecord
100
AcDbRegAppTableRecord
  2
ACAD
 70
     0
  0
ENDTAB
  0
TABLE
  2
DIMSTYLE
  5
A
330
0
100
AcDbSymbolTable
 70
     1
  0
DIMSTYLE
105
27
330
A
100
AcDbSymbolTableRecord
100
AcDbDimStyleTableRecord
  2
ISO-25
 70
     0
  3

  4

  5

  6

  7

 40
1.0
 41
2.5
 42
0.625
 43
3.75
 44
1.25
 45
0.0
 46
0.0
 47
0.0
 48
0.0
140
2.5
141
2.5
142
0.0
143
0.03937007874016
144
1.0
145
0.0
146
1.0
147
0.625
 71
     0
 72
     0
 73
     0
 74
     0
 75
     0
 76
     0
 77
     1
 78
     8
170
     0
171
     3
172
     1
173
     0
174
     0
175
     0
176
     0
177
     0
178
     0
270
     2
271
     2
272
     2
273
     2
274
     3
340
11
275
     0
280
     0
281
     0
282
     0
283
     0
284
     8
285
     0
286
     0
287
     3
288
     0
  0
ENDTAB
  0
TABLE
  2
BLOCK_RECORD
  5
1
330
0
100
AcDbSymbolTable
 70
     1
  0
BLOCK_RECORD
  5
1F
330
1
100
AcDbSymbolTableRecord
100
AcDbBlockTableRecord
  2
*MODEL_SPACE
  0
BLOCK_RECORD
  5
1B
330
1
100
AcDbSymbolTableRecord
100
AcDbBlockTableRecord
  2
*PAPER_SPACE
  0
ENDTAB
  0
ENDSEC
  0
SECTION
  2
BLOCKS
  0
BLOCK
  5
20
330
1F
100
AcDbEntity
  8
0
100
AcDbBlockBegin
  2
*MODEL_SPACE
 70
     0
 10
0.0
 20
0.0
 30
0.0
  3
*MODEL_SPACE
  1

  0
ENDBLK
  5
21
330
1F
100
AcDbEntity
  8
0
100
AcDbBlockEnd
  0
BLOCK
  5
1C
330
1B
100
AcDbEntity
 67
     1
  8
0
100
AcDbBlockBegin
  2
*PAPER_SPACE
  1

  0
ENDBLK
  5
1D
330
1B
100
AcDbEntity
 67
     1
  8
0
100
AcDbBlockEnd
  0
ENDSEC
  0
SECTION
  2
ENTITIES
  0
LINE
  5
100
100
AcDbEntity
  8
VOM$SYSTEM$VORDEFINIERT
 62
3
100
AcDbLine
 10
4.976786
 20
232.617878
 30
0.0
 11
4.976786
 21
217.731745
 31
0.0
  0
LINE
  5
101
100
AcDbEntity
  8
VOM$SYSTEM$VORDEFINIERT
 62
3
100
AcDbLine
 10
4.976786
 20
217.731745
 30
0.0
 11
8.479407
 21
217.731745
 31
0.0
  0
LINE
  5
102
100
AcDbEntity
  8
VOM$SYSTEM$VORDEFINIERT
 62
3
100
AcDbLine
 10
8.479407
 20
217.731745
 30
0.0
 11
8.479407
 21
229.115260
 31
0.0
  0
LINE
  5
103
100
AcDbEntity
  8
VOM$SYSTEM$VORDEFINIERT
 62
3
100
AcDbLine
 10
8.479407
 20
229.115260
 30
0.0
 11
36.500356
 21
229.115260
 31
0.0
  0
LINE
  5
104
100
AcDbEntity
  8
VOM$SYSTEM$VORDEFINIERT
 62
3
100
AcDbLine
 10
36.500356
 20
229.115260
 30
0.0
 11
36.500356
 21
232.617878
 31
0.0
  0
LINE
  5
105
100
AcDbEntity
  8
VOM$SYSTEM$VORDEFINIERT
 62
3
100
AcDbLine
 10
36.500356
 20
232.617878
 30
0.0
 11
4.976786
 21
232.617878
 31
0.0
  0
LINE
  5
106
100
AcDbEntity
  8
VOM$SYSTEM$VORDEFINIERT
 62
3
100
AcDbLine
 10
4.976786
 20
197.591687
 30
0.0
 11
4.976786
 21
169.570740
 31
0.0
  0
LINE
  5
107
100
AcDbEntity
  8
VOM$SYSTEM$VORDEFINIERT
 62
3
100
AcDbLine
 10
4.976786
 20
169.570740
 30
0.0
 11
8.479407
 21
169.570740
 31
0.0
  0
LINE
  5
108
100
AcDbEntity
  8
VOM$SYSTEM$VORDEFINIERT
 62
3
100
AcDbLine
 10
8.479407
 20
169.570740
 30
0.0
 11
8.479407
 21
187.083834
 31
0.0
  0
LINE
  5
109
100
AcDbEntity
  8
VOM$SYSTEM$VORDEFINIERT
 62
3
100
AcDbLine
 10
8.479407
 20
187.083834
 30
0.0
 11
59.267375
 21
187.083834
 31
0.0
  0
LINE
  5
10a
100
AcDbEntity
  8
VOM$SYSTEM$VORDEFINIERT
 62
3
100
AcDbLine
 10
59.267375
 20
187.083834
 30
0.0
 11
59.267375
 21
172.197704
 31
0.0
  0
LINE
  5
10b
100
AcDbEntity
  8
VOM$SYSTEM$VORDEFINIERT
 62
3
100
AcDbLine
 10
59.267375
 20
172.197704
 30
0.0
 11
61.894339
 21
172.197704
 31
0.0
  0
LINE
  5
10c
100
AcDbEntity
  8
VOM$SYSTEM$VORDEFINIERT
 62
3
100
AcDbLine
 10
61.894339
 20
172.197704
 30
0.0
 11
61.894339
 21
187.083834
 31
0.0
  0
LINE
  5
10d
100
AcDbEntity
  8
VOM$SYSTEM$VORDEFINIERT
 62
3
100
AcDbLine
 10
61.894339
 20
187.083834
 30
0.0
 11
65.396959
 21
187.083834
 31
0.0
  0
LINE
  5
10e
100
AcDbEntity
  8
VOM$SYSTEM$VORDEFINIERT
 62
3
100
AcDbLine
 10
65.396959
 20
187.083834
 30
0.0
 11
65.396959
 21
189.710798
 31
0.0
  0
LINE
  5
10f
100
AcDbEntity
  8
VOM$SYSTEM$VORDEFINIERT
 62
3
100
AcDbLine
 10
65.396959
 20
189.710798
 30
0.0
 11
8.479407
 21
189.710798
 31
0.0
  0
LINE
  5
110
100
AcDbEntity
  8
VOM$SYSTEM$VORDEFINIERT
 62
3
100
AcDbLine
 10
8.479407
 20
189.710798
 30
0.0
 11
8.479407
 21
197.591687
 31
0.0
  0
LINE
  5
111
100
AcDbEntity
  8
VOM$SYSTEM$VORDEFINIERT
 62
3
100
AcDbLine
 10
8.479407
 20
197.591687
 30
0.0
 11
4.976786
 21
197.591687
 31
0.0
  0
LINE
  5
112
100
AcDbEntity
  8
VOM$SYSTEM$VORDEFINIERT
 62
3
100
AcDbLine
 10
59.267375
 20
159.062887
 30
0.0
 11
59.267375
 21
139.798477
 31
0.0
  0
LINE
  5
113
100
AcDbEntity
  8
VOM$SYSTEM$VORDEFINIERT
 62
3
100
AcDbLine
 10
59.267375
 20
139.798477
 30
0.0
 11
8.479407
 21
139.798477
 31
0.0
  0
LINE
  5
114
100
AcDbEntity
  8
VOM$SYSTEM$VORDEFINIERT
 62
3
100
AcDbLine
 10
8.479407
 20
139.798477
 30
0.0
 11
8.479407
 21
151.181989
 31
0.0
  0
LINE
  5
115
100
AcDbEntity
  8
VOM$SYSTEM$VORDEFINIERT
 62
3
100
AcDbLine
 10
8.479407
 20
151.181989
 30
0.0
 11
4.976786
 21
151.181989
 31
0.0
  0
LINE
  5
116
100
AcDbEntity
  8
VOM$SYSTEM$VORDEFINIERT
 62
3
100
AcDbLine
 10
4.976786
 20
151.181989
 30
0.0
 11
4.976786
 21
111.777527
 31
0.0
  0
LINE
  5
117
100
AcDbEntity
  8
VOM$SYSTEM$VORDEFINIERT
 62
3
100
AcDbLine
 10
4.976786
 20
111.777527
 30
0.0
 11
8.479407
 21
111.777527
 31
0.0
  0
LINE
  5
118
100
AcDbEntity
  8
VOM$SYSTEM$VORDEFINIERT
 62
3
100
AcDbLine
 10
8.479407
 20
111.777527
 30
0.0
 11
8.479407
 21
137.171519
 31
0.0
  0
LINE
  5
119
100
AcDbEntity
  8
VOM$SYSTEM$VORDEFINIERT
 62
3
100
AcDbLine
 10
8.479407
 20
137.171519
 30
0.0
 11
61.894339
 21
137.171519
 31
0.0
  0
LINE
  5
11a
100
AcDbEntity
  8
VOM$SYSTEM$VORDEFINIERT
 62
3
100
AcDbLine
 10
61.894339
 20
137.171519
 30
0.0
 11
61.894339
 21
159.062887
 31
0.0
  0
LINE
  5
11b
100
AcDbEntity
  8
VOM$SYSTEM$VORDEFINIERT
 62
3
100
AcDbLine
 10
61.894339
 20
159.062887
 30
0.0
 11
59.267375
 21
159.062887
 31
0.0
  0
LINE
  5
11c
100
AcDbEntity
  8
VOM$SYSTEM$VORDEFINIERT
 62
3
100
AcDbLine
 10
197.620819
 20
166.943776
 30
0.0
 11
197.620819
 21
154.684610
 31
0.0
  0
LINE
  5
11d
100
AcDbEntity
  8
VOM$SYSTEM$VORDEFINIERT
 62
3
100
AcDbLine
 10
197.620819
 20
154.684610
 30
0.0
 11
152.086776
 21
154.684610
 31
0.0
  0
LINE
  5
11e
100
AcDbEntity
  8
VOM$SYSTEM$VORDEFINIERT
 62
3
100
AcDbLine
 10
152.086776
 20
154.684610
 30
0.0
 11
152.086776
 21
152.057646
 31
0.0
  0
LINE
  5
11f
100
AcDbEntity
  8
VOM$SYSTEM$VORDEFINIERT
 62
3
100
AcDbLine
 10
152.086776
 20
152.057646
 30
0.0
 11
155.589393
 21
152.057646
 31
0.0
  0
LINE
  5
120
100
AcDbEntity
  8
VOM$SYSTEM$VORDEFINIERT
 62
3
100
AcDbLine
 10
155.589393
 20
152.057646
 30
0.0
 11
155.589393
 21
127.539314
 31
0.0
  0
LINE
  5
121
100
AcDbEntity
  8
VOM$SYSTEM$VORDEFINIERT
 62
3
100
AcDbLine
 10
155.589393
 20
127.539314
 30
0.0
 11
162.594631
 21
127.539314
 31
0.0
  0
LINE
  5
122
100
AcDbEntity
  8
VOM$SYSTEM$VORDEFINIERT
 62
3
100
AcDbLine
 10
162.594631
 20
127.539314
 30
0.0
 11
162.594631
 21
131.041932
 31
0.0
  0
LINE
  5
123
100
AcDbEntity
  8
VOM$SYSTEM$VORDEFINIERT
 62
3
100
AcDbLine
 10
162.594631
 20
131.041932
 30
0.0
 11
158.216357
 21
131.041932
 31
0.0
  0
LINE
  5
124
100
AcDbEntity
  8
VOM$SYSTEM$VORDEFINIERT
 62
3
100
AcDbLine
 10
158.216357
 20
131.041932
 30
0.0
 11
158.216357
 21
152.057646
 31
0.0
  0
LINE
  5
125
100
AcDbEntity
  8
VOM$SYSTEM$VORDEFINIERT
 62
3
100
AcDbLine
 10
158.216357
 20
152.057646
 30
0.0
 11
197.620819
 21
152.057646
 31
0.0
  0
LINE
  5
126
100
AcDbEntity
  8
VOM$SYSTEM$VORDEFINIERT
 62
3
100
AcDbLine
 10
197.620819
 20
152.057646
 30
0.0
 11
197.620819
 21
148.555023
 31
0.0
  0
LINE
  5
127
100
AcDbEntity
  8
VOM$SYSTEM$VORDEFINIERT
 62
3
100
AcDbLine
 10
197.620819
 20
148.555023
 30
0.0
 11
201.123440
 21
148.555023
 31
0.0
  0
LINE
  5
128
100
AcDbEntity
  8
VOM$SYSTEM$VORDEFINIERT
 62
3
100
AcDbLine
 10
201.123440
 20
148.555023
 30
0.0
 11
201.123440
 21
166.943776
 31
0.0
  0
LINE
  5
129
100
AcDbEntity
  8
VOM$SYSTEM$VORDEFINIERT
 62
3
100
AcDbLine
 10
201.123440
 20
166.943776
 30
0.0
 11
197.620819
 21
166.943776
 31
0.0
  0
LINE
  5
12a
100
AcDbEntity
  8
VOM$SYSTEM$VORDEFINIERT
 62
3
100
AcDbLine
 10
4.976786
 20
77.626999
 30
0.0
 11
4.976786
 21
62.740863
 31
0.0
  0
LINE
  5
12b
100
AcDbEntity
  8
VOM$SYSTEM$VORDEFINIERT
 62
3
100
AcDbLine
 10
4.976786
 20
62.740863
 30
0.0
 11
19.862913
 21
62.740863
 31
0.0
  0
LINE
  5
12c
100
AcDbEntity
  8
VOM$SYSTEM$VORDEFINIERT
 62
3
100
AcDbLine
 10
19.862913
 20
62.740863
 30
0.0
 11
19.862913
 21
66.243486
 31
0.0
  0
LINE
  5
12d
100
AcDbEntity
  8
VOM$SYSTEM$VORDEFINIERT
 62
3
100
AcDbLine
 10
19.862913
 20
66.243486
 30
0.0
 11
8.479407
 21
66.243486
 31
0.0
  0
LINE
  5
12e
100
AcDbEntity
  8
VOM$SYSTEM$VORDEFINIERT
 62
3
100
AcDbLine
 10
8.479407
 20
66.243486
 30
0.0
 11
8.479407
 21
77.626999
 31
0.0
  0
LINE
  5
12f
100
AcDbEntity
  8
VOM$SYSTEM$VORDEFINIERT
 62
3
100
AcDbLine
 10
8.479407
 20
77.626999
 30
0.0
 11
4.976786
 21
77.626999
 31
0.0
  0
LINE
  5
130
100
AcDbEntity
  8
VOM$SYSTEM$VORDEFINIERT
 62
3
100
AcDbLine
 10
79.407433
 20
232.617878
 30
0.0
 11
79.407433
 21
229.115260
 31
0.0
  0
LINE
  5
131
100
AcDbEntity
  8
VOM$SYSTEM$VORDEFINIERT
 62
3
100
AcDbLine
 10
79.407433
 20
229.115260
 30
0.0
 11
87.288328
 21
229.115260
 31
0.0
  0
LINE
  5
132
100
AcDbEntity
  8
VOM$SYSTEM$VORDEFINIERT
 62
3
100
AcDbLine
 10
87.288328
 20
229.115260
 30
0.0
 11
87.288328
 21
189.710798
 31
0.0
  0
LINE
  5
133
100
AcDbEntity
  8
VOM$SYSTEM$VORDEFINIERT
 62
3
100
AcDbLine
 10
87.288328
 20
189.710798
 30
0.0
 11
79.407433
 21
189.710798
 31
0.0
  0
LINE
  5
134
100
AcDbEntity
  8
VOM$SYSTEM$VORDEFINIERT
 62
3
100
AcDbLine
 10
79.407433
 20
189.710798
 30
0.0
 11
79.407433
 21
187.083834
 31
0.0
  0
LINE
  5
135
100
AcDbEntity
  8
VOM$SYSTEM$VORDEFINIERT
 62
3
100
AcDbLine
 10
79.407433
 20
187.083834
 30
0.0
 11
87.288328
 21
187.083834
 31
0.0
  0
LINE
  5
136
100
AcDbEntity
  8
VOM$SYSTEM$VORDEFINIERT
 62
3
100
AcDbLine
 10
87.288328
 20
187.083834
 30
0.0
 11
87.288328
 21
145.052408
 31
0.0
  0
LINE
  5
137
100
AcDbEntity
  8
VOM$SYSTEM$VORDEFINIERT
 62
3
100
AcDbLine
 10
87.288328
 20
145.052408
 30
0.0
 11
89.915292
 21
145.052408
 31
0.0
  0
LINE
  5
138
100
AcDbEntity
  8
VOM$SYSTEM$VORDEFINIERT
 62
3
100
AcDbLine
 10
89.915292
 20
145.052408
 30
0.0
 11
89.915292
 21
164.316809
 31
0.0
  0
LINE
  5
139
100
AcDbEntity
  8
VOM$SYSTEM$VORDEFINIERT
 62
3
100
AcDbLine
 10
89.915292
 20
164.316809
 30
0.0
 11
117.060588
 21
164.316809
 31
0.0
  0
LINE
  5
13a
100
AcDbEntity
  8
VOM$SYSTEM$VORDEFINIERT
 62
3
100
AcDbLine
 10
117.060588
 20
164.316809
 30
0.0
 11
117.060588
 21
166.943776
 31
0.0
  0
LINE
  5
13b
100
AcDbEntity
  8
VOM$SYSTEM$VORDEFINIERT
 62
3
100
AcDbLine
 10
117.060588
 20
166.943776
 30
0.0
 11
89.915292
 21
166.943776
 31
0.0
  0
LINE
  5
13c
100
AcDbEntity
  8
VOM$SYSTEM$VORDEFINIERT
 62
3
100
AcDbLine
 10
89.915292
 20
166.943776
 30
0.0
 11
89.915292
 21
229.115260
 31
0.0
  0
LINE
  5
13d
100
AcDbEntity
  8
VOM$SYSTEM$VORDEFINIERT
 62
3
100
AcDbLine
 10
89.915292
 20
229.115260
 30
0.0
 11
100.423150
 21
229.115260
 31
0.0
  0
LINE
  5
13e
100
AcDbEntity
  8
VOM$SYSTEM$VORDEFINIERT
 62
3
100
AcDbLine
 10
100.423150
 20
229.115260
 30
0.0
 11
100.423150
 21
232.617878
 31
0.0
  0
LINE
  5
13f
100
AcDbEntity
  8
VOM$SYSTEM$VORDEFINIERT
 62
3
100
AcDbLine
 10
100.423150
 20
232.617878
 30
0.0
 11
79.407433
 21
232.617878
 31
0.0
  0
LINE
  5
140
100
AcDbEntity
  8
VOM$SYSTEM$VORDEFINIERT
 62
3
100
AcDbLine
 10
122.314518
 20
232.617878
 30
0.0
 11
122.314518
 21
229.115260
 31
0.0
  0
LINE
  5
141
100
AcDbEntity
  8
VOM$SYSTEM$VORDEFINIERT
 62
3
100
AcDbLine
 10
122.314518
 20
229.115260
 30
0.0
 11
133.698025
 21
229.115260
 31
0.0
  0
LINE
  5
142
100
AcDbEntity
  8
VOM$SYSTEM$VORDEFINIERT
 62
3
100
AcDbLine
 10
133.698025
 20
229.115260
 30
0.0
 11
133.698025
 21
166.943776
 31
0.0
  0
LINE
  5
143
100
AcDbEntity
  8
VOM$SYSTEM$VORDEFINIERT
 62
3
100
AcDbLine
 10
133.698025
 20
166.943776
 30
0.0
 11
129.319754
 21
166.943776
 31
0.0
  0
LINE
  5
144
100
AcDbEntity
  8
VOM$SYSTEM$VORDEFINIERT
 62
3
100
AcDbLine
 10
129.319754
 20
166.943776
 30
0.0
 11
129.319754
 21
164.316809
 31
0.0
  0
LINE
  5
145
100
AcDbEntity
  8
VOM$SYSTEM$VORDEFINIERT
 62
3
100
AcDbLine
 10
129.319754
 20
164.316809
 30
0.0
 11
133.698025
 21
164.316809
 31
0.0
  0
LINE
  5
146
100
AcDbEntity
  8
VOM$SYSTEM$VORDEFINIERT
 62
3
100
AcDbLine
 10
133.698025
 20
164.316809
 30
0.0
 11
133.698025
 21
143.301098
 31
0.0
  0
LINE
  5
147
100
AcDbEntity
  8
VOM$SYSTEM$VORDEFINIERT
 62
3
100
AcDbLine
 10
133.698025
 20
143.301098
 30
0.0
 11
136.324992
 21
143.301098
 31
0.0
  0
LINE
  5
148
100
AcDbEntity
  8
VOM$SYSTEM$VORDEFINIERT
 62
3
100
AcDbLine
 10
136.324992
 20
143.301098
 30
0.0
 11
136.324992
 21
152.057646
 31
0.0
  0
LINE
  5
149
100
AcDbEntity
  8
VOM$SYSTEM$VORDEFINIERT
 62
3
100
AcDbLine
 10
136.324992
 20
152.057646
 30
0.0
 11
139.827612
 21
152.057646
 31
0.0
  0
LINE
  5
14a
100
AcDbEntity
  8
VOM$SYSTEM$VORDEFINIERT
 62
3
100
AcDbLine
 10
139.827612
 20
152.057646
 30
0.0
 11
139.827612
 21
154.684610
 31
0.0
  0
LINE
  5
14b
100
AcDbEntity
  8
VOM$SYSTEM$VORDEFINIERT
 62
3
100
AcDbLine
 10
139.827612
 20
154.684610
 30
0.0
 11
136.324992
 21
154.684610
 31
0.0
  0
LINE
  5
14c
100
AcDbEntity
  8
VOM$SYSTEM$VORDEFINIERT
 62
3
100
AcDbLine
 10
136.324992
 20
154.684610
 30
0.0
 11
136.324992
 21
229.115260
 31
0.0
  0
LINE
  5
14d
100
AcDbEntity
  8
VOM$SYSTEM$VORDEFINIERT
 62
3
100
AcDbLine
 10
136.324992
 20
229.115260
 30
0.0
 11
138.076299
 21
229.115260
 31
0.0
  0
LINE
  5
14e
100
AcDbEntity
  8
VOM$SYSTEM$VORDEFINIERT
 62
3
100
AcDbLine
 10
138.076299
 20
229.115260
 30
0.0
 11
138.076299
 21
232.617878
 31
0.0
  0
LINE
  5
14f
100
AcDbEntity
  8
VOM$SYSTEM$VORDEFINIERT
 62
3
100
AcDbLine
 10
138.076299
 20
232.617878
 30
0.0
 11
122.314518
 21
232.617878
 31
0.0
  0
LINE
  5
150
100
AcDbEntity
  8
VOM$SYSTEM$VORDEFINIERT
 62
3
100
AcDbLine
 10
154.713740
 20
232.617878
 30
0.0
 11
154.713740
 21
229.115260
 31
0.0
  0
LINE
  5
151
100
AcDbEntity
  8
VOM$SYSTEM$VORDEFINIERT
 62
3
100
AcDbLine
 10
154.713740
 20
229.115260
 30
0.0
 11
197.620819
 21
229.115260
 31
0.0
  0
LINE
  5
152
100
AcDbEntity
  8
VOM$SYSTEM$VORDEFINIERT
 62
3
100
AcDbLine
 10
197.620819
 20
229.115260
 30
0.0
 11
197.620819
 21
188.835144
 31
0.0
  0
LINE
  5
153
100
AcDbEntity
  8
VOM$SYSTEM$VORDEFINIERT
 62
3
100
AcDbLine
 10
197.620819
 20
188.835144
 30
0.0
 11
201.123440
 21
188.835144
 31
0.0
  0
LINE
  5
154
100
AcDbEntity
  8
VOM$SYSTEM$VORDEFINIERT
 62
3
100
AcDbLine
 10
201.123440
 20
188.835144
 30
0.0
 11
201.123440
 21
232.617878
 31
0.0
  0
LINE
  5
155
100
AcDbEntity
  8
VOM$SYSTEM$VORDEFINIERT
 62
3
100
AcDbLine
 10
201.123440
 20
232.617878
 30
0.0
 11
154.713740
 21
232.617878
 31
0.0
  0
LINE
  5
156
100
AcDbEntity
  8
VOM$SYSTEM$VORDEFINIERT
 62
3
100
AcDbLine
 10
197.620819
 20
134.544555
 30
0.0
 11
197.620819
 21
131.041932
 31
0.0
  0
LINE
  5
157
100
AcDbEntity
  8
VOM$SYSTEM$VORDEFINIERT
 62
3
100
AcDbLine
 10
197.620819
 20
131.041932
 30
0.0
 11
173.978144
 21
131.041932
 31
0.0
  0
LINE
  5
158
100
AcDbEntity
  8
VOM$SYSTEM$VORDEFINIERT
 62
3
100
AcDbLine
 10
173.978144
 20
131.041932
 30
0.0
 11
173.978144
 21
127.539314
 31
0.0
  0
LINE
  5
159
100
AcDbEntity
  8
VOM$SYSTEM$VORDEFINIERT
 62
3
100
AcDbLine
 10
173.978144
 20
127.539314
 30
0.0
 11
178.356418
 21
127.539314
 31
0.0
  0
LINE
  5
15a
100
AcDbEntity
  8
VOM$SYSTEM$VORDEFINIERT
 62
3
100
AcDbLine
 10
178.356418
 20
127.539314
 30
0.0
 11
178.356418
 21
122.285386
 31
0.0
  0
LINE
  5
15b
100
AcDbEntity
  8
VOM$SYSTEM$VORDEFINIERT
 62
3
100
AcDbLine
 10
178.356418
 20
122.285386
 30
0.0
 11
181.859036
 21
122.285386
 31
0.0
  0
LINE
  5
15c
100
AcDbEntity
  8
VOM$SYSTEM$VORDEFINIERT
 62
3
100
AcDbLine
 10
181.859036
 20
122.285386
 30
0.0
 11
181.859036
 21
127.539314
 31
0.0
  0
LINE
  5
15d
100
AcDbEntity
  8
VOM$SYSTEM$VORDEFINIERT
 62
3
100
AcDbLine
 10
181.859036
 20
127.539314
 30
0.0
 11
201.123440
 21
127.539314
 31
0.0
  0
LINE
  5
15e
100
AcDbEntity
  8
VOM$SYSTEM$VORDEFINIERT
 62
3
100
AcDbLine
 10
201.123440
 20
127.539314
 30
0.0
 11
201.123440
 21
134.544555
 31
0.0
  0
LINE
  5
15f
100
AcDbEntity
  8
VOM$SYSTEM$VORDEFINIERT
 62
3
100
AcDbLine
 10
201.123440
 20
134.544555
 30
0.0
 11
197.620819
 21
134.544555
 31
0.0
  0
LINE
  5
160
100
AcDbEntity
  8
VOM$SYSTEM$VORDEFINIERT
 62
3
100
AcDbLine
 10
178.356418
 20
76.751339
 30
0.0
 11
178.356418
 21
66.243486
 31
0.0
  0
LINE
  5
161
100
AcDbEntity
  8
VOM$SYSTEM$VORDEFINIERT
 62
3
100
AcDbLine
 10
178.356418
 20
66.243486
 30
0.0
 11
125.817133
 21
66.243486
 31
0.0
  0
LINE
  5
162
100
AcDbEntity
  8
VOM$SYSTEM$VORDEFINIERT
 62
3
100
AcDbLine
 10
125.817133
 20
66.243486
 30
0.0
 11
125.817133
 21
62.740863
 31
0.0
  0
LINE
  5
163
100
AcDbEntity
  8
VOM$SYSTEM$VORDEFINIERT
 62
3
100
AcDbLine
 10
125.817133
 20
62.740863
 30
0.0
 11
181.859036
 21
62.740863
 31
0.0
  0
LINE
  5
164
100
AcDbEntity
  8
VOM$SYSTEM$VORDEFINIERT
 62
3
100
AcDbLine
 10
181.859036
 20
62.740863
 30
0.0
 11
181.859036
 21
76.751339
 31
0.0
  0
LINE
  5
165
100
AcDbEntity
  8
VOM$SYSTEM$VORDEFINIERT
 62
3
100
AcDbLine
 10
181.859036
 20
76.751339
 30
0.0
 11
178.356418
 21
76.751339
 31
0.0
  0
LINE
  5
166
100
AcDbEntity
  8
VOM$SYSTEM$VORDEFINIERT
 62
3
100
AcDbLine
 10
66.272613
 20
66.243486
 30
0.0
 11
66.272613
 21
62.740863
 31
0.0
  0
LINE
  5
167
100
AcDbEntity
  8
VOM$SYSTEM$VORDEFINIERT
 62
3
100
AcDbLine
 10
66.272613
 20
62.740863
 30
0.0
 11
101.298801
 21
62.740863
 31
0.0
  0
LINE
  5
168
100
AcDbEntity
  8
VOM$SYSTEM$VORDEFINIERT
 62
3
100
AcDbLine
 10
101.298801
 20
62.740863
 30
0.0
 11
101.298801
 21
66.243486
 31
0.0
  0
LINE
  5
169
100
AcDbEntity
  8
VOM$SYSTEM$VORDEFINIERT
 62
3
100
AcDbLine
 10
101.298801
 20
66.243486
 30
0.0
 11
66.272613
 21
66.243486
 31
0.0
  0
LINE
  5
16a
100
AcDbEntity
  8
VOM$SYSTEM$VORDEFINIERT
 62
3
100
AcDbLine
 10
178.356418
 20
103.896635
 30
0.0
 11
178.356418
 21
94.264436
 31
0.0
  0
LINE
  5
16b
100
AcDbEntity
  8
VOM$SYSTEM$VORDEFINIERT
 62
3
100
AcDbLine
 10
178.356418
 20
94.264436
 30
0.0
 11
181.859036
 21
94.264436
 31
0.0
  0
LINE
  5
16c
100
AcDbEntity
  8
VOM$SYSTEM$VORDEFINIERT
 62
3
100
AcDbLine
 10
181.859036
 20
94.264436
 30
0.0
 11
181.859036
 21
103.896635
 31
0.0
  0
LINE
  5
16d
100
AcDbEntity
  8
VOM$SYSTEM$VORDEFINIERT
 62
3
100
AcDbLine
 10
181.859036
 20
103.896635
 30
0.0
 11
178.356418
 21
103.896635
 31
0.0
  0
LINE
  5
16e
100
AcDbEntity
  8
VOM$SYSTEM$VORDEFINIERT
 62
3
100
AcDbLine
 10
54.013450
 20
232.617878
 30
0.0
 11
54.013450
 21
229.115260
 31
0.0
  0
LINE
  5
16f
100
AcDbEntity
  8
VOM$SYSTEM$VORDEFINIERT
 62
3
100
AcDbLine
 10
54.013450
 20
229.115260
 30
0.0
 11
62.769998
 21
229.115260
 31
0.0
  0
LINE
  5
170
100
AcDbEntity
  8
VOM$SYSTEM$VORDEFINIERT
 62
3
100
AcDbLine
 10
62.769998
 20
229.115260
 30
0.0
 11
62.769998
 21
232.617878
 31
0.0
  0
LINE
  5
171
100
AcDbEntity
  8
VOM$SYSTEM$VORDEFINIERT
 62
3
100
AcDbLine
 10
62.769998
 20
232.617878
 30
0.0
 11
54.013450
 21
232.617878
 31
0.0
  0
LINE
  5
172
100
AcDbEntity
  8
DOORS
 62
1
100
AcDbLine
 10
65.396959
 20
189.710798
 30
0.0
 11
79.407433
 21
189.710798
 31
0.0
  0
LINE
  5
173
100
AcDbEntity
  8
DOORS
 62
1
100
AcDbLine
 10
65.396959
 20
187.083834
 30
0.0
 11
79.407433
 21
187.083834
 31
0.0
  0
LINE
  5
174
100
AcDbEntity
  8
DOORS
 62
1
100
AcDbLine
 10
59.267375
 20
172.197704
 30
0.0
 11
59.267375
 21
159.062887
 31
0.0
  0
LINE
  5
175
100
AcDbEntity
  8
DOORS
 62
1
100
AcDbLine
 10
61.894339
 20
172.197704
 30
0.0
 11
61.894339
 21
159.062887
 31
0.0
  0
LINE
  5
176
100
AcDbEntity
  8
DOORS
 62
1
100
AcDbLine
 10
117.060588
 20
166.943776
 30
0.0
 11
129.319754
 21
166.943776
 31
0.0
  0
LINE
  5
177
100
AcDbEntity
  8
DOORS
 62
1
100
AcDbLine
 10
117.060588
 20
164.316809
 30
0.0
 11
129.319754
 21
164.316809
 31
0.0
  0
LINE
  5
178
100
AcDbEntity
  8
DOORS
 62
1
100
AcDbLine
 10
139.827612
 20
154.684610
 30
0.0
 11
152.086776
 21
154.684610
 31
0.0
  0
LINE
  5
179
100
AcDbEntity
  8
DOORS
 62
1
100
AcDbLine
 10
139.827612
 20
152.057646
 30
0.0
 11
152.086776
 21
152.057646
 31
0.0
  0
LINE
  5
17a
100
AcDbEntity
  8
DOORS
 62
1
100
AcDbLine
 10
201.123440
 20
148.555023
 30
0.0
 11
201.123440
 21
134.544555
 31
0.0
  0
LINE
  5
17b
100
AcDbEntity
  8
DOORS
 62
1
100
AcDbLine
 10
197.620819
 20
148.555023
 30
0.0
 11
197.620819
 21
134.544555
 31
0.0
  0
LINE
  5
17c
100
AcDbEntity
  8
DOORS
 62
1
100
AcDbLine
 10
162.594631
 20
131.041932
 30
0.0
 11
173.978144
 21
131.041932
 31
0.0
  0
LINE
  5
17d
100
AcDbEntity
  8
DOORS
 62
1
100
AcDbLine
 10
162.594631
 20
127.539314
 30
0.0
 11
173.978144
 21
127.539314
 31
0.0
  0
LINE
  5
17e
100
AcDbEntity
  8
WINDOWS
 62
1
100
AcDbLine
 10
4.976786
 20
217.731745
 30
0.0
 11
4.976786
 21
197.591687
 31
0.0
  0
LINE
  5
17f
100
AcDbEntity
  8
WINDOWS
 62
1
100
AcDbLine
 10
8.479407
 20
217.731745
 30
0.0
 11
8.479407
 21
197.591687
 31
0.0
  0
LINE
  5
180
100
AcDbEntity
  8
WINDOWS
 62
1
100
AcDbLine
 10
4.976786
 20
169.570740
 30
0.0
 11
4.976786
 21
151.181989
 31
0.0
  0
LINE
  5
181
100
AcDbEntity
  8
WINDOWS
 62
1
100
AcDbLine
 10
8.479407
 20
169.570740
 30
0.0
 11
8.479407
 21
151.181989
 31
0.0
  0
LINE
  5
182
100
AcDbEntity
  8
WINDOWS
 62
1
100
AcDbLine
 10
4.976786
 20
111.777527
 30
0.0
 11
4.976786
 21
77.626999
 31
0.0
  0
LINE
  5
183
100
AcDbEntity
  8
WINDOWS
 62
1
100
AcDbLine
 10
8.479407
 20
111.777527
 30
0.0
 11
8.479407
 21
77.626999
 31
0.0
  0
LINE
  5
184
100
AcDbEntity
  8
WINDOWS
 62
1
100
AcDbLine
 10
62.762136
 20
232.617878
 30
0.0
 11
79.404374
 21
232.617878
 31
0.0
  0
LINE
  5
185
100
AcDbEntity
  8
WINDOWS
 62
1
100
AcDbLine
 10
100.423150
 20
232.617878
 30
0.0
 11
122.314518
 21
232.617878
 31
0.0
  0
LINE
  5
186
100
AcDbEntity
  8
WINDOWS
 62
1
100
AcDbLine
 10
100.423150
 20
229.115260
 30
0.0
 11
122.314518
 21
229.115260
 31
0.0
  0
LINE
  5
187
100
AcDbEntity
  8
WINDOWS
 62
1
100
AcDbLine
 10
197.620819
 20
188.835144
 30
0.0
 11
197.620819
 21
166.943776
 31
0.0
  0
LINE
  5
188
100
AcDbEntity
  8
WINDOWS
 62
1
100
AcDbLine
 10
201.123440
 20
188.835144
 30
0.0
 11
201.123440
 21
166.943776
 31
0.0
  0
LINE
  5
189
100
AcDbEntity
  8
WINDOWS
 62
1
100
AcDbLine
 10
138.076299
 20
232.617878
 30
0.0
 11
154.713740
 21
232.617878
 31
0.0
  0
LINE
  5
18a
100
AcDbEntity
  8
WINDOWS
 62
1
100
AcDbLine
 10
138.076299
 20
229.115260
 30
0.0
 11
154.713740
 21
229.115260
 31
0.0
  0
LINE
  5
18b
100
AcDbEntity
  8
WINDOWS
 62
1
100
AcDbLine
 10
19.862913
 20
66.243486
 30
0.0
 11
66.272613
 21
66.243486
 31
0.0
  0
LINE
  5
18c
100
AcDbEntity
  8
WINDOWS
 62
1
100
AcDbLine
 10
19.862913
 20
62.740863
 30
0.0
 11
66.272613
 21
62.740863
 31
0.0
  0
LINE
  5
18d
100
AcDbEntity
  8
WINDOWS
 62
1
100
AcDbLine
 10
101.298801
 20
66.243486
 30
0.0
 11
125.817133
 21
66.243486
 31
0.0
  0
LINE
  5
18e
100
AcDbEntity
  8
WINDOWS
 62
1
100
AcDbLine
 10
101.298801
 20
62.740863
 30
0.0
 11
125.817133
 21
62.740863
 31
0.0
  0
LINE
  5
18f
100
AcDbEntity
  8
WINDOWS
 62
1
100
AcDbLine
 10
178.356418
 20
122.285386
 30
0.0
 11
178.356418
 21
103.896635
 31
0.0
  0
LINE
  5
190
100
AcDbEntity
  8
WINDOWS
 62
1
100
AcDbLine
 10
181.859036
 20
122.285386
 30
0.0
 11
181.859036
 21
103.896635
 31
0.0
  0
LINE
  5
191
100
AcDbEntity
  8
WINDOWS
 62
1
100
AcDbLine
 10
178.356418
 20
94.264436
 30
0.0
 11
178.356418
 21
76.751339
 31
0.0
  0
LINE
  5
192
100
AcDbEntity
  8
WINDOWS
 62
1
100
AcDbLine
 10
181.859036
 20
94.264436
 30
0.0
 11
181.859036
 21
76.751339
 31
0.0
  0
LINE
  5
193
100
AcDbEntity
  8
WINDOWS
 62
1
100
AcDbLine
 10
36.500765
 20
232.613949
 30
0.0
 11
54.001117
 21
232.613949
 31
0.0
  0
LINE
  5
194
100
AcDbEntity
  8
WINDOWS
 62
1
100
AcDbLine
 10
36.516036
 20
229.116651
 30
0.0
 11
54.016388
 21
229.116651
 31
0.0
  0
LINE
  5
195
100
AcDbEntity
  8
WINDOWS
 62
1
100
AcDbLine
 10
62.767413
 20
229.118229
 30
0.0
 11
79.409654
 21
229.118229
 31
0.0
  0
ENDSEC
  0
SECTION
  2
OBJECTS
  0
DICTIONARY
  5
C
330
0
100
AcDbDictionary
  3
ACAD_GROUP
350
D
  3
ACAD_MLINESTYLE
350
17
  0
DICTIONARY
  5
D
330
C
100
AcDbDictionary
  0
DICTIONARY
  5
1A
330
C
100
AcDbDictionary
  0
DICTIONARY
  5
17
330
C
100
AcDbDictionary
  3
STANDARD
350
18
  0
DICTIONARY
  5
19
330
C
100
AcDbDictionary
  0
ENDSEC
  0
EOF
