  0
SECTION
  2
HEADER
  9
$ACADVER
  1
AC1014
  9
$HANDSEED
  5
FFFF
  9
$MEASUREMENT
 70
     1
  0
ENDSEC
  0
SECTION
  2
TABLES
  0
TABLE
  2
VPORT
  5
8
330
0
100
AcDbSymbolTable
 70
     4
  0
VPORT
  5
2E
330
8
100
AcDbSymbolTableRecord
100
AcDbViewportTableRecord
  2
*ACTIVE
 70
     0
 10
0.0
 20
0.0
 11
1.0
 21
1.0
 12
210.0
 22
148.5
 13
0.0
 23
0.0
 14
10.0
 24
10.0
 15
10.0
 25
10.0
 16
0.0
 26
0.0
 36
1.0
 17
0.0
 27
0.0
 37
0.0
 40
341.0
 41
1.24
 42
50.0
 43
0.0
 44
0.0
 50
0.0
 51
0.0
 71
     0
 72
   100
 73
     1
 74
     3
 75
     0
 76
     0
 77
     0
 78
     0
  0
ENDTAB
  0
TABLE
  2
LTYPE
  5
5
330
0
100
AcDbSymbolTable
 70
     1
  0
LTYPE
  5
14
330
5
100
AcDbSymbolTableRecord
100
AcDbLinetypeTableRecord
  2
BYBLOCK
 70
     0
  3

 72
    65
 73
     0
 40
0.0
  0
LTYPE
  5
15
330
5
100
AcDbSymbolTableRecord
100
AcDbLinetypeTableRecord
  2
BYLAYER
 70
     0
  3

 72
    65
 73
     0
 40
0.0
  0
LTYPE
  5
16
330
5
100
AcDbSymbolTableRecord
100
AcDbLinetypeTableRecord
  2
CONTINUOUS
 70
     0
  3
Solid line
 72
    65
 73
     0
 40
0.0
  0
ENDTAB
  0
TABLE
  2
LAYER
  5
2
100
AcDbSymbolTable
 70
28
  0
LAYER
  5
50
100
AcDbSymbolTableRecord
100
AcDbLayerTableRecord
  2
0
 70
0
  6
CONTINUOUS
  0
LAYER
  5
51
100
AcDbSymbolTableRecord
100
AcDbLayerTableRecord
  2
Defpoints
 70
0
  6
CONTINUOUS
  0
LAYER
  5
52
100
AcDbSymbolTableRecord
100
AcDbLayerTableRecord
  2
Schnittkanten
 70
0
  6
CONTINUOUS
  0
LAYER
  5
53
100
AcDbSymbolTableRecord
100
AcDbLayerTableRecord
  2
verdeckt_Kanten
 70
0
  6
CONTINUOUS
  0
LAYER
  5
54
100
AcDbSymbolTableRecord
100
AcDbLayerTableRecord
  2
Ansichtskanten
 70
0
  6
CONTINUOUS
  0
LAYER
  5
55
100
AcDbSymbolTableRecord
100
AcDbLayerTableRecord
  2
Tuerkanten
 70
0
  6
CONTINUOUS
  0
LAYER
  5
56
100
AcDbSymbolTableRecord
100
AcDbLayerTableRecord
  2
Schnittlinie
 70
0
  6
CONTINUOUS
  0
LAYER
  5
57
100
AcDbSymbolTableRecord
100
AcDbLayerTableRecord
  2
Schraffur
 70
0
  6
CONTINUOUS
  0
LAYER
  5
58
100
AcDbSymbolTableRecord
100
AcDbLayerTableRecord
  2
A_Bemassung
 70
0
  6
CONTINUOUS
  0
LAYER
  5
59
100
AcDbSymbolTableRecord
100
AcDbLayerTableRecord
  2
Ansichtsfenster
 70
0
  6
CONTINUOUS
  0
LAYER
  5
5a
100
AcDbSymbolTableRecord
100
AcDbLayerTableRecord
  2
Plankopf
 70
0
  6
CONTINUOUS
  0
LAYER
  5
5b
100
AcDbSymbolTableRecord
100
AcDbLayerTableRecord
  2
A_Beschriftung
 70
0
  6
CONTINUOUS
  0
LAYER
  5
5c
100
AcDbSymbolTableRecord
100
AcDbLayerTableRecord
  2
A_Raumnummer
 70
0
  6
CONTINUOUS
  0
LAYER
  5
5d
100
AcDbSymbolTableRecord
100
AcDbLayerTableRecord
  2
A_Foto
 70
0
  6
CONTINUOUS
  0
LAYER
  5
5e
100
AcDbSymbolTableRecord
100
AcDbLayerTableRecord
  2
Plankopf_@_0.05
 70
0
  6
CONTINUOUS
  0
LAYER
  5
5f
100
AcDbSymbolTableRecord
100
AcDbLayerTableRecord
  2
A_Bemassung_@_0.05
 70
0
  6
CONTINUOUS
  0
LAYER
  5
60
100
AcDbSymbolTableRecord
100
AcDbLayerTableRecord
  2
A_Beschriftung_@_0.05
 70
0
  6
CONTINUOUS
  0
LAYER
  5
61
100
AcDbSymbolTableRecord
100
AcDbLayerTableRecord
  2
A_Raumnummer_@_0.05
 70
0
  6
CONTINUOUS
  0
LAYER
  5
62
100
AcDbSymbolTableRecord
100
AcDbLayerTableRecord
  2
A_Foto_@_0.05
 70
0
  6
CONTINUOUS
  0
LAYER
  5
63
100
AcDbSymbolTableRecord
100
AcDbLayerTableRecord
  2
A_Beschriftung_@_0.025
 70
0
  6
CONTINUOUS
  0
LAYER
  5
64
100
AcDbSymbolTableRecord
100
AcDbLayerTableRecord
  2
A_Beschriftung_@_0.04
 70
0
  6
CONTINUOUS
  0
LAYER
  5
65
100
AcDbSymbolTableRecord
100
AcDbLayerTableRecord
  2
A_Raumnummer_@_0.025
 70
0
  6
CONTINUOUS
  0
LAYER
  5
66
100
AcDbSymbolTableRecord
100
AcDbLayerTableRecord
  2
A_Raumnummer_@_0.04
 70
0
  6
CONTINUOUS
  0
LAYER
  5
67
100
AcDbSymbolTableRecord
100
AcDbLayerTableRecord
  2
A_Foto_@_0.025
 70
0
  6
CONTINUOUS
  0
LAYER
  5
68
100
AcDbSymbolTableRecord
100
AcDbLayerTableRecord
  2
A_Foto_@_0.04
 70
0
  6
CONTINUOUS
  0
LAYER
  5
69
100
AcDbSymbolTableRecord
100
AcDbLayerTableRecord
  2
A_Bemassung_@_0.025
 70
0
  6
CONTINUOUS
  0
LAYER
  5
6a
100
AcDbSymbolTableRecord
100
AcDbLayerTableRecord
  2
A_Bemassung_@_0.04
 70
0
  6
CONTINUOUS
  0
LAYER
  5
6b
100
AcDbSymbolTableRecord
100
AcDbLayerTableRecord
  2
A_Bemassung_@_0.1
 70
0
  6
CONTINUOUS
  0
ENDTAB
  0
TABLE
  2
STYLE
  5
3
330
0
100
AcDbSymbolTable
 70
     1
  0
STYLE
  5
11
330
3
100
AcDbSymbolTableRecord
100
AcDbTextStyleTableRecord
  2
STANDARD
 70
     0
 40
0.0
 41
1.0
 50
0.0
 71
     0
 42
2.5
  3
txt
  4

  0
ENDTAB
  0
TABLE
  2
VIEW
  5
6
330
0
100
AcDbSymbolTable
 70
     0
  0
ENDTAB
  0
TABLE
  2
UCS
  5
7
330
0
100
AcDbSymbolTable
 70
     0
  0
ENDTAB
  0
TABLE
  2
APPID
  5
9
330
0
100
AcDbSymbolTable
 70
     2
  0
APPID
  5
12
330
9
100
AcDbSymbolTableRecord
100
AcDbRegAppTableRecord
  2
ACAD
 70
     0
  0
ENDTAB
  0
TABLE
  2
DIMSTYLE
  5
A
330
0
100
AcDbSymbolTable
 70
     1
  0
DIMSTYLE
105
27
330
A
100
AcDbSymbolTableRecord
100
AcDbDimStyleTableRecord
  2
ISO-25
 70
     0
  3

  4

  5

  6

  7

 40
1.0
 41
2.5
 42
0.625
 43
3.75
 44
1.25
 45
0.0
 46
0.0
 47
0.0
 48
0.0
140
2.5
141
2.5
142
0.0
143
0.03937007874016
144
1.0
145
0.0
146
1.0
147
0.625
 71
     0
 72
     0
 73
     0
 74
     0
 75
     0
 76
     0
 77
     1
 78
     8
170
     0
171
     3
172
     1
173
     0
174
     0
175
     0
176
     0
177
     0
178
     0
270
     2
271
     2
272
     2
273
     2
274
     3
340
11
275
     0
280
     0
281
     0
282
     0
283
     0
284
     8
285
     0
286
     0
287
     3
288
     0
  0
ENDTAB
  0
TABLE
  2
BLOCK_RECORD
  5
1
330
0
100
AcDbSymbolTable
 70
     1
  0
BLOCK_RECORD
  5
1F
330
1
100
AcDbSymbolTableRecord
100
AcDbBlockTableRecord
  2
*MODEL_SPACE
  0
BLOCK_RECORD
  5
1B
330
1
100
AcDbSymbolTableRecord
100
AcDbBlockTableRecord
  2
*PAPER_SPACE
  0
ENDTAB
  0
ENDSEC
  0
SECTION
  2
BLOCKS
  0
BLOCK
  5
20
330
1F
100
AcDbEntity
  8
0
100
AcDbBlockBegin
  2
*MODEL_SPACE
 70
     0
 10
0.0
 20
0.0
 30
0.0
  3
*MODEL_SPACE
  1

  0
ENDBLK
  5
21
330
1F
100
AcDbEntity
  8
0
100
AcDbBlockEnd
  0
BLOCK
  5
1C
330
1B
100
AcDbEntity
 67
     1
  8
0
100
AcDbBlockBegin
  2
*PAPER_SPACE
  1

  0
ENDBLK
  5
1D
330
1B
100
AcDbEntity
 67
     1
  8
0
100
AcDbBlockEnd
  0
ENDSEC
  0
SECTION
  2
ENTITIES
  0
LINE
  5
100
100
AcDbEntity
  8
Schnittkanten
 62
1
100
AcDbLine
 10
147.056142
 20
66.206242
 30
0.0
 11
147.056142
 21
61.954208
 31
0.0
  0
LINE
  5
101
100
AcDbEntity
  8
Schnittkanten
 62
1
100
AcDbLine
 10
147.056142
 20
55.400111
 30
0.0
 11
147.056142
 21
49.441846
 31
0.0
  0
LINE
  5
102
100
AcDbEntity
  8
Schnittkanten
 62
1
100
AcDbLine
 10
147.056142
 20
42.887740
 30
0.0
 11
147.056142
 21
37.471140
 31
0.0
  0
LINE
  5
103
100
AcDbEntity
  8
Schnittkanten
 62
1
100
AcDbLine
 10
147.056142
 20
30.917042
 30
0.0
 11
147.056142
 21
28.506639
 31
0.0
  0
LINE
  5
104
100
AcDbEntity
  8
Schnittkanten
 62
1
100
AcDbLine
 10
147.056142
 20
28.506639
 30
0.0
 11
145.106190
 21
28.506639
 31
0.0
  0
LINE
  5
105
100
AcDbEntity
  8
Schnittkanten
 62
1
100
AcDbLine
 10
145.106190
 20
28.506639
 30
0.0
 11
145.106190
 21
27.883749
 31
0.0
  0
LINE
  5
106
100
AcDbEntity
  8
Schnittkanten
 62
1
100
AcDbLine
 10
145.106190
 20
27.883749
 30
0.0
 11
147.056142
 21
27.883749
 31
0.0
  0
LINE
  5
107
100
AcDbEntity
  8
Schnittkanten
 62
1
100
AcDbLine
 10
147.056142
 20
12.148483
 30
0.0
 11
134.814623
 21
12.148483
 31
0.0
  0
LINE
  5
108
100
AcDbEntity
  8
Schnittkanten
 62
1
100
AcDbLine
 10
134.814623
 20
12.148483
 30
0.0
 11
134.814623
 21
21.844227
 31
0.0
  0
LINE
  5
109
100
AcDbEntity
  8
Schnittkanten
 62
1
100
AcDbLine
 10
134.814623
 20
21.844227
 30
0.0
 11
139.906234
 21
21.844227
 31
0.0
  0
LINE
  5
10a
100
AcDbEntity
  8
Schnittkanten
 62
1
100
AcDbLine
 10
139.906234
 20
21.844227
 30
0.0
 11
139.906234
 21
27.883749
 31
0.0
  0
LINE
  5
10b
100
AcDbEntity
  8
Schnittkanten
 62
1
100
AcDbLine
 10
139.283347
 20
22.440055
 30
0.0
 11
139.283347
 21
27.883749
 31
0.0
  0
LINE
  5
10c
100
AcDbEntity
  8
Schnittkanten
 62
1
100
AcDbLine
 10
139.906234
 20
27.883749
 30
0.0
 11
140.393722
 21
27.883749
 31
0.0
  0
LINE
  5
10d
100
AcDbEntity
  8
Schnittkanten
 62
1
100
AcDbLine
 10
140.393722
 20
27.883749
 30
0.0
 11
140.393722
 21
28.506639
 31
0.0
  0
LINE
  5
10e
100
AcDbEntity
  8
Schnittkanten
 62
1
100
AcDbLine
 10
147.056142
 20
12.148483
 30
0.0
 11
147.056142
 21
17.998433
 31
0.0
  0
LINE
  5
10f
100
AcDbEntity
  8
Schnittkanten
 62
1
100
AcDbLine
 10
147.056142
 20
24.498363
 30
0.0
 11
147.056142
 21
27.883749
 31
0.0
  0
LINE
  5
110
100
AcDbEntity
  8
Schnittkanten
 62
1
100
AcDbLine
 10
114.773188
 20
28.506639
 30
0.0
 11
115.098192
 21
28.506639
 31
0.0
  0
LINE
  5
111
100
AcDbEntity
  8
Schnittkanten
 62
1
100
AcDbLine
 10
121.462696
 20
28.506639
 30
0.0
 11
140.393722
 21
28.506639
 31
0.0
  0
LINE
  5
112
100
AcDbEntity
  8
Schnittkanten
 62
1
100
AcDbLine
 10
114.773188
 20
28.506639
 30
0.0
 11
114.773188
 21
28.939985
 31
0.0
  0
LINE
  5
113
100
AcDbEntity
  8
Schnittkanten
 62
1
100
AcDbLine
 10
114.773188
 20
35.304497
 30
0.0
 11
114.773188
 21
45.460636
 31
0.0
  0
LINE
  5
114
100
AcDbEntity
  8
Schnittkanten
 62
1
100
AcDbLine
 10
114.773188
 20
45.460636
 30
0.0
 11
117.643981
 21
45.460636
 31
0.0
  0
LINE
  5
115
100
AcDbEntity
  8
Schnittkanten
 62
1
100
AcDbLine
 10
117.643981
 20
45.460636
 30
0.0
 11
117.643981
 21
51.202247
 31
0.0
  0
LINE
  5
116
100
AcDbEntity
  8
Schnittkanten
 62
1
100
AcDbLine
 10
114.150267
 20
45.460636
 30
0.0
 11
114.150267
 21
35.304497
 31
0.0
  0
LINE
  5
117
100
AcDbEntity
  8
Schnittkanten
 62
1
100
AcDbLine
 10
114.150267
 20
28.506639
 30
0.0
 11
114.150267
 21
28.939985
 31
0.0
  0
LINE
  5
118
100
AcDbEntity
  8
Schnittkanten
 62
1
100
AcDbLine
 10
147.056142
 20
66.206242
 30
0.0
 11
145.079102
 21
66.206242
 31
0.0
  0
LINE
  5
119
100
AcDbEntity
  8
Schnittkanten
 62
1
100
AcDbLine
 10
82.869377
 20
66.206242
 30
0.0
 11
84.846417
 21
66.206242
 31
0.0
  0
LINE
  5
11a
100
AcDbEntity
  8
Schnittkanten
 62
1
100
AcDbLine
 10
82.869377
 20
28.506639
 30
0.0
 11
87.906815
 21
28.506639
 31
0.0
  0
LINE
  5
11b
100
AcDbEntity
  8
Schnittkanten
 62
1
100
AcDbLine
 10
114.773188
 20
12.148483
 30
0.0
 11
114.773188
 21
17.998433
 31
0.0
  0
LINE
  5
11c
100
AcDbEntity
  8
Schnittkanten
 62
1
100
AcDbLine
 10
114.150267
 20
12.148483
 30
0.0
 11
114.150267
 21
17.998433
 31
0.0
  0
LINE
  5
11d
100
AcDbEntity
  8
Schnittkanten
 62
1
100
AcDbLine
 10
114.773188
 20
24.335866
 30
0.0
 11
114.773188
 21
27.883749
 31
0.0
  0
LINE
  5
11e
100
AcDbEntity
  8
Schnittkanten
 62
1
100
AcDbLine
 10
114.150267
 20
24.335866
 30
0.0
 11
114.150267
 21
27.883749
 31
0.0
  0
LINE
  5
11f
100
AcDbEntity
  8
Schnittkanten
 62
1
100
AcDbLine
 10
114.773188
 20
27.883749
 30
0.0
 11
115.098192
 21
27.883749
 31
0.0
  0
LINE
  5
120
100
AcDbEntity
  8
Schnittkanten
 62
1
100
AcDbLine
 10
115.098192
 20
27.883749
 30
0.0
 11
115.098192
 21
28.506639
 31
0.0
  0
LINE
  5
121
100
AcDbEntity
  8
Schnittkanten
 62
1
100
AcDbLine
 10
114.150267
 20
27.883749
 30
0.0
 11
94.244231
 21
27.883749
 31
0.0
  0
LINE
  5
122
100
AcDbEntity
  8
Schnittkanten
 62
1
100
AcDbLine
 10
94.244231
 20
27.883749
 30
0.0
 11
94.244231
 21
28.506639
 31
0.0
  0
LINE
  5
123
100
AcDbEntity
  8
Schnittkanten
 62
1
100
AcDbLine
 10
87.906815
 20
28.506639
 30
0.0
 11
87.906815
 21
27.883749
 31
0.0
  0
LINE
  5
124
100
AcDbEntity
  8
Schnittkanten
 62
1
100
AcDbLine
 10
87.906815
 20
27.883749
 30
0.0
 11
82.869377
 21
27.883749
 31
0.0
  0
LINE
  5
125
100
AcDbEntity
  8
Schnittkanten
 62
1
100
AcDbLine
 10
82.869377
 20
27.883749
 30
0.0
 11
82.869377
 21
12.148483
 31
0.0
  0
LINE
  5
126
100
AcDbEntity
  8
Schnittkanten
 62
1
100
AcDbLine
 10
82.869377
 20
12.148483
 30
0.0
 11
86.877629
 21
12.148483
 31
0.0
  0
LINE
  5
127
100
AcDbEntity
  8
Schnittkanten
 62
1
100
AcDbLine
 10
93.756742
 20
12.148483
 30
0.0
 11
107.271191
 21
12.148483
 31
0.0
  0
LINE
  5
128
100
AcDbEntity
  8
Schnittkanten
 62
1
100
AcDbLine
 10
93.756742
 20
10.171431
 30
0.0
 11
107.271191
 21
10.171431
 31
0.0
  0
LINE
  5
129
100
AcDbEntity
  8
Schnittkanten
 62
1
100
AcDbLine
 10
114.773188
 20
17.998433
 30
0.0
 11
114.150267
 21
17.998433
 31
0.0
  0
LINE
  5
12a
100
AcDbEntity
  8
Schnittkanten
 62
1
100
AcDbLine
 10
114.773188
 20
24.335866
 30
0.0
 11
114.150267
 21
24.335866
 31
0.0
  0
LINE
  5
12b
100
AcDbEntity
  8
Schnittkanten
 62
1
100
AcDbLine
 10
82.869377
 20
66.206242
 30
0.0
 11
82.869377
 21
63.877109
 31
0.0
  0
LINE
  5
12c
100
AcDbEntity
  8
Schnittkanten
 62
1
100
AcDbLine
 10
82.869377
 20
57.106342
 30
0.0
 11
82.869377
 21
53.964703
 31
0.0
  0
LINE
  5
12d
100
AcDbEntity
  8
Schnittkanten
 62
1
100
AcDbLine
 10
80.892303
 20
57.106342
 30
0.0
 11
80.892303
 21
53.964703
 31
0.0
  0
LINE
  5
12e
100
AcDbEntity
  8
Schnittkanten
 62
1
100
AcDbLine
 10
82.869377
 20
47.193949
 30
0.0
 11
82.869377
 21
44.052311
 31
0.0
  0
LINE
  5
12f
100
AcDbEntity
  8
Schnittkanten
 62
1
100
AcDbLine
 10
80.892303
 20
47.193949
 30
0.0
 11
80.892303
 21
44.052311
 31
0.0
  0
LINE
  5
130
100
AcDbEntity
  8
Schnittkanten
 62
1
100
AcDbLine
 10
82.869377
 20
37.335724
 30
0.0
 11
82.869377
 21
28.506639
 31
0.0
  0
LINE
  5
131
100
AcDbEntity
  8
Schnittkanten
 62
1
100
AcDbLine
 10
122.979335
 20
12.148483
 30
0.0
 11
122.979335
 21
13.394324
 31
0.0
  0
LINE
  5
132
100
AcDbEntity
  8
Schnittkanten
 62
1
100
AcDbLine
 10
122.979335
 20
13.394324
 30
0.0
 11
123.602256
 21
13.394324
 31
0.0
  0
LINE
  5
133
100
AcDbEntity
  8
Schnittkanten
 62
1
100
AcDbLine
 10
123.602256
 20
13.394324
 30
0.0
 11
123.602256
 21
12.148483
 31
0.0
  0
LINE
  5
134
100
AcDbEntity
  8
Schnittkanten
 62
1
100
AcDbLine
 10
123.602256
 20
12.148483
 30
0.0
 11
124.252262
 21
12.148483
 31
0.0
  0
LINE
  5
135
100
AcDbEntity
  8
Schnittkanten
 62
1
100
AcDbLine
 10
134.191739
 20
12.148483
 30
0.0
 11
130.968857
 21
12.148483
 31
0.0
  0
LINE
  5
136
100
AcDbEntity
  8
Schnittkanten
 62
1
100
AcDbLine
 10
134.191739
 20
12.148483
 30
0.0
 11
134.191739
 21
21.817145
 31
0.0
  0
LINE
  5
137
100
AcDbEntity
  8
Schnittkanten
 62
1
100
AcDbLine
 10
134.191739
 20
21.817145
 30
0.0
 11
123.602256
 21
21.817145
 31
0.0
  0
LINE
  5
138
100
AcDbEntity
  8
Schnittkanten
 62
1
100
AcDbLine
 10
123.602256
 20
18.215098
 30
0.0
 11
123.602256
 21
21.817145
 31
0.0
  0
LINE
  5
139
100
AcDbEntity
  8
Schnittkanten
 62
1
100
AcDbLine
 10
123.602256
 20
18.215098
 30
0.0
 11
122.979335
 21
18.215098
 31
0.0
  0
LINE
  5
13a
100
AcDbEntity
  8
Schnittkanten
 62
1
100
AcDbLine
 10
122.979335
 20
18.215098
 30
0.0
 11
122.979335
 21
22.440055
 31
0.0
  0
LINE
  5
13b
100
AcDbEntity
  8
Schnittkanten
 62
1
100
AcDbLine
 10
122.979335
 20
22.440055
 30
0.0
 11
139.283347
 21
22.440055
 31
0.0
  0
LINE
  5
13c
100
AcDbEntity
  8
Schnittkanten
 62
1
100
AcDbLine
 10
139.283347
 20
27.883749
 30
0.0
 11
121.462696
 21
27.883749
 31
0.0
  0
LINE
  5
13d
100
AcDbEntity
  8
Schnittkanten
 62
1
100
AcDbLine
 10
121.462696
 20
28.506639
 30
0.0
 11
121.462696
 21
27.883749
 31
0.0
  0
LINE
  5
13e
100
AcDbEntity
  8
Schnittkanten
 62
1
100
AcDbLine
 10
114.150267
 20
45.460636
 30
0.0
 11
112.335714
 21
45.460636
 31
0.0
  0
LINE
  5
13f
100
AcDbEntity
  8
Schnittkanten
 62
1
100
AcDbLine
 10
112.335714
 20
45.460636
 30
0.0
 11
112.335714
 21
51.202247
 31
0.0
  0
LINE
  5
140
100
AcDbEntity
  8
Schnittkanten
 62
1
100
AcDbLine
 10
117.643981
 20
51.202247
 30
0.0
 11
112.335714
 21
51.202247
 31
0.0
  0
LINE
  5
141
100
AcDbEntity
  8
Schnittkanten
 62
1
100
AcDbLine
 10
114.150267
 20
28.506639
 30
0.0
 11
94.244231
 21
28.506639
 31
0.0
  0
LINE
  5
142
100
AcDbEntity
  8
Schnittkanten
 62
1
100
AcDbLine
 10
115.842951
 20
66.206242
 30
0.0
 11
115.842951
 21
65.556256
 31
0.0
  0
LINE
  5
143
100
AcDbEntity
  8
Schnittkanten
 62
1
100
AcDbLine
 10
115.842951
 20
65.556256
 30
0.0
 11
113.080470
 21
65.556256
 31
0.0
  0
LINE
  5
144
100
AcDbEntity
  8
Schnittkanten
 62
1
100
AcDbLine
 10
113.080470
 20
65.556256
 30
0.0
 11
113.080470
 21
66.206242
 31
0.0
  0
LINE
  5
145
100
AcDbEntity
  8
Schnittkanten
 62
1
100
AcDbLine
 10
128.341775
 20
66.206242
 30
0.0
 11
115.842951
 21
66.206242
 31
0.0
  0
LINE
  5
146
100
AcDbEntity
  8
Schnittkanten
 62
1
100
AcDbLine
 10
113.080470
 20
66.206242
 30
0.0
 11
101.583747
 21
66.206242
 31
0.0
  0
LINE
  5
147
100
AcDbEntity
  8
Schnittkanten
 62
1
100
AcDbLine
 10
147.056142
 20
17.998433
 30
0.0
 11
149.033216
 21
17.998433
 31
0.0
  0
LINE
  5
148
100
AcDbEntity
  8
Schnittkanten
 62
1
100
AcDbLine
 10
147.056142
 20
24.498363
 30
0.0
 11
149.033216
 21
24.498363
 31
0.0
  0
LINE
  5
149
100
AcDbEntity
  8
Schnittkanten
 62
1
100
AcDbLine
 10
147.056142
 20
30.917042
 30
0.0
 11
149.033216
 21
30.917042
 31
0.0
  0
LINE
  5
14a
100
AcDbEntity
  8
Schnittkanten
 62
1
100
AcDbLine
 10
147.056142
 20
37.471140
 30
0.0
 11
149.033216
 21
37.471140
 31
0.0
  0
LINE
  5
14b
100
AcDbEntity
  8
Schnittkanten
 62
1
100
AcDbLine
 10
147.056142
 20
42.887740
 30
0.0
 11
149.033216
 21
42.887740
 31
0.0
  0
LINE
  5
14c
100
AcDbEntity
  8
Schnittkanten
 62
1
100
AcDbLine
 10
147.056142
 20
49.441846
 30
0.0
 11
149.033216
 21
49.441846
 31
0.0
  0
LINE
  5
14d
100
AcDbEntity
  8
Schnittkanten
 62
1
100
AcDbLine
 10
147.056142
 20
55.400111
 30
0.0
 11
149.033216
 21
55.400111
 31
0.0
  0
LINE
  5
14e
100
AcDbEntity
  8
Schnittkanten
 62
1
100
AcDbLine
 10
147.056142
 20
61.954208
 30
0.0
 11
149.033216
 21
61.954208
 31
0.0
  0
LINE
  5
14f
100
AcDbEntity
  8
Schnittkanten
 62
1
100
AcDbLine
 10
130.968857
 20
12.148483
 30
0.0
 11
130.968857
 21
10.171431
 31
0.0
  0
LINE
  5
150
100
AcDbEntity
  8
Schnittkanten
 62
1
100
AcDbLine
 10
124.252262
 20
12.148483
 30
0.0
 11
124.252262
 21
10.171431
 31
0.0
  0
LINE
  5
151
100
AcDbEntity
  8
Schnittkanten
 62
1
100
AcDbLine
 10
114.150267
 20
12.148483
 30
0.0
 11
114.150267
 21
10.171431
 31
0.0
  0
LINE
  5
152
100
AcDbEntity
  8
Schnittkanten
 62
1
100
AcDbLine
 10
107.271191
 20
12.148483
 30
0.0
 11
107.271191
 21
10.171431
 31
0.0
  0
LINE
  5
153
100
AcDbEntity
  8
Schnittkanten
 62
1
100
AcDbLine
 10
93.756742
 20
12.148483
 30
0.0
 11
93.756742
 21
10.171431
 31
0.0
  0
LINE
  5
154
100
AcDbEntity
  8
Schnittkanten
 62
1
100
AcDbLine
 10
86.877629
 20
12.148483
 30
0.0
 11
86.877629
 21
10.171431
 31
0.0
  0
LINE
  5
155
100
AcDbEntity
  8
Schnittkanten
 62
1
100
AcDbLine
 10
101.583747
 20
68.183304
 30
0.0
 11
101.583747
 21
66.206242
 31
0.0
  0
LINE
  5
156
100
AcDbEntity
  8
Schnittkanten
 62
1
100
AcDbLine
 10
84.846417
 20
68.183304
 30
0.0
 11
84.846417
 21
66.206242
 31
0.0
  0
LINE
  5
157
100
AcDbEntity
  8
Schnittkanten
 62
1
100
AcDbLine
 10
145.079102
 20
68.183304
 30
0.0
 11
145.079102
 21
66.206242
 31
0.0
  0
LINE
  5
158
100
AcDbEntity
  8
Schnittkanten
 62
1
100
AcDbLine
 10
128.341775
 20
68.183304
 30
0.0
 11
128.341775
 21
66.206242
 31
0.0
  0
LINE
  5
159
100
AcDbEntity
  8
Schnittkanten
 62
1
100
AcDbLine
 10
80.892303
 20
37.335724
 30
0.0
 11
82.869377
 21
37.335724
 31
0.0
  0
LINE
  5
15a
100
AcDbEntity
  8
Schnittkanten
 62
1
100
AcDbLine
 10
80.892303
 20
44.052311
 30
0.0
 11
82.869377
 21
44.052311
 31
0.0
  0
LINE
  5
15b
100
AcDbEntity
  8
Schnittkanten
 62
1
100
AcDbLine
 10
80.892303
 20
47.193949
 30
0.0
 11
82.869377
 21
47.193949
 31
0.0
  0
LINE
  5
15c
100
AcDbEntity
  8
Schnittkanten
 62
1
100
AcDbLine
 10
80.892303
 20
53.964703
 30
0.0
 11
82.869377
 21
53.964703
 31
0.0
  0
LINE
  5
15d
100
AcDbEntity
  8
Schnittkanten
 62
1
100
AcDbLine
 10
80.892303
 20
57.106342
 30
0.0
 11
82.869377
 21
57.106342
 31
0.0
  0
LINE
  5
15e
100
AcDbEntity
  8
Schnittkanten
 62
1
100
AcDbLine
 10
80.892303
 20
63.877109
 30
0.0
 11
82.869377
 21
63.877109
 31
0.0
  0
LINE
  5
15f
100
AcDbEntity
  8
Schnittkanten
 62
1
100
AcDbLine
 10
80.892303
 20
10.171431
 30
0.0
 11
80.892303
 21
37.335724
 31
0.0
  0
LINE
  5
160
100
AcDbEntity
  8
Schnittkanten
 62
1
100
AcDbLine
 10
80.892303
 20
63.877109
 30
0.0
 11
80.892303
 21
66.206242
 31
0.0
  0
LINE
  5
161
100
AcDbEntity
  8
Schnittkanten
 62
1
100
AcDbLine
 10
149.033216
 20
10.171431
 30
0.0
 11
149.033216
 21
17.998433
 31
0.0
  0
LINE
  5
162
100
AcDbEntity
  8
Schnittkanten
 62
1
100
AcDbLine
 10
149.033216
 20
24.498363
 30
0.0
 11
149.033216
 21
30.917042
 31
0.0
  0
LINE
  5
163
100
AcDbEntity
  8
Schnittkanten
 62
1
100
AcDbLine
 10
149.033216
 20
37.471140
 30
0.0
 11
149.033216
 21
42.887740
 31
0.0
  0
LINE
  5
164
100
AcDbEntity
  8
Schnittkanten
 62
1
100
AcDbLine
 10
149.033216
 20
49.441846
 30
0.0
 11
149.033216
 21
55.400111
 31
0.0
  0
LINE
  5
165
100
AcDbEntity
  8
Schnittkanten
 62
1
100
AcDbLine
 10
149.033216
 20
61.954208
 30
0.0
 11
149.033216
 21
66.206242
 31
0.0
  0
LINE
  5
166
100
AcDbEntity
  8
Schnittkanten
 62
1
100
AcDbLine
 10
149.033216
 20
10.171431
 30
0.0
 11
130.968857
 21
10.171431
 31
0.0
  0
LINE
  5
167
100
AcDbEntity
  8
Schnittkanten
 62
1
100
AcDbLine
 10
124.252262
 20
10.171431
 30
0.0
 11
114.150267
 21
10.171431
 31
0.0
  0
LINE
  5
168
100
AcDbEntity
  8
Schnittkanten
 62
1
100
AcDbLine
 10
86.877629
 20
10.171431
 30
0.0
 11
80.892303
 21
10.171431
 31
0.0
  0
LINE
  5
169
100
AcDbEntity
  8
Schnittkanten
 62
1
100
AcDbLine
 10
149.033216
 20
68.183304
 30
0.0
 11
145.079102
 21
68.183304
 31
0.0
  0
LINE
  5
16a
100
AcDbEntity
  8
Schnittkanten
 62
1
100
AcDbLine
 10
128.341775
 20
68.183304
 30
0.0
 11
101.583747
 21
68.183304
 31
0.0
  0
LINE
  5
16b
100
AcDbEntity
  8
Schnittkanten
 62
1
100
AcDbLine
 10
84.846417
 20
68.183304
 30
0.0
 11
80.892303
 21
68.183304
 31
0.0
  0
LINE
  5
16c
100
AcDbEntity
  8
Schnittkanten
 62
1
100
AcDbLine
 10
114.150267
 20
28.939985
 30
0.0
 11
114.773188
 21
28.939985
 31
0.0
  0
LINE
  5
16d
100
AcDbEntity
  8
Schnittkanten
 62
1
100
AcDbLine
 10
114.773188
 20
35.304497
 30
0.0
 11
114.150267
 21
35.304497
 31
0.0
  0
LINE
  5
16e
100
AcDbEntity
  8
Schnittkanten
 62
1
100
AcDbLine
 10
123.737652
 20
10.171431
 30
0.0
 11
123.737652
 21
4.754825
 31
0.0
  0
LINE
  5
16f
100
AcDbEntity
  8
Schnittkanten
 62
1
100
AcDbLine
 10
122.437672
 20
10.171431
 30
0.0
 11
122.437672
 21
6.054797
 31
0.0
  0
LINE
  5
170
100
AcDbEntity
  8
Schnittkanten
 62
1
100
AcDbLine
 10
123.737652
 20
4.754825
 30
0.0
 11
114.258615
 21
4.754825
 31
0.0
  0
LINE
  5
171
100
AcDbEntity
  8
Schnittkanten
 62
1
100
AcDbLine
 10
122.437672
 20
6.054797
 30
0.0
 11
115.558595
 21
6.054797
 31
0.0
  0
LINE
  5
172
100
AcDbEntity
  8
Schnittkanten
 62
1
100
AcDbLine
 10
114.258615
 20
4.754825
 30
0.0
 11
114.258615
 21
10.171431
 31
0.0
  0
LINE
  5
173
100
AcDbEntity
  8
Schnittkanten
 62
1
100
AcDbLine
 10
115.558595
 20
6.054797
 30
0.0
 11
115.558595
 21
10.171431
 31
0.0
  0
LINE
  5
174
100
AcDbEntity
  8
Schnittkanten
 62
1
100
AcDbLine
 10
122.112704
 20
10.171431
 30
0.0
 11
122.112704
 21
12.148483
 31
0.0
  0
LINE
  5
175
100
AcDbEntity
  8
Schnittkanten
 62
1
100
AcDbLine
 10
115.883600
 20
10.171431
 30
0.0
 11
115.883600
 21
12.148483
 31
0.0
  0
LINE
  5
176
100
AcDbEntity
  8
Schnittkanten
 62
1
100
AcDbLine
 10
122.979335
 20
12.148483
 30
0.0
 11
122.112704
 21
12.148483
 31
0.0
  0
LINE
  5
177
100
AcDbEntity
  8
Schnittkanten
 62
1
100
AcDbLine
 10
115.883600
 20
12.148483
 30
0.0
 11
114.773188
 21
12.148483
 31
0.0
  0
LINE
  5
178
100
AcDbEntity
  8
Schnittkanten
 62
1
100
AcDbLine
 10
82.023018
 20
147.942854
 30
0.0
 11
109.309182
 21
147.942854
 31
0.0
  0
LINE
  5
179
100
AcDbEntity
  8
Schnittkanten
 62
1
100
AcDbLine
 10
109.309182
 20
160.048977
 30
0.0
 11
109.309182
 21
168.119723
 31
0.0
  0
LINE
  5
17a
100
AcDbEntity
  8
Schnittkanten
 62
1
100
AcDbLine
 10
109.309182
 20
185.832029
 30
0.0
 11
109.309182
 21
193.956913
 31
0.0
  0
LINE
  5
17b
100
AcDbEntity
  8
Schnittkanten
 62
1
100
AcDbLine
 10
109.309182
 20
198.750675
 30
0.0
 11
109.309182
 21
207.552622
 31
0.0
  0
LINE
  5
17c
100
AcDbEntity
  8
Schnittkanten
 62
1
100
AcDbLine
 10
109.309182
 20
212.346347
 30
0.0
 11
109.309182
 21
221.148327
 31
0.0
  0
LINE
  5
17d
100
AcDbEntity
  8
Schnittkanten
 62
1
100
AcDbLine
 10
109.309182
 20
225.942055
 30
0.0
 11
109.309182
 21
234.743999
 31
0.0
  0
LINE
  5
17e
100
AcDbEntity
  8
Schnittkanten
 62
1
100
AcDbLine
 10
109.309182
 20
239.537690
 30
0.0
 11
109.309182
 21
244.954339
 31
0.0
  0
LINE
  5
17f
100
AcDbEntity
  8
Schnittkanten
 62
1
100
AcDbLine
 10
109.309182
 20
249.747996
 30
0.0
 11
109.309182
 21
257.466653
 31
0.0
  0
LINE
  5
180
100
AcDbEntity
  8
Schnittkanten
 62
1
100
AcDbLine
 10
109.309182
 20
147.942854
 30
0.0
 11
108.496690
 21
147.942854
 31
0.0
  0
LINE
  5
181
100
AcDbEntity
  8
Schnittkanten
 62
1
100
AcDbLine
 10
108.496690
 20
283.845575
 30
0.0
 11
82.023018
 21
283.845575
 31
0.0
  0
LINE
  5
182
100
AcDbEntity
  8
Schnittkanten
 62
1
100
AcDbLine
 10
108.496690
 20
161.809392
 30
0.0
 11
82.023018
 21
161.809392
 31
0.0
  0
LINE
  5
183
100
AcDbEntity
  8
Schnittkanten
 62
1
100
AcDbLine
 10
82.023018
 20
148.755347
 30
0.0
 11
108.496690
 21
148.755347
 31
0.0
  0
LINE
  5
184
100
AcDbEntity
  8
Schnittkanten
 62
1
100
AcDbLine
 10
82.023018
 20
160.996902
 30
0.0
 11
108.496690
 21
160.996902
 31
0.0
  0
LINE
  5
185
100
AcDbEntity
  8
Schnittkanten
 62
1
100
AcDbLine
 10
82.023018
 20
270.520698
 30
0.0
 11
102.944679
 21
270.520698
 31
0.0
  0
LINE
  5
186
100
AcDbEntity
  8
Schnittkanten
 62
1
100
AcDbLine
 10
107.738373
 20
270.520698
 30
0.0
 11
108.496690
 21
270.520698
 31
0.0
  0
LINE
  5
187
100
AcDbEntity
  8
Schnittkanten
 62
1
100
AcDbLine
 10
108.496690
 20
269.708242
 30
0.0
 11
107.738373
 21
269.708242
 31
0.0
  0
LINE
  5
188
100
AcDbEntity
  8
Schnittkanten
 62
1
100
AcDbLine
 10
102.944679
 20
269.708242
 30
0.0
 11
82.023018
 21
269.708242
 31
0.0
  0
LINE
  5
189
100
AcDbEntity
  8
Schnittkanten
 62
1
100
AcDbLine
 10
108.496690
 20
257.466653
 30
0.0
 11
108.496690
 21
256.925029
 31
0.0
  0
LINE
  5
18a
100
AcDbEntity
  8
Schnittkanten
 62
1
100
AcDbLine
 10
108.496690
 20
256.925029
 30
0.0
 11
82.023018
 21
256.925029
 31
0.0
  0
LINE
  5
18b
100
AcDbEntity
  8
Schnittkanten
 62
1
100
AcDbLine
 10
108.496690
 20
244.954339
 30
0.0
 11
108.496690
 21
243.329320
 31
0.0
  0
LINE
  5
18c
100
AcDbEntity
  8
Schnittkanten
 62
1
100
AcDbLine
 10
108.496690
 20
243.329320
 30
0.0
 11
82.023018
 21
243.329320
 31
0.0
  0
LINE
  5
18d
100
AcDbEntity
  8
Schnittkanten
 62
1
100
AcDbLine
 10
82.023018
 20
242.516865
 30
0.0
 11
108.496690
 21
242.516865
 31
0.0
  0
LINE
  5
18e
100
AcDbEntity
  8
Schnittkanten
 62
1
100
AcDbLine
 10
108.496690
 20
234.743999
 30
0.0
 11
108.496690
 21
229.733648
 31
0.0
  0
LINE
  5
18f
100
AcDbEntity
  8
Schnittkanten
 62
1
100
AcDbLine
 10
108.496690
 20
229.733648
 30
0.0
 11
82.023018
 21
229.733648
 31
0.0
  0
LINE
  5
190
100
AcDbEntity
  8
Schnittkanten
 62
1
100
AcDbLine
 10
82.023018
 20
228.924845
 30
0.0
 11
108.496690
 21
228.924845
 31
0.0
  0
LINE
  5
191
100
AcDbEntity
  8
Schnittkanten
 62
1
100
AcDbLine
 10
82.023018
 20
216.141665
 30
0.0
 11
108.496690
 21
216.141665
 31
0.0
  0
LINE
  5
192
100
AcDbEntity
  8
Schnittkanten
 62
1
100
AcDbLine
 10
108.496690
 20
215.329173
 30
0.0
 11
82.023018
 21
215.329173
 31
0.0
  0
LINE
  5
193
100
AcDbEntity
  8
Schnittkanten
 62
1
100
AcDbLine
 10
82.023018
 20
202.545960
 30
0.0
 11
108.496690
 21
202.545960
 31
0.0
  0
LINE
  5
194
100
AcDbEntity
  8
Schnittkanten
 62
1
100
AcDbLine
 10
108.496690
 20
201.733467
 30
0.0
 11
82.023018
 21
201.733467
 31
0.0
  0
LINE
  5
195
100
AcDbEntity
  8
Schnittkanten
 62
1
100
AcDbLine
 10
82.023018
 20
188.950288
 30
0.0
 11
108.496690
 21
188.950288
 31
0.0
  0
LINE
  5
196
100
AcDbEntity
  8
Schnittkanten
 62
1
100
AcDbLine
 10
108.496690
 20
188.137759
 30
0.0
 11
82.023018
 21
188.137759
 31
0.0
  0
LINE
  5
197
100
AcDbEntity
  8
Schnittkanten
 62
1
100
AcDbLine
 10
82.023018
 20
175.354580
 30
0.0
 11
108.496690
 21
175.354580
 31
0.0
  0
LINE
  5
198
100
AcDbEntity
  8
Schnittkanten
 62
1
100
AcDbLine
 10
108.495671
 20
174.542087
 30
0.0
 11
82.023018
 21
174.542087
 31
0.0
  0
LINE
  5
199
100
AcDbEntity
  8
Schnittkanten
 62
1
100
AcDbLine
 10
81.210528
 20
147.942854
 30
0.0
 11
81.210528
 21
148.755347
 31
0.0
  0
LINE
  5
19a
100
AcDbEntity
  8
Schnittkanten
 62
1
100
AcDbLine
 10
81.210528
 20
154.903194
 30
0.0
 11
81.210528
 21
161.809392
 31
0.0
  0
LINE
  5
19b
100
AcDbEntity
  8
Schnittkanten
 62
1
100
AcDbLine
 10
109.309182
 20
155.255283
 30
0.0
 11
108.496690
 21
155.255283
 31
0.0
  0
LINE
  5
19c
100
AcDbEntity
  8
Schnittkanten
 62
1
100
AcDbLine
 10
108.496690
 20
160.048977
 30
0.0
 11
109.309182
 21
160.048977
 31
0.0
  0
LINE
  5
19d
100
AcDbEntity
  8
Schnittkanten
 62
1
100
AcDbLine
 10
109.309182
 20
168.119723
 30
0.0
 11
108.496690
 21
168.119723
 31
0.0
  0
LINE
  5
19e
100
AcDbEntity
  8
Schnittkanten
 62
1
100
AcDbLine
 10
108.496690
 20
172.913451
 30
0.0
 11
109.309182
 21
172.913451
 31
0.0
  0
LINE
  5
19f
100
AcDbEntity
  8
Schnittkanten
 62
1
100
AcDbLine
 10
109.309182
 20
181.038335
 30
0.0
 11
108.496690
 21
181.038335
 31
0.0
  0
LINE
  5
1a0
100
AcDbEntity
  8
Schnittkanten
 62
1
100
AcDbLine
 10
108.496690
 20
185.832029
 30
0.0
 11
109.309182
 21
185.832029
 31
0.0
  0
LINE
  5
1a1
100
AcDbEntity
  8
Schnittkanten
 62
1
100
AcDbLine
 10
109.309182
 20
193.956913
 30
0.0
 11
108.496690
 21
193.956913
 31
0.0
  0
LINE
  5
1a2
100
AcDbEntity
  8
Schnittkanten
 62
1
100
AcDbLine
 10
108.496690
 20
198.750675
 30
0.0
 11
109.309182
 21
198.750675
 31
0.0
  0
LINE
  5
1a3
100
AcDbEntity
  8
Schnittkanten
 62
1
100
AcDbLine
 10
109.309182
 20
207.552622
 30
0.0
 11
108.496690
 21
207.552622
 31
0.0
  0
LINE
  5
1a4
100
AcDbEntity
  8
Schnittkanten
 62
1
100
AcDbLine
 10
108.496690
 20
212.346347
 30
0.0
 11
109.309182
 21
212.346347
 31
0.0
  0
LINE
  5
1a5
100
AcDbEntity
  8
Schnittkanten
 62
1
100
AcDbLine
 10
109.309182
 20
221.148327
 30
0.0
 11
108.496690
 21
221.148327
 31
0.0
  0
LINE
  5
1a6
100
AcDbEntity
  8
Schnittkanten
 62
1
100
AcDbLine
 10
108.496690
 20
225.942055
 30
0.0
 11
109.309182
 21
225.942055
 31
0.0
  0
LINE
  5
1a7
100
AcDbEntity
  8
Schnittkanten
 62
1
100
AcDbLine
 10
109.309182
 20
234.743999
 30
0.0
 11
108.496690
 21
234.743999
 31
0.0
  0
LINE
  5
1a8
100
AcDbEntity
  8
Schnittkanten
 62
1
100
AcDbLine
 10
108.496690
 20
239.537690
 30
0.0
 11
109.309182
 21
239.537690
 31
0.0
  0
LINE
  5
1a9
100
AcDbEntity
  8
Schnittkanten
 62
1
100
AcDbLine
 10
107.738373
 20
270.520698
 30
0.0
 11
107.738373
 21
269.708242
 31
0.0
  0
LINE
  5
1aa
100
AcDbEntity
  8
Schnittkanten
 62
1
100
AcDbLine
 10
108.496690
 20
262.260347
 30
0.0
 11
109.309182
 21
262.260347
 31
0.0
  0
LINE
  5
1ab
100
AcDbEntity
  8
Schnittkanten
 62
1
100
AcDbLine
 10
109.309182
 20
257.466653
 30
0.0
 11
108.496690
 21
257.466653
 31
0.0
  0
LINE
  5
1ac
100
AcDbEntity
  8
Schnittkanten
 62
1
100
AcDbLine
 10
108.496690
 20
244.954339
 30
0.0
 11
109.309182
 21
244.954339
 31
0.0
  0
LINE
  5
1ad
100
AcDbEntity
  8
Schnittkanten
 62
1
100
AcDbLine
 10
109.309182
 20
249.747996
 30
0.0
 11
108.496690
 21
249.747996
 31
0.0
  0
LINE
  5
1ae
100
AcDbEntity
  8
Schnittkanten
 62
1
100
AcDbLine
 10
109.309182
 20
179.521698
 30
0.0
 11
110.663335
 21
179.521698
 31
0.0
  0
LINE
  5
1af
100
AcDbEntity
  8
Schnittkanten
 62
1
100
AcDbLine
 10
120.196548
 20
179.521698
 30
0.0
 11
120.873641
 21
179.521698
 31
0.0
  0
LINE
  5
1b0
100
AcDbEntity
  8
Schnittkanten
 62
1
100
AcDbLine
 10
120.873641
 20
179.250866
 30
0.0
 11
120.196548
 21
179.250866
 31
0.0
  0
LINE
  5
1b1
100
AcDbEntity
  8
Schnittkanten
 62
1
100
AcDbLine
 10
110.663335
 20
179.250866
 30
0.0
 11
109.309182
 21
179.250866
 31
0.0
  0
LINE
  5
1b2
100
AcDbEntity
  8
Schnittkanten
 62
1
100
AcDbLine
 10
120.873641
 20
179.250866
 30
0.0
 11
120.873641
 21
173.509250
 31
0.0
  0
LINE
  5
1b3
100
AcDbEntity
  8
Schnittkanten
 62
1
100
AcDbLine
 10
120.873641
 20
203.679765
 30
0.0
 11
120.873641
 21
219.929607
 31
0.0
  0
LINE
  5
1b4
100
AcDbEntity
  8
Schnittkanten
 62
1
100
AcDbLine
 10
120.873641
 20
224.723264
 30
0.0
 11
120.873641
 21
247.066778
 31
0.0
  0
LINE
  5
1b5
100
AcDbEntity
  8
Schnittkanten
 62
1
100
AcDbLine
 10
120.873641
 20
251.860503
 30
0.0
 11
120.873641
 21
272.849828
 31
0.0
  0
LINE
  5
1b6
100
AcDbEntity
  8
Schnittkanten
 62
1
100
AcDbLine
 10
120.873641
 20
147.942854
 30
0.0
 11
147.902501
 21
147.942854
 31
0.0
  0
LINE
  5
1b7
100
AcDbEntity
  8
Schnittkanten
 62
1
100
AcDbLine
 10
120.873641
 20
284.658031
 30
0.0
 11
136.120858
 21
284.658031
 31
0.0
  0
LINE
  5
1b8
100
AcDbEntity
  8
Schnittkanten
 62
1
100
AcDbLine
 10
147.902501
 20
283.845575
 30
0.0
 11
147.902501
 21
278.428961
 31
0.0
  0
LINE
  5
1b9
100
AcDbEntity
  8
Schnittkanten
 62
1
100
AcDbLine
 10
147.902501
 20
218.006706
 30
0.0
 11
147.902501
 21
211.642165
 31
0.0
  0
LINE
  5
1ba
100
AcDbEntity
  8
Schnittkanten
 62
1
100
AcDbLine
 10
147.902501
 20
210.829676
 30
0.0
 11
147.902501
 21
201.404774
 31
0.0
  0
LINE
  5
1bb
100
AcDbEntity
  8
Schnittkanten
 62
1
100
AcDbLine
 10
147.902501
 20
195.934024
 30
0.0
 11
147.902501
 21
189.163256
 31
0.0
  0
LINE
  5
1bc
100
AcDbEntity
  8
Schnittkanten
 62
1
100
AcDbLine
 10
147.902501
 20
188.350763
 30
0.0
 11
147.902501
 21
181.579998
 31
0.0
  0
LINE
  5
1bd
100
AcDbEntity
  8
Schnittkanten
 62
1
100
AcDbLine
 10
147.902501
 20
154.226134
 30
0.0
 11
147.902501
 21
148.755347
 31
0.0
  0
LINE
  5
1be
100
AcDbEntity
  8
Schnittkanten
 62
1
100
AcDbLine
 10
147.902501
 20
148.755347
 30
0.0
 11
128.456902
 21
148.755347
 31
0.0
  0
LINE
  5
1bf
100
AcDbEntity
  8
Schnittkanten
 62
1
100
AcDbLine
 10
147.902501
 20
147.942854
 30
0.0
 11
148.715027
 21
147.942854
 31
0.0
  0
LINE
  5
1c0
100
AcDbEntity
  8
Schnittkanten
 62
1
100
AcDbLine
 10
148.715027
 20
147.942854
 30
0.0
 11
148.715027
 21
154.226134
 31
0.0
  0
LINE
  5
1c1
100
AcDbEntity
  8
Schnittkanten
 62
1
100
AcDbLine
 10
148.715027
 20
161.619786
 30
0.0
 11
148.715027
 21
175.486324
 31
0.0
  0
LINE
  5
1c2
100
AcDbEntity
  8
Schnittkanten
 62
1
100
AcDbLine
 10
148.715027
 20
201.404774
 30
0.0
 11
148.715027
 21
218.006706
 31
0.0
  0
LINE
  5
1c3
100
AcDbEntity
  8
Schnittkanten
 62
1
100
AcDbLine
 10
148.715027
 20
230.248224
 30
0.0
 11
148.715027
 21
244.954339
 31
0.0
  0
LINE
  5
1c4
100
AcDbEntity
  8
Schnittkanten
 62
1
100
AcDbLine
 10
148.715027
 20
257.195824
 30
0.0
 11
148.715027
 21
272.958174
 31
0.0
  0
LINE
  5
1c5
100
AcDbEntity
  8
Schnittkanten
 62
1
100
AcDbLine
 10
148.715027
 20
278.428961
 30
0.0
 11
148.715027
 21
284.658031
 31
0.0
  0
LINE
  5
1c6
100
AcDbEntity
  8
Schnittkanten
 62
1
100
AcDbLine
 10
148.715027
 20
284.658031
 30
0.0
 11
147.902501
 21
284.658031
 31
0.0
  0
LINE
  5
1c7
100
AcDbEntity
  8
Schnittkanten
 62
1
100
AcDbLine
 10
121.686134
 20
189.163256
 30
0.0
 11
121.686134
 21
198.886074
 31
0.0
  0
LINE
  5
1c8
100
AcDbEntity
  8
Schnittkanten
 62
1
100
AcDbLine
 10
121.686134
 20
203.679765
 30
0.0
 11
121.686134
 21
210.829676
 31
0.0
  0
LINE
  5
1c9
100
AcDbEntity
  8
Schnittkanten
 62
1
100
AcDbLine
 10
121.686134
 20
211.642165
 30
0.0
 11
121.686134
 21
219.929607
 31
0.0
  0
LINE
  5
1ca
100
AcDbEntity
  8
Schnittkanten
 62
1
100
AcDbLine
 10
121.686134
 20
162.296846
 30
0.0
 11
120.873641
 21
162.296846
 31
0.0
  0
LINE
  5
1cb
100
AcDbEntity
  8
Schnittkanten
 62
1
100
AcDbLine
 10
120.873641
 20
167.090574
 30
0.0
 11
121.686134
 21
167.090574
 31
0.0
  0
LINE
  5
1cc
100
AcDbEntity
  8
Schnittkanten
 62
1
100
AcDbLine
 10
121.686134
 20
168.715559
 30
0.0
 11
120.873641
 21
168.715559
 31
0.0
  0
LINE
  5
1cd
100
AcDbEntity
  8
Schnittkanten
 62
1
100
AcDbLine
 10
120.873641
 20
173.509250
 30
0.0
 11
121.686134
 21
173.509250
 31
0.0
  0
LINE
  5
1ce
100
AcDbEntity
  8
Schnittkanten
 62
1
100
AcDbLine
 10
121.686134
 20
167.090574
 30
0.0
 11
133.873514
 21
167.090574
 31
0.0
  0
LINE
  5
1cf
100
AcDbEntity
  8
Schnittkanten
 62
1
100
AcDbLine
 10
134.956801
 20
167.090574
 30
0.0
 11
147.902501
 21
167.090574
 31
0.0
  0
LINE
  5
1d0
100
AcDbEntity
  8
Schnittkanten
 62
1
100
AcDbLine
 10
121.686134
 20
168.715559
 30
0.0
 11
133.873514
 21
168.715559
 31
0.0
  0
LINE
  5
1d1
100
AcDbEntity
  8
Schnittkanten
 62
1
100
AcDbLine
 10
134.956801
 20
168.715559
 30
0.0
 11
147.902501
 21
168.715559
 31
0.0
  0
LINE
  5
1d2
100
AcDbEntity
  8
Schnittkanten
 62
1
100
AcDbLine
 10
147.902501
 20
188.350763
 30
0.0
 11
128.456902
 21
188.350763
 31
0.0
  0
LINE
  5
1d3
100
AcDbEntity
  8
Schnittkanten
 62
1
100
AcDbLine
 10
121.686134
 20
189.163256
 30
0.0
 11
147.902501
 21
189.163256
 31
0.0
  0
LINE
  5
1d4
100
AcDbEntity
  8
Schnittkanten
 62
1
100
AcDbLine
 10
121.686134
 20
210.829676
 30
0.0
 11
147.902501
 21
210.829676
 31
0.0
  0
LINE
  5
1d5
100
AcDbEntity
  8
Schnittkanten
 62
1
100
AcDbLine
 10
147.902501
 20
211.642165
 30
0.0
 11
121.686134
 21
211.642165
 31
0.0
  0
LINE
  5
1d6
100
AcDbEntity
  8
Schnittkanten
 62
1
100
AcDbLine
 10
147.902501
 20
238.048141
 30
0.0
 11
121.686134
 21
238.048141
 31
0.0
  0
LINE
  5
1d7
100
AcDbEntity
  8
Schnittkanten
 62
1
100
AcDbLine
 10
121.686134
 20
238.860633
 30
0.0
 11
147.902501
 21
238.860633
 31
0.0
  0
LINE
  5
1d8
100
AcDbEntity
  8
Schnittkanten
 62
1
100
AcDbLine
 10
147.902501
 20
265.266603
 30
0.0
 11
121.686134
 21
265.266603
 31
0.0
  0
LINE
  5
1d9
100
AcDbEntity
  8
Schnittkanten
 62
1
100
AcDbLine
 10
121.686134
 20
266.079062
 30
0.0
 11
147.902501
 21
266.079062
 31
0.0
  0
LINE
  5
1da
100
AcDbEntity
  8
Schnittkanten
 62
1
100
AcDbLine
 10
121.686134
 20
272.849828
 30
0.0
 11
120.873641
 21
272.849828
 31
0.0
  0
LINE
  5
1db
100
AcDbEntity
  8
Schnittkanten
 62
1
100
AcDbLine
 10
120.873641
 20
277.643520
 30
0.0
 11
121.686134
 21
277.643520
 31
0.0
  0
LINE
  5
1dc
100
AcDbEntity
  8
Schnittkanten
 62
1
100
AcDbLine
 10
147.902501
 20
283.845575
 30
0.0
 11
141.591609
 21
283.845575
 31
0.0
  0
LINE
  5
1dd
100
AcDbEntity
  8
Schnittkanten
 62
1
100
AcDbLine
 10
121.686134
 20
251.860503
 30
0.0
 11
120.873641
 21
251.860503
 31
0.0
  0
LINE
  5
1de
100
AcDbEntity
  8
Schnittkanten
 62
1
100
AcDbLine
 10
120.873641
 20
247.066778
 30
0.0
 11
121.686134
 21
247.066778
 31
0.0
  0
LINE
  5
1df
100
AcDbEntity
  8
Schnittkanten
 62
1
100
AcDbLine
 10
120.873641
 20
224.723264
 30
0.0
 11
121.686134
 21
224.723264
 31
0.0
  0
LINE
  5
1e0
100
AcDbEntity
  8
Schnittkanten
 62
1
100
AcDbLine
 10
121.686134
 20
219.929607
 30
0.0
 11
120.873641
 21
219.929607
 31
0.0
  0
LINE
  5
1e1
100
AcDbEntity
  8
Schnittkanten
 62
1
100
AcDbLine
 10
120.873641
 20
203.679765
 30
0.0
 11
121.686134
 21
203.679765
 31
0.0
  0
LINE
  5
1e2
100
AcDbEntity
  8
Schnittkanten
 62
1
100
AcDbLine
 10
121.686134
 20
198.886074
 30
0.0
 11
120.873641
 21
198.886074
 31
0.0
  0
LINE
  5
1e3
100
AcDbEntity
  8
Schnittkanten
 62
1
100
AcDbLine
 10
120.196548
 20
179.250866
 30
0.0
 11
120.196548
 21
179.521698
 31
0.0
  0
LINE
  5
1e4
100
AcDbEntity
  8
Schnittkanten
 62
1
100
AcDbLine
 10
110.663335
 20
179.521698
 30
0.0
 11
110.663335
 21
179.250866
 31
0.0
  0
LINE
  5
1e5
100
AcDbEntity
  8
Schnittkanten
 62
1
100
AcDbLine
 10
147.902501
 20
154.226134
 30
0.0
 11
148.715027
 21
154.226134
 31
0.0
  0
LINE
  5
1e6
100
AcDbEntity
  8
Schnittkanten
 62
1
100
AcDbLine
 10
147.902501
 20
161.619786
 30
0.0
 11
148.715027
 21
161.619786
 31
0.0
  0
LINE
  5
1e7
100
AcDbEntity
  8
Schnittkanten
 62
1
100
AcDbLine
 10
147.902501
 20
278.428961
 30
0.0
 11
148.715027
 21
278.428961
 31
0.0
  0
LINE
  5
1e8
100
AcDbEntity
  8
Schnittkanten
 62
1
100
AcDbLine
 10
148.715027
 20
272.958174
 30
0.0
 11
148.715027
 21
266.864503
 31
0.0
  0
LINE
  5
1e9
100
AcDbEntity
  8
Schnittkanten
 62
1
100
AcDbLine
 10
148.715027
 20
272.958174
 30
0.0
 11
147.902501
 21
272.958174
 31
0.0
  0
LINE
  5
1ea
100
AcDbEntity
  8
Schnittkanten
 62
1
100
AcDbLine
 10
147.902501
 20
244.954339
 30
0.0
 11
148.715027
 21
244.954339
 31
0.0
  0
LINE
  5
1eb
100
AcDbEntity
  8
Schnittkanten
 62
1
100
AcDbLine
 10
148.715027
 20
257.195824
 30
0.0
 11
147.902501
 21
257.195824
 31
0.0
  0
LINE
  5
1ec
100
AcDbEntity
  8
Schnittkanten
 62
1
100
AcDbLine
 10
147.902501
 20
218.006706
 30
0.0
 11
148.715027
 21
218.006706
 31
0.0
  0
LINE
  5
1ed
100
AcDbEntity
  8
Schnittkanten
 62
1
100
AcDbLine
 10
148.715027
 20
230.248224
 30
0.0
 11
147.902501
 21
230.248224
 31
0.0
  0
LINE
  5
1ee
100
AcDbEntity
  8
Schnittkanten
 62
1
100
AcDbLine
 10
147.902501
 20
195.934024
 30
0.0
 11
148.715027
 21
195.934024
 31
0.0
  0
LINE
  5
1ef
100
AcDbEntity
  8
Schnittkanten
 62
1
100
AcDbLine
 10
148.715027
 20
201.404774
 30
0.0
 11
147.902501
 21
201.404774
 31
0.0
  0
LINE
  5
1f0
100
AcDbEntity
  8
Schnittkanten
 62
1
100
AcDbLine
 10
147.902501
 20
181.579998
 30
0.0
 11
147.902501
 21
187.727843
 31
0.0
  0
LINE
  5
1f1
100
AcDbEntity
  8
Schnittkanten
 62
1
100
AcDbLine
 10
148.715027
 20
175.486324
 30
0.0
 11
147.902501
 21
175.486324
 31
0.0
  0
LINE
  5
1f2
100
AcDbEntity
  8
Schnittkanten
 62
1
100
AcDbLine
 10
128.186036
 20
188.350763
 30
0.0
 11
128.186036
 21
177.517536
 31
0.0
  0
LINE
  5
1f3
100
AcDbEntity
  8
Schnittkanten
 62
1
100
AcDbLine
 10
128.186036
 20
177.517536
 30
0.0
 11
128.456902
 21
177.517536
 31
0.0
  0
LINE
  5
1f4
100
AcDbEntity
  8
Schnittkanten
 62
1
100
AcDbLine
 10
128.456902
 20
177.517536
 30
0.0
 11
128.456902
 21
188.350763
 31
0.0
  0
LINE
  5
1f5
100
AcDbEntity
  8
Schnittkanten
 62
1
100
AcDbLine
 10
133.873514
 20
168.715559
 30
0.0
 11
133.873514
 21
183.557036
 31
0.0
  0
LINE
  5
1f6
100
AcDbEntity
  8
Schnittkanten
 62
1
100
AcDbLine
 10
134.956801
 20
183.557036
 30
0.0
 11
134.956801
 21
168.715559
 31
0.0
  0
LINE
  5
1f7
100
AcDbEntity
  8
Schnittkanten
 62
1
100
AcDbLine
 10
134.956801
 20
183.557036
 30
0.0
 11
133.873514
 21
183.557036
 31
0.0
  0
LINE
  5
1f8
100
AcDbEntity
  8
Schnittkanten
 62
1
100
AcDbLine
 10
147.902501
 20
181.579998
 30
0.0
 11
148.715027
 21
181.579998
 31
0.0
  0
LINE
  5
1f9
100
AcDbEntity
  8
Schnittkanten
 62
1
100
AcDbLine
 10
128.186036
 20
148.755347
 30
0.0
 11
128.186036
 21
159.588574
 31
0.0
  0
LINE
  5
1fa
100
AcDbEntity
  8
Schnittkanten
 62
1
100
AcDbLine
 10
133.873514
 20
167.090574
 30
0.0
 11
133.873514
 21
152.249060
 31
0.0
  0
LINE
  5
1fb
100
AcDbEntity
  8
Schnittkanten
 62
1
100
AcDbLine
 10
134.956801
 20
152.249060
 30
0.0
 11
134.956801
 21
167.090574
 31
0.0
  0
LINE
  5
1fc
100
AcDbEntity
  8
Schnittkanten
 62
1
100
AcDbLine
 10
128.186036
 20
148.755347
 30
0.0
 11
128.186036
 21
159.588574
 31
0.0
  0
LINE
  5
1fd
100
AcDbEntity
  8
Schnittkanten
 62
1
100
AcDbLine
 10
128.186036
 20
159.588574
 30
0.0
 11
128.456902
 21
159.588574
 31
0.0
  0
LINE
  5
1fe
100
AcDbEntity
  8
Schnittkanten
 62
1
100
AcDbLine
 10
128.456902
 20
159.588574
 30
0.0
 11
128.456902
 21
148.755347
 31
0.0
  0
LINE
  5
1ff
100
AcDbEntity
  8
Schnittkanten
 62
1
100
AcDbLine
 10
133.873514
 20
152.249060
 30
0.0
 11
134.956801
 21
152.249060
 31
0.0
  0
LINE
  5
200
100
AcDbEntity
  8
Schnittkanten
 62
1
100
AcDbLine
 10
81.210528
 20
147.942854
 30
0.0
 11
81.210528
 21
142.390843
 31
0.0
  0
LINE
  5
201
100
AcDbEntity
  8
Schnittkanten
 62
1
100
AcDbLine
 10
81.210528
 20
108.699544
 30
0.0
 11
81.210528
 21
101.251700
 31
0.0
  0
LINE
  5
202
100
AcDbEntity
  8
Schnittkanten
 62
1
100
AcDbLine
 10
81.210528
 20
89.226826
 30
0.0
 11
81.210528
 21
80.424840
 31
0.0
  0
LINE
  5
203
100
AcDbEntity
  8
Schnittkanten
 62
1
100
AcDbLine
 10
81.210528
 20
70.214534
 30
0.0
 11
81.210528
 21
68.183304
 31
0.0
  0
LINE
  5
204
100
AcDbEntity
  8
Schnittkanten
 62
1
100
AcDbLine
 10
148.715027
 20
68.183304
 30
0.0
 11
148.715027
 21
77.120717
 31
0.0
  0
LINE
  5
205
100
AcDbEntity
  8
Schnittkanten
 62
1
100
AcDbLine
 10
148.715027
 20
90.039324
 30
0.0
 11
148.715027
 21
97.893410
 31
0.0
  0
LINE
  5
206
100
AcDbEntity
  8
Schnittkanten
 62
1
100
AcDbLine
 10
148.715027
 20
108.780785
 30
0.0
 11
148.715027
 21
116.228612
 31
0.0
  0
LINE
  5
207
100
AcDbEntity
  8
Schnittkanten
 62
1
100
AcDbLine
 10
148.715027
 20
121.699391
 30
0.0
 11
148.715027
 21
122.782707
 31
0.0
  0
LINE
  5
208
100
AcDbEntity
  8
Schnittkanten
 62
1
100
AcDbLine
 10
148.715027
 20
128.253477
 30
0.0
 11
148.715027
 21
137.732551
 31
0.0
  0
LINE
  5
209
100
AcDbEntity
  8
Schnittkanten
 62
1
100
AcDbLine
 10
82.023018
 20
147.942854
 30
0.0
 11
82.023018
 21
142.390843
 31
0.0
  0
LINE
  5
20a
100
AcDbEntity
  8
Schnittkanten
 62
1
100
AcDbLine
 10
82.023018
 20
129.472231
 30
0.0
 11
82.023018
 21
121.618151
 31
0.0
  0
LINE
  5
20b
100
AcDbEntity
  8
Schnittkanten
 62
1
100
AcDbLine
 10
82.023018
 20
108.699544
 30
0.0
 11
82.023018
 21
101.251700
 31
0.0
  0
LINE
  5
20c
100
AcDbEntity
  8
Schnittkanten
 62
1
100
AcDbLine
 10
82.023018
 20
95.780935
 30
0.0
 11
82.023018
 21
94.697605
 31
0.0
  0
LINE
  5
20d
100
AcDbEntity
  8
Schnittkanten
 62
1
100
AcDbLine
 10
82.023018
 20
89.226826
 30
0.0
 11
82.023018
 21
80.424840
 31
0.0
  0
LINE
  5
20e
100
AcDbEntity
  8
Schnittkanten
 62
1
100
AcDbLine
 10
147.902501
 20
137.732551
 30
0.0
 11
147.902501
 21
128.253477
 31
0.0
  0
LINE
  5
20f
100
AcDbEntity
  8
Schnittkanten
 62
1
100
AcDbLine
 10
147.902501
 20
122.782707
 30
0.0
 11
147.902501
 21
121.699391
 31
0.0
  0
LINE
  5
210
100
AcDbEntity
  8
Schnittkanten
 62
1
100
AcDbLine
 10
147.902501
 20
116.228612
 30
0.0
 11
147.902501
 21
108.780785
 31
0.0
  0
LINE
  5
211
100
AcDbEntity
  8
Schnittkanten
 62
1
100
AcDbLine
 10
147.902501
 20
97.893410
 30
0.0
 11
147.902501
 21
90.039324
 31
0.0
  0
LINE
  5
212
100
AcDbEntity
  8
Schnittkanten
 62
1
100
AcDbLine
 10
147.902501
 20
77.120717
 30
0.0
 11
147.902501
 21
68.183304
 31
0.0
  0
LINE
  5
213
100
AcDbEntity
  8
Schnittkanten
 62
1
100
AcDbLine
 10
147.902501
 20
137.732551
 30
0.0
 11
148.715027
 21
137.732551
 31
0.0
  0
LINE
  5
214
100
AcDbEntity
  8
Schnittkanten
 62
1
100
AcDbLine
 10
147.902501
 20
128.253477
 30
0.0
 11
148.715027
 21
128.253477
 31
0.0
  0
LINE
  5
215
100
AcDbEntity
  8
Schnittkanten
 62
1
100
AcDbLine
 10
148.715027
 20
122.782707
 30
0.0
 11
147.902501
 21
122.782707
 31
0.0
  0
LINE
  5
216
100
AcDbEntity
  8
Schnittkanten
 62
1
100
AcDbLine
 10
148.715027
 20
121.699391
 30
0.0
 11
147.902501
 21
121.699391
 31
0.0
  0
LINE
  5
217
100
AcDbEntity
  8
Schnittkanten
 62
1
100
AcDbLine
 10
147.902501
 20
116.228612
 30
0.0
 11
148.715027
 21
116.228612
 31
0.0
  0
LINE
  5
218
100
AcDbEntity
  8
Schnittkanten
 62
1
100
AcDbLine
 10
148.715027
 20
108.780785
 30
0.0
 11
147.902501
 21
108.780785
 31
0.0
  0
LINE
  5
219
100
AcDbEntity
  8
Schnittkanten
 62
1
100
AcDbLine
 10
147.902501
 20
97.893410
 30
0.0
 11
148.715027
 21
97.893410
 31
0.0
  0
LINE
  5
21a
100
AcDbEntity
  8
Schnittkanten
 62
1
100
AcDbLine
 10
147.902501
 20
90.039324
 30
0.0
 11
148.715027
 21
90.039324
 31
0.0
  0
LINE
  5
21b
100
AcDbEntity
  8
Schnittkanten
 62
1
100
AcDbLine
 10
148.715027
 20
77.120717
 30
0.0
 11
147.902501
 21
77.120717
 31
0.0
  0
LINE
  5
21c
100
AcDbEntity
  8
Schnittkanten
 62
1
100
AcDbLine
 10
82.023018
 20
70.214534
 30
0.0
 11
81.210528
 21
70.214534
 31
0.0
  0
LINE
  5
21d
100
AcDbEntity
  8
Schnittkanten
 62
1
100
AcDbLine
 10
81.210528
 20
80.424840
 30
0.0
 11
82.023018
 21
80.424840
 31
0.0
  0
LINE
  5
21e
100
AcDbEntity
  8
Schnittkanten
 62
1
100
AcDbLine
 10
81.210528
 20
89.226826
 30
0.0
 11
82.023018
 21
89.226826
 31
0.0
  0
LINE
  5
21f
100
AcDbEntity
  8
Schnittkanten
 62
1
100
AcDbLine
 10
81.210528
 20
94.697605
 30
0.0
 11
82.023018
 21
94.697605
 31
0.0
  0
LINE
  5
220
100
AcDbEntity
  8
Schnittkanten
 62
1
100
AcDbLine
 10
81.210528
 20
95.780935
 30
0.0
 11
82.023018
 21
95.780935
 31
0.0
  0
LINE
  5
221
100
AcDbEntity
  8
Schnittkanten
 62
1
100
AcDbLine
 10
82.023018
 20
101.251700
 30
0.0
 11
81.210528
 21
101.251700
 31
0.0
  0
LINE
  5
222
100
AcDbEntity
  8
Schnittkanten
 62
1
100
AcDbLine
 10
81.210528
 20
108.699544
 30
0.0
 11
82.023018
 21
108.699544
 31
0.0
  0
LINE
  5
223
100
AcDbEntity
  8
Schnittkanten
 62
1
100
AcDbLine
 10
82.023018
 20
121.618151
 30
0.0
 11
81.210528
 21
121.618151
 31
0.0
  0
LINE
  5
224
100
AcDbEntity
  8
Schnittkanten
 62
1
100
AcDbLine
 10
81.210528
 20
129.472231
 30
0.0
 11
82.023018
 21
129.472231
 31
0.0
  0
LINE
  5
225
100
AcDbEntity
  8
Schnittkanten
 62
1
100
AcDbLine
 10
81.210528
 20
142.390843
 30
0.0
 11
82.023018
 21
142.390843
 31
0.0
  0
LINE
  5
226
100
AcDbEntity
  8
Schnittkanten
 62
1
100
AcDbLine
 10
121.686134
 20
224.723264
 30
0.0
 11
121.686134
 21
238.048141
 31
0.0
  0
LINE
  5
227
100
AcDbEntity
  8
Schnittkanten
 62
1
100
AcDbLine
 10
121.686134
 20
238.860633
 30
0.0
 11
121.686134
 21
247.066778
 31
0.0
  0
LINE
  5
228
100
AcDbEntity
  8
Schnittkanten
 62
1
100
AcDbLine
 10
121.686134
 20
251.860503
 30
0.0
 11
121.686134
 21
265.266603
 31
0.0
  0
LINE
  5
229
100
AcDbEntity
  8
Schnittkanten
 62
1
100
AcDbLine
 10
121.686134
 20
266.079062
 30
0.0
 11
121.686134
 21
272.849828
 31
0.0
  0
LINE
  5
22a
100
AcDbEntity
  8
Schnittkanten
 62
1
100
AcDbLine
 10
121.686134
 20
277.643520
 30
0.0
 11
121.686134
 21
283.845575
 31
0.0
  0
LINE
  5
22b
100
AcDbEntity
  8
Schnittkanten
 62
1
100
AcDbLine
 10
147.902501
 20
266.079062
 30
0.0
 11
147.902501
 21
272.958174
 31
0.0
  0
LINE
  5
22c
100
AcDbEntity
  8
Schnittkanten
 62
1
100
AcDbLine
 10
147.902501
 20
238.048141
 30
0.0
 11
147.902501
 21
230.248224
 31
0.0
  0
LINE
  5
22d
100
AcDbEntity
  8
Schnittkanten
 62
1
100
AcDbLine
 10
147.902501
 20
238.860633
 30
0.0
 11
147.902501
 21
244.954339
 31
0.0
  0
LINE
  5
22e
100
AcDbEntity
  8
Schnittkanten
 62
1
100
AcDbLine
 10
147.902501
 20
161.619786
 30
0.0
 11
147.902501
 21
167.090574
 31
0.0
  0
LINE
  5
22f
100
AcDbEntity
  8
Schnittkanten
 62
1
100
AcDbLine
 10
147.902501
 20
168.715559
 30
0.0
 11
147.902501
 21
175.486324
 31
0.0
  0
LINE
  5
230
100
AcDbEntity
  8
Schnittkanten
 62
1
100
AcDbLine
 10
82.023018
 20
154.903194
 30
0.0
 11
82.023018
 21
160.996902
 31
0.0
  0
LINE
  5
231
100
AcDbEntity
  8
Schnittkanten
 62
1
100
AcDbLine
 10
108.496690
 20
155.255283
 30
0.0
 11
108.496690
 21
148.755347
 31
0.0
  0
LINE
  5
232
100
AcDbEntity
  8
Schnittkanten
 62
1
100
AcDbLine
 10
108.496690
 20
160.048977
 30
0.0
 11
108.496690
 21
160.996902
 31
0.0
  0
LINE
  5
233
100
AcDbEntity
  8
Schnittkanten
 62
1
100
AcDbLine
 10
108.496690
 20
161.809392
 30
0.0
 11
108.496690
 21
168.119723
 31
0.0
  0
LINE
  5
234
100
AcDbEntity
  8
Schnittkanten
 62
1
100
AcDbLine
 10
108.496690
 20
172.913451
 30
0.0
 11
108.496690
 21
174.542087
 31
0.0
  0
LINE
  5
235
100
AcDbEntity
  8
Schnittkanten
 62
1
100
AcDbLine
 10
108.496690
 20
175.354580
 30
0.0
 11
108.496690
 21
181.038335
 31
0.0
  0
LINE
  5
236
100
AcDbEntity
  8
Schnittkanten
 62
1
100
AcDbLine
 10
109.309182
 20
172.913451
 30
0.0
 11
109.309182
 21
179.250866
 31
0.0
  0
LINE
  5
237
100
AcDbEntity
  8
Schnittkanten
 62
1
100
AcDbLine
 10
109.309182
 20
179.521698
 30
0.0
 11
109.309182
 21
181.038335
 31
0.0
  0
LINE
  5
238
100
AcDbEntity
  8
Schnittkanten
 62
1
100
AcDbLine
 10
108.496690
 20
185.832029
 30
0.0
 11
108.496690
 21
188.137759
 31
0.0
  0
LINE
  5
239
100
AcDbEntity
  8
Schnittkanten
 62
1
100
AcDbLine
 10
108.496690
 20
188.950288
 30
0.0
 11
108.496690
 21
193.956913
 31
0.0
  0
LINE
  5
23a
100
AcDbEntity
  8
Schnittkanten
 62
1
100
AcDbLine
 10
108.496690
 20
198.750675
 30
0.0
 11
108.496690
 21
201.733467
 31
0.0
  0
LINE
  5
23b
100
AcDbEntity
  8
Schnittkanten
 62
1
100
AcDbLine
 10
108.496690
 20
202.545960
 30
0.0
 11
108.496690
 21
207.552622
 31
0.0
  0
LINE
  5
23c
100
AcDbEntity
  8
Schnittkanten
 62
1
100
AcDbLine
 10
108.496690
 20
215.329173
 30
0.0
 11
108.496690
 21
212.346347
 31
0.0
  0
LINE
  5
23d
100
AcDbEntity
  8
Schnittkanten
 62
1
100
AcDbLine
 10
108.496690
 20
216.141665
 30
0.0
 11
108.496690
 21
221.148327
 31
0.0
  0
LINE
  5
23e
100
AcDbEntity
  8
Schnittkanten
 62
1
100
AcDbLine
 10
108.496690
 20
225.942055
 30
0.0
 11
108.496690
 21
228.924845
 31
0.0
  0
LINE
  5
23f
100
AcDbEntity
  8
Schnittkanten
 62
1
100
AcDbLine
 10
108.496690
 20
270.520698
 30
0.0
 11
108.496690
 21
283.845575
 31
0.0
  0
LINE
  5
240
100
AcDbEntity
  8
Schnittkanten
 62
1
100
AcDbLine
 10
82.023018
 20
174.542087
 30
0.0
 11
82.023018
 21
167.957239
 31
0.0
  0
LINE
  5
241
100
AcDbEntity
  8
Schnittkanten
 62
1
100
AcDbLine
 10
81.210528
 20
148.755347
 30
0.0
 11
81.210528
 21
149.432443
 31
0.0
  0
LINE
  5
242
100
AcDbEntity
  8
Schnittkanten
 62
1
100
AcDbLine
 10
82.023018
 20
149.432443
 30
0.0
 11
81.210528
 21
149.432443
 31
0.0
  0
LINE
  5
243
100
AcDbEntity
  8
Schnittkanten
 62
1
100
AcDbLine
 10
82.023018
 20
154.903194
 30
0.0
 11
81.210528
 21
154.903194
 31
0.0
  0
LINE
  5
244
100
AcDbEntity
  8
Schnittkanten
 62
1
100
AcDbLine
 10
81.210528
 20
161.809392
 30
0.0
 11
81.210528
 21
162.486451
 31
0.0
  0
LINE
  5
245
100
AcDbEntity
  8
Schnittkanten
 62
1
100
AcDbLine
 10
81.210528
 20
162.486451
 30
0.0
 11
82.023018
 21
162.486451
 31
0.0
  0
LINE
  5
246
100
AcDbEntity
  8
Schnittkanten
 62
1
100
AcDbLine
 10
82.023018
 20
167.957239
 30
0.0
 11
81.210528
 21
167.957239
 31
0.0
  0
LINE
  5
247
100
AcDbEntity
  8
Schnittkanten
 62
1
100
AcDbLine
 10
81.210528
 20
167.957239
 30
0.0
 11
81.210528
 21
175.354580
 31
0.0
  0
LINE
  5
248
100
AcDbEntity
  8
Schnittkanten
 62
1
100
AcDbLine
 10
82.023018
 20
162.486451
 30
0.0
 11
82.023018
 21
161.809392
 31
0.0
  0
LINE
  5
249
100
AcDbEntity
  8
Schnittkanten
 62
1
100
AcDbLine
 10
81.210528
 20
175.354580
 30
0.0
 11
81.210528
 21
176.031676
 31
0.0
  0
LINE
  5
24a
100
AcDbEntity
  8
Schnittkanten
 62
1
100
AcDbLine
 10
81.210528
 20
176.031676
 30
0.0
 11
82.023018
 21
176.031676
 31
0.0
  0
LINE
  5
24b
100
AcDbEntity
  8
Schnittkanten
 62
1
100
AcDbLine
 10
82.023018
 20
181.502427
 30
0.0
 11
81.210528
 21
181.502427
 31
0.0
  0
LINE
  5
24c
100
AcDbEntity
  8
Schnittkanten
 62
1
100
AcDbLine
 10
82.023018
 20
176.031676
 30
0.0
 11
82.023018
 21
175.354580
 31
0.0
  0
LINE
  5
24d
100
AcDbEntity
  8
Schnittkanten
 62
1
100
AcDbLine
 10
82.023018
 20
181.502427
 30
0.0
 11
82.023018
 21
188.137759
 31
0.0
  0
LINE
  5
24e
100
AcDbEntity
  8
Schnittkanten
 62
1
100
AcDbLine
 10
82.023018
 20
188.950288
 30
0.0
 11
82.023018
 21
189.627348
 31
0.0
  0
LINE
  5
24f
100
AcDbEntity
  8
Schnittkanten
 62
1
100
AcDbLine
 10
82.023018
 20
189.627348
 30
0.0
 11
81.210528
 21
189.627348
 31
0.0
  0
LINE
  5
250
100
AcDbEntity
  8
Schnittkanten
 62
1
100
AcDbLine
 10
81.210528
 20
195.098132
 30
0.0
 11
82.023018
 21
195.098132
 31
0.0
  0
LINE
  5
251
100
AcDbEntity
  8
Schnittkanten
 62
1
100
AcDbLine
 10
82.023018
 20
202.545960
 30
0.0
 11
82.023018
 21
203.223019
 31
0.0
  0
LINE
  5
252
100
AcDbEntity
  8
Schnittkanten
 62
1
100
AcDbLine
 10
82.023018
 20
203.223019
 30
0.0
 11
81.210528
 21
203.223019
 31
0.0
  0
LINE
  5
253
100
AcDbEntity
  8
Schnittkanten
 62
1
100
AcDbLine
 10
82.023018
 20
216.141665
 30
0.0
 11
82.023018
 21
216.818725
 31
0.0
  0
LINE
  5
254
100
AcDbEntity
  8
Schnittkanten
 62
1
100
AcDbLine
 10
82.023018
 20
216.818725
 30
0.0
 11
81.210528
 21
216.818725
 31
0.0
  0
LINE
  5
255
100
AcDbEntity
  8
Schnittkanten
 62
1
100
AcDbLine
 10
81.210528
 20
222.289512
 30
0.0
 11
82.023018
 21
222.289512
 31
0.0
  0
LINE
  5
256
100
AcDbEntity
  8
Schnittkanten
 62
1
100
AcDbLine
 10
82.023018
 20
229.733648
 30
0.0
 11
82.023018
 21
230.410742
 31
0.0
  0
LINE
  5
257
100
AcDbEntity
  8
Schnittkanten
 62
1
100
AcDbLine
 10
82.023018
 20
230.410742
 30
0.0
 11
81.210528
 21
230.410742
 31
0.0
  0
LINE
  5
258
100
AcDbEntity
  8
Schnittkanten
 62
1
100
AcDbLine
 10
81.210528
 20
235.881496
 30
0.0
 11
82.023018
 21
235.881496
 31
0.0
  0
LINE
  5
259
100
AcDbEntity
  8
Schnittkanten
 62
1
100
AcDbLine
 10
81.210528
 20
244.006414
 30
0.0
 11
82.023018
 21
244.006414
 31
0.0
  0
LINE
  5
25a
100
AcDbEntity
  8
Schnittkanten
 62
1
100
AcDbLine
 10
82.023018
 20
249.477167
 30
0.0
 11
81.210528
 21
249.477167
 31
0.0
  0
LINE
  5
25b
100
AcDbEntity
  8
Schnittkanten
 62
1
100
AcDbLine
 10
81.210528
 20
257.602085
 30
0.0
 11
82.023018
 21
257.602085
 31
0.0
  0
LINE
  5
25c
100
AcDbEntity
  8
Schnittkanten
 62
1
100
AcDbLine
 10
82.023018
 20
263.072873
 30
0.0
 11
81.210528
 21
263.072873
 31
0.0
  0
LINE
  5
25d
100
AcDbEntity
  8
Schnittkanten
 62
1
100
AcDbLine
 10
82.023018
 20
270.520698
 30
0.0
 11
82.023018
 21
271.197757
 31
0.0
  0
LINE
  5
25e
100
AcDbEntity
  8
Schnittkanten
 62
1
100
AcDbLine
 10
82.023018
 20
271.197757
 30
0.0
 11
81.210528
 21
271.197757
 31
0.0
  0
LINE
  5
25f
100
AcDbEntity
  8
Schnittkanten
 62
1
100
AcDbLine
 10
81.210528
 20
276.668544
 30
0.0
 11
82.023018
 21
276.668544
 31
0.0
  0
LINE
  5
260
100
AcDbEntity
  8
Schnittkanten
 62
1
100
AcDbLine
 10
81.210528
 20
181.502427
 30
0.0
 11
81.210528
 21
189.627348
 31
0.0
  0
LINE
  5
261
100
AcDbEntity
  8
Schnittkanten
 62
1
100
AcDbLine
 10
81.210528
 20
195.098132
 30
0.0
 11
81.210528
 21
203.223019
 31
0.0
  0
LINE
  5
262
100
AcDbEntity
  8
Schnittkanten
 62
1
100
AcDbLine
 10
82.023018
 20
201.733467
 30
0.0
 11
82.023018
 21
195.098132
 31
0.0
  0
LINE
  5
263
100
AcDbEntity
  8
Schnittkanten
 62
1
100
AcDbLine
 10
81.210528
 20
222.289512
 30
0.0
 11
81.210528
 21
230.410742
 31
0.0
  0
LINE
  5
264
100
AcDbEntity
  8
Schnittkanten
 62
1
100
AcDbLine
 10
81.210528
 20
235.881496
 30
0.0
 11
81.210528
 21
244.006414
 31
0.0
  0
LINE
  5
265
100
AcDbEntity
  8
Schnittkanten
 62
1
100
AcDbLine
 10
81.210528
 20
249.477167
 30
0.0
 11
81.210528
 21
257.602085
 31
0.0
  0
LINE
  5
266
100
AcDbEntity
  8
Schnittkanten
 62
1
100
AcDbLine
 10
82.023018
 20
242.516865
 30
0.0
 11
82.023018
 21
235.881496
 31
0.0
  0
LINE
  5
267
100
AcDbEntity
  8
Schnittkanten
 62
1
100
AcDbLine
 10
82.023018
 20
228.924845
 30
0.0
 11
82.023018
 21
222.289512
 31
0.0
  0
LINE
  5
268
100
AcDbEntity
  8
Schnittkanten
 62
1
100
AcDbLine
 10
82.023018
 20
215.329173
 30
0.0
 11
82.023018
 21
208.693804
 31
0.0
  0
LINE
  5
269
100
AcDbEntity
  8
Schnittkanten
 62
1
100
AcDbLine
 10
82.023018
 20
243.329320
 30
0.0
 11
82.023018
 21
244.006414
 31
0.0
  0
LINE
  5
26a
100
AcDbEntity
  8
Schnittkanten
 62
1
100
AcDbLine
 10
82.023018
 20
256.925029
 30
0.0
 11
82.023018
 21
257.602085
 31
0.0
  0
LINE
  5
26b
100
AcDbEntity
  8
Schnittkanten
 62
1
100
AcDbLine
 10
82.023018
 20
263.072873
 30
0.0
 11
82.023018
 21
269.708242
 31
0.0
  0
LINE
  5
26c
100
AcDbEntity
  8
Schnittkanten
 62
1
100
AcDbLine
 10
81.210528
 20
263.072873
 30
0.0
 11
81.210528
 21
271.197757
 31
0.0
  0
LINE
  5
26d
100
AcDbEntity
  8
Schnittkanten
 62
1
100
AcDbLine
 10
81.210528
 20
276.668544
 30
0.0
 11
81.210528
 21
284.658031
 31
0.0
  0
LINE
  5
26e
100
AcDbEntity
  8
Schnittkanten
 62
1
100
AcDbLine
 10
82.023018
 20
276.668544
 30
0.0
 11
82.023018
 21
283.845575
 31
0.0
  0
LINE
  5
26f
100
AcDbEntity
  8
Schnittkanten
 62
1
100
AcDbLine
 10
109.986242
 20
283.845575
 30
0.0
 11
109.986242
 21
284.658031
 31
0.0
  0
LINE
  5
270
100
AcDbEntity
  8
Schnittkanten
 62
1
100
AcDbLine
 10
120.196548
 20
284.658031
 30
0.0
 11
120.196548
 21
283.845575
 31
0.0
  0
LINE
  5
271
100
AcDbEntity
  8
Schnittkanten
 62
1
100
AcDbLine
 10
109.986242
 20
284.658031
 30
0.0
 11
109.309182
 21
284.658031
 31
0.0
  0
LINE
  5
272
100
AcDbEntity
  8
Schnittkanten
 62
1
100
AcDbLine
 10
109.986242
 20
283.845575
 30
0.0
 11
109.309182
 21
283.845575
 31
0.0
  0
LINE
  5
273
100
AcDbEntity
  8
Schnittkanten
 62
1
100
AcDbLine
 10
120.196548
 20
283.845575
 30
0.0
 11
120.873641
 21
283.845575
 31
0.0
  0
LINE
  5
274
100
AcDbEntity
  8
Schnittkanten
 62
1
100
AcDbLine
 10
120.196548
 20
284.658031
 30
0.0
 11
120.873641
 21
284.658031
 31
0.0
  0
LINE
  5
275
100
AcDbEntity
  8
Schnittkanten
 62
1
100
AcDbLine
 10
120.873641
 20
283.845575
 30
0.0
 11
120.873641
 21
277.643520
 31
0.0
  0
LINE
  5
276
100
AcDbEntity
  8
Schnittkanten
 62
1
100
AcDbLine
 10
109.309182
 20
283.845575
 30
0.0
 11
109.309182
 21
262.260347
 31
0.0
  0
LINE
  5
277
100
AcDbEntity
  8
Schnittkanten
 62
1
100
AcDbLine
 10
82.023018
 20
208.693804
 30
0.0
 11
81.210528
 21
208.693804
 31
0.0
  0
LINE
  5
278
100
AcDbEntity
  8
Schnittkanten
 62
1
100
AcDbLine
 10
81.210528
 20
208.710071
 30
0.0
 11
81.210528
 21
216.818725
 31
0.0
  0
LINE
  5
279
100
AcDbEntity
  8
Schnittkanten
 62
1
100
AcDbLine
 10
120.873641
 20
147.942854
 30
0.0
 11
120.196548
 21
147.942854
 31
0.0
  0
LINE
  5
27a
100
AcDbEntity
  8
Schnittkanten
 62
1
100
AcDbLine
 10
120.196548
 20
148.755347
 30
0.0
 11
120.873641
 21
148.755347
 31
0.0
  0
LINE
  5
27b
100
AcDbEntity
  8
Schnittkanten
 62
1
100
AcDbLine
 10
109.309182
 20
147.942854
 30
0.0
 11
109.986242
 21
147.942854
 31
0.0
  0
LINE
  5
27c
100
AcDbEntity
  8
Schnittkanten
 62
1
100
AcDbLine
 10
109.986242
 20
148.755347
 30
0.0
 11
109.319300
 21
148.755347
 31
0.0
  0
LINE
  5
27d
100
AcDbEntity
  8
Schnittkanten
 62
1
100
AcDbLine
 10
109.319300
 20
155.255283
 30
0.0
 11
109.319300
 21
148.755347
 31
0.0
  0
LINE
  5
27e
100
AcDbEntity
  8
Schnittkanten
 62
1
100
AcDbLine
 10
120.196548
 20
147.942854
 30
0.0
 11
120.196548
 21
148.755347
 31
0.0
  0
LINE
  5
27f
100
AcDbEntity
  8
Schnittkanten
 62
1
100
AcDbLine
 10
109.986242
 20
147.942854
 30
0.0
 11
109.986242
 21
148.755347
 31
0.0
  0
LINE
  5
280
100
AcDbEntity
  8
Schnittkanten
 62
1
100
AcDbLine
 10
81.210528
 20
68.183304
 30
0.0
 11
80.892303
 21
68.183304
 31
0.0
  0
LINE
  5
281
100
AcDbEntity
  8
Schnittkanten
 62
1
100
AcDbLine
 10
82.023018
 20
70.214534
 30
0.0
 11
82.023018
 21
68.183304
 31
0.0
  0
LINE
  5
282
100
AcDbEntity
  8
Schnittkanten
 62
1
100
AcDbLine
 10
81.210528
 20
94.697605
 30
0.0
 11
81.210528
 21
95.780935
 31
0.0
  0
LINE
  5
283
100
AcDbEntity
  8
Schnittkanten
 62
1
100
AcDbLine
 10
82.023018
 20
149.432443
 30
0.0
 11
82.023018
 21
148.755347
 31
0.0
  0
LINE
  5
284
100
AcDbEntity
  8
Schnittkanten
 62
1
100
AcDbLine
 10
81.210528
 20
284.658031
 30
0.0
 11
109.309182
 21
284.658031
 31
0.0
  0
LINE
  5
285
100
AcDbEntity
  8
Schnittkanten
 62
1
100
AcDbLine
 10
108.496690
 20
262.260347
 30
0.0
 11
108.496690
 21
269.708242
 31
0.0
  0
LINE
  5
286
100
AcDbEntity
  8
Schnittkanten
 62
1
100
AcDbLine
 10
108.496690
 20
249.747996
 30
0.0
 11
108.496690
 21
256.112536
 31
0.0
  0
LINE
  5
287
100
AcDbEntity
  8
Schnittkanten
 62
1
100
AcDbLine
 10
108.496690
 20
239.537690
 30
0.0
 11
108.496690
 21
242.516865
 31
0.0
  0
LINE
  5
288
100
AcDbEntity
  8
Schnittkanten
 62
1
100
AcDbLine
 10
120.873641
 20
148.755347
 30
0.0
 11
120.873641
 21
162.296846
 31
0.0
  0
LINE
  5
289
100
AcDbEntity
  8
Schnittkanten
 62
1
100
AcDbLine
 10
121.686134
 20
148.755347
 30
0.0
 11
121.686134
 21
162.296846
 31
0.0
  0
LINE
  5
28a
100
AcDbEntity
  8
Schnittkanten
 62
1
100
AcDbLine
 10
120.873641
 20
167.090574
 30
0.0
 11
120.873641
 21
168.715559
 31
0.0
  0
LINE
  5
28b
100
AcDbEntity
  8
Schnittkanten
 62
1
100
AcDbLine
 10
147.902501
 20
257.195824
 30
0.0
 11
147.902501
 21
265.266603
 31
0.0
  0
LINE
  5
28c
100
AcDbEntity
  8
Schnittkanten
 62
1
100
AcDbLine
 10
148.715027
 20
181.579998
 30
0.0
 11
148.715027
 21
195.934024
 31
0.0
  0
LINE
  5
28d
100
AcDbEntity
  8
Schnittkanten
 62
1
100
AcDbLine
 10
102.944679
 20
269.708242
 30
0.0
 11
102.944679
 21
270.520698
 31
0.0
  0
LINE
  5
28e
100
AcDbEntity
  8
Schnittkanten
 62
1
100
AcDbLine
 10
81.210528
 20
121.618151
 30
0.0
 11
81.210528
 21
129.472231
 31
0.0
  0
LINE
  5
28f
100
AcDbEntity
  8
Schnittkanten
 62
1
100
AcDbLine
 10
120.873641
 20
179.521698
 30
0.0
 11
120.873641
 21
198.886074
 31
0.0
  0
LINE
  5
290
100
AcDbEntity
  8
Schnittkanten
 62
1
100
AcDbLine
 10
121.686134
 20
173.509250
 30
0.0
 11
121.686134
 21
188.350763
 31
0.0
  0
LINE
  5
291
100
AcDbEntity
  8
Schnittkanten
 62
1
100
AcDbLine
 10
82.023018
 20
249.477167
 30
0.0
 11
82.023018
 21
256.112536
 31
0.0
  0
LINE
  5
292
100
AcDbEntity
  8
Schnittkanten
 62
1
100
AcDbLine
 10
82.023018
 20
256.112536
 30
0.0
 11
108.496690
 21
256.112536
 31
0.0
  0
LINE
  5
293
100
AcDbEntity
  8
Schnittkanten
 62
1
100
AcDbLine
 10
128.186036
 20
148.755347
 30
0.0
 11
121.686134
 21
148.755347
 31
0.0
  0
LINE
  5
294
100
AcDbEntity
  8
Schnittkanten
 62
1
100
AcDbLine
 10
128.186036
 20
188.350763
 30
0.0
 11
121.686134
 21
188.350763
 31
0.0
  0
LINE
  5
295
100
AcDbEntity
  8
Schnittkanten
 62
1
100
AcDbLine
 10
145.844201
 20
95.537177
 30
0.0
 11
147.902501
 21
95.537177
 31
0.0
  0
LINE
  5
296
100
AcDbEntity
  8
Schnittkanten
 62
1
100
AcDbLine
 10
145.844201
 20
94.995519
 30
0.0
 11
147.902501
 21
94.995519
 31
0.0
  0
LINE
  5
297
100
AcDbEntity
  8
Schnittkanten
 62
1
100
AcDbLine
 10
145.844201
 20
94.995519
 30
0.0
 11
145.844201
 21
95.537177
 31
0.0
  0
LINE
  5
298
100
AcDbEntity
  8
Schnittkanten
 62
1
100
AcDbLine
 10
145.844201
 20
122.620223
 30
0.0
 11
147.902501
 21
122.620223
 31
0.0
  0
LINE
  5
299
100
AcDbEntity
  8
Schnittkanten
 62
1
100
AcDbLine
 10
145.844201
 20
122.078565
 30
0.0
 11
147.902501
 21
122.078565
 31
0.0
  0
LINE
  5
29a
100
AcDbEntity
  8
Schnittkanten
 62
1
100
AcDbLine
 10
145.844201
 20
122.078565
 30
0.0
 11
145.844201
 21
122.620223
 31
0.0
  0
LINE
  5
29b
100
AcDbEntity
  8
Schnittkanten
 62
1
100
AcDbLine
 10
82.023018
 20
95.537177
 30
0.0
 11
84.081318
 21
95.537177
 31
0.0
  0
LINE
  5
29c
100
AcDbEntity
  8
Schnittkanten
 62
1
100
AcDbLine
 10
84.081318
 20
94.995519
 30
0.0
 11
82.023018
 21
94.995519
 31
0.0
  0
LINE
  5
29d
100
AcDbEntity
  8
Schnittkanten
 62
1
100
AcDbLine
 10
84.081318
 20
94.995519
 30
0.0
 11
84.081318
 21
95.537177
 31
0.0
  0
LINE
  5
29e
100
AcDbEntity
  8
Schnittkanten
 62
1
100
AcDbLine
 10
82.023018
 20
122.620223
 30
0.0
 11
84.081318
 21
122.620223
 31
0.0
  0
LINE
  5
29f
100
AcDbEntity
  8
Schnittkanten
 62
1
100
AcDbLine
 10
84.081318
 20
122.620223
 30
0.0
 11
84.081318
 21
122.078565
 31
0.0
  0
LINE
  5
2a0
100
AcDbEntity
  8
Schnittkanten
 62
1
100
AcDbLine
 10
84.081318
 20
122.078565
 30
0.0
 11
82.023018
 21
122.078565
 31
0.0
  0
LINE
  5
2a1
100
AcDbEntity
  8
Schnittkanten
 62
1
100
AcDbLine
 10
149.033216
 20
66.206242
 30
0.0
 11
150.333196
 21
66.206242
 31
0.0
  0
LINE
  5
2a2
100
AcDbEntity
  8
Schnittkanten
 62
1
100
AcDbLine
 10
150.333196
 20
66.206242
 30
0.0
 11
150.333196
 21
68.183304
 31
0.0
  0
LINE
  5
2a3
100
AcDbEntity
  8
Schnittkanten
 62
1
100
AcDbLine
 10
150.333196
 20
68.183304
 30
0.0
 11
149.033216
 21
68.183304
 31
0.0
  0
LINE
  5
2a4
100
AcDbEntity
  8
Schnittkanten
 62
1
100
AcDbLine
 10
80.892303
 20
66.206242
 30
0.0
 11
79.592322
 21
66.206242
 31
0.0
  0
LINE
  5
2a5
100
AcDbEntity
  8
Schnittkanten
 62
1
100
AcDbLine
 10
79.592322
 20
66.206242
 30
0.0
 11
79.592322
 21
68.183304
 31
0.0
  0
LINE
  5
2a6
100
AcDbEntity
  8
Schnittkanten
 62
1
100
AcDbLine
 10
79.592322
 20
68.183304
 30
0.0
 11
80.892303
 21
68.183304
 31
0.0
  0
LINE
  5
2a7
100
AcDbEntity
  8
Schnittkanten
 62
1
100
AcDbLine
 10
141.591609
 20
283.845575
 30
0.0
 11
141.591609
 21
284.658031
 31
0.0
  0
LINE
  5
2a8
100
AcDbEntity
  8
Schnittkanten
 62
1
100
AcDbLine
 10
136.120858
 20
283.845575
 30
0.0
 11
136.120858
 21
284.658031
 31
0.0
  0
LINE
  5
2a9
100
AcDbEntity
  8
Schnittkanten
 62
1
100
AcDbLine
 10
141.591609
 20
284.658031
 30
0.0
 11
147.902501
 21
284.658031
 31
0.0
  0
LINE
  5
2aa
100
AcDbEntity
  8
Schnittkanten
 62
1
100
AcDbLine
 10
136.120858
 20
283.845575
 30
0.0
 11
121.686134
 21
283.845575
 31
0.0
  0
LINE
  5
2ab
100
AcDbEntity
  8
Ansichtskanten
 62
5
100
AcDbLine
 10
147.056142
 20
61.954208
 30
0.0
 11
147.056142
 21
55.400111
 31
0.0
  0
LINE
  5
2ac
100
AcDbEntity
  8
Ansichtskanten
 62
5
100
AcDbLine
 10
149.033216
 20
61.954208
 30
0.0
 11
149.033216
 21
55.400111
 31
0.0
  0
LINE
  5
2ad
100
AcDbEntity
  8
Ansichtskanten
 62
5
100
AcDbLine
 10
147.056142
 20
49.441846
 30
0.0
 11
147.056142
 21
42.887740
 31
0.0
  0
LINE
  5
2ae
100
AcDbEntity
  8
Ansichtskanten
 62
5
100
AcDbLine
 10
149.033216
 20
49.441846
 30
0.0
 11
149.033216
 21
42.887740
 31
0.0
  0
LINE
  5
2af
100
AcDbEntity
  8
Ansichtskanten
 62
5
100
AcDbLine
 10
147.056142
 20
37.471140
 30
0.0
 11
147.056142
 21
30.917042
 31
0.0
  0
LINE
  5
2b0
100
AcDbEntity
  8
Ansichtskanten
 62
5
100
AcDbLine
 10
149.033216
 20
37.471140
 30
0.0
 11
149.033216
 21
30.917042
 31
0.0
  0
LINE
  5
2b1
100
AcDbEntity
  8
Ansichtskanten
 62
5
100
AcDbLine
 10
147.056142
 20
17.998433
 30
0.0
 11
147.056142
 21
24.498363
 31
0.0
  0
LINE
  5
2b2
100
AcDbEntity
  8
Ansichtskanten
 62
5
100
AcDbLine
 10
149.033216
 20
17.998433
 30
0.0
 11
149.033216
 21
24.498363
 31
0.0
  0
LINE
  5
2b3
100
AcDbEntity
  8
Ansichtskanten
 62
5
100
AcDbLine
 10
145.079102
 20
66.206242
 30
0.0
 11
138.145850
 21
66.206242
 31
0.0
  0
LINE
  5
2b4
100
AcDbEntity
  8
Ansichtskanten
 62
5
100
AcDbLine
 10
145.079102
 20
68.183304
 30
0.0
 11
138.145850
 21
68.183304
 31
0.0
  0
LINE
  5
2b5
100
AcDbEntity
  8
Ansichtskanten
 62
5
100
AcDbLine
 10
138.145850
 20
66.206242
 30
0.0
 11
128.341775
 21
66.206242
 31
0.0
  0
LINE
  5
2b6
100
AcDbEntity
  8
Ansichtskanten
 62
5
100
AcDbLine
 10
138.145850
 20
68.183304
 30
0.0
 11
128.341775
 21
68.183304
 31
0.0
  0
LINE
  5
2b7
100
AcDbEntity
  8
Ansichtskanten
 62
5
100
AcDbLine
 10
84.846417
 20
66.206242
 30
0.0
 11
91.779669
 21
66.206242
 31
0.0
  0
LINE
  5
2b8
100
AcDbEntity
  8
Ansichtskanten
 62
5
100
AcDbLine
 10
84.846417
 20
68.183304
 30
0.0
 11
91.779669
 21
68.183304
 31
0.0
  0
LINE
  5
2b9
100
AcDbEntity
  8
Ansichtskanten
 62
5
100
AcDbLine
 10
91.779669
 20
66.206242
 30
0.0
 11
101.583747
 21
66.206242
 31
0.0
  0
LINE
  5
2ba
100
AcDbEntity
  8
Ansichtskanten
 62
5
100
AcDbLine
 10
91.779669
 20
68.183304
 30
0.0
 11
101.583747
 21
68.183304
 31
0.0
  0
LINE
  5
2bb
100
AcDbEntity
  8
Ansichtskanten
 62
5
100
AcDbLine
 10
87.906815
 20
28.506639
 30
0.0
 11
94.244231
 21
28.506639
 31
0.0
  0
LINE
  5
2bc
100
AcDbEntity
  8
Ansichtskanten
 62
5
100
AcDbLine
 10
94.244231
 20
27.883749
 30
0.0
 11
87.906815
 21
27.883749
 31
0.0
  0
LINE
  5
2bd
100
AcDbEntity
  8
Ansichtskanten
 62
5
100
AcDbLine
 10
114.150267
 20
12.148483
 30
0.0
 11
107.271191
 21
12.148483
 31
0.0
  0
LINE
  5
2be
100
AcDbEntity
  8
Ansichtskanten
 62
5
100
AcDbLine
 10
114.150267
 20
10.171431
 30
0.0
 11
107.271191
 21
10.171431
 31
0.0
  0
LINE
  5
2bf
100
AcDbEntity
  8
Ansichtskanten
 62
5
100
AcDbLine
 10
86.877629
 20
12.148483
 30
0.0
 11
93.756742
 21
12.148483
 31
0.0
  0
LINE
  5
2c0
100
AcDbEntity
  8
Ansichtskanten
 62
5
100
AcDbLine
 10
86.877629
 20
10.171431
 30
0.0
 11
93.756742
 21
10.171431
 31
0.0
  0
LINE
  5
2c1
100
AcDbEntity
  8
Ansichtskanten
 62
5
100
AcDbLine
 10
82.869377
 20
63.877109
 30
0.0
 11
82.869377
 21
57.106342
 31
0.0
  0
LINE
  5
2c2
100
AcDbEntity
  8
Ansichtskanten
 62
5
100
AcDbLine
 10
80.892303
 20
63.877109
 30
0.0
 11
80.892303
 21
57.106342
 31
0.0
  0
LINE
  5
2c3
100
AcDbEntity
  8
Ansichtskanten
 62
5
100
AcDbLine
 10
82.869377
 20
53.964703
 30
0.0
 11
82.869377
 21
47.193949
 31
0.0
  0
LINE
  5
2c4
100
AcDbEntity
  8
Ansichtskanten
 62
5
100
AcDbLine
 10
80.892303
 20
53.964703
 30
0.0
 11
80.892303
 21
47.193949
 31
0.0
  0
LINE
  5
2c5
100
AcDbEntity
  8
Ansichtskanten
 62
5
100
AcDbLine
 10
82.869377
 20
44.052311
 30
0.0
 11
82.869377
 21
37.335724
 31
0.0
  0
LINE
  5
2c6
100
AcDbEntity
  8
Ansichtskanten
 62
5
100
AcDbLine
 10
80.892303
 20
44.052311
 30
0.0
 11
80.892303
 21
37.335724
 31
0.0
  0
LINE
  5
2c7
100
AcDbEntity
  8
Ansichtskanten
 62
5
100
AcDbLine
 10
124.252262
 20
12.148483
 30
0.0
 11
130.968857
 21
12.148483
 31
0.0
  0
LINE
  5
2c8
100
AcDbEntity
  8
Ansichtskanten
 62
5
100
AcDbLine
 10
124.252262
 20
10.171431
 30
0.0
 11
130.968857
 21
10.171431
 31
0.0
  0
LINE
  5
2c9
100
AcDbEntity
  8
Ansichtskanten
 62
5
100
AcDbLine
 10
91.779669
 20
68.183304
 30
0.0
 11
91.779669
 21
66.206242
 31
0.0
  0
LINE
  5
2ca
100
AcDbEntity
  8
Ansichtskanten
 62
5
100
AcDbLine
 10
138.145850
 20
68.183304
 30
0.0
 11
138.145850
 21
66.206242
 31
0.0
  0
LINE
  5
2cb
100
AcDbEntity
  8
Ansichtskanten
 62
5
100
AcDbLine
 10
122.112704
 20
12.148483
 30
0.0
 11
115.883600
 21
12.148483
 31
0.0
  0
LINE
  5
2cc
100
AcDbEntity
  8
Ansichtskanten
 62
5
100
AcDbLine
 10
81.210528
 20
70.214534
 30
0.0
 11
81.210528
 21
80.424840
 31
0.0
  0
LINE
  5
2cd
100
AcDbEntity
  8
Ansichtskanten
 62
5
100
AcDbLine
 10
82.023018
 20
70.214534
 30
0.0
 11
82.023018
 21
80.424840
 31
0.0
  0
LINE
  5
2ce
100
AcDbEntity
  8
Ansichtskanten
 62
5
100
AcDbLine
 10
81.210528
 20
89.226826
 30
0.0
 11
81.210528
 21
94.697605
 31
0.0
  0
LINE
  5
2cf
100
AcDbEntity
  8
Ansichtskanten
 62
5
100
AcDbLine
 10
82.023018
 20
89.226826
 30
0.0
 11
82.023018
 21
94.697605
 31
0.0
  0
LINE
  5
2d0
100
AcDbEntity
  8
Ansichtskanten
 62
5
100
AcDbLine
 10
81.210528
 20
95.780935
 30
0.0
 11
81.210528
 21
101.251700
 31
0.0
  0
LINE
  5
2d1
100
AcDbEntity
  8
Ansichtskanten
 62
5
100
AcDbLine
 10
82.023018
 20
95.780935
 30
0.0
 11
82.023018
 21
101.251700
 31
0.0
  0
LINE
  5
2d2
100
AcDbEntity
  8
Ansichtskanten
 62
5
100
AcDbLine
 10
81.210528
 20
108.699544
 30
0.0
 11
81.210528
 21
121.618151
 31
0.0
  0
LINE
  5
2d3
100
AcDbEntity
  8
Ansichtskanten
 62
5
100
AcDbLine
 10
82.023018
 20
108.699544
 30
0.0
 11
82.023018
 21
121.618151
 31
0.0
  0
LINE
  5
2d4
100
AcDbEntity
  8
Ansichtskanten
 62
5
100
AcDbLine
 10
81.210528
 20
129.472231
 30
0.0
 11
81.210528
 21
142.390843
 31
0.0
  0
LINE
  5
2d5
100
AcDbEntity
  8
Ansichtskanten
 62
5
100
AcDbLine
 10
82.023018
 20
142.390843
 30
0.0
 11
82.023018
 21
129.472231
 31
0.0
  0
LINE
  5
2d6
100
AcDbEntity
  8
Ansichtskanten
 62
5
100
AcDbLine
 10
82.023018
 20
149.432443
 30
0.0
 11
82.023018
 21
154.903194
 31
0.0
  0
LINE
  5
2d7
100
AcDbEntity
  8
Ansichtskanten
 62
5
100
AcDbLine
 10
81.210528
 20
149.432443
 30
0.0
 11
81.210528
 21
154.903194
 31
0.0
  0
LINE
  5
2d8
100
AcDbEntity
  8
Ansichtskanten
 62
5
100
AcDbLine
 10
82.023018
 20
162.486451
 30
0.0
 11
82.023018
 21
167.957239
 31
0.0
  0
LINE
  5
2d9
100
AcDbEntity
  8
Ansichtskanten
 62
5
100
AcDbLine
 10
81.210528
 20
162.486451
 30
0.0
 11
81.210528
 21
167.957239
 31
0.0
  0
LINE
  5
2da
100
AcDbEntity
  8
Ansichtskanten
 62
5
100
AcDbLine
 10
82.023018
 20
176.031676
 30
0.0
 11
82.023018
 21
181.502427
 31
0.0
  0
LINE
  5
2db
100
AcDbEntity
  8
Ansichtskanten
 62
5
100
AcDbLine
 10
81.210528
 20
176.031676
 30
0.0
 11
81.210528
 21
181.502427
 31
0.0
  0
LINE
  5
2dc
100
AcDbEntity
  8
Ansichtskanten
 62
5
100
AcDbLine
 10
81.210528
 20
189.627348
 30
0.0
 11
81.210528
 21
195.098132
 31
0.0
  0
LINE
  5
2dd
100
AcDbEntity
  8
Ansichtskanten
 62
5
100
AcDbLine
 10
82.023018
 20
195.098132
 30
0.0
 11
82.023018
 21
189.627348
 31
0.0
  0
LINE
  5
2de
100
AcDbEntity
  8
Ansichtskanten
 62
5
100
AcDbLine
 10
81.210528
 20
216.818725
 30
0.0
 11
81.210528
 21
222.289512
 31
0.0
  0
LINE
  5
2df
100
AcDbEntity
  8
Ansichtskanten
 62
5
100
AcDbLine
 10
82.023018
 20
222.289512
 30
0.0
 11
82.023018
 21
216.818725
 31
0.0
  0
LINE
  5
2e0
100
AcDbEntity
  8
Ansichtskanten
 62
5
100
AcDbLine
 10
81.210528
 20
230.410742
 30
0.0
 11
81.210528
 21
235.881496
 31
0.0
  0
LINE
  5
2e1
100
AcDbEntity
  8
Ansichtskanten
 62
5
100
AcDbLine
 10
82.023018
 20
235.881496
 30
0.0
 11
82.023018
 21
230.410742
 31
0.0
  0
LINE
  5
2e2
100
AcDbEntity
  8
Ansichtskanten
 62
5
100
AcDbLine
 10
82.023018
 20
244.006414
 30
0.0
 11
82.023018
 21
249.477167
 31
0.0
  0
LINE
  5
2e3
100
AcDbEntity
  8
Ansichtskanten
 62
5
100
AcDbLine
 10
81.210528
 20
244.006414
 30
0.0
 11
81.210528
 21
249.477167
 31
0.0
  0
LINE
  5
2e4
100
AcDbEntity
  8
Ansichtskanten
 62
5
100
AcDbLine
 10
82.023018
 20
257.602085
 30
0.0
 11
82.023018
 21
263.072873
 31
0.0
  0
LINE
  5
2e5
100
AcDbEntity
  8
Ansichtskanten
 62
5
100
AcDbLine
 10
81.210528
 20
263.072873
 30
0.0
 11
81.210528
 21
257.602085
 31
0.0
  0
LINE
  5
2e6
100
AcDbEntity
  8
Ansichtskanten
 62
5
100
AcDbLine
 10
81.210528
 20
271.197757
 30
0.0
 11
81.210528
 21
276.668544
 31
0.0
  0
LINE
  5
2e7
100
AcDbEntity
  8
Ansichtskanten
 62
5
100
AcDbLine
 10
82.023018
 20
271.197757
 30
0.0
 11
82.023018
 21
276.668544
 31
0.0
  0
LINE
  5
2e8
100
AcDbEntity
  8
Ansichtskanten
 62
5
100
AcDbLine
 10
147.902501
 20
77.120717
 30
0.0
 11
147.902501
 21
90.039324
 31
0.0
  0
LINE
  5
2e9
100
AcDbEntity
  8
Ansichtskanten
 62
5
100
AcDbLine
 10
148.715027
 20
77.120717
 30
0.0
 11
148.715027
 21
90.039324
 31
0.0
  0
LINE
  5
2ea
100
AcDbEntity
  8
Ansichtskanten
 62
5
100
AcDbLine
 10
147.902501
 20
97.893410
 30
0.0
 11
147.902501
 21
108.780785
 31
0.0
  0
LINE
  5
2eb
100
AcDbEntity
  8
Ansichtskanten
 62
5
100
AcDbLine
 10
148.715027
 20
97.893410
 30
0.0
 11
148.715027
 21
108.780785
 31
0.0
  0
LINE
  5
2ec
100
AcDbEntity
  8
Ansichtskanten
 62
5
100
AcDbLine
 10
147.902501
 20
116.228612
 30
0.0
 11
147.902501
 21
121.699391
 31
0.0
  0
LINE
  5
2ed
100
AcDbEntity
  8
Ansichtskanten
 62
5
100
AcDbLine
 10
148.715027
 20
116.228612
 30
0.0
 11
148.715027
 21
121.699391
 31
0.0
  0
LINE
  5
2ee
100
AcDbEntity
  8
Ansichtskanten
 62
5
100
AcDbLine
 10
147.902501
 20
122.782707
 30
0.0
 11
147.902501
 21
128.253477
 31
0.0
  0
LINE
  5
2ef
100
AcDbEntity
  8
Ansichtskanten
 62
5
100
AcDbLine
 10
148.715027
 20
122.782707
 30
0.0
 11
148.715027
 21
128.253477
 31
0.0
  0
LINE
  5
2f0
100
AcDbEntity
  8
Ansichtskanten
 62
5
100
AcDbLine
 10
147.902501
 20
154.226134
 30
0.0
 11
147.902501
 21
161.619786
 31
0.0
  0
LINE
  5
2f1
100
AcDbEntity
  8
Ansichtskanten
 62
5
100
AcDbLine
 10
148.715027
 20
154.226134
 30
0.0
 11
148.715027
 21
161.619786
 31
0.0
  0
LINE
  5
2f2
100
AcDbEntity
  8
Ansichtskanten
 62
5
100
AcDbLine
 10
147.902501
 20
175.486324
 30
0.0
 11
147.902501
 21
181.579998
 31
0.0
  0
LINE
  5
2f3
100
AcDbEntity
  8
Ansichtskanten
 62
5
100
AcDbLine
 10
148.715027
 20
175.486324
 30
0.0
 11
148.715027
 21
181.579998
 31
0.0
  0
LINE
  5
2f4
100
AcDbEntity
  8
Ansichtskanten
 62
5
100
AcDbLine
 10
147.902501
 20
195.934024
 30
0.0
 11
147.902501
 21
201.404774
 31
0.0
  0
LINE
  5
2f5
100
AcDbEntity
  8
Ansichtskanten
 62
5
100
AcDbLine
 10
148.715027
 20
195.934024
 30
0.0
 11
148.715027
 21
201.404774
 31
0.0
  0
LINE
  5
2f6
100
AcDbEntity
  8
Ansichtskanten
 62
5
100
AcDbLine
 10
147.902501
 20
218.006706
 30
0.0
 11
147.902501
 21
230.248224
 31
0.0
  0
LINE
  5
2f7
100
AcDbEntity
  8
Ansichtskanten
 62
5
100
AcDbLine
 10
148.715027
 20
218.006706
 30
0.0
 11
148.715027
 21
230.248224
 31
0.0
  0
LINE
  5
2f8
100
AcDbEntity
  8
Ansichtskanten
 62
5
100
AcDbLine
 10
147.902501
 20
244.954339
 30
0.0
 11
147.902501
 21
257.195824
 31
0.0
  0
LINE
  5
2f9
100
AcDbEntity
  8
Ansichtskanten
 62
5
100
AcDbLine
 10
148.715027
 20
244.954339
 30
0.0
 11
148.715027
 21
257.195824
 31
0.0
  0
LINE
  5
2fa
100
AcDbEntity
  8
Ansichtskanten
 62
5
100
AcDbLine
 10
147.902501
 20
272.958174
 30
0.0
 11
147.902501
 21
278.428961
 31
0.0
  0
LINE
  5
2fb
100
AcDbEntity
  8
Ansichtskanten
 62
5
100
AcDbLine
 10
148.715027
 20
272.958174
 30
0.0
 11
148.715027
 21
278.428961
 31
0.0
  0
LINE
  5
2fc
100
AcDbEntity
  8
Ansichtskanten
 62
5
100
AcDbLine
 10
82.023018
 20
203.223019
 30
0.0
 11
82.023018
 21
208.693804
 31
0.0
  0
LINE
  5
2fd
100
AcDbEntity
  8
Ansichtskanten
 62
5
100
AcDbLine
 10
81.210528
 20
208.710071
 30
0.0
 11
81.210528
 21
203.223019
 31
0.0
  0
LINE
  5
2fe
100
AcDbEntity
  8
Ansichtskanten
 62
5
100
AcDbLine
 10
109.986242
 20
147.942854
 30
0.0
 11
120.196548
 21
147.942854
 31
0.0
  0
LINE
  5
2ff
100
AcDbEntity
  8
Ansichtskanten
 62
5
100
AcDbLine
 10
120.196548
 20
148.755347
 30
0.0
 11
109.986242
 21
148.755347
 31
0.0
  0
LINE
  5
300
100
AcDbEntity
  8
Ansichtskanten
 62
5
100
AcDbLine
 10
145.844201
 20
94.995519
 30
0.0
 11
142.485889
 21
94.995519
 31
0.0
  0
LINE
  5
301
100
AcDbEntity
  8
Ansichtskanten
 62
5
100
AcDbLine
 10
142.485889
 20
94.995519
 30
0.0
 11
142.485889
 21
95.537177
 31
0.0
  0
LINE
  5
302
100
AcDbEntity
  8
Ansichtskanten
 62
5
100
AcDbLine
 10
142.485889
 20
95.537177
 30
0.0
 11
145.844201
 21
95.537177
 31
0.0
  0
LINE
  5
303
100
AcDbEntity
  8
Ansichtskanten
 62
5
100
AcDbLine
 10
145.844201
 20
122.078565
 30
0.0
 11
142.485889
 21
122.078565
 31
0.0
  0
LINE
  5
304
100
AcDbEntity
  8
Ansichtskanten
 62
5
100
AcDbLine
 10
142.485889
 20
122.078565
 30
0.0
 11
142.485889
 21
122.620223
 31
0.0
  0
LINE
  5
305
100
AcDbEntity
  8
Ansichtskanten
 62
5
100
AcDbLine
 10
142.485889
 20
122.620223
 30
0.0
 11
145.844201
 21
122.620223
 31
0.0
  0
LINE
  5
306
100
AcDbEntity
  8
Ansichtskanten
 62
5
100
AcDbLine
 10
84.081318
 20
95.537177
 30
0.0
 11
87.439633
 21
95.537177
 31
0.0
  0
LINE
  5
307
100
AcDbEntity
  8
Ansichtskanten
 62
5
100
AcDbLine
 10
87.439633
 20
95.537177
 30
0.0
 11
87.439633
 21
94.995519
 31
0.0
  0
LINE
  5
308
100
AcDbEntity
  8
Ansichtskanten
 62
5
100
AcDbLine
 10
87.439633
 20
94.995519
 30
0.0
 11
84.081318
 21
94.995519
 31
0.0
  0
LINE
  5
309
100
AcDbEntity
  8
Ansichtskanten
 62
5
100
AcDbLine
 10
84.081318
 20
122.620223
 30
0.0
 11
87.439633
 21
122.620223
 31
0.0
  0
LINE
  5
30a
100
AcDbEntity
  8
Ansichtskanten
 62
5
100
AcDbLine
 10
87.439633
 20
122.620223
 30
0.0
 11
87.439633
 21
122.078565
 31
0.0
  0
LINE
  5
30b
100
AcDbEntity
  8
Ansichtskanten
 62
5
100
AcDbLine
 10
87.439633
 20
122.078565
 30
0.0
 11
84.081318
 21
122.078565
 31
0.0
  0
LINE
  5
30c
100
AcDbEntity
  8
Ansichtskanten
 62
5
100
AcDbLine
 10
136.120858
 20
284.658031
 30
0.0
 11
141.591609
 21
284.658031
 31
0.0
  0
LINE
  5
30d
100
AcDbEntity
  8
Ansichtskanten
 62
5
100
AcDbLine
 10
136.120858
 20
283.845575
 30
0.0
 11
141.591609
 21
283.845575
 31
0.0
  0
LINE
  5
30e
100
AcDbEntity
  8
Tuerkanten
 62
5
100
AcDbLine
 10
145.091960
 20
27.885786
 30
0.0
 11
140.379492
 21
27.885786
 31
0.0
  0
LINE
  5
30f
100
AcDbEntity
  8
Tuerkanten
 62
5
100
AcDbLine
 10
145.091960
 20
28.508685
 30
0.0
 11
140.379492
 21
28.508685
 31
0.0
  0
LINE
  5
310
100
AcDbEntity
  8
Tuerkanten
 62
5
100
AcDbLine
 10
115.083929
 20
28.508685
 30
0.0
 11
121.448432
 21
28.508685
 31
0.0
  0
LINE
  5
311
100
AcDbEntity
  8
Tuerkanten
 62
5
100
AcDbLine
 10
114.758924
 20
28.942023
 30
0.0
 11
114.758924
 21
35.306543
 31
0.0
  0
LINE
  5
312
100
AcDbEntity
  8
Tuerkanten
 62
5
100
AcDbLine
 10
114.136040
 20
28.942023
 30
0.0
 11
114.136040
 21
35.306543
 31
0.0
  0
LINE
  5
313
100
AcDbEntity
  8
Tuerkanten
 62
5
100
AcDbLine
 10
114.758924
 20
18.000471
 30
0.0
 11
114.758924
 21
24.337900
 31
0.0
  0
LINE
  5
314
100
AcDbEntity
  8
Tuerkanten
 62
5
100
AcDbLine
 10
114.136040
 20
18.000471
 30
0.0
 11
114.136040
 21
24.337900
 31
0.0
  0
LINE
  5
315
100
AcDbEntity
  8
Tuerkanten
 62
5
100
AcDbLine
 10
122.965106
 20
13.396356
 30
0.0
 11
122.965106
 21
18.217135
 31
0.0
  0
LINE
  5
316
100
AcDbEntity
  8
Tuerkanten
 62
5
100
AcDbLine
 10
123.588026
 20
13.396356
 30
0.0
 11
123.588026
 21
18.217135
 31
0.0
  0
LINE
  5
317
100
AcDbEntity
  8
Tuerkanten
 62
5
100
AcDbLine
 10
121.448432
 20
27.885786
 30
0.0
 11
115.083929
 21
27.885786
 31
0.0
  0
LINE
  5
318
100
AcDbEntity
  8
Tuerkanten
 62
5
100
AcDbLine
 10
147.888271
 20
137.734589
 30
0.0
 11
147.888271
 21
147.944892
 31
0.0
  0
LINE
  5
319
100
AcDbEntity
  8
Tuerkanten
 62
5
100
AcDbLine
 10
148.700764
 20
137.734589
 30
0.0
 11
148.700764
 21
147.944892
 31
0.0
  0
LINE
  5
31a
100
AcDbEntity
  8
Tuerkanten
 62
5
100
AcDbLine
 10
120.859378
 20
162.298920
 30
0.0
 11
120.859378
 21
167.092612
 31
0.0
  0
LINE
  5
31b
100
AcDbEntity
  8
Tuerkanten
 62
5
100
AcDbLine
 10
121.671870
 20
162.298920
 30
0.0
 11
121.671870
 21
167.092612
 31
0.0
  0
LINE
  5
31c
100
AcDbEntity
  8
Tuerkanten
 62
5
100
AcDbLine
 10
121.671870
 20
168.717596
 30
0.0
 11
121.671870
 21
173.511288
 31
0.0
  0
LINE
  5
31d
100
AcDbEntity
  8
Tuerkanten
 62
5
100
AcDbLine
 10
120.859378
 20
173.511288
 30
0.0
 11
120.859378
 21
168.717596
 31
0.0
  0
LINE
  5
31e
100
AcDbEntity
  8
Tuerkanten
 62
5
100
AcDbLine
 10
120.859378
 20
198.888111
 30
0.0
 11
120.859378
 21
203.681769
 31
0.0
  0
LINE
  5
31f
100
AcDbEntity
  8
Tuerkanten
 62
5
100
AcDbLine
 10
121.671870
 20
198.888111
 30
0.0
 11
121.671870
 21
203.681769
 31
0.0
  0
LINE
  5
320
100
AcDbEntity
  8
Tuerkanten
 62
5
100
AcDbLine
 10
120.859378
 20
219.931608
 30
0.0
 11
120.859378
 21
224.725336
 31
0.0
  0
LINE
  5
321
100
AcDbEntity
  8
Tuerkanten
 62
5
100
AcDbLine
 10
121.671870
 20
224.725336
 30
0.0
 11
121.671870
 21
219.931608
 31
0.0
  0
LINE
  5
322
100
AcDbEntity
  8
Tuerkanten
 62
5
100
AcDbLine
 10
120.859378
 20
247.068849
 30
0.0
 11
120.859378
 21
251.862541
 31
0.0
  0
LINE
  5
323
100
AcDbEntity
  8
Tuerkanten
 62
5
100
AcDbLine
 10
121.671870
 20
251.862541
 30
0.0
 11
121.671870
 21
247.068849
 31
0.0
  0
LINE
  5
324
100
AcDbEntity
  8
Tuerkanten
 62
5
100
AcDbLine
 10
120.859378
 20
272.851866
 30
0.0
 11
120.859378
 21
277.645593
 31
0.0
  0
LINE
  5
325
100
AcDbEntity
  8
Tuerkanten
 62
5
100
AcDbLine
 10
121.671870
 20
277.645593
 30
0.0
 11
121.671870
 21
272.851866
 31
0.0
  0
LINE
  5
326
100
AcDbEntity
  8
Tuerkanten
 62
5
100
AcDbLine
 10
108.482426
 20
155.257321
 30
0.0
 11
108.482426
 21
160.051015
 31
0.0
  0
LINE
  5
327
100
AcDbEntity
  8
Tuerkanten
 62
5
100
AcDbLine
 10
109.294919
 20
160.051015
 30
0.0
 11
109.294919
 21
155.257321
 31
0.0
  0
LINE
  5
328
100
AcDbEntity
  8
Tuerkanten
 62
5
100
AcDbLine
 10
108.482426
 20
168.121760
 30
0.0
 11
108.482426
 21
172.915488
 31
0.0
  0
LINE
  5
329
100
AcDbEntity
  8
Tuerkanten
 62
5
100
AcDbLine
 10
109.294919
 20
172.915488
 30
0.0
 11
109.294919
 21
168.121760
 31
0.0
  0
LINE
  5
32a
100
AcDbEntity
  8
Tuerkanten
 62
5
100
AcDbLine
 10
108.482426
 20
181.040372
 30
0.0
 11
108.482426
 21
185.834066
 31
0.0
  0
LINE
  5
32b
100
AcDbEntity
  8
Tuerkanten
 62
5
100
AcDbLine
 10
109.294919
 20
185.834066
 30
0.0
 11
109.294919
 21
181.040372
 31
0.0
  0
LINE
  5
32c
100
AcDbEntity
  8
Tuerkanten
 62
5
100
AcDbLine
 10
108.482426
 20
193.958951
 30
0.0
 11
108.482426
 21
198.752679
 31
0.0
  0
LINE
  5
32d
100
AcDbEntity
  8
Tuerkanten
 62
5
100
AcDbLine
 10
109.294919
 20
198.752679
 30
0.0
 11
109.294919
 21
193.958951
 31
0.0
  0
LINE
  5
32e
100
AcDbEntity
  8
Tuerkanten
 62
5
100
AcDbLine
 10
108.482426
 20
207.554659
 30
0.0
 11
108.482426
 21
212.348384
 31
0.0
  0
LINE
  5
32f
100
AcDbEntity
  8
Tuerkanten
 62
5
100
AcDbLine
 10
109.294919
 20
212.348384
 30
0.0
 11
109.294919
 21
207.554659
 31
0.0
  0
LINE
  5
330
100
AcDbEntity
  8
Tuerkanten
 62
5
100
AcDbLine
 10
108.482426
 20
221.150328
 30
0.0
 11
108.482426
 21
225.944056
 31
0.0
  0
LINE
  5
331
100
AcDbEntity
  8
Tuerkanten
 62
5
100
AcDbLine
 10
109.294919
 20
225.944056
 30
0.0
 11
109.294919
 21
221.150328
 31
0.0
  0
LINE
  5
332
100
AcDbEntity
  8
Tuerkanten
 62
5
100
AcDbLine
 10
108.482426
 20
234.746037
 30
0.0
 11
108.482426
 21
239.539764
 31
0.0
  0
LINE
  5
333
100
AcDbEntity
  8
Tuerkanten
 62
5
100
AcDbLine
 10
109.294919
 20
239.539764
 30
0.0
 11
109.294919
 21
234.746037
 31
0.0
  0
LINE
  5
334
100
AcDbEntity
  8
Tuerkanten
 62
5
100
AcDbLine
 10
108.482426
 20
244.956343
 30
0.0
 11
108.482426
 21
249.750034
 31
0.0
  0
LINE
  5
335
100
AcDbEntity
  8
Tuerkanten
 62
5
100
AcDbLine
 10
109.294919
 20
249.750034
 30
0.0
 11
109.294919
 21
244.956343
 31
0.0
  0
LINE
  5
336
100
AcDbEntity
  8
Tuerkanten
 62
5
100
AcDbLine
 10
108.482426
 20
257.468761
 30
0.0
 11
108.482426
 21
262.262418
 31
0.0
  0
LINE
  5
337
100
AcDbEntity
  8
Tuerkanten
 62
5
100
AcDbLine
 10
109.294919
 20
262.262418
 30
0.0
 11
109.294919
 21
257.468761
 31
0.0
  0
LINE
  5
338
100
AcDbEntity
  8
Tuerkanten
 62
5
100
AcDbLine
 10
102.930415
 20
269.710244
 30
0.0
 11
107.724109
 21
269.710244
 31
0.0
  0
LINE
  5
339
100
AcDbEntity
  8
Tuerkanten
 62
5
100
AcDbLine
 10
102.930415
 20
270.522736
 30
0.0
 11
107.724109
 21
270.522736
 31
0.0
  0
LINE
  5
33a
100
AcDbEntity
  8
Tuerkanten
 62
5
100
AcDbLine
 10
109.972015
 20
283.847612
 30
0.0
 11
120.182318
 21
283.847612
 31
0.0
  0
LINE
  5
33b
100
AcDbEntity
  8
Tuerkanten
 62
5
100
AcDbLine
 10
109.972015
 20
284.660069
 30
0.0
 11
120.182318
 21
284.660069
 31
0.0
  0
ENDSEC
  0
SECTION
  2
OBJECTS
  0
DICTIONARY
  5
C
330
0
100
AcDbDictionary
  3
ACAD_GROUP
350
D
  3
ACAD_MLINESTYLE
350
17
  0
DICTIONARY
  5
D
330
C
100
AcDbDictionary
  0
DICTIONARY
  5
1A
330
C
100
AcDbDictionary
  0
DICTIONARY
  5
17
330
C
100
AcDbDictionary
  3
STANDARD
350
18
  0
DICTIONARY
  5
19
330
C
100
AcDbDictionary
  0
ENDSEC
  0
EOF
