  0
SECTION
  2
HEADER
  9
$ACADVER
  1
AC1014
  9
$HANDSEED
  5
FFFF
  9
$MEASUREMENT
 70
     1
  0
ENDSEC
  0
SECTION
  2
TABLES
  0
TABLE
  2
VPORT
  5
8
330
0
100
AcDbSymbolTable
 70
     4
  0
VPORT
  5
2E
330
8
100
AcDbSymbolTableRecord
100
AcDbViewportTableRecord
  2
*ACTIVE
 70
     0
 10
0.0
 20
0.0
 11
1.0
 21
1.0
 12
210.0
 22
148.5
 13
0.0
 23
0.0
 14
10.0
 24
10.0
 15
10.0
 25
10.0
 16
0.0
 26
0.0
 36
1.0
 17
0.0
 27
0.0
 37
0.0
 40
341.0
 41
1.24
 42
50.0
 43
0.0
 44
0.0
 50
0.0
 51
0.0
 71
     0
 72
   100
 73
     1
 74
     3
 75
     0
 76
     0
 77
     0
 78
     0
  0
ENDTAB
  0
TABLE
  2
LTYPE
  5
5
330
0
100
AcDbSymbolTable
 70
     1
  0
LTYPE
  5
14
330
5
100
AcDbSymbolTableRecord
100
AcDbLinetypeTableRecord
  2
BYBLOCK
 70
     0
  3

 72
    65
 73
     0
 40
0.0
  0
LTYPE
  5
15
330
5
100
AcDbSymbolTableRecord
100
AcDbLinetypeTableRecord
  2
BYLAYER
 70
     0
  3

 72
    65
 73
     0
 40
0.0
  0
LTYPE
  5
16
330
5
100
AcDbSymbolTableRecord
100
AcDbLinetypeTableRecord
  2
CONTINUOUS
 70
     0
  3
Solid line
 72
    65
 73
     0
 40
0.0
  0
ENDTAB
  0
TABLE
  2
LAYER
  5
2
100
AcDbSymbolTable
 70
28
  0
LAYER
  5
50
100
AcDbSymbolTableRecord
100
AcDbLayerTableRecord
  2
0
 70
0
  6
CONTINUOUS
  0
LAYER
  5
51
100
AcDbSymbolTableRecord
100
AcDbLayerTableRecord
  2
Defpoints
 70
0
  6
CONTINUOUS
  0
LAYER
  5
52
100
AcDbSymbolTableRecord
100
AcDbLayerTableRecord
  2
Schnittkanten
 70
0
  6
CONTINUOUS
  0
LAYER
  5
53
100
AcDbSymbolTableRecord
100
AcDbLayerTableRecord
  2
verdeckt_Kanten
 70
0
  6
CONTINUOUS
  0
LAYER
  5
54
100
AcDbSymbolTableRecord
100
AcDbLayerTableRecord
  2
Ansichtskanten
 70
0
  6
CONTINUOUS
  0
LAYER
  5
55
100
AcDbSymbolTableRecord
100
AcDbLayerTableRecord
  2
Tuerkanten
 70
0
  6
CONTINUOUS
  0
LAYER
  5
56
100
AcDbSymbolTableRecord
100
AcDbLayerTableRecord
  2
Schnittlinie
 70
0
  6
CONTINUOUS
  0
LAYER
  5
57
100
AcDbSymbolTableRecord
100
AcDbLayerTableRecord
  2
Schraffur
 70
0
  6
CONTINUOUS
  0
LAYER
  5
58
100
AcDbSymbolTableRecord
100
AcDbLayerTableRecord
  2
A_Bemassung
 70
0
  6
CONTINUOUS
  0
LAYER
  5
59
100
AcDbSymbolTableRecord
100
AcDbLayerTableRecord
  2
Ansichtsfenster
 70
0
  6
CONTINUOUS
  0
LAYER
  5
5a
100
AcDbSymbolTableRecord
100
AcDbLayerTableRecord
  2
Plankopf
 70
0
  6
CONTINUOUS
  0
LAYER
  5
5b
100
AcDbSymbolTableRecord
100
AcDbLayerTableRecord
  2
A_Beschriftung
 70
0
  6
CONTINUOUS
  0
LAYER
  5
5c
100
AcDbSymbolTableRecord
100
AcDbLayerTableRecord
  2
A_Raumnummer
 70
0
  6
CONTINUOUS
  0
LAYER
  5
5d
100
AcDbSymbolTableRecord
100
AcDbLayerTableRecord
  2
A_Foto
 70
0
  6
CONTINUOUS
  0
LAYER
  5
5e
100
AcDbSymbolTableRecord
100
AcDbLayerTableRecord
  2
Plankopf_@_0.05
 70
0
  6
CONTINUOUS
  0
LAYER
  5
5f
100
AcDbSymbolTableRecord
100
AcDbLayerTableRecord
  2
A_Bemassung_@_0.05
 70
0
  6
CONTINUOUS
  0
LAYER
  5
60
100
AcDbSymbolTableRecord
100
AcDbLayerTableRecord
  2
A_Beschriftung_@_0.05
 70
0
  6
CONTINUOUS
  0
LAYER
  5
61
100
AcDbSymbolTableRecord
100
AcDbLayerTableRecord
  2
A_Raumnummer_@_0.05
 70
0
  6
CONTINUOUS
  0
LAYER
  5
62
100
AcDbSymbolTableRecord
100
AcDbLayerTableRecord
  2
A_Foto_@_0.05
 70
0
  6
CONTINUOUS
  0
LAYER
  5
63
100
AcDbSymbolTableRecord
100
AcDbLayerTableRecord
  2
A_Beschriftung_@_0.025
 70
0
  6
CONTINUOUS
  0
LAYER
  5
64
100
AcDbSymbolTableRecord
100
AcDbLayerTableRecord
  2
A_Beschriftung_@_0.04
 70
0
  6
CONTINUOUS
  0
LAYER
  5
65
100
AcDbSymbolTableRecord
100
AcDbLayerTableRecord
  2
A_Raumnummer_@_0.025
 70
0
  6
CONTINUOUS
  0
LAYER
  5
66
100
AcDbSymbolTableRecord
100
AcDbLayerTableRecord
  2
A_Raumnummer_@_0.04
 70
0
  6
CONTINUOUS
  0
LAYER
  5
67
100
AcDbSymbolTableRecord
100
AcDbLayerTableRecord
  2
A_Foto_@_0.025
 70
0
  6
CONTINUOUS
  0
LAYER
  5
68
100
AcDbSymbolTableRecord
100
AcDbLayerTableRecord
  2
A_Foto_@_0.04
 70
0
  6
CONTINUOUS
  0
LAYER
  5
69
100
AcDbSymbolTableRecord
100
AcDbLayerTableRecord
  2
A_Bemassung_@_0.025
 70
0
  6
CONTINUOUS
  0
LAYER
  5
6a
100
AcDbSymbolTableRecord
100
AcDbLayerTableRecord
  2
A_Bemassung_@_0.04
 70
0
  6
CONTINUOUS
  0
LAYER
  5
6b
100
AcDbSymbolTableRecord
100
AcDbLayerTableRecord
  2
A_Bemassung_@_0.1
 70
0
  6
CONTINUOUS
  0
ENDTAB
  0
TABLE
  2
STYLE
  5
3
330
0
100
AcDbSymbolTable
 70
     1
  0
STYLE
  5
11
330
3
100
AcDbSymbolTableRecord
100
AcDbTextStyleTableRecord
  2
STANDARD
 70
     0
 40
0.0
 41
1.0
 50
0.0
 71
     0
 42
2.5
  3
txt
  4

  0
ENDTAB
  0
TABLE
  2
VIEW
  5
6
330
0
100
AcDbSymbolTable
 70
     0
  0
ENDTAB
  0
TABLE
  2
UCS
  5
7
330
0
100
AcDbSymbolTable
 70
     0
  0
ENDTAB
  0
TABLE
  2
APPID
  5
9
330
0
100
AcDbSymbolTable
 70
     2
  0
APPID
  5
12
330
9
100
AcDbSymbolTableRecord
100
AcDbRegAppTableRecord
  2
ACAD
 70
     0
  0
ENDTAB
  0
TABLE
  2
DIMSTYLE
  5
A
330
0
100
AcDbSymbolTable
 70
     1
  0
DIMSTYLE
105
27
330
A
100
AcDbSymbolTableRecord
100
AcDbDimStyleTableRecord
  2
ISO-25
 70
     0
  3

  4

  5

  6

  7

 40
1.0
 41
2.5
 42
0.625
 43
3.75
 44
1.25
 45
0.0
 46
0.0
 47
0.0
 48
0.0
140
2.5
141
2.5
142
0.0
143
0.03937007874016
144
1.0
145
0.0
146
1.0
147
0.625
 71
     0
 72
     0
 73
     0
 74
     0
 75
     0
 76
     0
 77
     1
 78
     8
170
     0
171
     3
172
     1
173
     0
174
     0
175
     0
176
     0
177
     0
178
     0
270
     2
271
     2
272
     2
273
     2
274
     3
340
11
275
     0
280
     0
281
     0
282
     0
283
     0
284
     8
285
     0
286
     0
287
     3
288
     0
  0
ENDTAB
  0
TABLE
  2
BLOCK_RECORD
  5
1
330
0
100
AcDbSymbolTable
 70
     1
  0
BLOCK_RECORD
  5
1F
330
1
100
AcDbSymbolTableRecord
100
AcDbBlockTableRecord
  2
*MODEL_SPACE
  0
BLOCK_RECORD
  5
1B
330
1
100
AcDbSymbolTableRecord
100
AcDbBlockTableRecord
  2
*PAPER_SPACE
  0
ENDTAB
  0
ENDSEC
  0
SECTION
  2
BLOCKS
  0
BLOCK
  5
20
330
1F
100
AcDbEntity
  8
0
100
AcDbBlockBegin
  2
*MODEL_SPACE
 70
     0
 10
0.0
 20
0.0
 30
0.0
  3
*MODEL_SPACE
  1

  0
ENDBLK
  5
21
330
1F
100
AcDbEntity
  8
0
100
AcDbBlockEnd
  0
BLOCK
  5
1C
330
1B
100
AcDbEntity
 67
     1
  8
0
100
AcDbBlockBegin
  2
*PAPER_SPACE
  1

  0
ENDBLK
  5
1D
330
1B
100
AcDbEntity
 67
     1
  8
0
100
AcDbBlockEnd
  0
ENDSEC
  0
SECTION
  2
ENTITIES
  0
LINE
  5
100
100
AcDbEntity
  8
Schnittkanten
 62
1
100
AcDbLine
 10
139.710968
 20
348.508492
 30
0.0
 11
131.343368
 21
348.508492
 31
0.0
  0
LINE
  5
101
100
AcDbEntity
  8
Schnittkanten
 62
1
100
AcDbLine
 10
118.445528
 20
348.508492
 30
0.0
 11
106.720208
 21
348.508492
 31
0.0
  0
LINE
  5
102
100
AcDbEntity
  8
Schnittkanten
 62
1
100
AcDbLine
 10
93.822344
 20
348.508492
 30
0.0
 11
83.162976
 21
348.508492
 31
0.0
  0
LINE
  5
103
100
AcDbEntity
  8
Schnittkanten
 62
1
100
AcDbLine
 10
70.265133
 20
348.508492
 30
0.0
 11
65.521685
 21
348.508492
 31
0.0
  0
LINE
  5
104
100
AcDbEntity
  8
Schnittkanten
 62
1
100
AcDbLine
 10
65.521685
 20
348.508492
 30
0.0
 11
65.521685
 21
352.345852
 31
0.0
  0
LINE
  5
105
100
AcDbEntity
  8
Schnittkanten
 62
1
100
AcDbLine
 10
65.521685
 20
352.345852
 30
0.0
 11
64.295893
 21
352.345852
 31
0.0
  0
LINE
  5
106
100
AcDbEntity
  8
Schnittkanten
 62
1
100
AcDbLine
 10
64.295893
 20
352.345852
 30
0.0
 11
64.295893
 21
348.508492
 31
0.0
  0
LINE
  5
107
100
AcDbEntity
  8
Schnittkanten
 62
1
100
AcDbLine
 10
33.330373
 20
348.508492
 30
0.0
 11
33.330373
 21
372.598692
 31
0.0
  0
LINE
  5
108
100
AcDbEntity
  8
Schnittkanten
 62
1
100
AcDbLine
 10
33.330373
 20
372.598692
 30
0.0
 11
52.410685
 21
372.598692
 31
0.0
  0
LINE
  5
109
100
AcDbEntity
  8
Schnittkanten
 62
1
100
AcDbLine
 10
52.410685
 20
372.598692
 30
0.0
 11
52.410685
 21
362.578860
 31
0.0
  0
LINE
  5
10a
100
AcDbEntity
  8
Schnittkanten
 62
1
100
AcDbLine
 10
52.410685
 20
362.578860
 30
0.0
 11
64.295893
 21
362.578860
 31
0.0
  0
LINE
  5
10b
100
AcDbEntity
  8
Schnittkanten
 62
1
100
AcDbLine
 10
53.583213
 20
363.804692
 30
0.0
 11
64.295893
 21
363.804692
 31
0.0
  0
LINE
  5
10c
100
AcDbEntity
  8
Schnittkanten
 62
1
100
AcDbLine
 10
64.295893
 20
362.578860
 30
0.0
 11
64.295893
 21
361.619532
 31
0.0
  0
LINE
  5
10d
100
AcDbEntity
  8
Schnittkanten
 62
1
100
AcDbLine
 10
64.295893
 20
361.619532
 30
0.0
 11
65.521685
 21
361.619532
 31
0.0
  0
LINE
  5
10e
100
AcDbEntity
  8
Schnittkanten
 62
1
100
AcDbLine
 10
33.330373
 20
348.508492
 30
0.0
 11
44.842517
 21
348.508492
 31
0.0
  0
LINE
  5
10f
100
AcDbEntity
  8
Schnittkanten
 62
1
100
AcDbLine
 10
57.633773
 20
348.508492
 30
0.0
 11
64.295893
 21
348.508492
 31
0.0
  0
LINE
  5
110
100
AcDbEntity
  8
Schnittkanten
 62
1
100
AcDbLine
 10
65.521685
 20
412.038364
 30
0.0
 11
65.521685
 21
411.398820
 31
0.0
  0
LINE
  5
111
100
AcDbEntity
  8
Schnittkanten
 62
1
100
AcDbLine
 10
65.521685
 20
398.874044
 30
0.0
 11
65.521685
 21
361.619532
 31
0.0
  0
LINE
  5
112
100
AcDbEntity
  8
Schnittkanten
 62
1
100
AcDbLine
 10
65.521685
 20
412.038364
 30
0.0
 11
66.374461
 21
412.038364
 31
0.0
  0
LINE
  5
113
100
AcDbEntity
  8
Schnittkanten
 62
1
100
AcDbLine
 10
78.899237
 20
412.038364
 30
0.0
 11
98.885568
 21
412.038364
 31
0.0
  0
LINE
  5
114
100
AcDbEntity
  8
Schnittkanten
 62
1
100
AcDbLine
 10
98.885568
 20
412.038364
 30
0.0
 11
98.885568
 21
406.388908
 31
0.0
  0
LINE
  5
115
100
AcDbEntity
  8
Schnittkanten
 62
1
100
AcDbLine
 10
98.885568
 20
406.388908
 30
0.0
 11
110.184512
 21
406.388908
 31
0.0
  0
LINE
  5
116
100
AcDbEntity
  8
Schnittkanten
 62
1
100
AcDbLine
 10
98.885568
 20
413.264196
 30
0.0
 11
78.899237
 21
413.264196
 31
0.0
  0
LINE
  5
117
100
AcDbEntity
  8
Schnittkanten
 62
1
100
AcDbLine
 10
65.521685
 20
413.264196
 30
0.0
 11
66.374461
 21
413.264196
 31
0.0
  0
LINE
  5
118
100
AcDbEntity
  8
Schnittkanten
 62
1
100
AcDbLine
 10
139.710968
 20
348.508492
 30
0.0
 11
139.710968
 21
352.399164
 31
0.0
  0
LINE
  5
119
100
AcDbEntity
  8
Schnittkanten
 62
1
100
AcDbLine
 10
139.710968
 20
474.822100
 30
0.0
 11
139.710968
 21
470.931428
 31
0.0
  0
LINE
  5
11a
100
AcDbEntity
  8
Schnittkanten
 62
1
100
AcDbLine
 10
65.521685
 20
474.822100
 30
0.0
 11
65.521685
 21
464.908884
 31
0.0
  0
LINE
  5
11b
100
AcDbEntity
  8
Schnittkanten
 62
1
100
AcDbLine
 10
33.330373
 20
412.038364
 30
0.0
 11
44.842517
 21
412.038364
 31
0.0
  0
LINE
  5
11c
100
AcDbEntity
  8
Schnittkanten
 62
1
100
AcDbLine
 10
33.330373
 20
413.264196
 30
0.0
 11
44.842517
 21
413.264196
 31
0.0
  0
LINE
  5
11d
100
AcDbEntity
  8
Schnittkanten
 62
1
100
AcDbLine
 10
57.313989
 20
412.038364
 30
0.0
 11
64.295893
 21
412.038364
 31
0.0
  0
LINE
  5
11e
100
AcDbEntity
  8
Schnittkanten
 62
1
100
AcDbLine
 10
57.313989
 20
413.264196
 30
0.0
 11
64.295893
 21
413.264196
 31
0.0
  0
LINE
  5
11f
100
AcDbEntity
  8
Schnittkanten
 62
1
100
AcDbLine
 10
64.295893
 20
412.038364
 30
0.0
 11
64.295893
 21
411.398820
 31
0.0
  0
LINE
  5
120
100
AcDbEntity
  8
Schnittkanten
 62
1
100
AcDbLine
 10
64.295893
 20
411.398820
 30
0.0
 11
65.521685
 21
411.398820
 31
0.0
  0
LINE
  5
121
100
AcDbEntity
  8
Schnittkanten
 62
1
100
AcDbLine
 10
64.295893
 20
413.264196
 30
0.0
 11
64.295893
 21
452.437420
 31
0.0
  0
LINE
  5
122
100
AcDbEntity
  8
Schnittkanten
 62
1
100
AcDbLine
 10
64.295893
 20
452.437420
 30
0.0
 11
65.521685
 21
452.437420
 31
0.0
  0
LINE
  5
123
100
AcDbEntity
  8
Schnittkanten
 62
1
100
AcDbLine
 10
65.521685
 20
464.908884
 30
0.0
 11
64.295893
 21
464.908884
 31
0.0
  0
LINE
  5
124
100
AcDbEntity
  8
Schnittkanten
 62
1
100
AcDbLine
 10
64.295893
 20
464.908884
 30
0.0
 11
64.295893
 21
474.822100
 31
0.0
  0
LINE
  5
125
100
AcDbEntity
  8
Schnittkanten
 62
1
100
AcDbLine
 10
64.295893
 20
474.822100
 30
0.0
 11
33.330373
 21
474.822100
 31
0.0
  0
LINE
  5
126
100
AcDbEntity
  8
Schnittkanten
 62
1
100
AcDbLine
 10
33.330373
 20
474.822100
 30
0.0
 11
33.330373
 21
466.934180
 31
0.0
  0
LINE
  5
127
100
AcDbEntity
  8
Schnittkanten
 62
1
100
AcDbLine
 10
33.330373
 20
453.396772
 30
0.0
 11
33.330373
 21
426.801604
 31
0.0
  0
LINE
  5
128
100
AcDbEntity
  8
Schnittkanten
 62
1
100
AcDbLine
 10
29.439701
 20
453.396772
 30
0.0
 11
29.439701
 21
426.801604
 31
0.0
  0
LINE
  5
129
100
AcDbEntity
  8
Schnittkanten
 62
1
100
AcDbLine
 10
44.842517
 20
412.038364
 30
0.0
 11
44.842517
 21
413.264196
 31
0.0
  0
LINE
  5
12a
100
AcDbEntity
  8
Schnittkanten
 62
1
100
AcDbLine
 10
57.313989
 20
412.038364
 30
0.0
 11
57.313989
 21
413.264196
 31
0.0
  0
LINE
  5
12b
100
AcDbEntity
  8
Schnittkanten
 62
1
100
AcDbLine
 10
139.710968
 20
474.822100
 30
0.0
 11
135.127448
 21
474.822100
 31
0.0
  0
LINE
  5
12c
100
AcDbEntity
  8
Schnittkanten
 62
1
100
AcDbLine
 10
121.803208
 20
474.822100
 30
0.0
 11
115.620768
 21
474.822100
 31
0.0
  0
LINE
  5
12d
100
AcDbEntity
  8
Schnittkanten
 62
1
100
AcDbLine
 10
121.803208
 20
478.712772
 30
0.0
 11
115.620768
 21
478.712772
 31
0.0
  0
LINE
  5
12e
100
AcDbEntity
  8
Schnittkanten
 62
1
100
AcDbLine
 10
102.296560
 20
474.822100
 30
0.0
 11
96.114112
 21
474.822100
 31
0.0
  0
LINE
  5
12f
100
AcDbEntity
  8
Schnittkanten
 62
1
100
AcDbLine
 10
102.296560
 20
478.712772
 30
0.0
 11
96.114112
 21
478.712772
 31
0.0
  0
LINE
  5
130
100
AcDbEntity
  8
Schnittkanten
 62
1
100
AcDbLine
 10
82.896496
 20
474.822100
 30
0.0
 11
65.521685
 21
474.822100
 31
0.0
  0
LINE
  5
131
100
AcDbEntity
  8
Schnittkanten
 62
1
100
AcDbLine
 10
33.330373
 20
395.889420
 30
0.0
 11
35.782045
 21
395.889420
 31
0.0
  0
LINE
  5
132
100
AcDbEntity
  8
Schnittkanten
 62
1
100
AcDbLine
 10
35.782045
 20
395.889420
 30
0.0
 11
35.782045
 21
394.663588
 31
0.0
  0
LINE
  5
133
100
AcDbEntity
  8
Schnittkanten
 62
1
100
AcDbLine
 10
35.782045
 20
394.663588
 30
0.0
 11
33.330373
 21
394.663588
 31
0.0
  0
LINE
  5
134
100
AcDbEntity
  8
Schnittkanten
 62
1
100
AcDbLine
 10
33.330373
 20
394.663588
 30
0.0
 11
33.330373
 21
393.384452
 31
0.0
  0
LINE
  5
135
100
AcDbEntity
  8
Schnittkanten
 62
1
100
AcDbLine
 10
33.330373
 20
373.824492
 30
0.0
 11
33.330373
 21
380.166836
 31
0.0
  0
LINE
  5
136
100
AcDbEntity
  8
Schnittkanten
 62
1
100
AcDbLine
 10
33.330373
 20
373.824492
 30
0.0
 11
52.357381
 21
373.824492
 31
0.0
  0
LINE
  5
137
100
AcDbEntity
  8
Schnittkanten
 62
1
100
AcDbLine
 10
52.357381
 20
373.824492
 30
0.0
 11
52.357381
 21
394.663588
 31
0.0
  0
LINE
  5
138
100
AcDbEntity
  8
Schnittkanten
 62
1
100
AcDbLine
 10
45.268893
 20
394.663588
 30
0.0
 11
52.357381
 21
394.663588
 31
0.0
  0
LINE
  5
139
100
AcDbEntity
  8
Schnittkanten
 62
1
100
AcDbLine
 10
45.268893
 20
394.663588
 30
0.0
 11
45.268893
 21
395.889420
 31
0.0
  0
LINE
  5
13a
100
AcDbEntity
  8
Schnittkanten
 62
1
100
AcDbLine
 10
45.268893
 20
395.889420
 30
0.0
 11
53.583213
 21
395.889420
 31
0.0
  0
LINE
  5
13b
100
AcDbEntity
  8
Schnittkanten
 62
1
100
AcDbLine
 10
53.583213
 20
395.889420
 30
0.0
 11
53.583213
 21
363.804692
 31
0.0
  0
LINE
  5
13c
100
AcDbEntity
  8
Schnittkanten
 62
1
100
AcDbLine
 10
64.295893
 20
363.804692
 30
0.0
 11
64.295893
 21
398.874044
 31
0.0
  0
LINE
  5
13d
100
AcDbEntity
  8
Schnittkanten
 62
1
100
AcDbLine
 10
65.521685
 20
398.874044
 30
0.0
 11
64.295893
 21
398.874044
 31
0.0
  0
LINE
  5
13e
100
AcDbEntity
  8
Schnittkanten
 62
1
100
AcDbLine
 10
98.885568
 20
413.264196
 30
0.0
 11
98.885568
 21
416.835100
 31
0.0
  0
LINE
  5
13f
100
AcDbEntity
  8
Schnittkanten
 62
1
100
AcDbLine
 10
98.885568
 20
416.835100
 30
0.0
 11
110.184512
 21
416.835100
 31
0.0
  0
LINE
  5
140
100
AcDbEntity
  8
Schnittkanten
 62
1
100
AcDbLine
 10
110.184512
 20
406.388908
 30
0.0
 11
110.184512
 21
416.835100
 31
0.0
  0
LINE
  5
141
100
AcDbEntity
  8
Schnittkanten
 62
1
100
AcDbLine
 10
65.521685
 20
413.264196
 30
0.0
 11
65.521685
 21
452.437420
 31
0.0
  0
LINE
  5
142
100
AcDbEntity
  8
Schnittkanten
 62
1
100
AcDbLine
 10
139.710968
 20
409.933148
 30
0.0
 11
138.431848
 21
409.933148
 31
0.0
  0
LINE
  5
143
100
AcDbEntity
  8
Schnittkanten
 62
1
100
AcDbLine
 10
138.431848
 20
409.933148
 30
0.0
 11
138.431848
 21
415.369436
 31
0.0
  0
LINE
  5
144
100
AcDbEntity
  8
Schnittkanten
 62
1
100
AcDbLine
 10
138.431848
 20
415.369436
 30
0.0
 11
139.710968
 21
415.369436
 31
0.0
  0
LINE
  5
145
100
AcDbEntity
  8
Schnittkanten
 62
1
100
AcDbLine
 10
139.710968
 20
385.336636
 30
0.0
 11
139.710968
 21
409.933148
 31
0.0
  0
LINE
  5
146
100
AcDbEntity
  8
Schnittkanten
 62
1
100
AcDbLine
 10
139.710968
 20
415.369436
 30
0.0
 11
139.710968
 21
437.993956
 31
0.0
  0
LINE
  5
147
100
AcDbEntity
  8
Schnittkanten
 62
1
100
AcDbLine
 10
44.842517
 20
348.508492
 30
0.0
 11
44.842517
 21
344.617828
 31
0.0
  0
LINE
  5
148
100
AcDbEntity
  8
Schnittkanten
 62
1
100
AcDbLine
 10
57.633773
 20
348.508492
 30
0.0
 11
57.633773
 21
344.617828
 31
0.0
  0
LINE
  5
149
100
AcDbEntity
  8
Schnittkanten
 62
1
100
AcDbLine
 10
70.265133
 20
348.508492
 30
0.0
 11
70.265133
 21
344.617828
 31
0.0
  0
LINE
  5
14a
100
AcDbEntity
  8
Schnittkanten
 62
1
100
AcDbLine
 10
83.162976
 20
348.508492
 30
0.0
 11
83.162976
 21
344.617828
 31
0.0
  0
LINE
  5
14b
100
AcDbEntity
  8
Schnittkanten
 62
1
100
AcDbLine
 10
93.822344
 20
348.508492
 30
0.0
 11
93.822344
 21
344.617828
 31
0.0
  0
LINE
  5
14c
100
AcDbEntity
  8
Schnittkanten
 62
1
100
AcDbLine
 10
106.720208
 20
348.508492
 30
0.0
 11
106.720208
 21
344.617828
 31
0.0
  0
LINE
  5
14d
100
AcDbEntity
  8
Schnittkanten
 62
1
100
AcDbLine
 10
118.445528
 20
348.508492
 30
0.0
 11
118.445528
 21
344.617828
 31
0.0
  0
LINE
  5
14e
100
AcDbEntity
  8
Schnittkanten
 62
1
100
AcDbLine
 10
131.343368
 20
348.508492
 30
0.0
 11
131.343368
 21
344.617828
 31
0.0
  0
LINE
  5
14f
100
AcDbEntity
  8
Schnittkanten
 62
1
100
AcDbLine
 10
33.330373
 20
380.166836
 30
0.0
 11
29.439701
 21
380.166836
 31
0.0
  0
LINE
  5
150
100
AcDbEntity
  8
Schnittkanten
 62
1
100
AcDbLine
 10
33.330373
 20
393.384452
 30
0.0
 11
29.439701
 21
393.384452
 31
0.0
  0
LINE
  5
151
100
AcDbEntity
  8
Schnittkanten
 62
1
100
AcDbLine
 10
33.330373
 20
413.264196
 30
0.0
 11
29.439701
 21
413.264196
 31
0.0
  0
LINE
  5
152
100
AcDbEntity
  8
Schnittkanten
 62
1
100
AcDbLine
 10
33.330373
 20
426.801604
 30
0.0
 11
29.439701
 21
426.801604
 31
0.0
  0
LINE
  5
153
100
AcDbEntity
  8
Schnittkanten
 62
1
100
AcDbLine
 10
33.330373
 20
453.396772
 30
0.0
 11
29.439701
 21
453.396772
 31
0.0
  0
LINE
  5
154
100
AcDbEntity
  8
Schnittkanten
 62
1
100
AcDbLine
 10
33.330373
 20
466.934180
 30
0.0
 11
29.439701
 21
466.934180
 31
0.0
  0
LINE
  5
155
100
AcDbEntity
  8
Schnittkanten
 62
1
100
AcDbLine
 10
143.601632
 20
437.993956
 30
0.0
 11
139.710968
 21
437.993956
 31
0.0
  0
LINE
  5
156
100
AcDbEntity
  8
Schnittkanten
 62
1
100
AcDbLine
 10
143.601632
 20
470.931428
 30
0.0
 11
139.710968
 21
470.931428
 31
0.0
  0
LINE
  5
157
100
AcDbEntity
  8
Schnittkanten
 62
1
100
AcDbLine
 10
143.601632
 20
352.399164
 30
0.0
 11
139.710968
 21
352.399164
 31
0.0
  0
LINE
  5
158
100
AcDbEntity
  8
Schnittkanten
 62
1
100
AcDbLine
 10
143.601632
 20
385.336636
 30
0.0
 11
139.710968
 21
385.336636
 31
0.0
  0
LINE
  5
159
100
AcDbEntity
  8
Schnittkanten
 62
1
100
AcDbLine
 10
82.896496
 20
478.712772
 30
0.0
 11
82.896496
 21
474.822100
 31
0.0
  0
LINE
  5
15a
100
AcDbEntity
  8
Schnittkanten
 62
1
100
AcDbLine
 10
96.114112
 20
478.712772
 30
0.0
 11
96.114112
 21
474.822100
 31
0.0
  0
LINE
  5
15b
100
AcDbEntity
  8
Schnittkanten
 62
1
100
AcDbLine
 10
102.296560
 20
478.712772
 30
0.0
 11
102.296560
 21
474.822100
 31
0.0
  0
LINE
  5
15c
100
AcDbEntity
  8
Schnittkanten
 62
1
100
AcDbLine
 10
115.620768
 20
478.712772
 30
0.0
 11
115.620768
 21
474.822100
 31
0.0
  0
LINE
  5
15d
100
AcDbEntity
  8
Schnittkanten
 62
1
100
AcDbLine
 10
121.803208
 20
478.712772
 30
0.0
 11
121.803208
 21
474.822100
 31
0.0
  0
LINE
  5
15e
100
AcDbEntity
  8
Schnittkanten
 62
1
100
AcDbLine
 10
135.127448
 20
478.712772
 30
0.0
 11
135.127448
 21
474.822100
 31
0.0
  0
LINE
  5
15f
100
AcDbEntity
  8
Schnittkanten
 62
1
100
AcDbLine
 10
29.439701
 20
478.712772
 30
0.0
 11
82.896496
 21
478.712772
 31
0.0
  0
LINE
  5
160
100
AcDbEntity
  8
Schnittkanten
 62
1
100
AcDbLine
 10
135.127448
 20
478.712772
 30
0.0
 11
139.710968
 21
478.712772
 31
0.0
  0
LINE
  5
161
100
AcDbEntity
  8
Schnittkanten
 62
1
100
AcDbLine
 10
29.439701
 20
344.617828
 30
0.0
 11
44.842517
 21
344.617828
 31
0.0
  0
LINE
  5
162
100
AcDbEntity
  8
Schnittkanten
 62
1
100
AcDbLine
 10
57.633773
 20
344.617828
 30
0.0
 11
70.265133
 21
344.617828
 31
0.0
  0
LINE
  5
163
100
AcDbEntity
  8
Schnittkanten
 62
1
100
AcDbLine
 10
83.162976
 20
344.617828
 30
0.0
 11
93.822344
 21
344.617828
 31
0.0
  0
LINE
  5
164
100
AcDbEntity
  8
Schnittkanten
 62
1
100
AcDbLine
 10
106.720208
 20
344.617828
 30
0.0
 11
118.445528
 21
344.617828
 31
0.0
  0
LINE
  5
165
100
AcDbEntity
  8
Schnittkanten
 62
1
100
AcDbLine
 10
131.343368
 20
344.617828
 30
0.0
 11
139.710968
 21
344.617828
 31
0.0
  0
LINE
  5
166
100
AcDbEntity
  8
Schnittkanten
 62
1
100
AcDbLine
 10
29.439701
 20
344.617828
 30
0.0
 11
29.439701
 21
380.166836
 31
0.0
  0
LINE
  5
167
100
AcDbEntity
  8
Schnittkanten
 62
1
100
AcDbLine
 10
29.439701
 20
393.384452
 30
0.0
 11
29.439701
 21
413.264196
 31
0.0
  0
LINE
  5
168
100
AcDbEntity
  8
Schnittkanten
 62
1
100
AcDbLine
 10
29.439701
 20
466.934180
 30
0.0
 11
29.439701
 21
478.712772
 31
0.0
  0
LINE
  5
169
100
AcDbEntity
  8
Schnittkanten
 62
1
100
AcDbLine
 10
143.601632
 20
344.617828
 30
0.0
 11
143.601632
 21
352.399164
 31
0.0
  0
LINE
  5
16a
100
AcDbEntity
  8
Schnittkanten
 62
1
100
AcDbLine
 10
143.601632
 20
385.336636
 30
0.0
 11
143.601632
 21
437.993956
 31
0.0
  0
LINE
  5
16b
100
AcDbEntity
  8
Schnittkanten
 62
1
100
AcDbLine
 10
143.601632
 20
470.931428
 30
0.0
 11
143.601632
 21
478.712772
 31
0.0
  0
LINE
  5
16c
100
AcDbEntity
  8
Schnittkanten
 62
1
100
AcDbLine
 10
66.374461
 20
413.264196
 30
0.0
 11
66.374461
 21
412.038364
 31
0.0
  0
LINE
  5
16d
100
AcDbEntity
  8
Schnittkanten
 62
1
100
AcDbLine
 10
78.899237
 20
412.038364
 30
0.0
 11
78.899237
 21
413.264196
 31
0.0
  0
LINE
  5
16e
100
AcDbEntity
  8
Schnittkanten
 62
1
100
AcDbLine
 10
29.439701
 20
394.397116
 30
0.0
 11
18.780341
 21
394.397116
 31
0.0
  0
LINE
  5
16f
100
AcDbEntity
  8
Schnittkanten
 62
1
100
AcDbLine
 10
29.439701
 20
396.955364
 30
0.0
 11
21.338581
 21
396.955364
 31
0.0
  0
LINE
  5
170
100
AcDbEntity
  8
Schnittkanten
 62
1
100
AcDbLine
 10
18.780341
 20
394.397116
 30
0.0
 11
18.780341
 21
413.051020
 31
0.0
  0
LINE
  5
171
100
AcDbEntity
  8
Schnittkanten
 62
1
100
AcDbLine
 10
21.338581
 20
396.955364
 30
0.0
 11
21.338581
 21
410.492772
 31
0.0
  0
LINE
  5
172
100
AcDbEntity
  8
Schnittkanten
 62
1
100
AcDbLine
 10
18.780341
 20
413.051020
 30
0.0
 11
29.439701
 21
413.051020
 31
0.0
  0
LINE
  5
173
100
AcDbEntity
  8
Schnittkanten
 62
1
100
AcDbLine
 10
21.338581
 20
410.492772
 30
0.0
 11
29.439701
 21
410.492772
 31
0.0
  0
LINE
  5
174
100
AcDbEntity
  8
Schnittkanten
 62
1
100
AcDbLine
 10
29.439701
 20
397.594908
 30
0.0
 11
33.330373
 21
397.594908
 31
0.0
  0
LINE
  5
175
100
AcDbEntity
  8
Schnittkanten
 62
1
100
AcDbLine
 10
29.439701
 20
409.853204
 30
0.0
 11
33.330373
 21
409.853204
 31
0.0
  0
LINE
  5
176
100
AcDbEntity
  8
Schnittkanten
 62
1
100
AcDbLine
 10
33.330373
 20
395.889420
 30
0.0
 11
33.330373
 21
397.594908
 31
0.0
  0
LINE
  5
177
100
AcDbEntity
  8
Schnittkanten
 62
1
100
AcDbLine
 10
33.330373
 20
409.853204
 30
0.0
 11
33.330373
 21
412.038364
 31
0.0
  0
LINE
  5
178
100
AcDbEntity
  8
Schnittkanten
 62
1
100
AcDbLine
 10
300.560968
 20
476.487636
 30
0.0
 11
300.560968
 21
422.791028
 31
0.0
  0
LINE
  5
179
100
AcDbEntity
  8
Schnittkanten
 62
1
100
AcDbLine
 10
324.384688
 20
422.791028
 30
0.0
 11
340.267152
 21
422.791028
 31
0.0
  0
LINE
  5
17a
100
AcDbEntity
  8
Schnittkanten
 62
1
100
AcDbLine
 10
375.123336
 20
422.791028
 30
0.0
 11
391.112368
 21
422.791028
 31
0.0
  0
LINE
  5
17b
100
AcDbEntity
  8
Schnittkanten
 62
1
100
AcDbLine
 10
400.545968
 20
422.791028
 30
0.0
 11
417.867408
 21
422.791028
 31
0.0
  0
LINE
  5
17c
100
AcDbEntity
  8
Schnittkanten
 62
1
100
AcDbLine
 10
427.301008
 20
422.791028
 30
0.0
 11
444.622448
 21
422.791028
 31
0.0
  0
LINE
  5
17d
100
AcDbEntity
  8
Schnittkanten
 62
1
100
AcDbLine
 10
454.056048
 20
422.791028
 30
0.0
 11
471.377488
 21
422.791028
 31
0.0
  0
LINE
  5
17e
100
AcDbEntity
  8
Schnittkanten
 62
1
100
AcDbLine
 10
480.811008
 20
422.791028
 30
0.0
 11
491.470448
 21
422.791028
 31
0.0
  0
LINE
  5
17f
100
AcDbEntity
  8
Schnittkanten
 62
1
100
AcDbLine
 10
500.903968
 20
422.791028
 30
0.0
 11
516.093568
 21
422.791028
 31
0.0
  0
LINE
  5
180
100
AcDbEntity
  8
Schnittkanten
 62
1
100
AcDbLine
 10
300.560968
 20
422.791028
 30
0.0
 11
300.560968
 21
424.389932
 31
0.0
  0
LINE
  5
181
100
AcDbEntity
  8
Schnittkanten
 62
1
100
AcDbLine
 10
568.004768
 20
424.389932
 30
0.0
 11
568.004768
 21
476.487636
 31
0.0
  0
LINE
  5
182
100
AcDbEntity
  8
Schnittkanten
 62
1
100
AcDbLine
 10
327.848992
 20
424.389932
 30
0.0
 11
327.848992
 21
476.487636
 31
0.0
  0
LINE
  5
183
100
AcDbEntity
  8
Schnittkanten
 62
1
100
AcDbLine
 10
302.159896
 20
476.487636
 30
0.0
 11
302.159896
 21
424.389932
 31
0.0
  0
LINE
  5
184
100
AcDbEntity
  8
Schnittkanten
 62
1
100
AcDbLine
 10
326.250072
 20
476.487636
 30
0.0
 11
326.250072
 21
424.389932
 31
0.0
  0
LINE
  5
185
100
AcDbEntity
  8
Schnittkanten
 62
1
100
AcDbLine
 10
541.782688
 20
476.487636
 30
0.0
 11
541.782688
 21
435.315780
 31
0.0
  0
LINE
  5
186
100
AcDbEntity
  8
Schnittkanten
 62
1
100
AcDbLine
 10
541.782688
 20
425.882236
 30
0.0
 11
541.782688
 21
424.389932
 31
0.0
  0
LINE
  5
187
100
AcDbEntity
  8
Schnittkanten
 62
1
100
AcDbLine
 10
540.183808
 20
424.389932
 30
0.0
 11
540.183808
 21
425.882236
 31
0.0
  0
LINE
  5
188
100
AcDbEntity
  8
Schnittkanten
 62
1
100
AcDbLine
 10
540.183808
 20
435.315780
 30
0.0
 11
540.183808
 21
476.487636
 31
0.0
  0
LINE
  5
189
100
AcDbEntity
  8
Schnittkanten
 62
1
100
AcDbLine
 10
516.093568
 20
424.389932
 30
0.0
 11
515.027648
 21
424.389932
 31
0.0
  0
LINE
  5
18a
100
AcDbEntity
  8
Schnittkanten
 62
1
100
AcDbLine
 10
515.027648
 20
424.389932
 30
0.0
 11
515.027648
 21
476.487636
 31
0.0
  0
LINE
  5
18b
100
AcDbEntity
  8
Schnittkanten
 62
1
100
AcDbLine
 10
491.470448
 20
424.389932
 30
0.0
 11
488.272608
 21
424.389932
 31
0.0
  0
LINE
  5
18c
100
AcDbEntity
  8
Schnittkanten
 62
1
100
AcDbLine
 10
488.272608
 20
424.389932
 30
0.0
 11
488.272608
 21
476.487636
 31
0.0
  0
LINE
  5
18d
100
AcDbEntity
  8
Schnittkanten
 62
1
100
AcDbLine
 10
486.673728
 20
476.487636
 30
0.0
 11
486.673728
 21
424.389932
 31
0.0
  0
LINE
  5
18e
100
AcDbEntity
  8
Schnittkanten
 62
1
100
AcDbLine
 10
471.377488
 20
424.389932
 30
0.0
 11
461.517568
 21
424.389932
 31
0.0
  0
LINE
  5
18f
100
AcDbEntity
  8
Schnittkanten
 62
1
100
AcDbLine
 10
461.517568
 20
424.389932
 30
0.0
 11
461.517568
 21
476.487636
 31
0.0
  0
LINE
  5
190
100
AcDbEntity
  8
Schnittkanten
 62
1
100
AcDbLine
 10
459.925968
 20
476.487636
 30
0.0
 11
459.925968
 21
424.389932
 31
0.0
  0
LINE
  5
191
100
AcDbEntity
  8
Schnittkanten
 62
1
100
AcDbLine
 10
434.769808
 20
476.487636
 30
0.0
 11
434.769808
 21
424.389932
 31
0.0
  0
LINE
  5
192
100
AcDbEntity
  8
Schnittkanten
 62
1
100
AcDbLine
 10
433.170928
 20
424.389932
 30
0.0
 11
433.170928
 21
476.487636
 31
0.0
  0
LINE
  5
193
100
AcDbEntity
  8
Schnittkanten
 62
1
100
AcDbLine
 10
408.014768
 20
476.487636
 30
0.0
 11
408.014768
 21
424.389932
 31
0.0
  0
LINE
  5
194
100
AcDbEntity
  8
Schnittkanten
 62
1
100
AcDbLine
 10
406.415888
 20
424.389932
 30
0.0
 11
406.415888
 21
476.487636
 31
0.0
  0
LINE
  5
195
100
AcDbEntity
  8
Schnittkanten
 62
1
100
AcDbLine
 10
381.259728
 20
476.487636
 30
0.0
 11
381.259728
 21
424.389932
 31
0.0
  0
LINE
  5
196
100
AcDbEntity
  8
Schnittkanten
 62
1
100
AcDbLine
 10
379.660808
 20
424.389932
 30
0.0
 11
379.660808
 21
476.487636
 31
0.0
  0
LINE
  5
197
100
AcDbEntity
  8
Schnittkanten
 62
1
100
AcDbLine
 10
354.504704
 20
476.487636
 30
0.0
 11
354.504704
 21
424.389932
 31
0.0
  0
LINE
  5
198
100
AcDbEntity
  8
Schnittkanten
 62
1
100
AcDbLine
 10
352.905776
 20
424.391940
 30
0.0
 11
352.905776
 21
476.487636
 31
0.0
  0
LINE
  5
199
100
AcDbEntity
  8
Schnittkanten
 62
1
100
AcDbLine
 10
300.560968
 20
478.086556
 30
0.0
 11
302.159896
 21
478.086556
 31
0.0
  0
LINE
  5
19a
100
AcDbEntity
  8
Schnittkanten
 62
1
100
AcDbLine
 10
314.258272
 20
478.086556
 30
0.0
 11
327.848992
 21
478.086556
 31
0.0
  0
LINE
  5
19b
100
AcDbEntity
  8
Schnittkanten
 62
1
100
AcDbLine
 10
314.951152
 20
422.791028
 30
0.0
 11
314.951152
 21
424.389932
 31
0.0
  0
LINE
  5
19c
100
AcDbEntity
  8
Schnittkanten
 62
1
100
AcDbLine
 10
324.384688
 20
424.389932
 30
0.0
 11
324.384688
 21
422.791028
 31
0.0
  0
LINE
  5
19d
100
AcDbEntity
  8
Schnittkanten
 62
1
100
AcDbLine
 10
340.267152
 20
422.791028
 30
0.0
 11
340.267152
 21
424.389932
 31
0.0
  0
LINE
  5
19e
100
AcDbEntity
  8
Schnittkanten
 62
1
100
AcDbLine
 10
349.700720
 20
424.389932
 30
0.0
 11
349.700720
 21
422.791028
 31
0.0
  0
LINE
  5
19f
100
AcDbEntity
  8
Schnittkanten
 62
1
100
AcDbLine
 10
365.689768
 20
422.791028
 30
0.0
 11
365.689768
 21
424.389932
 31
0.0
  0
LINE
  5
1a0
100
AcDbEntity
  8
Schnittkanten
 62
1
100
AcDbLine
 10
375.123336
 20
424.389932
 30
0.0
 11
375.123336
 21
422.791028
 31
0.0
  0
LINE
  5
1a1
100
AcDbEntity
  8
Schnittkanten
 62
1
100
AcDbLine
 10
391.112368
 20
422.791028
 30
0.0
 11
391.112368
 21
424.389932
 31
0.0
  0
LINE
  5
1a2
100
AcDbEntity
  8
Schnittkanten
 62
1
100
AcDbLine
 10
400.545968
 20
424.389932
 30
0.0
 11
400.545968
 21
422.791028
 31
0.0
  0
LINE
  5
1a3
100
AcDbEntity
  8
Schnittkanten
 62
1
100
AcDbLine
 10
417.867408
 20
422.791028
 30
0.0
 11
417.867408
 21
424.389932
 31
0.0
  0
LINE
  5
1a4
100
AcDbEntity
  8
Schnittkanten
 62
1
100
AcDbLine
 10
427.301008
 20
424.389932
 30
0.0
 11
427.301008
 21
422.791028
 31
0.0
  0
LINE
  5
1a5
100
AcDbEntity
  8
Schnittkanten
 62
1
100
AcDbLine
 10
444.622448
 20
422.791028
 30
0.0
 11
444.622448
 21
424.389932
 31
0.0
  0
LINE
  5
1a6
100
AcDbEntity
  8
Schnittkanten
 62
1
100
AcDbLine
 10
454.056048
 20
424.389932
 30
0.0
 11
454.056048
 21
422.791028
 31
0.0
  0
LINE
  5
1a7
100
AcDbEntity
  8
Schnittkanten
 62
1
100
AcDbLine
 10
471.377488
 20
422.791028
 30
0.0
 11
471.377488
 21
424.389932
 31
0.0
  0
LINE
  5
1a8
100
AcDbEntity
  8
Schnittkanten
 62
1
100
AcDbLine
 10
480.811008
 20
424.389932
 30
0.0
 11
480.811008
 21
422.791028
 31
0.0
  0
LINE
  5
1a9
100
AcDbEntity
  8
Schnittkanten
 62
1
100
AcDbLine
 10
541.782688
 20
425.882236
 30
0.0
 11
540.183808
 21
425.882236
 31
0.0
  0
LINE
  5
1aa
100
AcDbEntity
  8
Schnittkanten
 62
1
100
AcDbLine
 10
525.527088
 20
424.389932
 30
0.0
 11
525.527088
 21
422.791028
 31
0.0
  0
LINE
  5
1ab
100
AcDbEntity
  8
Schnittkanten
 62
1
100
AcDbLine
 10
516.093568
 20
422.791028
 30
0.0
 11
516.093568
 21
424.389932
 31
0.0
  0
LINE
  5
1ac
100
AcDbEntity
  8
Schnittkanten
 62
1
100
AcDbLine
 10
491.470448
 20
424.389932
 30
0.0
 11
491.470448
 21
422.791028
 31
0.0
  0
LINE
  5
1ad
100
AcDbEntity
  8
Schnittkanten
 62
1
100
AcDbLine
 10
500.903968
 20
422.791028
 30
0.0
 11
500.903968
 21
424.389932
 31
0.0
  0
LINE
  5
1ae
100
AcDbEntity
  8
Schnittkanten
 62
1
100
AcDbLine
 10
362.705144
 20
422.791028
 30
0.0
 11
362.705144
 21
420.126164
 31
0.0
  0
LINE
  5
1af
100
AcDbEntity
  8
Schnittkanten
 62
1
100
AcDbLine
 10
362.705144
 20
401.365668
 30
0.0
 11
362.705144
 21
400.033252
 31
0.0
  0
LINE
  5
1b0
100
AcDbEntity
  8
Schnittkanten
 62
1
100
AcDbLine
 10
362.172184
 20
400.033252
 30
0.0
 11
362.172184
 21
401.365668
 31
0.0
  0
LINE
  5
1b1
100
AcDbEntity
  8
Schnittkanten
 62
1
100
AcDbLine
 10
362.172184
 20
420.126164
 30
0.0
 11
362.172184
 21
422.791028
 31
0.0
  0
LINE
  5
1b2
100
AcDbEntity
  8
Schnittkanten
 62
1
100
AcDbLine
 10
362.172184
 20
400.033252
 30
0.0
 11
350.873240
 21
400.033252
 31
0.0
  0
LINE
  5
1b3
100
AcDbEntity
  8
Schnittkanten
 62
1
100
AcDbLine
 10
410.245968
 20
400.033252
 30
0.0
 11
442.224128
 21
400.033252
 31
0.0
  0
LINE
  5
1b4
100
AcDbEntity
  8
Schnittkanten
 62
1
100
AcDbLine
 10
451.657648
 20
400.033252
 30
0.0
 11
495.627568
 21
400.033252
 31
0.0
  0
LINE
  5
1b5
100
AcDbEntity
  8
Schnittkanten
 62
1
100
AcDbLine
 10
505.061168
 20
400.033252
 30
0.0
 11
546.366208
 21
400.033252
 31
0.0
  0
LINE
  5
1b6
100
AcDbEntity
  8
Schnittkanten
 62
1
100
AcDbLine
 10
300.560968
 20
400.033252
 30
0.0
 11
300.560968
 21
346.842972
 31
0.0
  0
LINE
  5
1b7
100
AcDbEntity
  8
Schnittkanten
 62
1
100
AcDbLine
 10
569.603648
 20
400.033252
 30
0.0
 11
569.603648
 21
370.028164
 31
0.0
  0
LINE
  5
1b8
100
AcDbEntity
  8
Schnittkanten
 62
1
100
AcDbLine
 10
568.004768
 20
346.842972
 30
0.0
 11
557.345408
 21
346.842972
 31
0.0
  0
LINE
  5
1b9
100
AcDbEntity
  8
Schnittkanten
 62
1
100
AcDbLine
 10
438.440048
 20
346.842972
 30
0.0
 11
425.915248
 21
346.842972
 31
0.0
  0
LINE
  5
1ba
100
AcDbEntity
  8
Schnittkanten
 62
1
100
AcDbLine
 10
424.316368
 20
346.842972
 30
0.0
 11
405.769008
 21
346.842972
 31
0.0
  0
LINE
  5
1bb
100
AcDbEntity
  8
Schnittkanten
 62
1
100
AcDbLine
 10
395.003088
 20
346.842972
 30
0.0
 11
381.678840
 21
346.842972
 31
0.0
  0
LINE
  5
1bc
100
AcDbEntity
  8
Schnittkanten
 62
1
100
AcDbLine
 10
380.079944
 20
346.842972
 30
0.0
 11
366.755704
 21
346.842972
 31
0.0
  0
LINE
  5
1bd
100
AcDbEntity
  8
Schnittkanten
 62
1
100
AcDbLine
 10
312.925856
 20
346.842972
 30
0.0
 11
302.159896
 21
346.842972
 31
0.0
  0
LINE
  5
1be
100
AcDbEntity
  8
Schnittkanten
 62
1
100
AcDbLine
 10
302.159896
 20
346.842972
 30
0.0
 11
302.159896
 21
385.110124
 31
0.0
  0
LINE
  5
1bf
100
AcDbEntity
  8
Schnittkanten
 62
1
100
AcDbLine
 10
300.560968
 20
346.842972
 30
0.0
 11
300.560968
 21
345.244052
 31
0.0
  0
LINE
  5
1c0
100
AcDbEntity
  8
Schnittkanten
 62
1
100
AcDbLine
 10
300.560968
 20
345.244052
 30
0.0
 11
312.925856
 21
345.244052
 31
0.0
  0
LINE
  5
1c1
100
AcDbEntity
  8
Schnittkanten
 62
1
100
AcDbLine
 10
327.475896
 20
345.244052
 30
0.0
 11
354.763912
 21
345.244052
 31
0.0
  0
LINE
  5
1c2
100
AcDbEntity
  8
Schnittkanten
 62
1
100
AcDbLine
 10
405.769008
 20
345.244052
 30
0.0
 11
438.440048
 21
345.244052
 31
0.0
  0
LINE
  5
1c3
100
AcDbEntity
  8
Schnittkanten
 62
1
100
AcDbLine
 10
462.530208
 20
345.244052
 30
0.0
 11
491.470448
 21
345.244052
 31
0.0
  0
LINE
  5
1c4
100
AcDbEntity
  8
Schnittkanten
 62
1
100
AcDbLine
 10
515.560608
 20
345.244052
 30
0.0
 11
546.579408
 21
345.244052
 31
0.0
  0
LINE
  5
1c5
100
AcDbEntity
  8
Schnittkanten
 62
1
100
AcDbLine
 10
557.345408
 20
345.244052
 30
0.0
 11
569.603648
 21
345.244052
 31
0.0
  0
LINE
  5
1c6
100
AcDbEntity
  8
Schnittkanten
 62
1
100
AcDbLine
 10
569.603648
 20
345.244052
 30
0.0
 11
569.603648
 21
346.842972
 31
0.0
  0
LINE
  5
1c7
100
AcDbEntity
  8
Schnittkanten
 62
1
100
AcDbLine
 10
381.678840
 20
398.434356
 30
0.0
 11
400.812448
 21
398.434356
 31
0.0
  0
LINE
  5
1c8
100
AcDbEntity
  8
Schnittkanten
 62
1
100
AcDbLine
 10
410.245968
 20
398.434356
 30
0.0
 11
424.316368
 21
398.434356
 31
0.0
  0
LINE
  5
1c9
100
AcDbEntity
  8
Schnittkanten
 62
1
100
AcDbLine
 10
425.915248
 20
398.434356
 30
0.0
 11
442.224128
 21
398.434356
 31
0.0
  0
LINE
  5
1ca
100
AcDbEntity
  8
Schnittkanten
 62
1
100
AcDbLine
 10
328.808312
 20
398.434356
 30
0.0
 11
328.808312
 21
400.033252
 31
0.0
  0
LINE
  5
1cb
100
AcDbEntity
  8
Schnittkanten
 62
1
100
AcDbLine
 10
338.241888
 20
400.033252
 30
0.0
 11
338.241888
 21
398.434356
 31
0.0
  0
LINE
  5
1cc
100
AcDbEntity
  8
Schnittkanten
 62
1
100
AcDbLine
 10
341.439704
 20
398.434356
 30
0.0
 11
341.439704
 21
400.033252
 31
0.0
  0
LINE
  5
1cd
100
AcDbEntity
  8
Schnittkanten
 62
1
100
AcDbLine
 10
350.873240
 20
400.033252
 30
0.0
 11
350.873240
 21
398.434356
 31
0.0
  0
LINE
  5
1ce
100
AcDbEntity
  8
Schnittkanten
 62
1
100
AcDbLine
 10
338.241888
 20
398.434356
 30
0.0
 11
338.241888
 21
374.450740
 31
0.0
  0
LINE
  5
1cf
100
AcDbEntity
  8
Schnittkanten
 62
1
100
AcDbLine
 10
338.241888
 20
372.318868
 30
0.0
 11
338.241888
 21
346.842972
 31
0.0
  0
LINE
  5
1d0
100
AcDbEntity
  8
Schnittkanten
 62
1
100
AcDbLine
 10
341.439704
 20
398.434356
 30
0.0
 11
341.439704
 21
374.450740
 31
0.0
  0
LINE
  5
1d1
100
AcDbEntity
  8
Schnittkanten
 62
1
100
AcDbLine
 10
341.439704
 20
372.318868
 30
0.0
 11
341.439704
 21
346.842972
 31
0.0
  0
LINE
  5
1d2
100
AcDbEntity
  8
Schnittkanten
 62
1
100
AcDbLine
 10
380.079944
 20
346.842972
 30
0.0
 11
380.079944
 21
385.110124
 31
0.0
  0
LINE
  5
1d3
100
AcDbEntity
  8
Schnittkanten
 62
1
100
AcDbLine
 10
381.678840
 20
398.434356
 30
0.0
 11
381.678840
 21
346.842972
 31
0.0
  0
LINE
  5
1d4
100
AcDbEntity
  8
Schnittkanten
 62
1
100
AcDbLine
 10
424.316368
 20
398.434356
 30
0.0
 11
424.316368
 21
346.842972
 31
0.0
  0
LINE
  5
1d5
100
AcDbEntity
  8
Schnittkanten
 62
1
100
AcDbLine
 10
425.915248
 20
346.842972
 30
0.0
 11
425.915248
 21
398.434356
 31
0.0
  0
LINE
  5
1d6
100
AcDbEntity
  8
Schnittkanten
 62
1
100
AcDbLine
 10
477.879728
 20
346.842972
 30
0.0
 11
477.879728
 21
398.434356
 31
0.0
  0
LINE
  5
1d7
100
AcDbEntity
  8
Schnittkanten
 62
1
100
AcDbLine
 10
479.478608
 20
398.434356
 30
0.0
 11
479.478608
 21
346.842972
 31
0.0
  0
LINE
  5
1d8
100
AcDbEntity
  8
Schnittkanten
 62
1
100
AcDbLine
 10
531.443088
 20
346.842972
 30
0.0
 11
531.443088
 21
398.434356
 31
0.0
  0
LINE
  5
1d9
100
AcDbEntity
  8
Schnittkanten
 62
1
100
AcDbLine
 10
533.041968
 20
398.434356
 30
0.0
 11
533.041968
 21
346.842972
 31
0.0
  0
LINE
  5
1da
100
AcDbEntity
  8
Schnittkanten
 62
1
100
AcDbLine
 10
546.366208
 20
398.434356
 30
0.0
 11
546.366208
 21
400.033252
 31
0.0
  0
LINE
  5
1db
100
AcDbEntity
  8
Schnittkanten
 62
1
100
AcDbLine
 10
555.799728
 20
400.033252
 30
0.0
 11
555.799728
 21
398.434356
 31
0.0
  0
LINE
  5
1dc
100
AcDbEntity
  8
Schnittkanten
 62
1
100
AcDbLine
 10
568.004768
 20
346.842972
 30
0.0
 11
568.004768
 21
359.262204
 31
0.0
  0
LINE
  5
1dd
100
AcDbEntity
  8
Schnittkanten
 62
1
100
AcDbLine
 10
505.061168
 20
398.434356
 30
0.0
 11
505.061168
 21
400.033252
 31
0.0
  0
LINE
  5
1de
100
AcDbEntity
  8
Schnittkanten
 62
1
100
AcDbLine
 10
495.627568
 20
400.033252
 30
0.0
 11
495.627568
 21
398.434356
 31
0.0
  0
LINE
  5
1df
100
AcDbEntity
  8
Schnittkanten
 62
1
100
AcDbLine
 10
451.657648
 20
400.033252
 30
0.0
 11
451.657648
 21
398.434356
 31
0.0
  0
LINE
  5
1e0
100
AcDbEntity
  8
Schnittkanten
 62
1
100
AcDbLine
 10
442.224128
 20
398.434356
 30
0.0
 11
442.224128
 21
400.033252
 31
0.0
  0
LINE
  5
1e1
100
AcDbEntity
  8
Schnittkanten
 62
1
100
AcDbLine
 10
410.245968
 20
400.033252
 30
0.0
 11
410.245968
 21
398.434356
 31
0.0
  0
LINE
  5
1e2
100
AcDbEntity
  8
Schnittkanten
 62
1
100
AcDbLine
 10
400.812448
 20
398.434356
 30
0.0
 11
400.812448
 21
400.033252
 31
0.0
  0
LINE
  5
1e3
100
AcDbEntity
  8
Schnittkanten
 62
1
100
AcDbLine
 10
362.172184
 20
401.365668
 30
0.0
 11
362.705144
 21
401.365668
 31
0.0
  0
LINE
  5
1e4
100
AcDbEntity
  8
Schnittkanten
 62
1
100
AcDbLine
 10
362.705144
 20
420.126164
 30
0.0
 11
362.172184
 21
420.126164
 31
0.0
  0
LINE
  5
1e5
100
AcDbEntity
  8
Schnittkanten
 62
1
100
AcDbLine
 10
312.925856
 20
346.842972
 30
0.0
 11
312.925856
 21
345.244052
 31
0.0
  0
LINE
  5
1e6
100
AcDbEntity
  8
Schnittkanten
 62
1
100
AcDbLine
 10
327.475896
 20
346.842972
 30
0.0
 11
327.475896
 21
345.244052
 31
0.0
  0
LINE
  5
1e7
100
AcDbEntity
  8
Schnittkanten
 62
1
100
AcDbLine
 10
557.345408
 20
346.842972
 30
0.0
 11
557.345408
 21
345.244052
 31
0.0
  0
LINE
  5
1e8
100
AcDbEntity
  8
Schnittkanten
 62
1
100
AcDbLine
 10
546.579408
 20
345.244052
 30
0.0
 11
534.587648
 21
345.244052
 31
0.0
  0
LINE
  5
1e9
100
AcDbEntity
  8
Schnittkanten
 62
1
100
AcDbLine
 10
546.579408
 20
345.244052
 30
0.0
 11
546.579408
 21
346.842972
 31
0.0
  0
LINE
  5
1ea
100
AcDbEntity
  8
Schnittkanten
 62
1
100
AcDbLine
 10
491.470448
 20
346.842972
 30
0.0
 11
491.470448
 21
345.244052
 31
0.0
  0
LINE
  5
1eb
100
AcDbEntity
  8
Schnittkanten
 62
1
100
AcDbLine
 10
515.560608
 20
345.244052
 30
0.0
 11
515.560608
 21
346.842972
 31
0.0
  0
LINE
  5
1ec
100
AcDbEntity
  8
Schnittkanten
 62
1
100
AcDbLine
 10
438.440048
 20
346.842972
 30
0.0
 11
438.440048
 21
345.244052
 31
0.0
  0
LINE
  5
1ed
100
AcDbEntity
  8
Schnittkanten
 62
1
100
AcDbLine
 10
462.530208
 20
345.244052
 30
0.0
 11
462.530208
 21
346.842972
 31
0.0
  0
LINE
  5
1ee
100
AcDbEntity
  8
Schnittkanten
 62
1
100
AcDbLine
 10
395.003088
 20
346.842972
 30
0.0
 11
395.003088
 21
345.244052
 31
0.0
  0
LINE
  5
1ef
100
AcDbEntity
  8
Schnittkanten
 62
1
100
AcDbLine
 10
405.769008
 20
345.244052
 30
0.0
 11
405.769008
 21
346.842972
 31
0.0
  0
LINE
  5
1f0
100
AcDbEntity
  8
Schnittkanten
 62
1
100
AcDbLine
 10
366.755704
 20
346.842972
 30
0.0
 11
378.854112
 21
346.842972
 31
0.0
  0
LINE
  5
1f1
100
AcDbEntity
  8
Schnittkanten
 62
1
100
AcDbLine
 10
354.763912
 20
345.244052
 30
0.0
 11
354.763912
 21
346.842972
 31
0.0
  0
LINE
  5
1f2
100
AcDbEntity
  8
Schnittkanten
 62
1
100
AcDbLine
 10
380.079944
 20
385.643100
 30
0.0
 11
358.761168
 21
385.643100
 31
0.0
  0
LINE
  5
1f3
100
AcDbEntity
  8
Schnittkanten
 62
1
100
AcDbLine
 10
358.761168
 20
385.643100
 30
0.0
 11
358.761168
 21
385.110124
 31
0.0
  0
LINE
  5
1f4
100
AcDbEntity
  8
Schnittkanten
 62
1
100
AcDbLine
 10
358.761168
 20
385.110124
 30
0.0
 11
380.079944
 21
385.110124
 31
0.0
  0
LINE
  5
1f5
100
AcDbEntity
  8
Schnittkanten
 62
1
100
AcDbLine
 10
341.439704
 20
374.450740
 30
0.0
 11
370.646376
 21
374.450740
 31
0.0
  0
LINE
  5
1f6
100
AcDbEntity
  8
Schnittkanten
 62
1
100
AcDbLine
 10
370.646376
 20
372.318868
 30
0.0
 11
341.439704
 21
372.318868
 31
0.0
  0
LINE
  5
1f7
100
AcDbEntity
  8
Schnittkanten
 62
1
100
AcDbLine
 10
370.646376
 20
372.318868
 30
0.0
 11
370.646376
 21
374.450740
 31
0.0
  0
LINE
  5
1f8
100
AcDbEntity
  8
Schnittkanten
 62
1
100
AcDbLine
 10
366.755704
 20
346.842972
 30
0.0
 11
366.755704
 21
345.244052
 31
0.0
  0
LINE
  5
1f9
100
AcDbEntity
  8
Schnittkanten
 62
1
100
AcDbLine
 10
302.159896
 20
385.643100
 30
0.0
 11
323.478640
 21
385.643100
 31
0.0
  0
LINE
  5
1fa
100
AcDbEntity
  8
Schnittkanten
 62
1
100
AcDbLine
 10
338.241888
 20
374.450740
 30
0.0
 11
309.035184
 21
374.450740
 31
0.0
  0
LINE
  5
1fb
100
AcDbEntity
  8
Schnittkanten
 62
1
100
AcDbLine
 10
309.035184
 20
372.318868
 30
0.0
 11
338.241888
 21
372.318868
 31
0.0
  0
LINE
  5
1fc
100
AcDbEntity
  8
Schnittkanten
 62
1
100
AcDbLine
 10
302.159896
 20
385.643100
 30
0.0
 11
323.478640
 21
385.643100
 31
0.0
  0
LINE
  5
1fd
100
AcDbEntity
  8
Schnittkanten
 62
1
100
AcDbLine
 10
323.478640
 20
385.643100
 30
0.0
 11
323.478640
 21
385.110124
 31
0.0
  0
LINE
  5
1fe
100
AcDbEntity
  8
Schnittkanten
 62
1
100
AcDbLine
 10
323.478640
 20
385.110124
 30
0.0
 11
302.159896
 21
385.110124
 31
0.0
  0
LINE
  5
1ff
100
AcDbEntity
  8
Schnittkanten
 62
1
100
AcDbLine
 10
309.035184
 20
374.450740
 30
0.0
 11
309.035184
 21
372.318868
 31
0.0
  0
LINE
  5
200
100
AcDbEntity
  8
Schnittkanten
 62
1
100
AcDbLine
 10
300.560968
 20
478.086556
 30
0.0
 11
289.635120
 21
478.086556
 31
0.0
  0
LINE
  5
201
100
AcDbEntity
  8
Schnittkanten
 62
1
100
AcDbLine
 10
223.333808
 20
478.086556
 30
0.0
 11
208.677144
 21
478.086556
 31
0.0
  0
LINE
  5
202
100
AcDbEntity
  8
Schnittkanten
 62
1
100
AcDbLine
 10
185.013328
 20
478.086556
 30
0.0
 11
167.691832
 21
478.086556
 31
0.0
  0
LINE
  5
203
100
AcDbEntity
  8
Schnittkanten
 62
1
100
AcDbLine
 10
147.598912
 20
478.086556
 30
0.0
 11
143.601632
 21
478.086556
 31
0.0
  0
LINE
  5
204
100
AcDbEntity
  8
Schnittkanten
 62
1
100
AcDbLine
 10
143.601632
 20
345.244052
 30
0.0
 11
161.189632
 21
345.244052
 31
0.0
  0
LINE
  5
205
100
AcDbEntity
  8
Schnittkanten
 62
1
100
AcDbLine
 10
186.612248
 20
345.244052
 30
0.0
 11
202.068336
 21
345.244052
 31
0.0
  0
LINE
  5
206
100
AcDbEntity
  8
Schnittkanten
 62
1
100
AcDbLine
 10
223.493672
 20
345.244052
 30
0.0
 11
238.150320
 21
345.244052
 31
0.0
  0
LINE
  5
207
100
AcDbEntity
  8
Schnittkanten
 62
1
100
AcDbLine
 10
248.916280
 20
345.244052
 30
0.0
 11
251.048160
 21
345.244052
 31
0.0
  0
LINE
  5
208
100
AcDbEntity
  8
Schnittkanten
 62
1
100
AcDbLine
 10
261.814152
 20
345.244052
 30
0.0
 11
280.468056
 21
345.244052
 31
0.0
  0
LINE
  5
209
100
AcDbEntity
  8
Schnittkanten
 62
1
100
AcDbLine
 10
300.560968
 20
476.487636
 30
0.0
 11
289.635120
 21
476.487636
 31
0.0
  0
LINE
  5
20a
100
AcDbEntity
  8
Schnittkanten
 62
1
100
AcDbLine
 10
264.212512
 20
476.487636
 30
0.0
 11
248.756416
 21
476.487636
 31
0.0
  0
LINE
  5
20b
100
AcDbEntity
  8
Schnittkanten
 62
1
100
AcDbLine
 10
223.333808
 20
476.487636
 30
0.0
 11
208.677144
 21
476.487636
 31
0.0
  0
LINE
  5
20c
100
AcDbEntity
  8
Schnittkanten
 62
1
100
AcDbLine
 10
197.911184
 20
476.487636
 30
0.0
 11
195.779304
 21
476.487636
 31
0.0
  0
LINE
  5
20d
100
AcDbEntity
  8
Schnittkanten
 62
1
100
AcDbLine
 10
185.013328
 20
476.487636
 30
0.0
 11
167.691832
 21
476.487636
 31
0.0
  0
LINE
  5
20e
100
AcDbEntity
  8
Schnittkanten
 62
1
100
AcDbLine
 10
280.468056
 20
346.842972
 30
0.0
 11
261.814152
 21
346.842972
 31
0.0
  0
LINE
  5
20f
100
AcDbEntity
  8
Schnittkanten
 62
1
100
AcDbLine
 10
251.048160
 20
346.842972
 30
0.0
 11
248.916280
 21
346.842972
 31
0.0
  0
LINE
  5
210
100
AcDbEntity
  8
Schnittkanten
 62
1
100
AcDbLine
 10
238.150320
 20
346.842972
 30
0.0
 11
223.493672
 21
346.842972
 31
0.0
  0
LINE
  5
211
100
AcDbEntity
  8
Schnittkanten
 62
1
100
AcDbLine
 10
202.068336
 20
346.842972
 30
0.0
 11
186.612248
 21
346.842972
 31
0.0
  0
LINE
  5
212
100
AcDbEntity
  8
Schnittkanten
 62
1
100
AcDbLine
 10
161.189632
 20
346.842972
 30
0.0
 11
143.601632
 21
346.842972
 31
0.0
  0
LINE
  5
213
100
AcDbEntity
  8
Schnittkanten
 62
1
100
AcDbLine
 10
280.468056
 20
346.842972
 30
0.0
 11
280.468056
 21
345.244052
 31
0.0
  0
LINE
  5
214
100
AcDbEntity
  8
Schnittkanten
 62
1
100
AcDbLine
 10
261.814152
 20
346.842972
 30
0.0
 11
261.814152
 21
345.244052
 31
0.0
  0
LINE
  5
215
100
AcDbEntity
  8
Schnittkanten
 62
1
100
AcDbLine
 10
251.048160
 20
345.244052
 30
0.0
 11
251.048160
 21
346.842972
 31
0.0
  0
LINE
  5
216
100
AcDbEntity
  8
Schnittkanten
 62
1
100
AcDbLine
 10
248.916280
 20
345.244052
 30
0.0
 11
248.916280
 21
346.842972
 31
0.0
  0
LINE
  5
217
100
AcDbEntity
  8
Schnittkanten
 62
1
100
AcDbLine
 10
238.150320
 20
346.842972
 30
0.0
 11
238.150320
 21
345.244052
 31
0.0
  0
LINE
  5
218
100
AcDbEntity
  8
Schnittkanten
 62
1
100
AcDbLine
 10
223.493672
 20
345.244052
 30
0.0
 11
223.493672
 21
346.842972
 31
0.0
  0
LINE
  5
219
100
AcDbEntity
  8
Schnittkanten
 62
1
100
AcDbLine
 10
202.068336
 20
346.842972
 30
0.0
 11
202.068336
 21
345.244052
 31
0.0
  0
LINE
  5
21a
100
AcDbEntity
  8
Schnittkanten
 62
1
100
AcDbLine
 10
186.612248
 20
346.842972
 30
0.0
 11
186.612248
 21
345.244052
 31
0.0
  0
LINE
  5
21b
100
AcDbEntity
  8
Schnittkanten
 62
1
100
AcDbLine
 10
161.189632
 20
345.244052
 30
0.0
 11
161.189632
 21
346.842972
 31
0.0
  0
LINE
  5
21c
100
AcDbEntity
  8
Schnittkanten
 62
1
100
AcDbLine
 10
147.598912
 20
476.487636
 30
0.0
 11
147.598912
 21
478.086556
 31
0.0
  0
LINE
  5
21d
100
AcDbEntity
  8
Schnittkanten
 62
1
100
AcDbLine
 10
167.691832
 20
478.086556
 30
0.0
 11
167.691832
 21
476.487636
 31
0.0
  0
LINE
  5
21e
100
AcDbEntity
  8
Schnittkanten
 62
1
100
AcDbLine
 10
185.013328
 20
478.086556
 30
0.0
 11
185.013328
 21
476.487636
 31
0.0
  0
LINE
  5
21f
100
AcDbEntity
  8
Schnittkanten
 62
1
100
AcDbLine
 10
195.779304
 20
478.086556
 30
0.0
 11
195.779304
 21
476.487636
 31
0.0
  0
LINE
  5
220
100
AcDbEntity
  8
Schnittkanten
 62
1
100
AcDbLine
 10
197.911184
 20
478.086556
 30
0.0
 11
197.911184
 21
476.487636
 31
0.0
  0
LINE
  5
221
100
AcDbEntity
  8
Schnittkanten
 62
1
100
AcDbLine
 10
208.677144
 20
476.487636
 30
0.0
 11
208.677144
 21
478.086556
 31
0.0
  0
LINE
  5
222
100
AcDbEntity
  8
Schnittkanten
 62
1
100
AcDbLine
 10
223.333808
 20
478.086556
 30
0.0
 11
223.333808
 21
476.487636
 31
0.0
  0
LINE
  5
223
100
AcDbEntity
  8
Schnittkanten
 62
1
100
AcDbLine
 10
248.756416
 20
476.487636
 30
0.0
 11
248.756416
 21
478.086556
 31
0.0
  0
LINE
  5
224
100
AcDbEntity
  8
Schnittkanten
 62
1
100
AcDbLine
 10
264.212512
 20
478.086556
 30
0.0
 11
264.212512
 21
476.487636
 31
0.0
  0
LINE
  5
225
100
AcDbEntity
  8
Schnittkanten
 62
1
100
AcDbLine
 10
289.635120
 20
478.086556
 30
0.0
 11
289.635120
 21
476.487636
 31
0.0
  0
LINE
  5
226
100
AcDbEntity
  8
Schnittkanten
 62
1
100
AcDbLine
 10
451.657648
 20
398.434356
 30
0.0
 11
477.879728
 21
398.434356
 31
0.0
  0
LINE
  5
227
100
AcDbEntity
  8
Schnittkanten
 62
1
100
AcDbLine
 10
479.478608
 20
398.434356
 30
0.0
 11
495.627568
 21
398.434356
 31
0.0
  0
LINE
  5
228
100
AcDbEntity
  8
Schnittkanten
 62
1
100
AcDbLine
 10
505.061168
 20
398.434356
 30
0.0
 11
531.443088
 21
398.434356
 31
0.0
  0
LINE
  5
229
100
AcDbEntity
  8
Schnittkanten
 62
1
100
AcDbLine
 10
533.041968
 20
398.434356
 30
0.0
 11
546.366208
 21
398.434356
 31
0.0
  0
LINE
  5
22a
100
AcDbEntity
  8
Schnittkanten
 62
1
100
AcDbLine
 10
555.799728
 20
398.434356
 30
0.0
 11
568.004768
 21
398.434356
 31
0.0
  0
LINE
  5
22b
100
AcDbEntity
  8
Schnittkanten
 62
1
100
AcDbLine
 10
533.041968
 20
346.842972
 30
0.0
 11
546.579408
 21
346.842972
 31
0.0
  0
LINE
  5
22c
100
AcDbEntity
  8
Schnittkanten
 62
1
100
AcDbLine
 10
477.879728
 20
346.842972
 30
0.0
 11
462.530208
 21
346.842972
 31
0.0
  0
LINE
  5
22d
100
AcDbEntity
  8
Schnittkanten
 62
1
100
AcDbLine
 10
479.478608
 20
346.842972
 30
0.0
 11
491.470448
 21
346.842972
 31
0.0
  0
LINE
  5
22e
100
AcDbEntity
  8
Schnittkanten
 62
1
100
AcDbLine
 10
327.475896
 20
346.842972
 30
0.0
 11
338.241888
 21
346.842972
 31
0.0
  0
LINE
  5
22f
100
AcDbEntity
  8
Schnittkanten
 62
1
100
AcDbLine
 10
341.439704
 20
346.842972
 30
0.0
 11
354.763912
 21
346.842972
 31
0.0
  0
LINE
  5
230
100
AcDbEntity
  8
Schnittkanten
 62
1
100
AcDbLine
 10
314.258272
 20
476.487636
 30
0.0
 11
326.250072
 21
476.487636
 31
0.0
  0
LINE
  5
231
100
AcDbEntity
  8
Schnittkanten
 62
1
100
AcDbLine
 10
314.951152
 20
424.389932
 30
0.0
 11
302.159896
 21
424.389932
 31
0.0
  0
LINE
  5
232
100
AcDbEntity
  8
Schnittkanten
 62
1
100
AcDbLine
 10
324.384688
 20
424.389932
 30
0.0
 11
326.250072
 21
424.389932
 31
0.0
  0
LINE
  5
233
100
AcDbEntity
  8
Schnittkanten
 62
1
100
AcDbLine
 10
327.848992
 20
424.389932
 30
0.0
 11
340.267152
 21
424.389932
 31
0.0
  0
LINE
  5
234
100
AcDbEntity
  8
Schnittkanten
 62
1
100
AcDbLine
 10
349.700720
 20
424.389932
 30
0.0
 11
352.905776
 21
424.391532
 31
0.0
  0
LINE
  5
235
100
AcDbEntity
  8
Schnittkanten
 62
1
100
AcDbLine
 10
354.504704
 20
424.389932
 30
0.0
 11
365.689768
 21
424.389932
 31
0.0
  0
LINE
  5
236
100
AcDbEntity
  8
Schnittkanten
 62
1
100
AcDbLine
 10
349.700720
 20
422.791028
 30
0.0
 11
362.172184
 21
422.791028
 31
0.0
  0
LINE
  5
237
100
AcDbEntity
  8
Schnittkanten
 62
1
100
AcDbLine
 10
362.705144
 20
422.791028
 30
0.0
 11
365.689768
 21
422.791028
 31
0.0
  0
LINE
  5
238
100
AcDbEntity
  8
Schnittkanten
 62
1
100
AcDbLine
 10
375.123336
 20
424.389932
 30
0.0
 11
379.660808
 21
424.389932
 31
0.0
  0
LINE
  5
239
100
AcDbEntity
  8
Schnittkanten
 62
1
100
AcDbLine
 10
381.259728
 20
424.389932
 30
0.0
 11
391.112368
 21
424.389932
 31
0.0
  0
LINE
  5
23a
100
AcDbEntity
  8
Schnittkanten
 62
1
100
AcDbLine
 10
400.545968
 20
424.389932
 30
0.0
 11
406.415888
 21
424.389932
 31
0.0
  0
LINE
  5
23b
100
AcDbEntity
  8
Schnittkanten
 62
1
100
AcDbLine
 10
408.014768
 20
424.389932
 30
0.0
 11
417.867408
 21
424.389932
 31
0.0
  0
LINE
  5
23c
100
AcDbEntity
  8
Schnittkanten
 62
1
100
AcDbLine
 10
433.170928
 20
424.389932
 30
0.0
 11
427.301008
 21
424.389932
 31
0.0
  0
LINE
  5
23d
100
AcDbEntity
  8
Schnittkanten
 62
1
100
AcDbLine
 10
434.769808
 20
424.389932
 30
0.0
 11
444.622448
 21
424.389932
 31
0.0
  0
LINE
  5
23e
100
AcDbEntity
  8
Schnittkanten
 62
1
100
AcDbLine
 10
454.056048
 20
424.389932
 30
0.0
 11
459.925968
 21
424.389932
 31
0.0
  0
LINE
  5
23f
100
AcDbEntity
  8
Schnittkanten
 62
1
100
AcDbLine
 10
541.782688
 20
424.389932
 30
0.0
 11
568.004768
 21
424.389932
 31
0.0
  0
LINE
  5
240
100
AcDbEntity
  8
Schnittkanten
 62
1
100
AcDbLine
 10
352.905776
 20
476.487636
 30
0.0
 11
339.947368
 21
476.487636
 31
0.0
  0
LINE
  5
241
100
AcDbEntity
  8
Schnittkanten
 62
1
100
AcDbLine
 10
302.159896
 20
478.086556
 30
0.0
 11
303.492312
 21
478.086556
 31
0.0
  0
LINE
  5
242
100
AcDbEntity
  8
Schnittkanten
 62
1
100
AcDbLine
 10
303.492312
 20
476.487636
 30
0.0
 11
303.492312
 21
478.086556
 31
0.0
  0
LINE
  5
243
100
AcDbEntity
  8
Schnittkanten
 62
1
100
AcDbLine
 10
314.258272
 20
476.487636
 30
0.0
 11
314.258272
 21
478.086556
 31
0.0
  0
LINE
  5
244
100
AcDbEntity
  8
Schnittkanten
 62
1
100
AcDbLine
 10
327.848992
 20
478.086556
 30
0.0
 11
329.181400
 21
478.086556
 31
0.0
  0
LINE
  5
245
100
AcDbEntity
  8
Schnittkanten
 62
1
100
AcDbLine
 10
329.181400
 20
478.086556
 30
0.0
 11
329.181400
 21
476.487636
 31
0.0
  0
LINE
  5
246
100
AcDbEntity
  8
Schnittkanten
 62
1
100
AcDbLine
 10
339.947368
 20
476.487636
 30
0.0
 11
339.947368
 21
478.086556
 31
0.0
  0
LINE
  5
247
100
AcDbEntity
  8
Schnittkanten
 62
1
100
AcDbLine
 10
339.947368
 20
478.086556
 30
0.0
 11
354.504704
 21
478.086556
 31
0.0
  0
LINE
  5
248
100
AcDbEntity
  8
Schnittkanten
 62
1
100
AcDbLine
 10
329.181400
 20
476.487636
 30
0.0
 11
327.848992
 21
476.487636
 31
0.0
  0
LINE
  5
249
100
AcDbEntity
  8
Schnittkanten
 62
1
100
AcDbLine
 10
354.504704
 20
478.086556
 30
0.0
 11
355.837120
 21
478.086556
 31
0.0
  0
LINE
  5
24a
100
AcDbEntity
  8
Schnittkanten
 62
1
100
AcDbLine
 10
355.837120
 20
478.086556
 30
0.0
 11
355.837120
 21
476.487636
 31
0.0
  0
LINE
  5
24b
100
AcDbEntity
  8
Schnittkanten
 62
1
100
AcDbLine
 10
366.603072
 20
476.487636
 30
0.0
 11
366.603072
 21
478.086556
 31
0.0
  0
LINE
  5
24c
100
AcDbEntity
  8
Schnittkanten
 62
1
100
AcDbLine
 10
355.837120
 20
476.487636
 30
0.0
 11
354.504704
 21
476.487636
 31
0.0
  0
LINE
  5
24d
100
AcDbEntity
  8
Schnittkanten
 62
1
100
AcDbLine
 10
366.603072
 20
476.487636
 30
0.0
 11
379.660808
 21
476.487636
 31
0.0
  0
LINE
  5
24e
100
AcDbEntity
  8
Schnittkanten
 62
1
100
AcDbLine
 10
381.259728
 20
476.487636
 30
0.0
 11
382.592152
 21
476.487636
 31
0.0
  0
LINE
  5
24f
100
AcDbEntity
  8
Schnittkanten
 62
1
100
AcDbLine
 10
382.592152
 20
476.487636
 30
0.0
 11
382.592152
 21
478.086556
 31
0.0
  0
LINE
  5
250
100
AcDbEntity
  8
Schnittkanten
 62
1
100
AcDbLine
 10
393.358128
 20
478.086556
 30
0.0
 11
393.358128
 21
476.487636
 31
0.0
  0
LINE
  5
251
100
AcDbEntity
  8
Schnittkanten
 62
1
100
AcDbLine
 10
408.014768
 20
476.487636
 30
0.0
 11
409.347168
 21
476.487636
 31
0.0
  0
LINE
  5
252
100
AcDbEntity
  8
Schnittkanten
 62
1
100
AcDbLine
 10
409.347168
 20
476.487636
 30
0.0
 11
409.347168
 21
478.086556
 31
0.0
  0
LINE
  5
253
100
AcDbEntity
  8
Schnittkanten
 62
1
100
AcDbLine
 10
434.769808
 20
476.487636
 30
0.0
 11
436.102208
 21
476.487636
 31
0.0
  0
LINE
  5
254
100
AcDbEntity
  8
Schnittkanten
 62
1
100
AcDbLine
 10
436.102208
 20
476.487636
 30
0.0
 11
436.102208
 21
478.086556
 31
0.0
  0
LINE
  5
255
100
AcDbEntity
  8
Schnittkanten
 62
1
100
AcDbLine
 10
446.868208
 20
478.086556
 30
0.0
 11
446.868208
 21
476.487636
 31
0.0
  0
LINE
  5
256
100
AcDbEntity
  8
Schnittkanten
 62
1
100
AcDbLine
 10
461.517568
 20
476.487636
 30
0.0
 11
462.850048
 21
476.487636
 31
0.0
  0
LINE
  5
257
100
AcDbEntity
  8
Schnittkanten
 62
1
100
AcDbLine
 10
462.850048
 20
476.487636
 30
0.0
 11
462.850048
 21
478.086556
 31
0.0
  0
LINE
  5
258
100
AcDbEntity
  8
Schnittkanten
 62
1
100
AcDbLine
 10
473.615968
 20
478.086556
 30
0.0
 11
473.615968
 21
476.487636
 31
0.0
  0
LINE
  5
259
100
AcDbEntity
  8
Schnittkanten
 62
1
100
AcDbLine
 10
489.605008
 20
478.086556
 30
0.0
 11
489.605008
 21
476.487636
 31
0.0
  0
LINE
  5
25a
100
AcDbEntity
  8
Schnittkanten
 62
1
100
AcDbLine
 10
500.371008
 20
476.487636
 30
0.0
 11
500.371008
 21
478.086556
 31
0.0
  0
LINE
  5
25b
100
AcDbEntity
  8
Schnittkanten
 62
1
100
AcDbLine
 10
516.360048
 20
478.086556
 30
0.0
 11
516.360048
 21
476.487636
 31
0.0
  0
LINE
  5
25c
100
AcDbEntity
  8
Schnittkanten
 62
1
100
AcDbLine
 10
527.126048
 20
476.487636
 30
0.0
 11
527.126048
 21
478.086556
 31
0.0
  0
LINE
  5
25d
100
AcDbEntity
  8
Schnittkanten
 62
1
100
AcDbLine
 10
541.782688
 20
476.487636
 30
0.0
 11
543.115088
 21
476.487636
 31
0.0
  0
LINE
  5
25e
100
AcDbEntity
  8
Schnittkanten
 62
1
100
AcDbLine
 10
543.115088
 20
476.487636
 30
0.0
 11
543.115088
 21
478.086556
 31
0.0
  0
LINE
  5
25f
100
AcDbEntity
  8
Schnittkanten
 62
1
100
AcDbLine
 10
553.881088
 20
478.086556
 30
0.0
 11
553.881088
 21
476.487636
 31
0.0
  0
LINE
  5
260
100
AcDbEntity
  8
Schnittkanten
 62
1
100
AcDbLine
 10
366.603072
 20
478.086556
 30
0.0
 11
382.592152
 21
478.086556
 31
0.0
  0
LINE
  5
261
100
AcDbEntity
  8
Schnittkanten
 62
1
100
AcDbLine
 10
393.358128
 20
478.086556
 30
0.0
 11
409.347168
 21
478.086556
 31
0.0
  0
LINE
  5
262
100
AcDbEntity
  8
Schnittkanten
 62
1
100
AcDbLine
 10
406.415888
 20
476.487636
 30
0.0
 11
393.358128
 21
476.487636
 31
0.0
  0
LINE
  5
263
100
AcDbEntity
  8
Schnittkanten
 62
1
100
AcDbLine
 10
446.868208
 20
478.086556
 30
0.0
 11
462.850048
 21
478.086556
 31
0.0
  0
LINE
  5
264
100
AcDbEntity
  8
Schnittkanten
 62
1
100
AcDbLine
 10
473.615968
 20
478.086556
 30
0.0
 11
489.605008
 21
478.086556
 31
0.0
  0
LINE
  5
265
100
AcDbEntity
  8
Schnittkanten
 62
1
100
AcDbLine
 10
500.371008
 20
478.086556
 30
0.0
 11
516.360048
 21
478.086556
 31
0.0
  0
LINE
  5
266
100
AcDbEntity
  8
Schnittkanten
 62
1
100
AcDbLine
 10
486.673728
 20
476.487636
 30
0.0
 11
473.615968
 21
476.487636
 31
0.0
  0
LINE
  5
267
100
AcDbEntity
  8
Schnittkanten
 62
1
100
AcDbLine
 10
459.925968
 20
476.487636
 30
0.0
 11
446.868208
 21
476.487636
 31
0.0
  0
LINE
  5
268
100
AcDbEntity
  8
Schnittkanten
 62
1
100
AcDbLine
 10
433.170928
 20
476.487636
 30
0.0
 11
420.113168
 21
476.487636
 31
0.0
  0
LINE
  5
269
100
AcDbEntity
  8
Schnittkanten
 62
1
100
AcDbLine
 10
488.272608
 20
476.487636
 30
0.0
 11
489.605008
 21
476.487636
 31
0.0
  0
LINE
  5
26a
100
AcDbEntity
  8
Schnittkanten
 62
1
100
AcDbLine
 10
515.027648
 20
476.487636
 30
0.0
 11
516.360048
 21
476.487636
 31
0.0
  0
LINE
  5
26b
100
AcDbEntity
  8
Schnittkanten
 62
1
100
AcDbLine
 10
527.126048
 20
476.487636
 30
0.0
 11
540.183808
 21
476.487636
 31
0.0
  0
LINE
  5
26c
100
AcDbEntity
  8
Schnittkanten
 62
1
100
AcDbLine
 10
527.126048
 20
478.086556
 30
0.0
 11
543.115088
 21
478.086556
 31
0.0
  0
LINE
  5
26d
100
AcDbEntity
  8
Schnittkanten
 62
1
100
AcDbLine
 10
553.881088
 20
478.086556
 30
0.0
 11
569.603648
 21
478.086556
 31
0.0
  0
LINE
  5
26e
100
AcDbEntity
  8
Schnittkanten
 62
1
100
AcDbLine
 10
553.881088
 20
476.487636
 30
0.0
 11
568.004768
 21
476.487636
 31
0.0
  0
LINE
  5
26f
100
AcDbEntity
  8
Schnittkanten
 62
1
100
AcDbLine
 10
568.004768
 20
421.458612
 30
0.0
 11
569.603648
 21
421.458612
 31
0.0
  0
LINE
  5
270
100
AcDbEntity
  8
Schnittkanten
 62
1
100
AcDbLine
 10
569.603648
 20
401.365668
 30
0.0
 11
568.004768
 21
401.365668
 31
0.0
  0
LINE
  5
271
100
AcDbEntity
  8
Schnittkanten
 62
1
100
AcDbLine
 10
569.603648
 20
421.458612
 30
0.0
 11
569.603648
 21
422.791028
 31
0.0
  0
LINE
  5
272
100
AcDbEntity
  8
Schnittkanten
 62
1
100
AcDbLine
 10
568.004768
 20
421.458612
 30
0.0
 11
568.004768
 21
422.791028
 31
0.0
  0
LINE
  5
273
100
AcDbEntity
  8
Schnittkanten
 62
1
100
AcDbLine
 10
568.004768
 20
401.365668
 30
0.0
 11
568.004768
 21
400.033252
 31
0.0
  0
LINE
  5
274
100
AcDbEntity
  8
Schnittkanten
 62
1
100
AcDbLine
 10
569.603648
 20
401.365668
 30
0.0
 11
569.603648
 21
400.033252
 31
0.0
  0
LINE
  5
275
100
AcDbEntity
  8
Schnittkanten
 62
1
100
AcDbLine
 10
568.004768
 20
400.033252
 30
0.0
 11
555.799728
 21
400.033252
 31
0.0
  0
LINE
  5
276
100
AcDbEntity
  8
Schnittkanten
 62
1
100
AcDbLine
 10
568.004768
 20
422.791028
 30
0.0
 11
525.527088
 21
422.791028
 31
0.0
  0
LINE
  5
277
100
AcDbEntity
  8
Schnittkanten
 62
1
100
AcDbLine
 10
420.113168
 20
476.487636
 30
0.0
 11
420.113168
 21
478.086556
 31
0.0
  0
LINE
  5
278
100
AcDbEntity
  8
Schnittkanten
 62
1
100
AcDbLine
 10
420.145168
 20
478.086556
 30
0.0
 11
436.102208
 21
478.086556
 31
0.0
  0
LINE
  5
279
100
AcDbEntity
  8
Schnittkanten
 62
1
100
AcDbLine
 10
300.560968
 20
400.033252
 30
0.0
 11
300.560968
 21
401.365668
 31
0.0
  0
LINE
  5
27a
100
AcDbEntity
  8
Schnittkanten
 62
1
100
AcDbLine
 10
302.159896
 20
401.365668
 30
0.0
 11
302.159896
 21
400.033252
 31
0.0
  0
LINE
  5
27b
100
AcDbEntity
  8
Schnittkanten
 62
1
100
AcDbLine
 10
300.560968
 20
422.791028
 30
0.0
 11
300.560968
 21
421.458612
 31
0.0
  0
LINE
  5
27c
100
AcDbEntity
  8
Schnittkanten
 62
1
100
AcDbLine
 10
302.159896
 20
421.458612
 30
0.0
 11
302.159896
 21
422.771116
 31
0.0
  0
LINE
  5
27d
100
AcDbEntity
  8
Schnittkanten
 62
1
100
AcDbLine
 10
314.951152
 20
422.771116
 30
0.0
 11
302.159896
 21
422.771116
 31
0.0
  0
LINE
  5
27e
100
AcDbEntity
  8
Schnittkanten
 62
1
100
AcDbLine
 10
300.560968
 20
401.365668
 30
0.0
 11
302.159896
 21
401.365668
 31
0.0
  0
LINE
  5
27f
100
AcDbEntity
  8
Schnittkanten
 62
1
100
AcDbLine
 10
300.560968
 20
421.458612
 30
0.0
 11
302.159896
 21
421.458612
 31
0.0
  0
LINE
  5
280
100
AcDbEntity
  8
Schnittkanten
 62
1
100
AcDbLine
 10
143.601632
 20
478.086556
 30
0.0
 11
143.601632
 21
478.712772
 31
0.0
  0
LINE
  5
281
100
AcDbEntity
  8
Schnittkanten
 62
1
100
AcDbLine
 10
147.598912
 20
476.487636
 30
0.0
 11
143.601632
 21
476.487636
 31
0.0
  0
LINE
  5
282
100
AcDbEntity
  8
Schnittkanten
 62
1
100
AcDbLine
 10
195.779304
 20
478.086556
 30
0.0
 11
197.911184
 21
478.086556
 31
0.0
  0
LINE
  5
283
100
AcDbEntity
  8
Schnittkanten
 62
1
100
AcDbLine
 10
303.492312
 20
476.487636
 30
0.0
 11
302.159896
 21
476.487636
 31
0.0
  0
LINE
  5
284
100
AcDbEntity
  8
Schnittkanten
 62
1
100
AcDbLine
 10
569.603648
 20
478.086556
 30
0.0
 11
569.603648
 21
422.791028
 31
0.0
  0
LINE
  5
285
100
AcDbEntity
  8
Schnittkanten
 62
1
100
AcDbLine
 10
525.527088
 20
424.389932
 30
0.0
 11
540.183808
 21
424.389932
 31
0.0
  0
LINE
  5
286
100
AcDbEntity
  8
Schnittkanten
 62
1
100
AcDbLine
 10
500.903968
 20
424.389932
 30
0.0
 11
513.428768
 21
424.389932
 31
0.0
  0
LINE
  5
287
100
AcDbEntity
  8
Schnittkanten
 62
1
100
AcDbLine
 10
480.811008
 20
424.389932
 30
0.0
 11
486.673728
 21
424.389932
 31
0.0
  0
LINE
  5
288
100
AcDbEntity
  8
Schnittkanten
 62
1
100
AcDbLine
 10
302.159896
 20
400.033252
 30
0.0
 11
328.808312
 21
400.033252
 31
0.0
  0
LINE
  5
289
100
AcDbEntity
  8
Schnittkanten
 62
1
100
AcDbLine
 10
302.159896
 20
398.434356
 30
0.0
 11
328.808312
 21
398.434356
 31
0.0
  0
LINE
  5
28a
100
AcDbEntity
  8
Schnittkanten
 62
1
100
AcDbLine
 10
338.241888
 20
400.033252
 30
0.0
 11
341.439704
 21
400.033252
 31
0.0
  0
LINE
  5
28b
100
AcDbEntity
  8
Schnittkanten
 62
1
100
AcDbLine
 10
515.560608
 20
346.842972
 30
0.0
 11
531.443088
 21
346.842972
 31
0.0
  0
LINE
  5
28c
100
AcDbEntity
  8
Schnittkanten
 62
1
100
AcDbLine
 10
366.755704
 20
345.244052
 30
0.0
 11
395.003088
 21
345.244052
 31
0.0
  0
LINE
  5
28d
100
AcDbEntity
  8
Schnittkanten
 62
1
100
AcDbLine
 10
540.183808
 20
435.315780
 30
0.0
 11
541.782688
 21
435.315780
 31
0.0
  0
LINE
  5
28e
100
AcDbEntity
  8
Schnittkanten
 62
1
100
AcDbLine
 10
248.756416
 20
478.086556
 30
0.0
 11
264.212512
 21
478.086556
 31
0.0
  0
LINE
  5
28f
100
AcDbEntity
  8
Schnittkanten
 62
1
100
AcDbLine
 10
362.705144
 20
400.033252
 30
0.0
 11
400.812448
 21
400.033252
 31
0.0
  0
LINE
  5
290
100
AcDbEntity
  8
Schnittkanten
 62
1
100
AcDbLine
 10
350.873240
 20
398.434356
 30
0.0
 11
380.079944
 21
398.434356
 31
0.0
  0
LINE
  5
291
100
AcDbEntity
  8
Schnittkanten
 62
1
100
AcDbLine
 10
500.371008
 20
476.487636
 30
0.0
 11
513.428768
 21
476.487636
 31
0.0
  0
LINE
  5
292
100
AcDbEntity
  8
Schnittkanten
 62
1
100
AcDbLine
 10
513.428768
 20
476.487636
 30
0.0
 11
513.428768
 21
424.389932
 31
0.0
  0
LINE
  5
293
100
AcDbEntity
  8
Schnittkanten
 62
1
100
AcDbLine
 10
302.159896
 20
385.643100
 30
0.0
 11
302.159896
 21
398.434356
 31
0.0
  0
LINE
  5
294
100
AcDbEntity
  8
Schnittkanten
 62
1
100
AcDbLine
 10
380.079944
 20
385.643100
 30
0.0
 11
380.079944
 21
398.434356
 31
0.0
  0
LINE
  5
295
100
AcDbEntity
  8
Schnittkanten
 62
1
100
AcDbLine
 10
197.431512
 20
350.893532
 30
0.0
 11
197.431512
 21
346.842972
 31
0.0
  0
LINE
  5
296
100
AcDbEntity
  8
Schnittkanten
 62
1
100
AcDbLine
 10
196.365576
 20
350.893532
 30
0.0
 11
196.365576
 21
346.842972
 31
0.0
  0
LINE
  5
297
100
AcDbEntity
  8
Schnittkanten
 62
1
100
AcDbLine
 10
196.365576
 20
350.893532
 30
0.0
 11
197.431512
 21
350.893532
 31
0.0
  0
LINE
  5
298
100
AcDbEntity
  8
Schnittkanten
 62
1
100
AcDbLine
 10
250.728384
 20
350.893532
 30
0.0
 11
250.728384
 21
346.842972
 31
0.0
  0
LINE
  5
299
100
AcDbEntity
  8
Schnittkanten
 62
1
100
AcDbLine
 10
249.662464
 20
350.893532
 30
0.0
 11
249.662464
 21
346.842972
 31
0.0
  0
LINE
  5
29a
100
AcDbEntity
  8
Schnittkanten
 62
1
100
AcDbLine
 10
249.662464
 20
350.893532
 30
0.0
 11
250.728384
 21
350.893532
 31
0.0
  0
LINE
  5
29b
100
AcDbEntity
  8
Schnittkanten
 62
1
100
AcDbLine
 10
197.431512
 20
476.487636
 30
0.0
 11
197.431512
 21
472.437060
 31
0.0
  0
LINE
  5
29c
100
AcDbEntity
  8
Schnittkanten
 62
1
100
AcDbLine
 10
196.365576
 20
472.437060
 30
0.0
 11
196.365576
 21
476.487636
 31
0.0
  0
LINE
  5
29d
100
AcDbEntity
  8
Schnittkanten
 62
1
100
AcDbLine
 10
196.365576
 20
472.437060
 30
0.0
 11
197.431512
 21
472.437060
 31
0.0
  0
LINE
  5
29e
100
AcDbEntity
  8
Schnittkanten
 62
1
100
AcDbLine
 10
250.728384
 20
476.487636
 30
0.0
 11
250.728384
 21
472.437060
 31
0.0
  0
LINE
  5
29f
100
AcDbEntity
  8
Schnittkanten
 62
1
100
AcDbLine
 10
250.728384
 20
472.437060
 30
0.0
 11
249.662464
 21
472.437060
 31
0.0
  0
LINE
  5
2a0
100
AcDbEntity
  8
Schnittkanten
 62
1
100
AcDbLine
 10
249.662464
 20
472.437060
 30
0.0
 11
249.662464
 21
476.487636
 31
0.0
  0
LINE
  5
2a1
100
AcDbEntity
  8
Schnittkanten
 62
1
100
AcDbLine
 10
139.710968
 20
344.617828
 30
0.0
 11
139.710968
 21
342.059572
 31
0.0
  0
LINE
  5
2a2
100
AcDbEntity
  8
Schnittkanten
 62
1
100
AcDbLine
 10
139.710968
 20
342.059572
 30
0.0
 11
143.601632
 21
342.059572
 31
0.0
  0
LINE
  5
2a3
100
AcDbEntity
  8
Schnittkanten
 62
1
100
AcDbLine
 10
143.601632
 20
342.059572
 30
0.0
 11
143.601632
 21
344.617828
 31
0.0
  0
LINE
  5
2a4
100
AcDbEntity
  8
Schnittkanten
 62
1
100
AcDbLine
 10
139.710968
 20
478.712772
 30
0.0
 11
139.710968
 21
481.271020
 31
0.0
  0
LINE
  5
2a5
100
AcDbEntity
  8
Schnittkanten
 62
1
100
AcDbLine
 10
139.710968
 20
481.271020
 30
0.0
 11
143.601632
 21
481.271020
 31
0.0
  0
LINE
  5
2a6
100
AcDbEntity
  8
Schnittkanten
 62
1
100
AcDbLine
 10
143.601632
 20
481.271020
 30
0.0
 11
143.601632
 21
478.712772
 31
0.0
  0
LINE
  5
2a7
100
AcDbEntity
  8
Schnittkanten
 62
1
100
AcDbLine
 10
568.004768
 20
359.262204
 30
0.0
 11
569.603648
 21
359.262204
 31
0.0
  0
LINE
  5
2a8
100
AcDbEntity
  8
Schnittkanten
 62
1
100
AcDbLine
 10
568.004768
 20
370.028164
 30
0.0
 11
569.603648
 21
370.028164
 31
0.0
  0
LINE
  5
2a9
100
AcDbEntity
  8
Schnittkanten
 62
1
100
AcDbLine
 10
569.603648
 20
359.262204
 30
0.0
 11
569.603648
 21
346.842972
 31
0.0
  0
LINE
  5
2aa
100
AcDbEntity
  8
Schnittkanten
 62
1
100
AcDbLine
 10
568.004768
 20
370.028164
 30
0.0
 11
568.004768
 21
398.434356
 31
0.0
  0
LINE
  5
2ab
100
AcDbEntity
  8
Ansichtskanten
 62
5
100
AcDbLine
 10
131.343368
 20
348.508492
 30
0.0
 11
118.445528
 21
348.508492
 31
0.0
  0
LINE
  5
2ac
100
AcDbEntity
  8
Ansichtskanten
 62
5
100
AcDbLine
 10
131.343368
 20
344.617828
 30
0.0
 11
118.445528
 21
344.617828
 31
0.0
  0
LINE
  5
2ad
100
AcDbEntity
  8
Ansichtskanten
 62
5
100
AcDbLine
 10
106.720208
 20
348.508492
 30
0.0
 11
93.822344
 21
348.508492
 31
0.0
  0
LINE
  5
2ae
100
AcDbEntity
  8
Ansichtskanten
 62
5
100
AcDbLine
 10
106.720208
 20
344.617828
 30
0.0
 11
93.822344
 21
344.617828
 31
0.0
  0
LINE
  5
2af
100
AcDbEntity
  8
Ansichtskanten
 62
5
100
AcDbLine
 10
83.162976
 20
348.508492
 30
0.0
 11
70.265133
 21
348.508492
 31
0.0
  0
LINE
  5
2b0
100
AcDbEntity
  8
Ansichtskanten
 62
5
100
AcDbLine
 10
83.162976
 20
344.617828
 30
0.0
 11
70.265133
 21
344.617828
 31
0.0
  0
LINE
  5
2b1
100
AcDbEntity
  8
Ansichtskanten
 62
5
100
AcDbLine
 10
44.842517
 20
348.508492
 30
0.0
 11
57.633773
 21
348.508492
 31
0.0
  0
LINE
  5
2b2
100
AcDbEntity
  8
Ansichtskanten
 62
5
100
AcDbLine
 10
44.842517
 20
344.617828
 30
0.0
 11
57.633773
 21
344.617828
 31
0.0
  0
LINE
  5
2b3
100
AcDbEntity
  8
Ansichtskanten
 62
5
100
AcDbLine
 10
139.710968
 20
352.399164
 30
0.0
 11
139.710968
 21
366.043156
 31
0.0
  0
LINE
  5
2b4
100
AcDbEntity
  8
Ansichtskanten
 62
5
100
AcDbLine
 10
143.601632
 20
352.399164
 30
0.0
 11
143.601632
 21
366.043156
 31
0.0
  0
LINE
  5
2b5
100
AcDbEntity
  8
Ansichtskanten
 62
5
100
AcDbLine
 10
139.710968
 20
366.043156
 30
0.0
 11
139.710968
 21
385.336636
 31
0.0
  0
LINE
  5
2b6
100
AcDbEntity
  8
Ansichtskanten
 62
5
100
AcDbLine
 10
143.601632
 20
366.043156
 30
0.0
 11
143.601632
 21
385.336636
 31
0.0
  0
LINE
  5
2b7
100
AcDbEntity
  8
Ansichtskanten
 62
5
100
AcDbLine
 10
139.710968
 20
470.931428
 30
0.0
 11
139.710968
 21
457.287436
 31
0.0
  0
LINE
  5
2b8
100
AcDbEntity
  8
Ansichtskanten
 62
5
100
AcDbLine
 10
143.601632
 20
470.931428
 30
0.0
 11
143.601632
 21
457.287436
 31
0.0
  0
LINE
  5
2b9
100
AcDbEntity
  8
Ansichtskanten
 62
5
100
AcDbLine
 10
139.710968
 20
457.287436
 30
0.0
 11
139.710968
 21
437.993956
 31
0.0
  0
LINE
  5
2ba
100
AcDbEntity
  8
Ansichtskanten
 62
5
100
AcDbLine
 10
143.601632
 20
457.287436
 30
0.0
 11
143.601632
 21
437.993956
 31
0.0
  0
LINE
  5
2bb
100
AcDbEntity
  8
Ansichtskanten
 62
5
100
AcDbLine
 10
65.521685
 20
464.908884
 30
0.0
 11
65.521685
 21
452.437420
 31
0.0
  0
LINE
  5
2bc
100
AcDbEntity
  8
Ansichtskanten
 62
5
100
AcDbLine
 10
64.295893
 20
452.437420
 30
0.0
 11
64.295893
 21
464.908884
 31
0.0
  0
LINE
  5
2bd
100
AcDbEntity
  8
Ansichtskanten
 62
5
100
AcDbLine
 10
33.330373
 20
413.264196
 30
0.0
 11
33.330373
 21
426.801604
 31
0.0
  0
LINE
  5
2be
100
AcDbEntity
  8
Ansichtskanten
 62
5
100
AcDbLine
 10
29.439701
 20
413.264196
 30
0.0
 11
29.439701
 21
426.801604
 31
0.0
  0
LINE
  5
2bf
100
AcDbEntity
  8
Ansichtskanten
 62
5
100
AcDbLine
 10
33.330373
 20
466.934180
 30
0.0
 11
33.330373
 21
453.396772
 31
0.0
  0
LINE
  5
2c0
100
AcDbEntity
  8
Ansichtskanten
 62
5
100
AcDbLine
 10
29.439701
 20
466.934180
 30
0.0
 11
29.439701
 21
453.396772
 31
0.0
  0
LINE
  5
2c1
100
AcDbEntity
  8
Ansichtskanten
 62
5
100
AcDbLine
 10
135.127448
 20
474.822100
 30
0.0
 11
121.803208
 21
474.822100
 31
0.0
  0
LINE
  5
2c2
100
AcDbEntity
  8
Ansichtskanten
 62
5
100
AcDbLine
 10
135.127448
 20
478.712772
 30
0.0
 11
121.803208
 21
478.712772
 31
0.0
  0
LINE
  5
2c3
100
AcDbEntity
  8
Ansichtskanten
 62
5
100
AcDbLine
 10
115.620768
 20
474.822100
 30
0.0
 11
102.296560
 21
474.822100
 31
0.0
  0
LINE
  5
2c4
100
AcDbEntity
  8
Ansichtskanten
 62
5
100
AcDbLine
 10
115.620768
 20
478.712772
 30
0.0
 11
102.296560
 21
478.712772
 31
0.0
  0
LINE
  5
2c5
100
AcDbEntity
  8
Ansichtskanten
 62
5
100
AcDbLine
 10
96.114112
 20
474.822100
 30
0.0
 11
82.896496
 21
474.822100
 31
0.0
  0
LINE
  5
2c6
100
AcDbEntity
  8
Ansichtskanten
 62
5
100
AcDbLine
 10
96.114112
 20
478.712772
 30
0.0
 11
82.896496
 21
478.712772
 31
0.0
  0
LINE
  5
2c7
100
AcDbEntity
  8
Ansichtskanten
 62
5
100
AcDbLine
 10
33.330373
 20
393.384452
 30
0.0
 11
33.330373
 21
380.166836
 31
0.0
  0
LINE
  5
2c8
100
AcDbEntity
  8
Ansichtskanten
 62
5
100
AcDbLine
 10
29.439701
 20
393.384452
 30
0.0
 11
29.439701
 21
380.166836
 31
0.0
  0
LINE
  5
2c9
100
AcDbEntity
  8
Ansichtskanten
 62
5
100
AcDbLine
 10
143.601632
 20
457.287436
 30
0.0
 11
139.710968
 21
457.287436
 31
0.0
  0
LINE
  5
2ca
100
AcDbEntity
  8
Ansichtskanten
 62
5
100
AcDbLine
 10
143.601632
 20
366.043156
 30
0.0
 11
139.710968
 21
366.043156
 31
0.0
  0
LINE
  5
2cb
100
AcDbEntity
  8
Ansichtskanten
 62
5
100
AcDbLine
 10
33.330373
 20
397.594908
 30
0.0
 11
33.330373
 21
409.853204
 31
0.0
  0
LINE
  5
2cc
100
AcDbEntity
  8
Ansichtskanten
 62
5
100
AcDbLine
 10
147.598912
 20
478.086556
 30
0.0
 11
167.691832
 21
478.086556
 31
0.0
  0
LINE
  5
2cd
100
AcDbEntity
  8
Ansichtskanten
 62
5
100
AcDbLine
 10
147.598912
 20
476.487636
 30
0.0
 11
167.691832
 21
476.487636
 31
0.0
  0
LINE
  5
2ce
100
AcDbEntity
  8
Ansichtskanten
 62
5
100
AcDbLine
 10
185.013328
 20
478.086556
 30
0.0
 11
195.779304
 21
478.086556
 31
0.0
  0
LINE
  5
2cf
100
AcDbEntity
  8
Ansichtskanten
 62
5
100
AcDbLine
 10
185.013328
 20
476.487636
 30
0.0
 11
195.779304
 21
476.487636
 31
0.0
  0
LINE
  5
2d0
100
AcDbEntity
  8
Ansichtskanten
 62
5
100
AcDbLine
 10
197.911184
 20
478.086556
 30
0.0
 11
208.677144
 21
478.086556
 31
0.0
  0
LINE
  5
2d1
100
AcDbEntity
  8
Ansichtskanten
 62
5
100
AcDbLine
 10
197.911184
 20
476.487636
 30
0.0
 11
208.677144
 21
476.487636
 31
0.0
  0
LINE
  5
2d2
100
AcDbEntity
  8
Ansichtskanten
 62
5
100
AcDbLine
 10
223.333808
 20
478.086556
 30
0.0
 11
248.756416
 21
478.086556
 31
0.0
  0
LINE
  5
2d3
100
AcDbEntity
  8
Ansichtskanten
 62
5
100
AcDbLine
 10
223.333808
 20
476.487636
 30
0.0
 11
248.756416
 21
476.487636
 31
0.0
  0
LINE
  5
2d4
100
AcDbEntity
  8
Ansichtskanten
 62
5
100
AcDbLine
 10
264.212512
 20
478.086556
 30
0.0
 11
289.635120
 21
478.086556
 31
0.0
  0
LINE
  5
2d5
100
AcDbEntity
  8
Ansichtskanten
 62
5
100
AcDbLine
 10
289.635120
 20
476.487636
 30
0.0
 11
264.212512
 21
476.487636
 31
0.0
  0
LINE
  5
2d6
100
AcDbEntity
  8
Ansichtskanten
 62
5
100
AcDbLine
 10
303.492312
 20
476.487636
 30
0.0
 11
314.258272
 21
476.487636
 31
0.0
  0
LINE
  5
2d7
100
AcDbEntity
  8
Ansichtskanten
 62
5
100
AcDbLine
 10
303.492312
 20
478.086556
 30
0.0
 11
314.258272
 21
478.086556
 31
0.0
  0
LINE
  5
2d8
100
AcDbEntity
  8
Ansichtskanten
 62
5
100
AcDbLine
 10
329.181400
 20
476.487636
 30
0.0
 11
339.947368
 21
476.487636
 31
0.0
  0
LINE
  5
2d9
100
AcDbEntity
  8
Ansichtskanten
 62
5
100
AcDbLine
 10
329.181400
 20
478.086556
 30
0.0
 11
339.947368
 21
478.086556
 31
0.0
  0
LINE
  5
2da
100
AcDbEntity
  8
Ansichtskanten
 62
5
100
AcDbLine
 10
355.837120
 20
476.487636
 30
0.0
 11
366.603072
 21
476.487636
 31
0.0
  0
LINE
  5
2db
100
AcDbEntity
  8
Ansichtskanten
 62
5
100
AcDbLine
 10
355.837120
 20
478.086556
 30
0.0
 11
366.603072
 21
478.086556
 31
0.0
  0
LINE
  5
2dc
100
AcDbEntity
  8
Ansichtskanten
 62
5
100
AcDbLine
 10
382.592152
 20
478.086556
 30
0.0
 11
393.358128
 21
478.086556
 31
0.0
  0
LINE
  5
2dd
100
AcDbEntity
  8
Ansichtskanten
 62
5
100
AcDbLine
 10
393.358128
 20
476.487636
 30
0.0
 11
382.592152
 21
476.487636
 31
0.0
  0
LINE
  5
2de
100
AcDbEntity
  8
Ansichtskanten
 62
5
100
AcDbLine
 10
436.102208
 20
478.086556
 30
0.0
 11
446.868208
 21
478.086556
 31
0.0
  0
LINE
  5
2df
100
AcDbEntity
  8
Ansichtskanten
 62
5
100
AcDbLine
 10
446.868208
 20
476.487636
 30
0.0
 11
436.102208
 21
476.487636
 31
0.0
  0
LINE
  5
2e0
100
AcDbEntity
  8
Ansichtskanten
 62
5
100
AcDbLine
 10
462.850048
 20
478.086556
 30
0.0
 11
473.615968
 21
478.086556
 31
0.0
  0
LINE
  5
2e1
100
AcDbEntity
  8
Ansichtskanten
 62
5
100
AcDbLine
 10
473.615968
 20
476.487636
 30
0.0
 11
462.850048
 21
476.487636
 31
0.0
  0
LINE
  5
2e2
100
AcDbEntity
  8
Ansichtskanten
 62
5
100
AcDbLine
 10
489.605008
 20
476.487636
 30
0.0
 11
500.371008
 21
476.487636
 31
0.0
  0
LINE
  5
2e3
100
AcDbEntity
  8
Ansichtskanten
 62
5
100
AcDbLine
 10
489.605008
 20
478.086556
 30
0.0
 11
500.371008
 21
478.086556
 31
0.0
  0
LINE
  5
2e4
100
AcDbEntity
  8
Ansichtskanten
 62
5
100
AcDbLine
 10
516.360048
 20
476.487636
 30
0.0
 11
527.126048
 21
476.487636
 31
0.0
  0
LINE
  5
2e5
100
AcDbEntity
  8
Ansichtskanten
 62
5
100
AcDbLine
 10
527.126048
 20
478.086556
 30
0.0
 11
516.360048
 21
478.086556
 31
0.0
  0
LINE
  5
2e6
100
AcDbEntity
  8
Ansichtskanten
 62
5
100
AcDbLine
 10
543.115088
 20
478.086556
 30
0.0
 11
553.881088
 21
478.086556
 31
0.0
  0
LINE
  5
2e7
100
AcDbEntity
  8
Ansichtskanten
 62
5
100
AcDbLine
 10
543.115088
 20
476.487636
 30
0.0
 11
553.881088
 21
476.487636
 31
0.0
  0
LINE
  5
2e8
100
AcDbEntity
  8
Ansichtskanten
 62
5
100
AcDbLine
 10
161.189632
 20
346.842972
 30
0.0
 11
186.612248
 21
346.842972
 31
0.0
  0
LINE
  5
2e9
100
AcDbEntity
  8
Ansichtskanten
 62
5
100
AcDbLine
 10
161.189632
 20
345.244052
 30
0.0
 11
186.612248
 21
345.244052
 31
0.0
  0
LINE
  5
2ea
100
AcDbEntity
  8
Ansichtskanten
 62
5
100
AcDbLine
 10
202.068336
 20
346.842972
 30
0.0
 11
223.493672
 21
346.842972
 31
0.0
  0
LINE
  5
2eb
100
AcDbEntity
  8
Ansichtskanten
 62
5
100
AcDbLine
 10
202.068336
 20
345.244052
 30
0.0
 11
223.493672
 21
345.244052
 31
0.0
  0
LINE
  5
2ec
100
AcDbEntity
  8
Ansichtskanten
 62
5
100
AcDbLine
 10
238.150320
 20
346.842972
 30
0.0
 11
248.916280
 21
346.842972
 31
0.0
  0
LINE
  5
2ed
100
AcDbEntity
  8
Ansichtskanten
 62
5
100
AcDbLine
 10
238.150320
 20
345.244052
 30
0.0
 11
248.916280
 21
345.244052
 31
0.0
  0
LINE
  5
2ee
100
AcDbEntity
  8
Ansichtskanten
 62
5
100
AcDbLine
 10
251.048160
 20
346.842972
 30
0.0
 11
261.814152
 21
346.842972
 31
0.0
  0
LINE
  5
2ef
100
AcDbEntity
  8
Ansichtskanten
 62
5
100
AcDbLine
 10
251.048160
 20
345.244052
 30
0.0
 11
261.814152
 21
345.244052
 31
0.0
  0
LINE
  5
2f0
100
AcDbEntity
  8
Ansichtskanten
 62
5
100
AcDbLine
 10
312.925856
 20
346.842972
 30
0.0
 11
327.475896
 21
346.842972
 31
0.0
  0
LINE
  5
2f1
100
AcDbEntity
  8
Ansichtskanten
 62
5
100
AcDbLine
 10
312.925856
 20
345.244052
 30
0.0
 11
327.475896
 21
345.244052
 31
0.0
  0
LINE
  5
2f2
100
AcDbEntity
  8
Ansichtskanten
 62
5
100
AcDbLine
 10
354.763912
 20
346.842972
 30
0.0
 11
366.755704
 21
346.842972
 31
0.0
  0
LINE
  5
2f3
100
AcDbEntity
  8
Ansichtskanten
 62
5
100
AcDbLine
 10
354.763912
 20
345.244052
 30
0.0
 11
366.755704
 21
345.244052
 31
0.0
  0
LINE
  5
2f4
100
AcDbEntity
  8
Ansichtskanten
 62
5
100
AcDbLine
 10
395.003088
 20
346.842972
 30
0.0
 11
405.769008
 21
346.842972
 31
0.0
  0
LINE
  5
2f5
100
AcDbEntity
  8
Ansichtskanten
 62
5
100
AcDbLine
 10
395.003088
 20
345.244052
 30
0.0
 11
405.769008
 21
345.244052
 31
0.0
  0
LINE
  5
2f6
100
AcDbEntity
  8
Ansichtskanten
 62
5
100
AcDbLine
 10
438.440048
 20
346.842972
 30
0.0
 11
462.530208
 21
346.842972
 31
0.0
  0
LINE
  5
2f7
100
AcDbEntity
  8
Ansichtskanten
 62
5
100
AcDbLine
 10
438.440048
 20
345.244052
 30
0.0
 11
462.530208
 21
345.244052
 31
0.0
  0
LINE
  5
2f8
100
AcDbEntity
  8
Ansichtskanten
 62
5
100
AcDbLine
 10
491.470448
 20
346.842972
 30
0.0
 11
515.560608
 21
346.842972
 31
0.0
  0
LINE
  5
2f9
100
AcDbEntity
  8
Ansichtskanten
 62
5
100
AcDbLine
 10
491.470448
 20
345.244052
 30
0.0
 11
515.560608
 21
345.244052
 31
0.0
  0
LINE
  5
2fa
100
AcDbEntity
  8
Ansichtskanten
 62
5
100
AcDbLine
 10
546.579408
 20
346.842972
 30
0.0
 11
557.345408
 21
346.842972
 31
0.0
  0
LINE
  5
2fb
100
AcDbEntity
  8
Ansichtskanten
 62
5
100
AcDbLine
 10
546.579408
 20
345.244052
 30
0.0
 11
557.345408
 21
345.244052
 31
0.0
  0
LINE
  5
2fc
100
AcDbEntity
  8
Ansichtskanten
 62
5
100
AcDbLine
 10
409.347168
 20
476.487636
 30
0.0
 11
420.113168
 21
476.487636
 31
0.0
  0
LINE
  5
2fd
100
AcDbEntity
  8
Ansichtskanten
 62
5
100
AcDbLine
 10
420.145168
 20
478.086556
 30
0.0
 11
409.347168
 21
478.086556
 31
0.0
  0
LINE
  5
2fe
100
AcDbEntity
  8
Ansichtskanten
 62
5
100
AcDbLine
 10
300.560968
 20
421.458612
 30
0.0
 11
300.560968
 21
401.365668
 31
0.0
  0
LINE
  5
2ff
100
AcDbEntity
  8
Ansichtskanten
 62
5
100
AcDbLine
 10
302.159896
 20
401.365668
 30
0.0
 11
302.159896
 21
421.458612
 31
0.0
  0
LINE
  5
300
100
AcDbEntity
  8
Ansichtskanten
 62
5
100
AcDbLine
 10
196.365576
 20
350.893532
 30
0.0
 11
196.365576
 21
357.502348
 31
0.0
  0
LINE
  5
301
100
AcDbEntity
  8
Ansichtskanten
 62
5
100
AcDbLine
 10
196.365576
 20
357.502348
 30
0.0
 11
197.431512
 21
357.502348
 31
0.0
  0
LINE
  5
302
100
AcDbEntity
  8
Ansichtskanten
 62
5
100
AcDbLine
 10
197.431512
 20
357.502348
 30
0.0
 11
197.431512
 21
350.893532
 31
0.0
  0
LINE
  5
303
100
AcDbEntity
  8
Ansichtskanten
 62
5
100
AcDbLine
 10
249.662464
 20
350.893532
 30
0.0
 11
249.662464
 21
357.502348
 31
0.0
  0
LINE
  5
304
100
AcDbEntity
  8
Ansichtskanten
 62
5
100
AcDbLine
 10
249.662464
 20
357.502348
 30
0.0
 11
250.728384
 21
357.502348
 31
0.0
  0
LINE
  5
305
100
AcDbEntity
  8
Ansichtskanten
 62
5
100
AcDbLine
 10
250.728384
 20
357.502348
 30
0.0
 11
250.728384
 21
350.893532
 31
0.0
  0
LINE
  5
306
100
AcDbEntity
  8
Ansichtskanten
 62
5
100
AcDbLine
 10
197.431512
 20
472.437060
 30
0.0
 11
197.431512
 21
465.828252
 31
0.0
  0
LINE
  5
307
100
AcDbEntity
  8
Ansichtskanten
 62
5
100
AcDbLine
 10
197.431512
 20
465.828252
 30
0.0
 11
196.365576
 21
465.828252
 31
0.0
  0
LINE
  5
308
100
AcDbEntity
  8
Ansichtskanten
 62
5
100
AcDbLine
 10
196.365576
 20
465.828252
 30
0.0
 11
196.365576
 21
472.437060
 31
0.0
  0
LINE
  5
309
100
AcDbEntity
  8
Ansichtskanten
 62
5
100
AcDbLine
 10
250.728384
 20
472.437060
 30
0.0
 11
250.728384
 21
465.828252
 31
0.0
  0
LINE
  5
30a
100
AcDbEntity
  8
Ansichtskanten
 62
5
100
AcDbLine
 10
250.728384
 20
465.828252
 30
0.0
 11
249.662464
 21
465.828252
 31
0.0
  0
LINE
  5
30b
100
AcDbEntity
  8
Ansichtskanten
 62
5
100
AcDbLine
 10
249.662464
 20
465.828252
 30
0.0
 11
249.662464
 21
472.437060
 31
0.0
  0
LINE
  5
30c
100
AcDbEntity
  8
Ansichtskanten
 62
5
100
AcDbLine
 10
569.603648
 20
370.028164
 30
0.0
 11
569.603648
 21
359.262204
 31
0.0
  0
LINE
  5
30d
100
AcDbEntity
  8
Ansichtskanten
 62
5
100
AcDbLine
 10
568.004768
 20
370.028164
 30
0.0
 11
568.004768
 21
359.262204
 31
0.0
  0
LINE
  5
30e
100
AcDbEntity
  8
Tuerkanten
 62
5
100
AcDbLine
 10
64.299901
 20
352.373892
 30
0.0
 11
64.299901
 21
361.647564
 31
0.0
  0
LINE
  5
30f
100
AcDbEntity
  8
Tuerkanten
 62
5
100
AcDbLine
 10
65.525709
 20
352.373892
 30
0.0
 11
65.525709
 21
361.647564
 31
0.0
  0
LINE
  5
310
100
AcDbEntity
  8
Tuerkanten
 62
5
100
AcDbLine
 10
65.525709
 20
411.426860
 30
0.0
 11
65.525709
 21
398.902084
 31
0.0
  0
LINE
  5
311
100
AcDbEntity
  8
Tuerkanten
 62
5
100
AcDbLine
 10
66.378477
 20
412.066396
 30
0.0
 11
78.903253
 21
412.066396
 31
0.0
  0
LINE
  5
312
100
AcDbEntity
  8
Tuerkanten
 62
5
100
AcDbLine
 10
66.378477
 20
413.292228
 30
0.0
 11
78.903253
 21
413.292228
 31
0.0
  0
LINE
  5
313
100
AcDbEntity
  8
Tuerkanten
 62
5
100
AcDbLine
 10
44.846525
 20
412.066396
 30
0.0
 11
57.317997
 21
412.066396
 31
0.0
  0
LINE
  5
314
100
AcDbEntity
  8
Tuerkanten
 62
5
100
AcDbLine
 10
44.846525
 20
413.292228
 30
0.0
 11
57.317997
 21
413.292228
 31
0.0
  0
LINE
  5
315
100
AcDbEntity
  8
Tuerkanten
 62
5
100
AcDbLine
 10
35.786053
 20
395.917460
 30
0.0
 11
45.272901
 21
395.917460
 31
0.0
  0
LINE
  5
316
100
AcDbEntity
  8
Tuerkanten
 62
5
100
AcDbLine
 10
35.786053
 20
394.691620
 30
0.0
 11
45.272901
 21
394.691620
 31
0.0
  0
LINE
  5
317
100
AcDbEntity
  8
Tuerkanten
 62
5
100
AcDbLine
 10
64.299901
 20
398.902084
 30
0.0
 11
64.299901
 21
411.426860
 31
0.0
  0
LINE
  5
318
100
AcDbEntity
  8
Tuerkanten
 62
5
100
AcDbLine
 10
280.472056
 20
346.871004
 30
0.0
 11
300.564968
 21
346.871004
 31
0.0
  0
LINE
  5
319
100
AcDbEntity
  8
Tuerkanten
 62
5
100
AcDbLine
 10
280.472056
 20
345.272084
 30
0.0
 11
300.564968
 21
345.272084
 31
0.0
  0
LINE
  5
31a
100
AcDbEntity
  8
Tuerkanten
 62
5
100
AcDbLine
 10
328.812336
 20
400.061284
 30
0.0
 11
338.245904
 21
400.061284
 31
0.0
  0
LINE
  5
31b
100
AcDbEntity
  8
Tuerkanten
 62
5
100
AcDbLine
 10
328.812336
 20
398.462396
 30
0.0
 11
338.245904
 21
398.462396
 31
0.0
  0
LINE
  5
31c
100
AcDbEntity
  8
Tuerkanten
 62
5
100
AcDbLine
 10
341.443728
 20
398.462396
 30
0.0
 11
350.877256
 21
398.462396
 31
0.0
  0
LINE
  5
31d
100
AcDbEntity
  8
Tuerkanten
 62
5
100
AcDbLine
 10
350.877256
 20
400.061284
 30
0.0
 11
341.443728
 21
400.061284
 31
0.0
  0
LINE
  5
31e
100
AcDbEntity
  8
Tuerkanten
 62
5
100
AcDbLine
 10
400.816448
 20
400.061284
 30
0.0
 11
410.249968
 21
400.061284
 31
0.0
  0
LINE
  5
31f
100
AcDbEntity
  8
Tuerkanten
 62
5
100
AcDbLine
 10
400.816448
 20
398.462396
 30
0.0
 11
410.249968
 21
398.462396
 31
0.0
  0
LINE
  5
320
100
AcDbEntity
  8
Tuerkanten
 62
5
100
AcDbLine
 10
442.228128
 20
400.061284
 30
0.0
 11
451.661648
 21
400.061284
 31
0.0
  0
LINE
  5
321
100
AcDbEntity
  8
Tuerkanten
 62
5
100
AcDbLine
 10
451.661648
 20
398.462396
 30
0.0
 11
442.228128
 21
398.462396
 31
0.0
  0
LINE
  5
322
100
AcDbEntity
  8
Tuerkanten
 62
5
100
AcDbLine
 10
495.631648
 20
400.061284
 30
0.0
 11
505.065168
 21
400.061284
 31
0.0
  0
LINE
  5
323
100
AcDbEntity
  8
Tuerkanten
 62
5
100
AcDbLine
 10
505.065168
 20
398.462396
 30
0.0
 11
495.631648
 21
398.462396
 31
0.0
  0
LINE
  5
324
100
AcDbEntity
  8
Tuerkanten
 62
5
100
AcDbLine
 10
546.370208
 20
400.061284
 30
0.0
 11
555.803808
 21
400.061284
 31
0.0
  0
LINE
  5
325
100
AcDbEntity
  8
Tuerkanten
 62
5
100
AcDbLine
 10
555.803808
 20
398.462396
 30
0.0
 11
546.370208
 21
398.462396
 31
0.0
  0
LINE
  5
326
100
AcDbEntity
  8
Tuerkanten
 62
5
100
AcDbLine
 10
314.955168
 20
424.417964
 30
0.0
 11
324.388704
 21
424.417964
 31
0.0
  0
LINE
  5
327
100
AcDbEntity
  8
Tuerkanten
 62
5
100
AcDbLine
 10
324.388704
 20
422.819060
 30
0.0
 11
314.955168
 21
422.819060
 31
0.0
  0
LINE
  5
328
100
AcDbEntity
  8
Tuerkanten
 62
5
100
AcDbLine
 10
340.271144
 20
424.417964
 30
0.0
 11
349.704736
 21
424.417964
 31
0.0
  0
LINE
  5
329
100
AcDbEntity
  8
Tuerkanten
 62
5
100
AcDbLine
 10
349.704736
 20
422.819060
 30
0.0
 11
340.271144
 21
422.819060
 31
0.0
  0
LINE
  5
32a
100
AcDbEntity
  8
Tuerkanten
 62
5
100
AcDbLine
 10
365.693784
 20
424.417964
 30
0.0
 11
375.127352
 21
424.417964
 31
0.0
  0
LINE
  5
32b
100
AcDbEntity
  8
Tuerkanten
 62
5
100
AcDbLine
 10
375.127352
 20
422.819060
 30
0.0
 11
365.693784
 21
422.819060
 31
0.0
  0
LINE
  5
32c
100
AcDbEntity
  8
Tuerkanten
 62
5
100
AcDbLine
 10
391.116368
 20
424.417964
 30
0.0
 11
400.549968
 21
424.417964
 31
0.0
  0
LINE
  5
32d
100
AcDbEntity
  8
Tuerkanten
 62
5
100
AcDbLine
 10
400.549968
 20
422.819060
 30
0.0
 11
391.116368
 21
422.819060
 31
0.0
  0
LINE
  5
32e
100
AcDbEntity
  8
Tuerkanten
 62
5
100
AcDbLine
 10
417.871408
 20
424.417964
 30
0.0
 11
427.305008
 21
424.417964
 31
0.0
  0
LINE
  5
32f
100
AcDbEntity
  8
Tuerkanten
 62
5
100
AcDbLine
 10
427.305008
 20
422.819060
 30
0.0
 11
417.871408
 21
422.819060
 31
0.0
  0
LINE
  5
330
100
AcDbEntity
  8
Tuerkanten
 62
5
100
AcDbLine
 10
444.626448
 20
424.417964
 30
0.0
 11
454.060048
 21
424.417964
 31
0.0
  0
LINE
  5
331
100
AcDbEntity
  8
Tuerkanten
 62
5
100
AcDbLine
 10
454.060048
 20
422.819060
 30
0.0
 11
444.626448
 21
422.819060
 31
0.0
  0
LINE
  5
332
100
AcDbEntity
  8
Tuerkanten
 62
5
100
AcDbLine
 10
471.381488
 20
424.417964
 30
0.0
 11
480.815088
 21
424.417964
 31
0.0
  0
LINE
  5
333
100
AcDbEntity
  8
Tuerkanten
 62
5
100
AcDbLine
 10
480.815088
 20
422.819060
 30
0.0
 11
471.381488
 21
422.819060
 31
0.0
  0
LINE
  5
334
100
AcDbEntity
  8
Tuerkanten
 62
5
100
AcDbLine
 10
491.474448
 20
424.417964
 30
0.0
 11
500.907968
 21
424.417964
 31
0.0
  0
LINE
  5
335
100
AcDbEntity
  8
Tuerkanten
 62
5
100
AcDbLine
 10
500.907968
 20
422.819060
 30
0.0
 11
491.474448
 21
422.819060
 31
0.0
  0
LINE
  5
336
100
AcDbEntity
  8
Tuerkanten
 62
5
100
AcDbLine
 10
516.097648
 20
424.417964
 30
0.0
 11
525.531168
 21
424.417964
 31
0.0
  0
LINE
  5
337
100
AcDbEntity
  8
Tuerkanten
 62
5
100
AcDbLine
 10
525.531168
 20
422.819060
 30
0.0
 11
516.097648
 21
422.819060
 31
0.0
  0
LINE
  5
338
100
AcDbEntity
  8
Tuerkanten
 62
5
100
AcDbLine
 10
540.187808
 20
435.343812
 30
0.0
 11
540.187808
 21
425.910268
 31
0.0
  0
LINE
  5
339
100
AcDbEntity
  8
Tuerkanten
 62
5
100
AcDbLine
 10
541.786688
 20
435.343812
 30
0.0
 11
541.786688
 21
425.910268
 31
0.0
  0
LINE
  5
33a
100
AcDbEntity
  8
Tuerkanten
 62
5
100
AcDbLine
 10
568.008768
 20
421.486652
 30
0.0
 11
568.008768
 21
401.393708
 31
0.0
  0
LINE
  5
33b
100
AcDbEntity
  8
Tuerkanten
 62
5
100
AcDbLine
 10
569.607648
 20
421.486652
 30
0.0
 11
569.607648
 21
401.393708
 31
0.0
  0
ENDSEC
  0
SECTION
  2
OBJECTS
  0
DICTIONARY
  5
C
330
0
100
AcDbDictionary
  3
ACAD_GROUP
350
D
  3
ACAD_MLINESTYLE
350
17
  0
DICTIONARY
  5
D
330
C
100
AcDbDictionary
  0
DICTIONARY
  5
1A
330
C
100
AcDbDictionary
  0
DICTIONARY
  5
17
330
C
100
AcDbDictionary
  3
STANDARD
350
18
  0
DICTIONARY
  5
19
330
C
100
AcDbDictionary
  0
ENDSEC
  0
EOF
