  0
SECTION
  2
HEADER
  9
$ACADVER
  1
AC1014
  9
$HANDSEED
  5
FFFF
  9
$MEASUREMENT
 70
     1
  0
ENDSEC
  0
SECTION
  2
TABLES
  0
TABLE
  2
VPORT
  5
8
330
0
100
AcDbSymbolTable
 70
     4
  0
VPORT
  5
2E
330
8
100
AcDbSymbolTableRecord
100
AcDbViewportTableRecord
  2
*ACTIVE
 70
     0
 10
0.0
 20
0.0
 11
1.0
 21
1.0
 12
210.0
 22
148.5
 13
0.0
 23
0.0
 14
10.0
 24
10.0
 15
10.0
 25
10.0
 16
0.0
 26
0.0
 36
1.0
 17
0.0
 27
0.0
 37
0.0
 40
341.0
 41
1.24
 42
50.0
 43
0.0
 44
0.0
 50
0.0
 51
0.0
 71
     0
 72
   100
 73
     1
 74
     3
 75
     0
 76
     0
 77
     0
 78
     0
  0
ENDTAB
  0
TABLE
  2
LTYPE
  5
5
330
0
100
AcDbSymbolTable
 70
     1
  0
LTYPE
  5
14
330
5
100
AcDbSymbolTableRecord
100
AcDbLinetypeTableRecord
  2
BYBLOCK
 70
     0
  3

 72
    65
 73
     0
 40
0.0
  0
LTYPE
  5
15
330
5
100
AcDbSymbolTableRecord
100
AcDbLinetypeTableRecord
  2
BYLAYER
 70
     0
  3

 72
    65
 73
     0
 40
0.0
  0
LTYPE
  5
16
330
5
100
AcDbSymbolTableRecord
100
AcDbLinetypeTableRecord
  2
CONTINUOUS
 70
     0
  3
Solid line
 72
    65
 73
     0
 40
0.0
  0
ENDTAB
  0
TABLE
  2
LAYER
  5
2
100
AcDbSymbolTable
 70
28
  0
LAYER
  5
50
100
AcDbSymbolTableRecord
100
AcDbLayerTableRecord
  2
0
 70
0
  6
CONTINUOUS
  0
LAYER
  5
51
100
AcDbSymbolTableRecord
100
AcDbLayerTableRecord
  2
Defpoints
 70
0
  6
CONTINUOUS
  0
LAYER
  5
52
100
AcDbSymbolTableRecord
100
AcDbLayerTableRecord
  2
Schnittkanten
 70
0
  6
CONTINUOUS
  0
LAYER
  5
53
100
AcDbSymbolTableRecord
100
AcDbLayerTableRecord
  2
verdeckt_Kanten
 70
0
  6
CONTINUOUS
  0
LAYER
  5
54
100
AcDbSymbolTableRecord
100
AcDbLayerTableRecord
  2
Ansichtskanten
 70
0
  6
CONTINUOUS
  0
LAYER
  5
55
100
AcDbSymbolTableRecord
100
AcDbLayerTableRecord
  2
Tuerkanten
 70
0
  6
CONTINUOUS
  0
LAYER
  5
56
100
AcDbSymbolTableRecord
100
AcDbLayerTableRecord
  2
Schnittlinie
 70
0
  6
CONTINUOUS
  0
LAYER
  5
57
100
AcDbSymbolTableRecord
100
AcDbLayerTableRecord
  2
Schraffur
 70
0
  6
CONTINUOUS
  0
LAYER
  5
58
100
AcDbSymbolTableRecord
100
AcDbLayerTableRecord
  2
A_Bemassung
 70
0
  6
CONTINUOUS
  0
LAYER
  5
59
100
AcDbSymbolTableRecord
100
AcDbLayerTableRecord
  2
Ansichtsfenster
 70
0
  6
CONTINUOUS
  0
LAYER
  5
5a
100
AcDbSymbolTableRecord
100
AcDbLayerTableRecord
  2
Plankopf
 70
0
  6
CONTINUOUS
  0
LAYER
  5
5b
100
AcDbSymbolTableRecord
100
AcDbLayerTableRecord
  2
A_Beschriftung
 70
0
  6
CONTINUOUS
  0
LAYER
  5
5c
100
AcDbSymbolTableRecord
100
AcDbLayerTableRecord
  2
A_Raumnummer
 70
0
  6
CONTINUOUS
  0
LAYER
  5
5d
100
AcDbSymbolTableRecord
100
AcDbLayerTableRecord
  2
A_Foto
 70
0
  6
CONTINUOUS
  0
LAYER
  5
5e
100
AcDbSymbolTableRecord
100
AcDbLayerTableRecord
  2
Plankopf_@_0.05
 70
0
  6
CONTINUOUS
  0
LAYER
  5
5f
100
AcDbSymbolTableRecord
100
AcDbLayerTableRecord
  2
A_Bemassung_@_0.05
 70
0
  6
CONTINUOUS
  0
LAYER
  5
60
100
AcDbSymbolTableRecord
100
AcDbLayerTableRecord
  2
A_Beschriftung_@_0.05
 70
0
  6
CONTINUOUS
  0
LAYER
  5
61
100
AcDbSymbolTableRecord
100
AcDbLayerTableRecord
  2
A_Raumnummer_@_0.05
 70
0
  6
CONTINUOUS
  0
LAYER
  5
62
100
AcDbSymbolTableRecord
100
AcDbLayerTableRecord
  2
A_Foto_@_0.05
 70
0
  6
CONTINUOUS
  0
LAYER
  5
63
100
AcDbSymbolTableRecord
100
AcDbLayerTableRecord
  2
A_Beschriftung_@_0.025
 70
0
  6
CONTINUOUS
  0
LAYER
  5
64
100
AcDbSymbolTableRecord
100
AcDbLayerTableRecord
  2
A_Beschriftung_@_0.04
 70
0
  6
CONTINUOUS
  0
LAYER
  5
65
100
AcDbSymbolTableRecord
100
AcDbLayerTableRecord
  2
A_Raumnummer_@_0.025
 70
0
  6
CONTINUOUS
  0
LAYER
  5
66
100
AcDbSymbolTableRecord
100
AcDbLayerTableRecord
  2
A_Raumnummer_@_0.04
 70
0
  6
CONTINUOUS
  0
LAYER
  5
67
100
AcDbSymbolTableRecord
100
AcDbLayerTableRecord
  2
A_Foto_@_0.025
 70
0
  6
CONTINUOUS
  0
LAYER
  5
68
100
AcDbSymbolTableRecord
100
AcDbLayerTableRecord
  2
A_Foto_@_0.04
 70
0
  6
CONTINUOUS
  0
LAYER
  5
69
100
AcDbSymbolTableRecord
100
AcDbLayerTableRecord
  2
A_Bemassung_@_0.025
 70
0
  6
CONTINUOUS
  0
LAYER
  5
6a
100
AcDbSymbolTableRecord
100
AcDbLayerTableRecord
  2
A_Bemassung_@_0.04
 70
0
  6
CONTINUOUS
  0
LAYER
  5
6b
100
AcDbSymbolTableRecord
100
AcDbLayerTableRecord
  2
A_Bemassung_@_0.1
 70
0
  6
CONTINUOUS
  0
ENDTAB
  0
TABLE
  2
STYLE
  5
3
330
0
100
AcDbSymbolTable
 70
     1
  0
STYLE
  5
11
330
3
100
AcDbSymbolTableRecord
100
AcDbTextStyleTableRecord
  2
STANDARD
 70
     0
 40
0.0
 41
1.0
 50
0.0
 71
     0
 42
2.5
  3
txt
  4

  0
ENDTAB
  0
TABLE
  2
VIEW
  5
6
330
0
100
AcDbSymbolTable
 70
     0
  0
ENDTAB
  0
TABLE
  2
UCS
  5
7
330
0
100
AcDbSymbolTable
 70
     0
  0
ENDTAB
  0
TABLE
  2
APPID
  5
9
330
0
100
AcDbSymbolTable
 70
     2
  0
APPID
  5
12
330
9
100
AcDbSymbolTableRecord
100
AcDbRegAppTableRecord
  2
ACAD
 70
     0
  0
ENDTAB
  0
TABLE
  2
DIMSTYLE
  5
A
330
0
100
AcDbSymbolTable
 70
     1
  0
DIMSTYLE
105
27
330
A
100
AcDbSymbolTableRecord
100
AcDbDimStyleTableRecord
  2
ISO-25
 70
     0
  3

  4

  5

  6

  7

 40
1.0
 41
2.5
 42
0.625
 43
3.75
 44
1.25
 45
0.0
 46
0.0
 47
0.0
 48
0.0
140
2.5
141
2.5
142
0.0
143
0.03937007874016
144
1.0
145
0.0
146
1.0
147
0.625
 71
     0
 72
     0
 73
     0
 74
     0
 75
     0
 76
     0
 77
     1
 78
     8
170
     0
171
     3
172
     1
173
     0
174
     0
175
     0
176
     0
177
     0
178
     0
270
     2
271
     2
272
     2
273
     2
274
     3
340
11
275
     0
280
     0
281
     0
282
     0
283
     0
284
     8
285
     0
286
     0
287
     3
288
     0
  0
ENDTAB
  0
TABLE
  2
BLOCK_RECORD
  5
1
330
0
100
AcDbSymbolTable
 70
     1
  0
BLOCK_RECORD
  5
1F
330
1
100
AcDbSymbolTableRecord
100
AcDbBlockTableRecord
  2
*MODEL_SPACE
  0
BLOCK_RECORD
  5
1B
330
1
100
AcDbSymbolTableRecord
100
AcDbBlockTableRecord
  2
*PAPER_SPACE
  0
ENDTAB
  0
ENDSEC
  0
SECTION
  2
BLOCKS
  0
BLOCK
  5
20
330
1F
100
AcDbEntity
  8
0
100
AcDbBlockBegin
  2
*MODEL_SPACE
 70
     0
 10
0.0
 20
0.0
 30
0.0
  3
*MODEL_SPACE
  1

  0
ENDBLK
  5
21
330
1F
100
AcDbEntity
  8
0
100
AcDbBlockEnd
  0
BLOCK
  5
1C
330
1B
100
AcDbEntity
 67
     1
  8
0
100
AcDbBlockBegin
  2
*PAPER_SPACE
  1

  0
ENDBLK
  5
1D
330
1B
100
AcDbEntity
 67
     1
  8
0
100
AcDbBlockEnd
  0
ENDSEC
  0
SECTION
  2
ENTITIES
  0
LINE
  5
100
100
AcDbEntity
  8
Schnittkanten
 62
1
100
AcDbLine
 10
495.038863
 20
1234.872610
 30
0.0
 11
465.389887
 21
1234.872610
 31
0.0
  0
LINE
  5
101
100
AcDbEntity
  8
Schnittkanten
 62
1
100
AcDbLine
 10
419.688879
 20
1234.872610
 30
0.0
 11
378.142469
 21
1234.872610
 31
0.0
  0
LINE
  5
102
100
AcDbEntity
  8
Schnittkanten
 62
1
100
AcDbLine
 10
332.441376
 20
1234.872610
 30
0.0
 11
294.671962
 21
1234.872610
 31
0.0
  0
LINE
  5
103
100
AcDbEntity
  8
Schnittkanten
 62
1
100
AcDbLine
 10
248.970944
 20
1234.872610
 30
0.0
 11
232.163451
 21
1234.872610
 31
0.0
  0
LINE
  5
104
100
AcDbEntity
  8
Schnittkanten
 62
1
100
AcDbLine
 10
232.163451
 20
1234.872610
 30
0.0
 11
232.163451
 21
1248.469555
 31
0.0
  0
LINE
  5
105
100
AcDbEntity
  8
Schnittkanten
 62
1
100
AcDbLine
 10
232.163451
 20
1248.469555
 30
0.0
 11
227.820093
 21
1248.469555
 31
0.0
  0
LINE
  5
106
100
AcDbEntity
  8
Schnittkanten
 62
1
100
AcDbLine
 10
227.820093
 20
1248.469555
 30
0.0
 11
227.820093
 21
1234.872610
 31
0.0
  0
LINE
  5
107
100
AcDbEntity
  8
Schnittkanten
 62
1
100
AcDbLine
 10
118.099747
 20
1234.872610
 30
0.0
 11
118.099747
 21
1320.231586
 31
0.0
  0
LINE
  5
108
100
AcDbEntity
  8
Schnittkanten
 62
1
100
AcDbLine
 10
118.099747
 20
1320.231586
 30
0.0
 11
185.707152
 21
1320.231586
 31
0.0
  0
LINE
  5
109
100
AcDbEntity
  8
Schnittkanten
 62
1
100
AcDbLine
 10
185.707152
 20
1320.231586
 30
0.0
 11
185.707152
 21
1284.728244
 31
0.0
  0
LINE
  5
10a
100
AcDbEntity
  8
Schnittkanten
 62
1
100
AcDbLine
 10
185.707152
 20
1284.728244
 30
0.0
 11
227.820093
 21
1284.728244
 31
0.0
  0
LINE
  5
10b
100
AcDbEntity
  8
Schnittkanten
 62
1
100
AcDbLine
 10
189.861778
 20
1289.071744
 30
0.0
 11
227.820093
 21
1289.071744
 31
0.0
  0
LINE
  5
10c
100
AcDbEntity
  8
Schnittkanten
 62
1
100
AcDbLine
 10
227.820093
 20
1284.728244
 30
0.0
 11
227.820093
 21
1281.329051
 31
0.0
  0
LINE
  5
10d
100
AcDbEntity
  8
Schnittkanten
 62
1
100
AcDbLine
 10
227.820093
 20
1281.329051
 30
0.0
 11
232.163451
 21
1281.329051
 31
0.0
  0
LINE
  5
10e
100
AcDbEntity
  8
Schnittkanten
 62
1
100
AcDbLine
 10
118.099747
 20
1234.872610
 30
0.0
 11
158.890808
 21
1234.872610
 31
0.0
  0
LINE
  5
10f
100
AcDbEntity
  8
Schnittkanten
 62
1
100
AcDbLine
 10
204.214156
 20
1234.872610
 30
0.0
 11
227.820093
 21
1234.872610
 31
0.0
  0
LINE
  5
110
100
AcDbEntity
  8
Schnittkanten
 62
1
100
AcDbLine
 10
232.163451
 20
1459.978455
 30
0.0
 11
232.163451
 21
1457.712355
 31
0.0
  0
LINE
  5
111
100
AcDbEntity
  8
Schnittkanten
 62
1
100
AcDbLine
 10
232.163451
 20
1413.333227
 30
0.0
 11
232.163451
 21
1281.329051
 31
0.0
  0
LINE
  5
112
100
AcDbEntity
  8
Schnittkanten
 62
1
100
AcDbLine
 10
232.163451
 20
1459.978455
 30
0.0
 11
235.185098
 21
1459.978455
 31
0.0
  0
LINE
  5
113
100
AcDbEntity
  8
Schnittkanten
 62
1
100
AcDbLine
 10
279.564226
 20
1459.978455
 30
0.0
 11
350.381934
 21
1459.978455
 31
0.0
  0
LINE
  5
114
100
AcDbEntity
  8
Schnittkanten
 62
1
100
AcDbLine
 10
350.381934
 20
1459.978455
 30
0.0
 11
350.381934
 21
1439.960698
 31
0.0
  0
LINE
  5
115
100
AcDbEntity
  8
Schnittkanten
 62
1
100
AcDbLine
 10
350.381934
 20
1439.960698
 30
0.0
 11
390.417562
 21
1439.960698
 31
0.0
  0
LINE
  5
116
100
AcDbEntity
  8
Schnittkanten
 62
1
100
AcDbLine
 10
350.381934
 20
1464.321955
 30
0.0
 11
279.564226
 21
1464.321955
 31
0.0
  0
LINE
  5
117
100
AcDbEntity
  8
Schnittkanten
 62
1
100
AcDbLine
 10
232.163451
 20
1464.321955
 30
0.0
 11
235.185098
 21
1464.321955
 31
0.0
  0
LINE
  5
118
100
AcDbEntity
  8
Schnittkanten
 62
1
100
AcDbLine
 10
495.038863
 20
1234.872610
 30
0.0
 11
495.038863
 21
1248.658455
 31
0.0
  0
LINE
  5
119
100
AcDbEntity
  8
Schnittkanten
 62
1
100
AcDbLine
 10
495.038863
 20
1682.440512
 30
0.0
 11
495.038863
 21
1668.654666
 31
0.0
  0
LINE
  5
11a
100
AcDbEntity
  8
Schnittkanten
 62
1
100
AcDbLine
 10
232.163451
 20
1682.440512
 30
0.0
 11
232.163451
 21
1647.314944
 31
0.0
  0
LINE
  5
11b
100
AcDbEntity
  8
Schnittkanten
 62
1
100
AcDbLine
 10
118.099747
 20
1459.978455
 30
0.0
 11
158.890808
 21
1459.978455
 31
0.0
  0
LINE
  5
11c
100
AcDbEntity
  8
Schnittkanten
 62
1
100
AcDbLine
 10
118.099747
 20
1464.321955
 30
0.0
 11
158.890808
 21
1464.321955
 31
0.0
  0
LINE
  5
11d
100
AcDbEntity
  8
Schnittkanten
 62
1
100
AcDbLine
 10
203.081063
 20
1459.978455
 30
0.0
 11
227.820093
 21
1459.978455
 31
0.0
  0
LINE
  5
11e
100
AcDbEntity
  8
Schnittkanten
 62
1
100
AcDbLine
 10
203.081063
 20
1464.321955
 30
0.0
 11
227.820093
 21
1464.321955
 31
0.0
  0
LINE
  5
11f
100
AcDbEntity
  8
Schnittkanten
 62
1
100
AcDbLine
 10
227.820093
 20
1459.978455
 30
0.0
 11
227.820093
 21
1457.712355
 31
0.0
  0
LINE
  5
120
100
AcDbEntity
  8
Schnittkanten
 62
1
100
AcDbLine
 10
227.820093
 20
1457.712355
 30
0.0
 11
232.163451
 21
1457.712355
 31
0.0
  0
LINE
  5
121
100
AcDbEntity
  8
Schnittkanten
 62
1
100
AcDbLine
 10
227.820093
 20
1464.321955
 30
0.0
 11
227.820093
 21
1603.124717
 31
0.0
  0
LINE
  5
122
100
AcDbEntity
  8
Schnittkanten
 62
1
100
AcDbLine
 10
227.820093
 20
1603.124717
 30
0.0
 11
232.163451
 21
1603.124717
 31
0.0
  0
LINE
  5
123
100
AcDbEntity
  8
Schnittkanten
 62
1
100
AcDbLine
 10
232.163451
 20
1647.314944
 30
0.0
 11
227.820093
 21
1647.314944
 31
0.0
  0
LINE
  5
124
100
AcDbEntity
  8
Schnittkanten
 62
1
100
AcDbLine
 10
227.820093
 20
1647.314944
 30
0.0
 11
227.820093
 21
1682.440512
 31
0.0
  0
LINE
  5
125
100
AcDbEntity
  8
Schnittkanten
 62
1
100
AcDbLine
 10
227.820093
 20
1682.440512
 30
0.0
 11
118.099747
 21
1682.440512
 31
0.0
  0
LINE
  5
126
100
AcDbEntity
  8
Schnittkanten
 62
1
100
AcDbLine
 10
118.099747
 20
1682.440512
 30
0.0
 11
118.099747
 21
1654.491189
 31
0.0
  0
LINE
  5
127
100
AcDbEntity
  8
Schnittkanten
 62
1
100
AcDbLine
 10
118.099747
 20
1606.523996
 30
0.0
 11
118.099747
 21
1512.289148
 31
0.0
  0
LINE
  5
128
100
AcDbEntity
  8
Schnittkanten
 62
1
100
AcDbLine
 10
104.313901
 20
1606.523996
 30
0.0
 11
104.313901
 21
1512.289148
 31
0.0
  0
LINE
  5
129
100
AcDbEntity
  8
Schnittkanten
 62
1
100
AcDbLine
 10
158.890808
 20
1459.978455
 30
0.0
 11
158.890808
 21
1464.321955
 31
0.0
  0
LINE
  5
12a
100
AcDbEntity
  8
Schnittkanten
 62
1
100
AcDbLine
 10
203.081063
 20
1459.978455
 30
0.0
 11
203.081063
 21
1464.321955
 31
0.0
  0
LINE
  5
12b
100
AcDbEntity
  8
Schnittkanten
 62
1
100
AcDbLine
 10
495.038863
 20
1682.440512
 30
0.0
 11
478.798044
 21
1682.440512
 31
0.0
  0
LINE
  5
12c
100
AcDbEntity
  8
Schnittkanten
 62
1
100
AcDbLine
 10
431.586170
 20
1682.440512
 30
0.0
 11
409.679887
 21
1682.440512
 31
0.0
  0
LINE
  5
12d
100
AcDbEntity
  8
Schnittkanten
 62
1
100
AcDbLine
 10
431.586170
 20
1696.226358
 30
0.0
 11
409.679887
 21
1696.226358
 31
0.0
  0
LINE
  5
12e
100
AcDbEntity
  8
Schnittkanten
 62
1
100
AcDbLine
 10
362.468126
 20
1682.440512
 30
0.0
 11
340.561814
 21
1682.440512
 31
0.0
  0
LINE
  5
12f
100
AcDbEntity
  8
Schnittkanten
 62
1
100
AcDbLine
 10
362.468126
 20
1696.226358
 30
0.0
 11
340.561814
 21
1696.226358
 31
0.0
  0
LINE
  5
130
100
AcDbEntity
  8
Schnittkanten
 62
1
100
AcDbLine
 10
293.727742
 20
1682.440512
 30
0.0
 11
232.163451
 21
1682.440512
 31
0.0
  0
LINE
  5
131
100
AcDbEntity
  8
Schnittkanten
 62
1
100
AcDbLine
 10
118.099747
 20
1402.757788
 30
0.0
 11
126.786774
 21
1402.757788
 31
0.0
  0
LINE
  5
132
100
AcDbEntity
  8
Schnittkanten
 62
1
100
AcDbLine
 10
126.786774
 20
1402.757788
 30
0.0
 11
126.786774
 21
1398.414288
 31
0.0
  0
LINE
  5
133
100
AcDbEntity
  8
Schnittkanten
 62
1
100
AcDbLine
 10
126.786774
 20
1398.414288
 30
0.0
 11
118.099747
 21
1398.414288
 31
0.0
  0
LINE
  5
134
100
AcDbEntity
  8
Schnittkanten
 62
1
100
AcDbLine
 10
118.099747
 20
1398.414288
 30
0.0
 11
118.099747
 21
1393.881917
 31
0.0
  0
LINE
  5
135
100
AcDbEntity
  8
Schnittkanten
 62
1
100
AcDbLine
 10
118.099747
 20
1324.574972
 30
0.0
 11
118.099747
 21
1347.047844
 31
0.0
  0
LINE
  5
136
100
AcDbEntity
  8
Schnittkanten
 62
1
100
AcDbLine
 10
118.099747
 20
1324.574972
 30
0.0
 11
185.518279
 21
1324.574972
 31
0.0
  0
LINE
  5
137
100
AcDbEntity
  8
Schnittkanten
 62
1
100
AcDbLine
 10
185.518279
 20
1324.574972
 30
0.0
 11
185.518279
 21
1398.414288
 31
0.0
  0
LINE
  5
138
100
AcDbEntity
  8
Schnittkanten
 62
1
100
AcDbLine
 10
160.401589
 20
1398.414288
 30
0.0
 11
185.518279
 21
1398.414288
 31
0.0
  0
LINE
  5
139
100
AcDbEntity
  8
Schnittkanten
 62
1
100
AcDbLine
 10
160.401589
 20
1398.414288
 30
0.0
 11
160.401589
 21
1402.757788
 31
0.0
  0
LINE
  5
13a
100
AcDbEntity
  8
Schnittkanten
 62
1
100
AcDbLine
 10
160.401589
 20
1402.757788
 30
0.0
 11
189.861778
 21
1402.757788
 31
0.0
  0
LINE
  5
13b
100
AcDbEntity
  8
Schnittkanten
 62
1
100
AcDbLine
 10
189.861778
 20
1402.757788
 30
0.0
 11
189.861778
 21
1289.071744
 31
0.0
  0
LINE
  5
13c
100
AcDbEntity
  8
Schnittkanten
 62
1
100
AcDbLine
 10
227.820093
 20
1289.071744
 30
0.0
 11
227.820093
 21
1413.333227
 31
0.0
  0
LINE
  5
13d
100
AcDbEntity
  8
Schnittkanten
 62
1
100
AcDbLine
 10
232.163451
 20
1413.333227
 30
0.0
 11
227.820093
 21
1413.333227
 31
0.0
  0
LINE
  5
13e
100
AcDbEntity
  8
Schnittkanten
 62
1
100
AcDbLine
 10
350.381934
 20
1464.321955
 30
0.0
 11
350.381934
 21
1476.974764
 31
0.0
  0
LINE
  5
13f
100
AcDbEntity
  8
Schnittkanten
 62
1
100
AcDbLine
 10
350.381934
 20
1476.974764
 30
0.0
 11
390.417562
 21
1476.974764
 31
0.0
  0
LINE
  5
140
100
AcDbEntity
  8
Schnittkanten
 62
1
100
AcDbLine
 10
390.417562
 20
1439.960698
 30
0.0
 11
390.417562
 21
1476.974764
 31
0.0
  0
LINE
  5
141
100
AcDbEntity
  8
Schnittkanten
 62
1
100
AcDbLine
 10
232.163451
 20
1464.321955
 30
0.0
 11
232.163451
 21
1603.124717
 31
0.0
  0
LINE
  5
142
100
AcDbEntity
  8
Schnittkanten
 62
1
100
AcDbLine
 10
495.038863
 20
1452.519029
 30
0.0
 11
490.506548
 21
1452.519029
 31
0.0
  0
LINE
  5
143
100
AcDbEntity
  8
Schnittkanten
 62
1
100
AcDbLine
 10
490.506548
 20
1452.519029
 30
0.0
 11
490.506548
 21
1471.781466
 31
0.0
  0
LINE
  5
144
100
AcDbEntity
  8
Schnittkanten
 62
1
100
AcDbLine
 10
490.506548
 20
1471.781466
 30
0.0
 11
495.038863
 21
1471.781466
 31
0.0
  0
LINE
  5
145
100
AcDbEntity
  8
Schnittkanten
 62
1
100
AcDbLine
 10
495.038863
 20
1365.366033
 30
0.0
 11
495.038863
 21
1452.519029
 31
0.0
  0
LINE
  5
146
100
AcDbEntity
  8
Schnittkanten
 62
1
100
AcDbLine
 10
495.038863
 20
1471.781466
 30
0.0
 11
495.038863
 21
1551.947088
 31
0.0
  0
LINE
  5
147
100
AcDbEntity
  8
Schnittkanten
 62
1
100
AcDbLine
 10
158.890808
 20
1234.872610
 30
0.0
 11
158.890808
 21
1221.086792
 31
0.0
  0
LINE
  5
148
100
AcDbEntity
  8
Schnittkanten
 62
1
100
AcDbLine
 10
204.214156
 20
1234.872610
 30
0.0
 11
204.214156
 21
1221.086792
 31
0.0
  0
LINE
  5
149
100
AcDbEntity
  8
Schnittkanten
 62
1
100
AcDbLine
 10
248.970944
 20
1234.872610
 30
0.0
 11
248.970944
 21
1221.086792
 31
0.0
  0
LINE
  5
14a
100
AcDbEntity
  8
Schnittkanten
 62
1
100
AcDbLine
 10
294.671962
 20
1234.872610
 30
0.0
 11
294.671962
 21
1221.086792
 31
0.0
  0
LINE
  5
14b
100
AcDbEntity
  8
Schnittkanten
 62
1
100
AcDbLine
 10
332.441376
 20
1234.872610
 30
0.0
 11
332.441376
 21
1221.086792
 31
0.0
  0
LINE
  5
14c
100
AcDbEntity
  8
Schnittkanten
 62
1
100
AcDbLine
 10
378.142469
 20
1234.872610
 30
0.0
 11
378.142469
 21
1221.086792
 31
0.0
  0
LINE
  5
14d
100
AcDbEntity
  8
Schnittkanten
 62
1
100
AcDbLine
 10
419.688879
 20
1234.872610
 30
0.0
 11
419.688879
 21
1221.086792
 31
0.0
  0
LINE
  5
14e
100
AcDbEntity
  8
Schnittkanten
 62
1
100
AcDbLine
 10
465.389887
 20
1234.872610
 30
0.0
 11
465.389887
 21
1221.086792
 31
0.0
  0
LINE
  5
14f
100
AcDbEntity
  8
Schnittkanten
 62
1
100
AcDbLine
 10
118.099747
 20
1347.047844
 30
0.0
 11
104.313901
 21
1347.047844
 31
0.0
  0
LINE
  5
150
100
AcDbEntity
  8
Schnittkanten
 62
1
100
AcDbLine
 10
118.099747
 20
1393.881917
 30
0.0
 11
104.313901
 21
1393.881917
 31
0.0
  0
LINE
  5
151
100
AcDbEntity
  8
Schnittkanten
 62
1
100
AcDbLine
 10
118.099747
 20
1464.321955
 30
0.0
 11
104.313901
 21
1464.321955
 31
0.0
  0
LINE
  5
152
100
AcDbEntity
  8
Schnittkanten
 62
1
100
AcDbLine
 10
118.099747
 20
1512.289148
 30
0.0
 11
104.313901
 21
1512.289148
 31
0.0
  0
LINE
  5
153
100
AcDbEntity
  8
Schnittkanten
 62
1
100
AcDbLine
 10
118.099747
 20
1606.523996
 30
0.0
 11
104.313901
 21
1606.523996
 31
0.0
  0
LINE
  5
154
100
AcDbEntity
  8
Schnittkanten
 62
1
100
AcDbLine
 10
118.099747
 20
1654.491189
 30
0.0
 11
104.313901
 21
1654.491189
 31
0.0
  0
LINE
  5
155
100
AcDbEntity
  8
Schnittkanten
 62
1
100
AcDbLine
 10
508.824680
 20
1551.947088
 30
0.0
 11
495.038863
 21
1551.947088
 31
0.0
  0
LINE
  5
156
100
AcDbEntity
  8
Schnittkanten
 62
1
100
AcDbLine
 10
508.824680
 20
1668.654666
 30
0.0
 11
495.038863
 21
1668.654666
 31
0.0
  0
LINE
  5
157
100
AcDbEntity
  8
Schnittkanten
 62
1
100
AcDbLine
 10
508.824680
 20
1248.658455
 30
0.0
 11
495.038863
 21
1248.658455
 31
0.0
  0
LINE
  5
158
100
AcDbEntity
  8
Schnittkanten
 62
1
100
AcDbLine
 10
508.824680
 20
1365.366033
 30
0.0
 11
495.038863
 21
1365.366033
 31
0.0
  0
LINE
  5
159
100
AcDbEntity
  8
Schnittkanten
 62
1
100
AcDbLine
 10
293.727742
 20
1696.226358
 30
0.0
 11
293.727742
 21
1682.440512
 31
0.0
  0
LINE
  5
15a
100
AcDbEntity
  8
Schnittkanten
 62
1
100
AcDbLine
 10
340.561814
 20
1696.226358
 30
0.0
 11
340.561814
 21
1682.440512
 31
0.0
  0
LINE
  5
15b
100
AcDbEntity
  8
Schnittkanten
 62
1
100
AcDbLine
 10
362.468126
 20
1696.226358
 30
0.0
 11
362.468126
 21
1682.440512
 31
0.0
  0
LINE
  5
15c
100
AcDbEntity
  8
Schnittkanten
 62
1
100
AcDbLine
 10
409.679887
 20
1696.226358
 30
0.0
 11
409.679887
 21
1682.440512
 31
0.0
  0
LINE
  5
15d
100
AcDbEntity
  8
Schnittkanten
 62
1
100
AcDbLine
 10
431.586170
 20
1696.226358
 30
0.0
 11
431.586170
 21
1682.440512
 31
0.0
  0
LINE
  5
15e
100
AcDbEntity
  8
Schnittkanten
 62
1
100
AcDbLine
 10
478.798044
 20
1696.226358
 30
0.0
 11
478.798044
 21
1682.440512
 31
0.0
  0
LINE
  5
15f
100
AcDbEntity
  8
Schnittkanten
 62
1
100
AcDbLine
 10
104.313901
 20
1696.226358
 30
0.0
 11
293.727742
 21
1696.226358
 31
0.0
  0
LINE
  5
160
100
AcDbEntity
  8
Schnittkanten
 62
1
100
AcDbLine
 10
478.798044
 20
1696.226358
 30
0.0
 11
495.038863
 21
1696.226358
 31
0.0
  0
LINE
  5
161
100
AcDbEntity
  8
Schnittkanten
 62
1
100
AcDbLine
 10
104.313901
 20
1221.086792
 30
0.0
 11
158.890808
 21
1221.086792
 31
0.0
  0
LINE
  5
162
100
AcDbEntity
  8
Schnittkanten
 62
1
100
AcDbLine
 10
204.214156
 20
1221.086792
 30
0.0
 11
248.970944
 21
1221.086792
 31
0.0
  0
LINE
  5
163
100
AcDbEntity
  8
Schnittkanten
 62
1
100
AcDbLine
 10
294.671962
 20
1221.086792
 30
0.0
 11
332.441376
 21
1221.086792
 31
0.0
  0
LINE
  5
164
100
AcDbEntity
  8
Schnittkanten
 62
1
100
AcDbLine
 10
378.142469
 20
1221.086792
 30
0.0
 11
419.688879
 21
1221.086792
 31
0.0
  0
LINE
  5
165
100
AcDbEntity
  8
Schnittkanten
 62
1
100
AcDbLine
 10
465.389887
 20
1221.086792
 30
0.0
 11
495.038863
 21
1221.086792
 31
0.0
  0
LINE
  5
166
100
AcDbEntity
  8
Schnittkanten
 62
1
100
AcDbLine
 10
104.313901
 20
1221.086792
 30
0.0
 11
104.313901
 21
1347.047844
 31
0.0
  0
LINE
  5
167
100
AcDbEntity
  8
Schnittkanten
 62
1
100
AcDbLine
 10
104.313901
 20
1393.881917
 30
0.0
 11
104.313901
 21
1464.321955
 31
0.0
  0
LINE
  5
168
100
AcDbEntity
  8
Schnittkanten
 62
1
100
AcDbLine
 10
104.313901
 20
1654.491189
 30
0.0
 11
104.313901
 21
1696.226358
 31
0.0
  0
LINE
  5
169
100
AcDbEntity
  8
Schnittkanten
 62
1
100
AcDbLine
 10
508.824680
 20
1221.086792
 30
0.0
 11
508.824680
 21
1248.658455
 31
0.0
  0
LINE
  5
16a
100
AcDbEntity
  8
Schnittkanten
 62
1
100
AcDbLine
 10
508.824680
 20
1365.366033
 30
0.0
 11
508.824680
 21
1551.947088
 31
0.0
  0
LINE
  5
16b
100
AcDbEntity
  8
Schnittkanten
 62
1
100
AcDbLine
 10
508.824680
 20
1668.654666
 30
0.0
 11
508.824680
 21
1696.226358
 31
0.0
  0
LINE
  5
16c
100
AcDbEntity
  8
Schnittkanten
 62
1
100
AcDbLine
 10
235.185098
 20
1464.321955
 30
0.0
 11
235.185098
 21
1459.978455
 31
0.0
  0
LINE
  5
16d
100
AcDbEntity
  8
Schnittkanten
 62
1
100
AcDbLine
 10
279.564226
 20
1459.978455
 30
0.0
 11
279.564226
 21
1464.321955
 31
0.0
  0
LINE
  5
16e
100
AcDbEntity
  8
Schnittkanten
 62
1
100
AcDbLine
 10
104.313901
 20
1397.470096
 30
0.0
 11
66.544515
 21
1397.470096
 31
0.0
  0
LINE
  5
16f
100
AcDbEntity
  8
Schnittkanten
 62
1
100
AcDbLine
 10
104.313901
 20
1406.534755
 30
0.0
 11
75.609145
 21
1406.534755
 31
0.0
  0
LINE
  5
170
100
AcDbEntity
  8
Schnittkanten
 62
1
100
AcDbLine
 10
66.544515
 20
1397.470096
 30
0.0
 11
66.544515
 21
1463.566607
 31
0.0
  0
LINE
  5
171
100
AcDbEntity
  8
Schnittkanten
 62
1
100
AcDbLine
 10
75.609145
 20
1406.534755
 30
0.0
 11
75.609145
 21
1454.501948
 31
0.0
  0
LINE
  5
172
100
AcDbEntity
  8
Schnittkanten
 62
1
100
AcDbLine
 10
66.544515
 20
1463.566607
 30
0.0
 11
104.313901
 21
1463.566607
 31
0.0
  0
LINE
  5
173
100
AcDbEntity
  8
Schnittkanten
 62
1
100
AcDbLine
 10
75.609145
 20
1454.501948
 30
0.0
 11
104.313901
 21
1454.501948
 31
0.0
  0
LINE
  5
174
100
AcDbEntity
  8
Schnittkanten
 62
1
100
AcDbLine
 10
104.313901
 20
1408.800855
 30
0.0
 11
118.099747
 21
1408.800855
 31
0.0
  0
LINE
  5
175
100
AcDbEntity
  8
Schnittkanten
 62
1
100
AcDbLine
 10
104.313901
 20
1452.235762
 30
0.0
 11
118.099747
 21
1452.235762
 31
0.0
  0
LINE
  5
176
100
AcDbEntity
  8
Schnittkanten
 62
1
100
AcDbLine
 10
118.099747
 20
1402.757788
 30
0.0
 11
118.099747
 21
1408.800855
 31
0.0
  0
LINE
  5
177
100
AcDbEntity
  8
Schnittkanten
 62
1
100
AcDbLine
 10
118.099747
 20
1452.235762
 30
0.0
 11
118.099747
 21
1459.978455
 31
0.0
  0
LINE
  5
178
100
AcDbEntity
  8
Schnittkanten
 62
1
100
AcDbLine
 10
1064.979808
 20
1688.342018
 30
0.0
 11
1064.979808
 21
1498.078446
 31
0.0
  0
LINE
  5
179
100
AcDbEntity
  8
Schnittkanten
 62
1
100
AcDbLine
 10
1149.394564
 20
1498.078446
 30
0.0
 11
1205.671011
 21
1498.078446
 31
0.0
  0
LINE
  5
17a
100
AcDbEntity
  8
Schnittkanten
 62
1
100
AcDbLine
 10
1329.177175
 20
1498.078446
 30
0.0
 11
1385.831225
 21
1498.078446
 31
0.0
  0
LINE
  5
17b
100
AcDbEntity
  8
Schnittkanten
 62
1
100
AcDbLine
 10
1419.257367
 20
1498.078446
 30
0.0
 11
1480.632548
 21
1498.078446
 31
0.0
  0
LINE
  5
17c
100
AcDbEntity
  8
Schnittkanten
 62
1
100
AcDbLine
 10
1514.058690
 20
1498.078446
 30
0.0
 11
1575.433871
 21
1498.078446
 31
0.0
  0
LINE
  5
17d
100
AcDbEntity
  8
Schnittkanten
 62
1
100
AcDbLine
 10
1608.860013
 20
1498.078446
 30
0.0
 11
1670.235194
 21
1498.078446
 31
0.0
  0
LINE
  5
17e
100
AcDbEntity
  8
Schnittkanten
 62
1
100
AcDbLine
 10
1703.661052
 20
1498.078446
 30
0.0
 11
1741.430721
 21
1498.078446
 31
0.0
  0
LINE
  5
17f
100
AcDbEntity
  8
Schnittkanten
 62
1
100
AcDbLine
 10
1774.856580
 20
1498.078446
 30
0.0
 11
1828.677997
 21
1498.078446
 31
0.0
  0
LINE
  5
180
100
AcDbEntity
  8
Schnittkanten
 62
1
100
AcDbLine
 10
1064.979808
 20
1498.078446
 30
0.0
 11
1064.979808
 21
1503.743854
 31
0.0
  0
LINE
  5
181
100
AcDbEntity
  8
Schnittkanten
 62
1
100
AcDbLine
 10
2012.615320
 20
1503.743854
 30
0.0
 11
2012.615320
 21
1688.342018
 31
0.0
  0
LINE
  5
182
100
AcDbEntity
  8
Schnittkanten
 62
1
100
AcDbLine
 10
1161.669657
 20
1503.743854
 30
0.0
 11
1161.669657
 21
1688.342018
 31
0.0
  0
LINE
  5
183
100
AcDbEntity
  8
Schnittkanten
 62
1
100
AcDbLine
 10
1070.645301
 20
1688.342018
 30
0.0
 11
1070.645301
 21
1503.743854
 31
0.0
  0
LINE
  5
184
100
AcDbEntity
  8
Schnittkanten
 62
1
100
AcDbLine
 10
1156.004192
 20
1688.342018
 30
0.0
 11
1156.004192
 21
1503.743854
 31
0.0
  0
LINE
  5
185
100
AcDbEntity
  8
Schnittkanten
 62
1
100
AcDbLine
 10
1919.702438
 20
1688.342018
 30
0.0
 11
1919.702438
 21
1542.457488
 31
0.0
  0
LINE
  5
186
100
AcDbEntity
  8
Schnittkanten
 62
1
100
AcDbLine
 10
1919.702438
 20
1509.031545
 30
0.0
 11
1919.702438
 21
1503.743854
 31
0.0
  0
LINE
  5
187
100
AcDbEntity
  8
Schnittkanten
 62
1
100
AcDbLine
 10
1914.037115
 20
1503.743854
 30
0.0
 11
1914.037115
 21
1509.031545
 31
0.0
  0
LINE
  5
188
100
AcDbEntity
  8
Schnittkanten
 62
1
100
AcDbLine
 10
1914.037115
 20
1542.457488
 30
0.0
 11
1914.037115
 21
1688.342018
 31
0.0
  0
LINE
  5
189
100
AcDbEntity
  8
Schnittkanten
 62
1
100
AcDbLine
 10
1828.677997
 20
1503.743854
 30
0.0
 11
1824.901115
 21
1503.743854
 31
0.0
  0
LINE
  5
18a
100
AcDbEntity
  8
Schnittkanten
 62
1
100
AcDbLine
 10
1824.901115
 20
1503.743854
 30
0.0
 11
1824.901115
 21
1688.342018
 31
0.0
  0
LINE
  5
18b
100
AcDbEntity
  8
Schnittkanten
 62
1
100
AcDbLine
 10
1741.430721
 20
1503.743854
 30
0.0
 11
1730.099792
 21
1503.743854
 31
0.0
  0
LINE
  5
18c
100
AcDbEntity
  8
Schnittkanten
 62
1
100
AcDbLine
 10
1730.099792
 20
1503.743854
 30
0.0
 11
1730.099792
 21
1688.342018
 31
0.0
  0
LINE
  5
18d
100
AcDbEntity
  8
Schnittkanten
 62
1
100
AcDbLine
 10
1724.434469
 20
1688.342018
 30
0.0
 11
1724.434469
 21
1503.743854
 31
0.0
  0
LINE
  5
18e
100
AcDbEntity
  8
Schnittkanten
 62
1
100
AcDbLine
 10
1670.235194
 20
1503.743854
 30
0.0
 11
1635.298469
 21
1503.743854
 31
0.0
  0
LINE
  5
18f
100
AcDbEntity
  8
Schnittkanten
 62
1
100
AcDbLine
 10
1635.298469
 20
1503.743854
 30
0.0
 11
1635.298469
 21
1688.342018
 31
0.0
  0
LINE
  5
190
100
AcDbEntity
  8
Schnittkanten
 62
1
100
AcDbLine
 10
1629.658942
 20
1688.342018
 30
0.0
 11
1629.658942
 21
1503.743854
 31
0.0
  0
LINE
  5
191
100
AcDbEntity
  8
Schnittkanten
 62
1
100
AcDbLine
 10
1540.522942
 20
1688.342018
 30
0.0
 11
1540.522942
 21
1503.743854
 31
0.0
  0
LINE
  5
192
100
AcDbEntity
  8
Schnittkanten
 62
1
100
AcDbLine
 10
1534.857619
 20
1503.743854
 30
0.0
 11
1534.857619
 21
1688.342018
 31
0.0
  0
LINE
  5
193
100
AcDbEntity
  8
Schnittkanten
 62
1
100
AcDbLine
 10
1445.721619
 20
1688.342018
 30
0.0
 11
1445.721619
 21
1503.743854
 31
0.0
  0
LINE
  5
194
100
AcDbEntity
  8
Schnittkanten
 62
1
100
AcDbLine
 10
1440.056296
 20
1503.743854
 30
0.0
 11
1440.056296
 21
1688.342018
 31
0.0
  0
LINE
  5
195
100
AcDbEntity
  8
Schnittkanten
 62
1
100
AcDbLine
 10
1350.920296
 20
1688.342018
 30
0.0
 11
1350.920296
 21
1503.743854
 31
0.0
  0
LINE
  5
196
100
AcDbEntity
  8
Schnittkanten
 62
1
100
AcDbLine
 10
1345.254831
 20
1503.743854
 30
0.0
 11
1345.254831
 21
1688.342018
 31
0.0
  0
LINE
  5
197
100
AcDbEntity
  8
Schnittkanten
 62
1
100
AcDbLine
 10
1256.119030
 20
1688.342018
 30
0.0
 11
1256.119030
 21
1503.743854
 31
0.0
  0
LINE
  5
198
100
AcDbEntity
  8
Schnittkanten
 62
1
100
AcDbLine
 10
1250.453537
 20
1503.750969
 30
0.0
 11
1250.453537
 21
1688.342018
 31
0.0
  0
LINE
  5
199
100
AcDbEntity
  8
Schnittkanten
 62
1
100
AcDbLine
 10
1064.979808
 20
1694.007482
 30
0.0
 11
1070.645301
 21
1694.007482
 31
0.0
  0
LINE
  5
19a
100
AcDbEntity
  8
Schnittkanten
 62
1
100
AcDbLine
 10
1113.513562
 20
1694.007482
 30
0.0
 11
1161.669657
 21
1694.007482
 31
0.0
  0
LINE
  5
19b
100
AcDbEntity
  8
Schnittkanten
 62
1
100
AcDbLine
 10
1115.968649
 20
1498.078446
 30
0.0
 11
1115.968649
 21
1503.743854
 31
0.0
  0
LINE
  5
19c
100
AcDbEntity
  8
Schnittkanten
 62
1
100
AcDbLine
 10
1149.394564
 20
1503.743854
 30
0.0
 11
1149.394564
 21
1498.078446
 31
0.0
  0
LINE
  5
19d
100
AcDbEntity
  8
Schnittkanten
 62
1
100
AcDbLine
 10
1205.671011
 20
1498.078446
 30
0.0
 11
1205.671011
 21
1503.743854
 31
0.0
  0
LINE
  5
19e
100
AcDbEntity
  8
Schnittkanten
 62
1
100
AcDbLine
 10
1239.097039
 20
1503.743854
 30
0.0
 11
1239.097039
 21
1498.078446
 31
0.0
  0
LINE
  5
19f
100
AcDbEntity
  8
Schnittkanten
 62
1
100
AcDbLine
 10
1295.751146
 20
1498.078446
 30
0.0
 11
1295.751146
 21
1503.743854
 31
0.0
  0
LINE
  5
1a0
100
AcDbEntity
  8
Schnittkanten
 62
1
100
AcDbLine
 10
1329.177175
 20
1503.743854
 30
0.0
 11
1329.177175
 21
1498.078446
 31
0.0
  0
LINE
  5
1a1
100
AcDbEntity
  8
Schnittkanten
 62
1
100
AcDbLine
 10
1385.831225
 20
1498.078446
 30
0.0
 11
1385.831225
 21
1503.743854
 31
0.0
  0
LINE
  5
1a2
100
AcDbEntity
  8
Schnittkanten
 62
1
100
AcDbLine
 10
1419.257367
 20
1503.743854
 30
0.0
 11
1419.257367
 21
1498.078446
 31
0.0
  0
LINE
  5
1a3
100
AcDbEntity
  8
Schnittkanten
 62
1
100
AcDbLine
 10
1480.632548
 20
1498.078446
 30
0.0
 11
1480.632548
 21
1503.743854
 31
0.0
  0
LINE
  5
1a4
100
AcDbEntity
  8
Schnittkanten
 62
1
100
AcDbLine
 10
1514.058690
 20
1503.743854
 30
0.0
 11
1514.058690
 21
1498.078446
 31
0.0
  0
LINE
  5
1a5
100
AcDbEntity
  8
Schnittkanten
 62
1
100
AcDbLine
 10
1575.433871
 20
1498.078446
 30
0.0
 11
1575.433871
 21
1503.743854
 31
0.0
  0
LINE
  5
1a6
100
AcDbEntity
  8
Schnittkanten
 62
1
100
AcDbLine
 10
1608.860013
 20
1503.743854
 30
0.0
 11
1608.860013
 21
1498.078446
 31
0.0
  0
LINE
  5
1a7
100
AcDbEntity
  8
Schnittkanten
 62
1
100
AcDbLine
 10
1670.235194
 20
1498.078446
 30
0.0
 11
1670.235194
 21
1503.743854
 31
0.0
  0
LINE
  5
1a8
100
AcDbEntity
  8
Schnittkanten
 62
1
100
AcDbLine
 10
1703.661052
 20
1503.743854
 30
0.0
 11
1703.661052
 21
1498.078446
 31
0.0
  0
LINE
  5
1a9
100
AcDbEntity
  8
Schnittkanten
 62
1
100
AcDbLine
 10
1919.702438
 20
1509.031545
 30
0.0
 11
1914.037115
 21
1509.031545
 31
0.0
  0
LINE
  5
1aa
100
AcDbEntity
  8
Schnittkanten
 62
1
100
AcDbLine
 10
1862.103855
 20
1503.743854
 30
0.0
 11
1862.103855
 21
1498.078446
 31
0.0
  0
LINE
  5
1ab
100
AcDbEntity
  8
Schnittkanten
 62
1
100
AcDbLine
 10
1828.677997
 20
1498.078446
 30
0.0
 11
1828.677997
 21
1503.743854
 31
0.0
  0
LINE
  5
1ac
100
AcDbEntity
  8
Schnittkanten
 62
1
100
AcDbLine
 10
1741.430721
 20
1503.743854
 30
0.0
 11
1741.430721
 21
1498.078446
 31
0.0
  0
LINE
  5
1ad
100
AcDbEntity
  8
Schnittkanten
 62
1
100
AcDbLine
 10
1774.856580
 20
1498.078446
 30
0.0
 11
1774.856580
 21
1503.743854
 31
0.0
  0
LINE
  5
1ae
100
AcDbEntity
  8
Schnittkanten
 62
1
100
AcDbLine
 10
1285.175707
 20
1498.078446
 30
0.0
 11
1285.175707
 21
1488.636014
 31
0.0
  0
LINE
  5
1af
100
AcDbEntity
  8
Schnittkanten
 62
1
100
AcDbLine
 10
1285.175707
 20
1422.161816
 30
0.0
 11
1285.175707
 21
1417.440657
 31
0.0
  0
LINE
  5
1b0
100
AcDbEntity
  8
Schnittkanten
 62
1
100
AcDbLine
 10
1283.287266
 20
1417.440657
 30
0.0
 11
1283.287266
 21
1422.161816
 31
0.0
  0
LINE
  5
1b1
100
AcDbEntity
  8
Schnittkanten
 62
1
100
AcDbLine
 10
1283.287266
 20
1488.636014
 30
0.0
 11
1283.287266
 21
1498.078446
 31
0.0
  0
LINE
  5
1b2
100
AcDbEntity
  8
Schnittkanten
 62
1
100
AcDbLine
 10
1283.287266
 20
1417.440657
 30
0.0
 11
1243.251638
 21
1417.440657
 31
0.0
  0
LINE
  5
1b3
100
AcDbEntity
  8
Schnittkanten
 62
1
100
AcDbLine
 10
1453.627446
 20
1417.440657
 30
0.0
 11
1566.935887
 21
1417.440657
 31
0.0
  0
LINE
  5
1b4
100
AcDbEntity
  8
Schnittkanten
 62
1
100
AcDbLine
 10
1600.361745
 20
1417.440657
 30
0.0
 11
1756.160674
 21
1417.440657
 31
0.0
  0
LINE
  5
1b5
100
AcDbEntity
  8
Schnittkanten
 62
1
100
AcDbLine
 10
1789.586816
 20
1417.440657
 30
0.0
 11
1935.943257
 21
1417.440657
 31
0.0
  0
LINE
  5
1b6
100
AcDbEntity
  8
Schnittkanten
 62
1
100
AcDbLine
 10
1064.979808
 20
1417.440657
 30
0.0
 11
1064.979808
 21
1228.971161
 31
0.0
  0
LINE
  5
1b7
100
AcDbEntity
  8
Schnittkanten
 62
1
100
AcDbLine
 10
2018.280643
 20
1417.440657
 30
0.0
 11
2018.280643
 21
1311.123416
 31
0.0
  0
LINE
  5
1b8
100
AcDbEntity
  8
Schnittkanten
 62
1
100
AcDbLine
 10
2012.615320
 20
1228.971161
 30
0.0
 11
1974.845934
 21
1228.971161
 31
0.0
  0
LINE
  5
1b9
100
AcDbEntity
  8
Schnittkanten
 62
1
100
AcDbLine
 10
1553.527729
 20
1228.971161
 30
0.0
 11
1509.148517
 21
1228.971161
 31
0.0
  0
LINE
  5
1ba
100
AcDbEntity
  8
Schnittkanten
 62
1
100
AcDbLine
 10
1503.483194
 20
1228.971161
 30
0.0
 11
1437.764202
 21
1228.971161
 31
0.0
  0
LINE
  5
1bb
100
AcDbEntity
  8
Schnittkanten
 62
1
100
AcDbLine
 10
1399.617241
 20
1228.971161
 30
0.0
 11
1352.405339
 21
1228.971161
 31
0.0
  0
LINE
  5
1bc
100
AcDbEntity
  8
Schnittkanten
 62
1
100
AcDbLine
 10
1346.739959
 20
1228.971161
 30
0.0
 11
1299.528085
 21
1228.971161
 31
0.0
  0
LINE
  5
1bd
100
AcDbEntity
  8
Schnittkanten
 62
1
100
AcDbLine
 10
1108.792403
 20
1228.971161
 30
0.0
 11
1070.645301
 21
1228.971161
 31
0.0
  0
LINE
  5
1be
100
AcDbEntity
  8
Schnittkanten
 62
1
100
AcDbLine
 10
1070.645301
 20
1228.971161
 30
0.0
 11
1070.645301
 21
1364.563432
 31
0.0
  0
LINE
  5
1bf
100
AcDbEntity
  8
Schnittkanten
 62
1
100
AcDbLine
 10
1064.979808
 20
1228.971161
 30
0.0
 11
1064.979808
 21
1223.305696
 31
0.0
  0
LINE
  5
1c0
100
AcDbEntity
  8
Schnittkanten
 62
1
100
AcDbLine
 10
1064.979808
 20
1223.305696
 30
0.0
 11
1108.792403
 21
1223.305696
 31
0.0
  0
LINE
  5
1c1
100
AcDbEntity
  8
Schnittkanten
 62
1
100
AcDbLine
 10
1160.347663
 20
1223.305696
 30
0.0
 11
1257.037483
 21
1223.305696
 31
0.0
  0
LINE
  5
1c2
100
AcDbEntity
  8
Schnittkanten
 62
1
100
AcDbLine
 10
1437.764202
 20
1223.305696
 30
0.0
 11
1553.527729
 21
1223.305696
 31
0.0
  0
LINE
  5
1c3
100
AcDbEntity
  8
Schnittkanten
 62
1
100
AcDbLine
 10
1638.886564
 20
1223.305696
 30
0.0
 11
1741.430721
 21
1223.305696
 31
0.0
  0
LINE
  5
1c4
100
AcDbEntity
  8
Schnittkanten
 62
1
100
AcDbLine
 10
1826.789556
 20
1223.305696
 30
0.0
 11
1936.698690
 21
1223.305696
 31
0.0
  0
LINE
  5
1c5
100
AcDbEntity
  8
Schnittkanten
 62
1
100
AcDbLine
 10
1974.845934
 20
1223.305696
 30
0.0
 11
2018.280643
 21
1223.305696
 31
0.0
  0
LINE
  5
1c6
100
AcDbEntity
  8
Schnittkanten
 62
1
100
AcDbLine
 10
2018.280643
 20
1223.305696
 30
0.0
 11
2018.280643
 21
1228.971161
 31
0.0
  0
LINE
  5
1c7
100
AcDbEntity
  8
Schnittkanten
 62
1
100
AcDbLine
 10
1352.405339
 20
1411.775277
 30
0.0
 11
1420.201587
 21
1411.775277
 31
0.0
  0
LINE
  5
1c8
100
AcDbEntity
  8
Schnittkanten
 62
1
100
AcDbLine
 10
1453.627446
 20
1411.775277
 30
0.0
 11
1503.483194
 21
1411.775277
 31
0.0
  0
LINE
  5
1c9
100
AcDbEntity
  8
Schnittkanten
 62
1
100
AcDbLine
 10
1509.148517
 20
1411.775277
 30
0.0
 11
1566.935887
 21
1411.775277
 31
0.0
  0
LINE
  5
1ca
100
AcDbEntity
  8
Schnittkanten
 62
1
100
AcDbLine
 10
1165.068822
 20
1411.775277
 30
0.0
 11
1165.068822
 21
1417.440657
 31
0.0
  0
LINE
  5
1cb
100
AcDbEntity
  8
Schnittkanten
 62
1
100
AcDbLine
 10
1198.494879
 20
1417.440657
 30
0.0
 11
1198.494879
 21
1411.775277
 31
0.0
  0
LINE
  5
1cc
100
AcDbEntity
  8
Schnittkanten
 62
1
100
AcDbLine
 10
1209.825723
 20
1411.775277
 30
0.0
 11
1209.825723
 21
1417.440657
 31
0.0
  0
LINE
  5
1cd
100
AcDbEntity
  8
Schnittkanten
 62
1
100
AcDbLine
 10
1243.251638
 20
1417.440657
 30
0.0
 11
1243.251638
 21
1411.775277
 31
0.0
  0
LINE
  5
1ce
100
AcDbEntity
  8
Schnittkanten
 62
1
100
AcDbLine
 10
1198.494879
 20
1411.775277
 30
0.0
 11
1198.494879
 21
1326.793961
 31
0.0
  0
LINE
  5
1cf
100
AcDbEntity
  8
Schnittkanten
 62
1
100
AcDbLine
 10
1198.494879
 20
1319.240084
 30
0.0
 11
1198.494879
 21
1228.971161
 31
0.0
  0
LINE
  5
1d0
100
AcDbEntity
  8
Schnittkanten
 62
1
100
AcDbLine
 10
1209.825723
 20
1411.775277
 30
0.0
 11
1209.825723
 21
1326.793961
 31
0.0
  0
LINE
  5
1d1
100
AcDbEntity
  8
Schnittkanten
 62
1
100
AcDbLine
 10
1209.825723
 20
1319.240084
 30
0.0
 11
1209.825723
 21
1228.971161
 31
0.0
  0
LINE
  5
1d2
100
AcDbEntity
  8
Schnittkanten
 62
1
100
AcDbLine
 10
1346.739959
 20
1228.971161
 30
0.0
 11
1346.739959
 21
1364.563432
 31
0.0
  0
LINE
  5
1d3
100
AcDbEntity
  8
Schnittkanten
 62
1
100
AcDbLine
 10
1352.405339
 20
1411.775277
 30
0.0
 11
1352.405339
 21
1228.971161
 31
0.0
  0
LINE
  5
1d4
100
AcDbEntity
  8
Schnittkanten
 62
1
100
AcDbLine
 10
1503.483194
 20
1411.775277
 30
0.0
 11
1503.483194
 21
1228.971161
 31
0.0
  0
LINE
  5
1d5
100
AcDbEntity
  8
Schnittkanten
 62
1
100
AcDbLine
 10
1509.148517
 20
1228.971161
 30
0.0
 11
1509.148517
 21
1411.775277
 31
0.0
  0
LINE
  5
1d6
100
AcDbEntity
  8
Schnittkanten
 62
1
100
AcDbLine
 10
1693.274627
 20
1228.971161
 30
0.0
 11
1693.274627
 21
1411.775277
 31
0.0
  0
LINE
  5
1d7
100
AcDbEntity
  8
Schnittkanten
 62
1
100
AcDbLine
 10
1698.939950
 20
1411.775277
 30
0.0
 11
1698.939950
 21
1228.971161
 31
0.0
  0
LINE
  5
1d8
100
AcDbEntity
  8
Schnittkanten
 62
1
100
AcDbLine
 10
1883.066060
 20
1228.971161
 30
0.0
 11
1883.066060
 21
1411.775277
 31
0.0
  0
LINE
  5
1d9
100
AcDbEntity
  8
Schnittkanten
 62
1
100
AcDbLine
 10
1888.731383
 20
1411.775277
 30
0.0
 11
1888.731383
 21
1228.971161
 31
0.0
  0
LINE
  5
1da
100
AcDbEntity
  8
Schnittkanten
 62
1
100
AcDbLine
 10
1935.943257
 20
1411.775277
 30
0.0
 11
1935.943257
 21
1417.440657
 31
0.0
  0
LINE
  5
1db
100
AcDbEntity
  8
Schnittkanten
 62
1
100
AcDbLine
 10
1969.369115
 20
1417.440657
 30
0.0
 11
1969.369115
 21
1411.775277
 31
0.0
  0
LINE
  5
1dc
100
AcDbEntity
  8
Schnittkanten
 62
1
100
AcDbLine
 10
2012.615320
 20
1228.971161
 30
0.0
 11
2012.615320
 21
1272.976314
 31
0.0
  0
LINE
  5
1dd
100
AcDbEntity
  8
Schnittkanten
 62
1
100
AcDbLine
 10
1789.586816
 20
1411.775277
 30
0.0
 11
1789.586816
 21
1417.440657
 31
0.0
  0
LINE
  5
1de
100
AcDbEntity
  8
Schnittkanten
 62
1
100
AcDbLine
 10
1756.160674
 20
1417.440657
 30
0.0
 11
1756.160674
 21
1411.775277
 31
0.0
  0
LINE
  5
1df
100
AcDbEntity
  8
Schnittkanten
 62
1
100
AcDbLine
 10
1600.361745
 20
1417.440657
 30
0.0
 11
1600.361745
 21
1411.775277
 31
0.0
  0
LINE
  5
1e0
100
AcDbEntity
  8
Schnittkanten
 62
1
100
AcDbLine
 10
1566.935887
 20
1411.775277
 30
0.0
 11
1566.935887
 21
1417.440657
 31
0.0
  0
LINE
  5
1e1
100
AcDbEntity
  8
Schnittkanten
 62
1
100
AcDbLine
 10
1453.627446
 20
1417.440657
 30
0.0
 11
1453.627446
 21
1411.775277
 31
0.0
  0
LINE
  5
1e2
100
AcDbEntity
  8
Schnittkanten
 62
1
100
AcDbLine
 10
1420.201587
 20
1411.775277
 30
0.0
 11
1420.201587
 21
1417.440657
 31
0.0
  0
LINE
  5
1e3
100
AcDbEntity
  8
Schnittkanten
 62
1
100
AcDbLine
 10
1283.287266
 20
1422.161816
 30
0.0
 11
1285.175707
 21
1422.161816
 31
0.0
  0
LINE
  5
1e4
100
AcDbEntity
  8
Schnittkanten
 62
1
100
AcDbLine
 10
1285.175707
 20
1488.636014
 30
0.0
 11
1283.287266
 21
1488.636014
 31
0.0
  0
LINE
  5
1e5
100
AcDbEntity
  8
Schnittkanten
 62
1
100
AcDbLine
 10
1108.792403
 20
1228.971161
 30
0.0
 11
1108.792403
 21
1223.305696
 31
0.0
  0
LINE
  5
1e6
100
AcDbEntity
  8
Schnittkanten
 62
1
100
AcDbLine
 10
1160.347663
 20
1228.971161
 30
0.0
 11
1160.347663
 21
1223.305696
 31
0.0
  0
LINE
  5
1e7
100
AcDbEntity
  8
Schnittkanten
 62
1
100
AcDbLine
 10
1974.845934
 20
1228.971161
 30
0.0
 11
1974.845934
 21
1223.305696
 31
0.0
  0
LINE
  5
1e8
100
AcDbEntity
  8
Schnittkanten
 62
1
100
AcDbLine
 10
1936.698690
 20
1223.305696
 30
0.0
 11
1894.208202
 21
1223.305696
 31
0.0
  0
LINE
  5
1e9
100
AcDbEntity
  8
Schnittkanten
 62
1
100
AcDbLine
 10
1936.698690
 20
1223.305696
 30
0.0
 11
1936.698690
 21
1228.971161
 31
0.0
  0
LINE
  5
1ea
100
AcDbEntity
  8
Schnittkanten
 62
1
100
AcDbLine
 10
1741.430721
 20
1228.971161
 30
0.0
 11
1741.430721
 21
1223.305696
 31
0.0
  0
LINE
  5
1eb
100
AcDbEntity
  8
Schnittkanten
 62
1
100
AcDbLine
 10
1826.789556
 20
1223.305696
 30
0.0
 11
1826.789556
 21
1228.971161
 31
0.0
  0
LINE
  5
1ec
100
AcDbEntity
  8
Schnittkanten
 62
1
100
AcDbLine
 10
1553.527729
 20
1228.971161
 30
0.0
 11
1553.527729
 21
1223.305696
 31
0.0
  0
LINE
  5
1ed
100
AcDbEntity
  8
Schnittkanten
 62
1
100
AcDbLine
 10
1638.886564
 20
1223.305696
 30
0.0
 11
1638.886564
 21
1228.971161
 31
0.0
  0
LINE
  5
1ee
100
AcDbEntity
  8
Schnittkanten
 62
1
100
AcDbLine
 10
1399.617241
 20
1228.971161
 30
0.0
 11
1399.617241
 21
1223.305696
 31
0.0
  0
LINE
  5
1ef
100
AcDbEntity
  8
Schnittkanten
 62
1
100
AcDbLine
 10
1437.764202
 20
1223.305696
 30
0.0
 11
1437.764202
 21
1228.971161
 31
0.0
  0
LINE
  5
1f0
100
AcDbEntity
  8
Schnittkanten
 62
1
100
AcDbLine
 10
1299.528085
 20
1228.971161
 30
0.0
 11
1342.396460
 21
1228.971161
 31
0.0
  0
LINE
  5
1f1
100
AcDbEntity
  8
Schnittkanten
 62
1
100
AcDbLine
 10
1257.037483
 20
1223.305696
 30
0.0
 11
1257.037483
 21
1228.971161
 31
0.0
  0
LINE
  5
1f2
100
AcDbEntity
  8
Schnittkanten
 62
1
100
AcDbLine
 10
1346.739959
 20
1366.451929
 30
0.0
 11
1271.200989
 21
1366.451929
 31
0.0
  0
LINE
  5
1f3
100
AcDbEntity
  8
Schnittkanten
 62
1
100
AcDbLine
 10
1271.200989
 20
1366.451929
 30
0.0
 11
1271.200989
 21
1364.563432
 31
0.0
  0
LINE
  5
1f4
100
AcDbEntity
  8
Schnittkanten
 62
1
100
AcDbLine
 10
1271.200989
 20
1364.563432
 30
0.0
 11
1346.739959
 21
1364.563432
 31
0.0
  0
LINE
  5
1f5
100
AcDbEntity
  8
Schnittkanten
 62
1
100
AcDbLine
 10
1209.825723
 20
1326.793961
 30
0.0
 11
1313.313931
 21
1326.793961
 31
0.0
  0
LINE
  5
1f6
100
AcDbEntity
  8
Schnittkanten
 62
1
100
AcDbLine
 10
1313.313931
 20
1319.240084
 30
0.0
 11
1209.825723
 21
1319.240084
 31
0.0
  0
LINE
  5
1f7
100
AcDbEntity
  8
Schnittkanten
 62
1
100
AcDbLine
 10
1313.313931
 20
1319.240084
 30
0.0
 11
1313.313931
 21
1326.793961
 31
0.0
  0
LINE
  5
1f8
100
AcDbEntity
  8
Schnittkanten
 62
1
100
AcDbLine
 10
1299.528085
 20
1228.971161
 30
0.0
 11
1299.528085
 21
1223.305696
 31
0.0
  0
LINE
  5
1f9
100
AcDbEntity
  8
Schnittkanten
 62
1
100
AcDbLine
 10
1070.645301
 20
1366.451929
 30
0.0
 11
1146.184157
 21
1366.451929
 31
0.0
  0
LINE
  5
1fa
100
AcDbEntity
  8
Schnittkanten
 62
1
100
AcDbLine
 10
1198.494879
 20
1326.793961
 30
0.0
 11
1095.006557
 21
1326.793961
 31
0.0
  0
LINE
  5
1fb
100
AcDbEntity
  8
Schnittkanten
 62
1
100
AcDbLine
 10
1095.006557
 20
1319.240084
 30
0.0
 11
1198.494879
 21
1319.240084
 31
0.0
  0
LINE
  5
1fc
100
AcDbEntity
  8
Schnittkanten
 62
1
100
AcDbLine
 10
1070.645301
 20
1366.451929
 30
0.0
 11
1146.184157
 21
1366.451929
 31
0.0
  0
LINE
  5
1fd
100
AcDbEntity
  8
Schnittkanten
 62
1
100
AcDbLine
 10
1146.184157
 20
1366.451929
 30
0.0
 11
1146.184157
 21
1364.563432
 31
0.0
  0
LINE
  5
1fe
100
AcDbEntity
  8
Schnittkanten
 62
1
100
AcDbLine
 10
1146.184157
 20
1364.563432
 30
0.0
 11
1070.645301
 21
1364.563432
 31
0.0
  0
LINE
  5
1ff
100
AcDbEntity
  8
Schnittkanten
 62
1
100
AcDbLine
 10
1095.006557
 20
1326.793961
 30
0.0
 11
1095.006557
 21
1319.240084
 31
0.0
  0
LINE
  5
200
100
AcDbEntity
  8
Schnittkanten
 62
1
100
AcDbLine
 10
1064.979808
 20
1694.007482
 30
0.0
 11
1026.266173
 21
1694.007482
 31
0.0
  0
LINE
  5
201
100
AcDbEntity
  8
Schnittkanten
 62
1
100
AcDbLine
 10
791.340265
 20
1694.007482
 30
0.0
 11
739.407203
 21
1694.007482
 31
0.0
  0
LINE
  5
202
100
AcDbEntity
  8
Schnittkanten
 62
1
100
AcDbLine
 10
655.559036
 20
1694.007482
 30
0.0
 11
594.183657
 21
1694.007482
 31
0.0
  0
LINE
  5
203
100
AcDbEntity
  8
Schnittkanten
 62
1
100
AcDbLine
 10
522.988271
 20
1694.007482
 30
0.0
 11
508.824680
 21
1694.007482
 31
0.0
  0
LINE
  5
204
100
AcDbEntity
  8
Schnittkanten
 62
1
100
AcDbLine
 10
508.824680
 20
1223.305696
 30
0.0
 11
571.144365
 21
1223.305696
 31
0.0
  0
LINE
  5
205
100
AcDbEntity
  8
Schnittkanten
 62
1
100
AcDbLine
 10
661.224501
 20
1223.305696
 30
0.0
 11
715.990167
 21
1223.305696
 31
0.0
  0
LINE
  5
206
100
AcDbEntity
  8
Schnittkanten
 62
1
100
AcDbLine
 10
791.906712
 20
1223.305696
 30
0.0
 11
843.839717
 21
1223.305696
 31
0.0
  0
LINE
  5
207
100
AcDbEntity
  8
Schnittkanten
 62
1
100
AcDbLine
 10
881.986819
 20
1223.305696
 30
0.0
 11
889.540724
 21
1223.305696
 31
0.0
  0
LINE
  5
208
100
AcDbEntity
  8
Schnittkanten
 62
1
100
AcDbLine
 10
927.687940
 20
1223.305696
 30
0.0
 11
993.784450
 21
1223.305696
 31
0.0
  0
LINE
  5
209
100
AcDbEntity
  8
Schnittkanten
 62
1
100
AcDbLine
 10
1064.979808
 20
1688.342018
 30
0.0
 11
1026.266173
 21
1688.342018
 31
0.0
  0
LINE
  5
20a
100
AcDbEntity
  8
Schnittkanten
 62
1
100
AcDbLine
 10
936.186066
 20
1688.342018
 30
0.0
 11
881.420372
 21
1688.342018
 31
0.0
  0
LINE
  5
20b
100
AcDbEntity
  8
Schnittkanten
 62
1
100
AcDbLine
 10
791.340265
 20
1688.342018
 30
0.0
 11
739.407203
 21
1688.342018
 31
0.0
  0
LINE
  5
20c
100
AcDbEntity
  8
Schnittkanten
 62
1
100
AcDbLine
 10
701.260101
 20
1688.342018
 30
0.0
 11
693.706195
 21
1688.342018
 31
0.0
  0
LINE
  5
20d
100
AcDbEntity
  8
Schnittkanten
 62
1
100
AcDbLine
 10
655.559036
 20
1688.342018
 30
0.0
 11
594.183657
 21
1688.342018
 31
0.0
  0
LINE
  5
20e
100
AcDbEntity
  8
Schnittkanten
 62
1
100
AcDbLine
 10
993.784450
 20
1228.971161
 30
0.0
 11
927.687940
 21
1228.971161
 31
0.0
  0
LINE
  5
20f
100
AcDbEntity
  8
Schnittkanten
 62
1
100
AcDbLine
 10
889.540724
 20
1228.971161
 30
0.0
 11
881.986819
 21
1228.971161
 31
0.0
  0
LINE
  5
210
100
AcDbEntity
  8
Schnittkanten
 62
1
100
AcDbLine
 10
843.839717
 20
1228.971161
 30
0.0
 11
791.906712
 21
1228.971161
 31
0.0
  0
LINE
  5
211
100
AcDbEntity
  8
Schnittkanten
 62
1
100
AcDbLine
 10
715.990167
 20
1228.971161
 30
0.0
 11
661.224501
 21
1228.971161
 31
0.0
  0
LINE
  5
212
100
AcDbEntity
  8
Schnittkanten
 62
1
100
AcDbLine
 10
571.144365
 20
1228.971161
 30
0.0
 11
508.824680
 21
1228.971161
 31
0.0
  0
LINE
  5
213
100
AcDbEntity
  8
Schnittkanten
 62
1
100
AcDbLine
 10
993.784450
 20
1228.971161
 30
0.0
 11
993.784450
 21
1223.305696
 31
0.0
  0
LINE
  5
214
100
AcDbEntity
  8
Schnittkanten
 62
1
100
AcDbLine
 10
927.687940
 20
1228.971161
 30
0.0
 11
927.687940
 21
1223.305696
 31
0.0
  0
LINE
  5
215
100
AcDbEntity
  8
Schnittkanten
 62
1
100
AcDbLine
 10
889.540724
 20
1223.305696
 30
0.0
 11
889.540724
 21
1228.971161
 31
0.0
  0
LINE
  5
216
100
AcDbEntity
  8
Schnittkanten
 62
1
100
AcDbLine
 10
881.986819
 20
1223.305696
 30
0.0
 11
881.986819
 21
1228.971161
 31
0.0
  0
LINE
  5
217
100
AcDbEntity
  8
Schnittkanten
 62
1
100
AcDbLine
 10
843.839717
 20
1228.971161
 30
0.0
 11
843.839717
 21
1223.305696
 31
0.0
  0
LINE
  5
218
100
AcDbEntity
  8
Schnittkanten
 62
1
100
AcDbLine
 10
791.906712
 20
1223.305696
 30
0.0
 11
791.906712
 21
1228.971161
 31
0.0
  0
LINE
  5
219
100
AcDbEntity
  8
Schnittkanten
 62
1
100
AcDbLine
 10
715.990167
 20
1228.971161
 30
0.0
 11
715.990167
 21
1223.305696
 31
0.0
  0
LINE
  5
21a
100
AcDbEntity
  8
Schnittkanten
 62
1
100
AcDbLine
 10
661.224501
 20
1228.971161
 30
0.0
 11
661.224501
 21
1223.305696
 31
0.0
  0
LINE
  5
21b
100
AcDbEntity
  8
Schnittkanten
 62
1
100
AcDbLine
 10
571.144365
 20
1223.305696
 30
0.0
 11
571.144365
 21
1228.971161
 31
0.0
  0
LINE
  5
21c
100
AcDbEntity
  8
Schnittkanten
 62
1
100
AcDbLine
 10
522.988271
 20
1688.342018
 30
0.0
 11
522.988271
 21
1694.007482
 31
0.0
  0
LINE
  5
21d
100
AcDbEntity
  8
Schnittkanten
 62
1
100
AcDbLine
 10
594.183657
 20
1694.007482
 30
0.0
 11
594.183657
 21
1688.342018
 31
0.0
  0
LINE
  5
21e
100
AcDbEntity
  8
Schnittkanten
 62
1
100
AcDbLine
 10
655.559036
 20
1694.007482
 30
0.0
 11
655.559036
 21
1688.342018
 31
0.0
  0
LINE
  5
21f
100
AcDbEntity
  8
Schnittkanten
 62
1
100
AcDbLine
 10
693.706195
 20
1694.007482
 30
0.0
 11
693.706195
 21
1688.342018
 31
0.0
  0
LINE
  5
220
100
AcDbEntity
  8
Schnittkanten
 62
1
100
AcDbLine
 10
701.260101
 20
1694.007482
 30
0.0
 11
701.260101
 21
1688.342018
 31
0.0
  0
LINE
  5
221
100
AcDbEntity
  8
Schnittkanten
 62
1
100
AcDbLine
 10
739.407203
 20
1688.342018
 30
0.0
 11
739.407203
 21
1694.007482
 31
0.0
  0
LINE
  5
222
100
AcDbEntity
  8
Schnittkanten
 62
1
100
AcDbLine
 10
791.340265
 20
1694.007482
 30
0.0
 11
791.340265
 21
1688.342018
 31
0.0
  0
LINE
  5
223
100
AcDbEntity
  8
Schnittkanten
 62
1
100
AcDbLine
 10
881.420372
 20
1688.342018
 30
0.0
 11
881.420372
 21
1694.007482
 31
0.0
  0
LINE
  5
224
100
AcDbEntity
  8
Schnittkanten
 62
1
100
AcDbLine
 10
936.186066
 20
1694.007482
 30
0.0
 11
936.186066
 21
1688.342018
 31
0.0
  0
LINE
  5
225
100
AcDbEntity
  8
Schnittkanten
 62
1
100
AcDbLine
 10
1026.266173
 20
1694.007482
 30
0.0
 11
1026.266173
 21
1688.342018
 31
0.0
  0
LINE
  5
226
100
AcDbEntity
  8
Schnittkanten
 62
1
100
AcDbLine
 10
1600.361745
 20
1411.775277
 30
0.0
 11
1693.274627
 21
1411.775277
 31
0.0
  0
LINE
  5
227
100
AcDbEntity
  8
Schnittkanten
 62
1
100
AcDbLine
 10
1698.939950
 20
1411.775277
 30
0.0
 11
1756.160674
 21
1411.775277
 31
0.0
  0
LINE
  5
228
100
AcDbEntity
  8
Schnittkanten
 62
1
100
AcDbLine
 10
1789.586816
 20
1411.775277
 30
0.0
 11
1883.066060
 21
1411.775277
 31
0.0
  0
LINE
  5
229
100
AcDbEntity
  8
Schnittkanten
 62
1
100
AcDbLine
 10
1888.731383
 20
1411.775277
 30
0.0
 11
1935.943257
 21
1411.775277
 31
0.0
  0
LINE
  5
22a
100
AcDbEntity
  8
Schnittkanten
 62
1
100
AcDbLine
 10
1969.369115
 20
1411.775277
 30
0.0
 11
2012.615320
 21
1411.775277
 31
0.0
  0
LINE
  5
22b
100
AcDbEntity
  8
Schnittkanten
 62
1
100
AcDbLine
 10
1888.731383
 20
1228.971161
 30
0.0
 11
1936.698690
 21
1228.971161
 31
0.0
  0
LINE
  5
22c
100
AcDbEntity
  8
Schnittkanten
 62
1
100
AcDbLine
 10
1693.274627
 20
1228.971161
 30
0.0
 11
1638.886564
 21
1228.971161
 31
0.0
  0
LINE
  5
22d
100
AcDbEntity
  8
Schnittkanten
 62
1
100
AcDbLine
 10
1698.939950
 20
1228.971161
 30
0.0
 11
1741.430721
 21
1228.971161
 31
0.0
  0
LINE
  5
22e
100
AcDbEntity
  8
Schnittkanten
 62
1
100
AcDbLine
 10
1160.347663
 20
1228.971161
 30
0.0
 11
1198.494879
 21
1228.971161
 31
0.0
  0
LINE
  5
22f
100
AcDbEntity
  8
Schnittkanten
 62
1
100
AcDbLine
 10
1209.825723
 20
1228.971161
 30
0.0
 11
1257.037483
 21
1228.971161
 31
0.0
  0
LINE
  5
230
100
AcDbEntity
  8
Schnittkanten
 62
1
100
AcDbLine
 10
1113.513562
 20
1688.342018
 30
0.0
 11
1156.004192
 21
1688.342018
 31
0.0
  0
LINE
  5
231
100
AcDbEntity
  8
Schnittkanten
 62
1
100
AcDbLine
 10
1115.968649
 20
1503.743854
 30
0.0
 11
1070.645301
 21
1503.743854
 31
0.0
  0
LINE
  5
232
100
AcDbEntity
  8
Schnittkanten
 62
1
100
AcDbLine
 10
1149.394564
 20
1503.743854
 30
0.0
 11
1156.004192
 21
1503.743854
 31
0.0
  0
LINE
  5
233
100
AcDbEntity
  8
Schnittkanten
 62
1
100
AcDbLine
 10
1161.669657
 20
1503.743854
 30
0.0
 11
1205.671011
 21
1503.743854
 31
0.0
  0
LINE
  5
234
100
AcDbEntity
  8
Schnittkanten
 62
1
100
AcDbLine
 10
1239.097039
 20
1503.743854
 30
0.0
 11
1250.453537
 21
1503.749523
 31
0.0
  0
LINE
  5
235
100
AcDbEntity
  8
Schnittkanten
 62
1
100
AcDbLine
 10
1256.119030
 20
1503.743854
 30
0.0
 11
1295.751146
 21
1503.743854
 31
0.0
  0
LINE
  5
236
100
AcDbEntity
  8
Schnittkanten
 62
1
100
AcDbLine
 10
1239.097039
 20
1498.078446
 30
0.0
 11
1283.287266
 21
1498.078446
 31
0.0
  0
LINE
  5
237
100
AcDbEntity
  8
Schnittkanten
 62
1
100
AcDbLine
 10
1285.175707
 20
1498.078446
 30
0.0
 11
1295.751146
 21
1498.078446
 31
0.0
  0
LINE
  5
238
100
AcDbEntity
  8
Schnittkanten
 62
1
100
AcDbLine
 10
1329.177175
 20
1503.743854
 30
0.0
 11
1345.254831
 21
1503.743854
 31
0.0
  0
LINE
  5
239
100
AcDbEntity
  8
Schnittkanten
 62
1
100
AcDbLine
 10
1350.920296
 20
1503.743854
 30
0.0
 11
1385.831225
 21
1503.743854
 31
0.0
  0
LINE
  5
23a
100
AcDbEntity
  8
Schnittkanten
 62
1
100
AcDbLine
 10
1419.257367
 20
1503.743854
 30
0.0
 11
1440.056296
 21
1503.743854
 31
0.0
  0
LINE
  5
23b
100
AcDbEntity
  8
Schnittkanten
 62
1
100
AcDbLine
 10
1445.721619
 20
1503.743854
 30
0.0
 11
1480.632548
 21
1503.743854
 31
0.0
  0
LINE
  5
23c
100
AcDbEntity
  8
Schnittkanten
 62
1
100
AcDbLine
 10
1534.857619
 20
1503.743854
 30
0.0
 11
1514.058690
 21
1503.743854
 31
0.0
  0
LINE
  5
23d
100
AcDbEntity
  8
Schnittkanten
 62
1
100
AcDbLine
 10
1540.522942
 20
1503.743854
 30
0.0
 11
1575.433871
 21
1503.743854
 31
0.0
  0
LINE
  5
23e
100
AcDbEntity
  8
Schnittkanten
 62
1
100
AcDbLine
 10
1608.860013
 20
1503.743854
 30
0.0
 11
1629.658942
 21
1503.743854
 31
0.0
  0
LINE
  5
23f
100
AcDbEntity
  8
Schnittkanten
 62
1
100
AcDbLine
 10
1919.702438
 20
1503.743854
 30
0.0
 11
2012.615320
 21
1503.743854
 31
0.0
  0
LINE
  5
240
100
AcDbEntity
  8
Schnittkanten
 62
1
100
AcDbLine
 10
1250.453537
 20
1688.342018
 30
0.0
 11
1204.537918
 21
1688.342018
 31
0.0
  0
LINE
  5
241
100
AcDbEntity
  8
Schnittkanten
 62
1
100
AcDbLine
 10
1070.645301
 20
1694.007482
 30
0.0
 11
1075.366460
 21
1694.007482
 31
0.0
  0
LINE
  5
242
100
AcDbEntity
  8
Schnittkanten
 62
1
100
AcDbLine
 10
1075.366460
 20
1688.342018
 30
0.0
 11
1075.366460
 21
1694.007482
 31
0.0
  0
LINE
  5
243
100
AcDbEntity
  8
Schnittkanten
 62
1
100
AcDbLine
 10
1113.513562
 20
1688.342018
 30
0.0
 11
1113.513562
 21
1694.007482
 31
0.0
  0
LINE
  5
244
100
AcDbEntity
  8
Schnittkanten
 62
1
100
AcDbLine
 10
1161.669657
 20
1694.007482
 30
0.0
 11
1166.390787
 21
1694.007482
 31
0.0
  0
LINE
  5
245
100
AcDbEntity
  8
Schnittkanten
 62
1
100
AcDbLine
 10
1166.390787
 20
1694.007482
 30
0.0
 11
1166.390787
 21
1688.342018
 31
0.0
  0
LINE
  5
246
100
AcDbEntity
  8
Schnittkanten
 62
1
100
AcDbLine
 10
1204.537918
 20
1688.342018
 30
0.0
 11
1204.537918
 21
1694.007482
 31
0.0
  0
LINE
  5
247
100
AcDbEntity
  8
Schnittkanten
 62
1
100
AcDbLine
 10
1204.537918
 20
1694.007482
 30
0.0
 11
1256.119030
 21
1694.007482
 31
0.0
  0
LINE
  5
248
100
AcDbEntity
  8
Schnittkanten
 62
1
100
AcDbLine
 10
1166.390787
 20
1688.342018
 30
0.0
 11
1161.669657
 21
1688.342018
 31
0.0
  0
LINE
  5
249
100
AcDbEntity
  8
Schnittkanten
 62
1
100
AcDbLine
 10
1256.119030
 20
1694.007482
 30
0.0
 11
1260.840189
 21
1694.007482
 31
0.0
  0
LINE
  5
24a
100
AcDbEntity
  8
Schnittkanten
 62
1
100
AcDbLine
 10
1260.840189
 20
1694.007482
 30
0.0
 11
1260.840189
 21
1688.342018
 31
0.0
  0
LINE
  5
24b
100
AcDbEntity
  8
Schnittkanten
 62
1
100
AcDbLine
 10
1298.987263
 20
1688.342018
 30
0.0
 11
1298.987263
 21
1694.007482
 31
0.0
  0
LINE
  5
24c
100
AcDbEntity
  8
Schnittkanten
 62
1
100
AcDbLine
 10
1260.840189
 20
1688.342018
 30
0.0
 11
1256.119030
 21
1688.342018
 31
0.0
  0
LINE
  5
24d
100
AcDbEntity
  8
Schnittkanten
 62
1
100
AcDbLine
 10
1298.987263
 20
1688.342018
 30
0.0
 11
1345.254831
 21
1688.342018
 31
0.0
  0
LINE
  5
24e
100
AcDbEntity
  8
Schnittkanten
 62
1
100
AcDbLine
 10
1350.920296
 20
1688.342018
 30
0.0
 11
1355.641483
 21
1688.342018
 31
0.0
  0
LINE
  5
24f
100
AcDbEntity
  8
Schnittkanten
 62
1
100
AcDbLine
 10
1355.641483
 20
1688.342018
 30
0.0
 11
1355.641483
 21
1694.007482
 31
0.0
  0
LINE
  5
250
100
AcDbEntity
  8
Schnittkanten
 62
1
100
AcDbLine
 10
1393.788643
 20
1694.007482
 30
0.0
 11
1393.788643
 21
1688.342018
 31
0.0
  0
LINE
  5
251
100
AcDbEntity
  8
Schnittkanten
 62
1
100
AcDbLine
 10
1445.721619
 20
1688.342018
 30
0.0
 11
1450.442721
 21
1688.342018
 31
0.0
  0
LINE
  5
252
100
AcDbEntity
  8
Schnittkanten
 62
1
100
AcDbLine
 10
1450.442721
 20
1688.342018
 30
0.0
 11
1450.442721
 21
1694.007482
 31
0.0
  0
LINE
  5
253
100
AcDbEntity
  8
Schnittkanten
 62
1
100
AcDbLine
 10
1540.522942
 20
1688.342018
 30
0.0
 11
1545.244044
 21
1688.342018
 31
0.0
  0
LINE
  5
254
100
AcDbEntity
  8
Schnittkanten
 62
1
100
AcDbLine
 10
1545.244044
 20
1688.342018
 30
0.0
 11
1545.244044
 21
1694.007482
 31
0.0
  0
LINE
  5
255
100
AcDbEntity
  8
Schnittkanten
 62
1
100
AcDbLine
 10
1583.391288
 20
1694.007482
 30
0.0
 11
1583.391288
 21
1688.342018
 31
0.0
  0
LINE
  5
256
100
AcDbEntity
  8
Schnittkanten
 62
1
100
AcDbLine
 10
1635.298469
 20
1688.342018
 30
0.0
 11
1640.019855
 21
1688.342018
 31
0.0
  0
LINE
  5
257
100
AcDbEntity
  8
Schnittkanten
 62
1
100
AcDbLine
 10
1640.019855
 20
1688.342018
 30
0.0
 11
1640.019855
 21
1694.007482
 31
0.0
  0
LINE
  5
258
100
AcDbEntity
  8
Schnittkanten
 62
1
100
AcDbLine
 10
1678.166816
 20
1694.007482
 30
0.0
 11
1678.166816
 21
1688.342018
 31
0.0
  0
LINE
  5
259
100
AcDbEntity
  8
Schnittkanten
 62
1
100
AcDbLine
 10
1734.820894
 20
1694.007482
 30
0.0
 11
1734.820894
 21
1688.342018
 31
0.0
  0
LINE
  5
25a
100
AcDbEntity
  8
Schnittkanten
 62
1
100
AcDbLine
 10
1772.968139
 20
1688.342018
 30
0.0
 11
1772.968139
 21
1694.007482
 31
0.0
  0
LINE
  5
25b
100
AcDbEntity
  8
Schnittkanten
 62
1
100
AcDbLine
 10
1829.622217
 20
1694.007482
 30
0.0
 11
1829.622217
 21
1688.342018
 31
0.0
  0
LINE
  5
25c
100
AcDbEntity
  8
Schnittkanten
 62
1
100
AcDbLine
 10
1867.769461
 20
1688.342018
 30
0.0
 11
1867.769461
 21
1694.007482
 31
0.0
  0
LINE
  5
25d
100
AcDbEntity
  8
Schnittkanten
 62
1
100
AcDbLine
 10
1919.702438
 20
1688.342018
 30
0.0
 11
1924.423540
 21
1688.342018
 31
0.0
  0
LINE
  5
25e
100
AcDbEntity
  8
Schnittkanten
 62
1
100
AcDbLine
 10
1924.423540
 20
1688.342018
 30
0.0
 11
1924.423540
 21
1694.007482
 31
0.0
  0
LINE
  5
25f
100
AcDbEntity
  8
Schnittkanten
 62
1
100
AcDbLine
 10
1962.570784
 20
1694.007482
 30
0.0
 11
1962.570784
 21
1688.342018
 31
0.0
  0
LINE
  5
260
100
AcDbEntity
  8
Schnittkanten
 62
1
100
AcDbLine
 10
1298.987263
 20
1694.007482
 30
0.0
 11
1355.641483
 21
1694.007482
 31
0.0
  0
LINE
  5
261
100
AcDbEntity
  8
Schnittkanten
 62
1
100
AcDbLine
 10
1393.788643
 20
1694.007482
 30
0.0
 11
1450.442721
 21
1694.007482
 31
0.0
  0
LINE
  5
262
100
AcDbEntity
  8
Schnittkanten
 62
1
100
AcDbLine
 10
1440.056296
 20
1688.342018
 30
0.0
 11
1393.788643
 21
1688.342018
 31
0.0
  0
LINE
  5
263
100
AcDbEntity
  8
Schnittkanten
 62
1
100
AcDbLine
 10
1583.391288
 20
1694.007482
 30
0.0
 11
1640.019855
 21
1694.007482
 31
0.0
  0
LINE
  5
264
100
AcDbEntity
  8
Schnittkanten
 62
1
100
AcDbLine
 10
1678.166816
 20
1694.007482
 30
0.0
 11
1734.820894
 21
1694.007482
 31
0.0
  0
LINE
  5
265
100
AcDbEntity
  8
Schnittkanten
 62
1
100
AcDbLine
 10
1772.968139
 20
1694.007482
 30
0.0
 11
1829.622217
 21
1694.007482
 31
0.0
  0
LINE
  5
266
100
AcDbEntity
  8
Schnittkanten
 62
1
100
AcDbLine
 10
1724.434469
 20
1688.342018
 30
0.0
 11
1678.166816
 21
1688.342018
 31
0.0
  0
LINE
  5
267
100
AcDbEntity
  8
Schnittkanten
 62
1
100
AcDbLine
 10
1629.658942
 20
1688.342018
 30
0.0
 11
1583.391288
 21
1688.342018
 31
0.0
  0
LINE
  5
268
100
AcDbEntity
  8
Schnittkanten
 62
1
100
AcDbLine
 10
1534.857619
 20
1688.342018
 30
0.0
 11
1488.589965
 21
1688.342018
 31
0.0
  0
LINE
  5
269
100
AcDbEntity
  8
Schnittkanten
 62
1
100
AcDbLine
 10
1730.099792
 20
1688.342018
 30
0.0
 11
1734.820894
 21
1688.342018
 31
0.0
  0
LINE
  5
26a
100
AcDbEntity
  8
Schnittkanten
 62
1
100
AcDbLine
 10
1824.901115
 20
1688.342018
 30
0.0
 11
1829.622217
 21
1688.342018
 31
0.0
  0
LINE
  5
26b
100
AcDbEntity
  8
Schnittkanten
 62
1
100
AcDbLine
 10
1867.769461
 20
1688.342018
 30
0.0
 11
1914.037115
 21
1688.342018
 31
0.0
  0
LINE
  5
26c
100
AcDbEntity
  8
Schnittkanten
 62
1
100
AcDbLine
 10
1867.769461
 20
1694.007482
 30
0.0
 11
1924.423540
 21
1694.007482
 31
0.0
  0
LINE
  5
26d
100
AcDbEntity
  8
Schnittkanten
 62
1
100
AcDbLine
 10
1962.570784
 20
1694.007482
 30
0.0
 11
2018.280643
 21
1694.007482
 31
0.0
  0
LINE
  5
26e
100
AcDbEntity
  8
Schnittkanten
 62
1
100
AcDbLine
 10
1962.570784
 20
1688.342018
 30
0.0
 11
2012.615320
 21
1688.342018
 31
0.0
  0
LINE
  5
26f
100
AcDbEntity
  8
Schnittkanten
 62
1
100
AcDbLine
 10
2012.615320
 20
1493.357287
 30
0.0
 11
2018.280643
 21
1493.357287
 31
0.0
  0
LINE
  5
270
100
AcDbEntity
  8
Schnittkanten
 62
1
100
AcDbLine
 10
2018.280643
 20
1422.161816
 30
0.0
 11
2012.615320
 21
1422.161816
 31
0.0
  0
LINE
  5
271
100
AcDbEntity
  8
Schnittkanten
 62
1
100
AcDbLine
 10
2018.280643
 20
1493.357287
 30
0.0
 11
2018.280643
 21
1498.078446
 31
0.0
  0
LINE
  5
272
100
AcDbEntity
  8
Schnittkanten
 62
1
100
AcDbLine
 10
2012.615320
 20
1493.357287
 30
0.0
 11
2012.615320
 21
1498.078446
 31
0.0
  0
LINE
  5
273
100
AcDbEntity
  8
Schnittkanten
 62
1
100
AcDbLine
 10
2012.615320
 20
1422.161816
 30
0.0
 11
2012.615320
 21
1417.440657
 31
0.0
  0
LINE
  5
274
100
AcDbEntity
  8
Schnittkanten
 62
1
100
AcDbLine
 10
2018.280643
 20
1422.161816
 30
0.0
 11
2018.280643
 21
1417.440657
 31
0.0
  0
LINE
  5
275
100
AcDbEntity
  8
Schnittkanten
 62
1
100
AcDbLine
 10
2012.615320
 20
1417.440657
 30
0.0
 11
1969.369115
 21
1417.440657
 31
0.0
  0
LINE
  5
276
100
AcDbEntity
  8
Schnittkanten
 62
1
100
AcDbLine
 10
2012.615320
 20
1498.078446
 30
0.0
 11
1862.103855
 21
1498.078446
 31
0.0
  0
LINE
  5
277
100
AcDbEntity
  8
Schnittkanten
 62
1
100
AcDbLine
 10
1488.589965
 20
1688.342018
 30
0.0
 11
1488.589965
 21
1694.007482
 31
0.0
  0
LINE
  5
278
100
AcDbEntity
  8
Schnittkanten
 62
1
100
AcDbLine
 10
1488.703351
 20
1694.007482
 30
0.0
 11
1545.244044
 21
1694.007482
 31
0.0
  0
LINE
  5
279
100
AcDbEntity
  8
Schnittkanten
 62
1
100
AcDbLine
 10
1064.979808
 20
1417.440657
 30
0.0
 11
1064.979808
 21
1422.161816
 31
0.0
  0
LINE
  5
27a
100
AcDbEntity
  8
Schnittkanten
 62
1
100
AcDbLine
 10
1070.645301
 20
1422.161816
 30
0.0
 11
1070.645301
 21
1417.440657
 31
0.0
  0
LINE
  5
27b
100
AcDbEntity
  8
Schnittkanten
 62
1
100
AcDbLine
 10
1064.979808
 20
1498.078446
 30
0.0
 11
1064.979808
 21
1493.357287
 31
0.0
  0
LINE
  5
27c
100
AcDbEntity
  8
Schnittkanten
 62
1
100
AcDbLine
 10
1070.645301
 20
1493.357287
 30
0.0
 11
1070.645301
 21
1498.007892
 31
0.0
  0
LINE
  5
27d
100
AcDbEntity
  8
Schnittkanten
 62
1
100
AcDbLine
 10
1115.968649
 20
1498.007892
 30
0.0
 11
1070.645301
 21
1498.007892
 31
0.0
  0
LINE
  5
27e
100
AcDbEntity
  8
Schnittkanten
 62
1
100
AcDbLine
 10
1064.979808
 20
1422.161816
 30
0.0
 11
1070.645301
 21
1422.161816
 31
0.0
  0
LINE
  5
27f
100
AcDbEntity
  8
Schnittkanten
 62
1
100
AcDbLine
 10
1064.979808
 20
1493.357287
 30
0.0
 11
1070.645301
 21
1493.357287
 31
0.0
  0
LINE
  5
280
100
AcDbEntity
  8
Schnittkanten
 62
1
100
AcDbLine
 10
508.824680
 20
1694.007482
 30
0.0
 11
508.824680
 21
1696.226358
 31
0.0
  0
LINE
  5
281
100
AcDbEntity
  8
Schnittkanten
 62
1
100
AcDbLine
 10
522.988271
 20
1688.342018
 30
0.0
 11
508.824680
 21
1688.342018
 31
0.0
  0
LINE
  5
282
100
AcDbEntity
  8
Schnittkanten
 62
1
100
AcDbLine
 10
693.706195
 20
1694.007482
 30
0.0
 11
701.260101
 21
1694.007482
 31
0.0
  0
LINE
  5
283
100
AcDbEntity
  8
Schnittkanten
 62
1
100
AcDbLine
 10
1075.366460
 20
1688.342018
 30
0.0
 11
1070.645301
 21
1688.342018
 31
0.0
  0
LINE
  5
284
100
AcDbEntity
  8
Schnittkanten
 62
1
100
AcDbLine
 10
2018.280643
 20
1694.007482
 30
0.0
 11
2018.280643
 21
1498.078446
 31
0.0
  0
LINE
  5
285
100
AcDbEntity
  8
Schnittkanten
 62
1
100
AcDbLine
 10
1862.103855
 20
1503.743854
 30
0.0
 11
1914.037115
 21
1503.743854
 31
0.0
  0
LINE
  5
286
100
AcDbEntity
  8
Schnittkanten
 62
1
100
AcDbLine
 10
1774.856580
 20
1503.743854
 30
0.0
 11
1819.235792
 21
1503.743854
 31
0.0
  0
LINE
  5
287
100
AcDbEntity
  8
Schnittkanten
 62
1
100
AcDbLine
 10
1703.661052
 20
1503.743854
 30
0.0
 11
1724.434469
 21
1503.743854
 31
0.0
  0
LINE
  5
288
100
AcDbEntity
  8
Schnittkanten
 62
1
100
AcDbLine
 10
1070.645301
 20
1417.440657
 30
0.0
 11
1165.068822
 21
1417.440657
 31
0.0
  0
LINE
  5
289
100
AcDbEntity
  8
Schnittkanten
 62
1
100
AcDbLine
 10
1070.645301
 20
1411.775277
 30
0.0
 11
1165.068822
 21
1411.775277
 31
0.0
  0
LINE
  5
28a
100
AcDbEntity
  8
Schnittkanten
 62
1
100
AcDbLine
 10
1198.494879
 20
1417.440657
 30
0.0
 11
1209.825723
 21
1417.440657
 31
0.0
  0
LINE
  5
28b
100
AcDbEntity
  8
Schnittkanten
 62
1
100
AcDbLine
 10
1826.789556
 20
1228.971161
 30
0.0
 11
1883.066060
 21
1228.971161
 31
0.0
  0
LINE
  5
28c
100
AcDbEntity
  8
Schnittkanten
 62
1
100
AcDbLine
 10
1299.528085
 20
1223.305696
 30
0.0
 11
1399.617241
 21
1223.305696
 31
0.0
  0
LINE
  5
28d
100
AcDbEntity
  8
Schnittkanten
 62
1
100
AcDbLine
 10
1914.037115
 20
1542.457488
 30
0.0
 11
1919.702438
 21
1542.457488
 31
0.0
  0
LINE
  5
28e
100
AcDbEntity
  8
Schnittkanten
 62
1
100
AcDbLine
 10
881.420372
 20
1694.007482
 30
0.0
 11
936.186066
 21
1694.007482
 31
0.0
  0
LINE
  5
28f
100
AcDbEntity
  8
Schnittkanten
 62
1
100
AcDbLine
 10
1285.175707
 20
1417.440657
 30
0.0
 11
1420.201587
 21
1417.440657
 31
0.0
  0
LINE
  5
290
100
AcDbEntity
  8
Schnittkanten
 62
1
100
AcDbLine
 10
1243.251638
 20
1411.775277
 30
0.0
 11
1346.739959
 21
1411.775277
 31
0.0
  0
LINE
  5
291
100
AcDbEntity
  8
Schnittkanten
 62
1
100
AcDbLine
 10
1772.968139
 20
1688.342018
 30
0.0
 11
1819.235792
 21
1688.342018
 31
0.0
  0
LINE
  5
292
100
AcDbEntity
  8
Schnittkanten
 62
1
100
AcDbLine
 10
1819.235792
 20
1688.342018
 30
0.0
 11
1819.235792
 21
1503.743854
 31
0.0
  0
LINE
  5
293
100
AcDbEntity
  8
Schnittkanten
 62
1
100
AcDbLine
 10
1070.645301
 20
1366.451929
 30
0.0
 11
1070.645301
 21
1411.775277
 31
0.0
  0
LINE
  5
294
100
AcDbEntity
  8
Schnittkanten
 62
1
100
AcDbLine
 10
1346.739959
 20
1366.451929
 30
0.0
 11
1346.739959
 21
1411.775277
 31
0.0
  0
LINE
  5
295
100
AcDbEntity
  8
Schnittkanten
 62
1
100
AcDbLine
 10
699.560476
 20
1243.323539
 30
0.0
 11
699.560476
 21
1228.971161
 31
0.0
  0
LINE
  5
296
100
AcDbEntity
  8
Schnittkanten
 62
1
100
AcDbLine
 10
695.783537
 20
1243.323539
 30
0.0
 11
695.783537
 21
1228.971161
 31
0.0
  0
LINE
  5
297
100
AcDbEntity
  8
Schnittkanten
 62
1
100
AcDbLine
 10
695.783537
 20
1243.323539
 30
0.0
 11
699.560476
 21
1243.323539
 31
0.0
  0
LINE
  5
298
100
AcDbEntity
  8
Schnittkanten
 62
1
100
AcDbLine
 10
888.407660
 20
1243.323539
 30
0.0
 11
888.407660
 21
1228.971161
 31
0.0
  0
LINE
  5
299
100
AcDbEntity
  8
Schnittkanten
 62
1
100
AcDbLine
 10
884.630778
 20
1243.323539
 30
0.0
 11
884.630778
 21
1228.971161
 31
0.0
  0
LINE
  5
29a
100
AcDbEntity
  8
Schnittkanten
 62
1
100
AcDbLine
 10
884.630778
 20
1243.323539
 30
0.0
 11
888.407660
 21
1243.323539
 31
0.0
  0
LINE
  5
29b
100
AcDbEntity
  8
Schnittkanten
 62
1
100
AcDbLine
 10
699.560476
 20
1688.342018
 30
0.0
 11
699.560476
 21
1673.989583
 31
0.0
  0
LINE
  5
29c
100
AcDbEntity
  8
Schnittkanten
 62
1
100
AcDbLine
 10
695.783537
 20
1673.989583
 30
0.0
 11
695.783537
 21
1688.342018
 31
0.0
  0
LINE
  5
29d
100
AcDbEntity
  8
Schnittkanten
 62
1
100
AcDbLine
 10
695.783537
 20
1673.989583
 30
0.0
 11
699.560476
 21
1673.989583
 31
0.0
  0
LINE
  5
29e
100
AcDbEntity
  8
Schnittkanten
 62
1
100
AcDbLine
 10
888.407660
 20
1688.342018
 30
0.0
 11
888.407660
 21
1673.989583
 31
0.0
  0
LINE
  5
29f
100
AcDbEntity
  8
Schnittkanten
 62
1
100
AcDbLine
 10
888.407660
 20
1673.989583
 30
0.0
 11
884.630778
 21
1673.989583
 31
0.0
  0
LINE
  5
2a0
100
AcDbEntity
  8
Schnittkanten
 62
1
100
AcDbLine
 10
884.630778
 20
1673.989583
 30
0.0
 11
884.630778
 21
1688.342018
 31
0.0
  0
LINE
  5
2a1
100
AcDbEntity
  8
Schnittkanten
 62
1
100
AcDbLine
 10
495.038863
 20
1221.086792
 30
0.0
 11
495.038863
 21
1212.022106
 31
0.0
  0
LINE
  5
2a2
100
AcDbEntity
  8
Schnittkanten
 62
1
100
AcDbLine
 10
495.038863
 20
1212.022106
 30
0.0
 11
508.824680
 21
1212.022106
 31
0.0
  0
LINE
  5
2a3
100
AcDbEntity
  8
Schnittkanten
 62
1
100
AcDbLine
 10
508.824680
 20
1212.022106
 30
0.0
 11
508.824680
 21
1221.086792
 31
0.0
  0
LINE
  5
2a4
100
AcDbEntity
  8
Schnittkanten
 62
1
100
AcDbLine
 10
495.038863
 20
1696.226358
 30
0.0
 11
495.038863
 21
1705.291016
 31
0.0
  0
LINE
  5
2a5
100
AcDbEntity
  8
Schnittkanten
 62
1
100
AcDbLine
 10
495.038863
 20
1705.291016
 30
0.0
 11
508.824680
 21
1705.291016
 31
0.0
  0
LINE
  5
2a6
100
AcDbEntity
  8
Schnittkanten
 62
1
100
AcDbLine
 10
508.824680
 20
1705.291016
 30
0.0
 11
508.824680
 21
1696.226358
 31
0.0
  0
LINE
  5
2a7
100
AcDbEntity
  8
Schnittkanten
 62
1
100
AcDbLine
 10
2012.615320
 20
1272.976314
 30
0.0
 11
2018.280643
 21
1272.976314
 31
0.0
  0
LINE
  5
2a8
100
AcDbEntity
  8
Schnittkanten
 62
1
100
AcDbLine
 10
2012.615320
 20
1311.123416
 30
0.0
 11
2018.280643
 21
1311.123416
 31
0.0
  0
LINE
  5
2a9
100
AcDbEntity
  8
Schnittkanten
 62
1
100
AcDbLine
 10
2018.280643
 20
1272.976314
 30
0.0
 11
2018.280643
 21
1228.971161
 31
0.0
  0
LINE
  5
2aa
100
AcDbEntity
  8
Schnittkanten
 62
1
100
AcDbLine
 10
2012.615320
 20
1311.123416
 30
0.0
 11
2012.615320
 21
1411.775277
 31
0.0
  0
LINE
  5
2ab
100
AcDbEntity
  8
Ansichtskanten
 62
5
100
AcDbLine
 10
465.389887
 20
1234.872610
 30
0.0
 11
419.688879
 21
1234.872610
 31
0.0
  0
LINE
  5
2ac
100
AcDbEntity
  8
Ansichtskanten
 62
5
100
AcDbLine
 10
465.389887
 20
1221.086792
 30
0.0
 11
419.688879
 21
1221.086792
 31
0.0
  0
LINE
  5
2ad
100
AcDbEntity
  8
Ansichtskanten
 62
5
100
AcDbLine
 10
378.142469
 20
1234.872610
 30
0.0
 11
332.441376
 21
1234.872610
 31
0.0
  0
LINE
  5
2ae
100
AcDbEntity
  8
Ansichtskanten
 62
5
100
AcDbLine
 10
378.142469
 20
1221.086792
 30
0.0
 11
332.441376
 21
1221.086792
 31
0.0
  0
LINE
  5
2af
100
AcDbEntity
  8
Ansichtskanten
 62
5
100
AcDbLine
 10
294.671962
 20
1234.872610
 30
0.0
 11
248.970944
 21
1234.872610
 31
0.0
  0
LINE
  5
2b0
100
AcDbEntity
  8
Ansichtskanten
 62
5
100
AcDbLine
 10
294.671962
 20
1221.086792
 30
0.0
 11
248.970944
 21
1221.086792
 31
0.0
  0
LINE
  5
2b1
100
AcDbEntity
  8
Ansichtskanten
 62
5
100
AcDbLine
 10
158.890808
 20
1234.872610
 30
0.0
 11
204.214156
 21
1234.872610
 31
0.0
  0
LINE
  5
2b2
100
AcDbEntity
  8
Ansichtskanten
 62
5
100
AcDbLine
 10
158.890808
 20
1221.086792
 30
0.0
 11
204.214156
 21
1221.086792
 31
0.0
  0
LINE
  5
2b3
100
AcDbEntity
  8
Ansichtskanten
 62
5
100
AcDbLine
 10
495.038863
 20
1248.658455
 30
0.0
 11
495.038863
 21
1297.003309
 31
0.0
  0
LINE
  5
2b4
100
AcDbEntity
  8
Ansichtskanten
 62
5
100
AcDbLine
 10
508.824680
 20
1248.658455
 30
0.0
 11
508.824680
 21
1297.003309
 31
0.0
  0
LINE
  5
2b5
100
AcDbEntity
  8
Ansichtskanten
 62
5
100
AcDbLine
 10
495.038863
 20
1297.003309
 30
0.0
 11
495.038863
 21
1365.366033
 31
0.0
  0
LINE
  5
2b6
100
AcDbEntity
  8
Ansichtskanten
 62
5
100
AcDbLine
 10
508.824680
 20
1297.003309
 30
0.0
 11
508.824680
 21
1365.366033
 31
0.0
  0
LINE
  5
2b7
100
AcDbEntity
  8
Ansichtskanten
 62
5
100
AcDbLine
 10
495.038863
 20
1668.654666
 30
0.0
 11
495.038863
 21
1620.309813
 31
0.0
  0
LINE
  5
2b8
100
AcDbEntity
  8
Ansichtskanten
 62
5
100
AcDbLine
 10
508.824680
 20
1668.654666
 30
0.0
 11
508.824680
 21
1620.309813
 31
0.0
  0
LINE
  5
2b9
100
AcDbEntity
  8
Ansichtskanten
 62
5
100
AcDbLine
 10
495.038863
 20
1620.309813
 30
0.0
 11
495.038863
 21
1551.947088
 31
0.0
  0
LINE
  5
2ba
100
AcDbEntity
  8
Ansichtskanten
 62
5
100
AcDbLine
 10
508.824680
 20
1620.309813
 30
0.0
 11
508.824680
 21
1551.947088
 31
0.0
  0
LINE
  5
2bb
100
AcDbEntity
  8
Ansichtskanten
 62
5
100
AcDbLine
 10
232.163451
 20
1647.314944
 30
0.0
 11
232.163451
 21
1603.124717
 31
0.0
  0
LINE
  5
2bc
100
AcDbEntity
  8
Ansichtskanten
 62
5
100
AcDbLine
 10
227.820093
 20
1603.124717
 30
0.0
 11
227.820093
 21
1647.314944
 31
0.0
  0
LINE
  5
2bd
100
AcDbEntity
  8
Ansichtskanten
 62
5
100
AcDbLine
 10
118.099747
 20
1464.321955
 30
0.0
 11
118.099747
 21
1512.289148
 31
0.0
  0
LINE
  5
2be
100
AcDbEntity
  8
Ansichtskanten
 62
5
100
AcDbLine
 10
104.313901
 20
1464.321955
 30
0.0
 11
104.313901
 21
1512.289148
 31
0.0
  0
LINE
  5
2bf
100
AcDbEntity
  8
Ansichtskanten
 62
5
100
AcDbLine
 10
118.099747
 20
1654.491189
 30
0.0
 11
118.099747
 21
1606.523996
 31
0.0
  0
LINE
  5
2c0
100
AcDbEntity
  8
Ansichtskanten
 62
5
100
AcDbLine
 10
104.313901
 20
1654.491189
 30
0.0
 11
104.313901
 21
1606.523996
 31
0.0
  0
LINE
  5
2c1
100
AcDbEntity
  8
Ansichtskanten
 62
5
100
AcDbLine
 10
478.798044
 20
1682.440512
 30
0.0
 11
431.586170
 21
1682.440512
 31
0.0
  0
LINE
  5
2c2
100
AcDbEntity
  8
Ansichtskanten
 62
5
100
AcDbLine
 10
478.798044
 20
1696.226358
 30
0.0
 11
431.586170
 21
1696.226358
 31
0.0
  0
LINE
  5
2c3
100
AcDbEntity
  8
Ansichtskanten
 62
5
100
AcDbLine
 10
409.679887
 20
1682.440512
 30
0.0
 11
362.468126
 21
1682.440512
 31
0.0
  0
LINE
  5
2c4
100
AcDbEntity
  8
Ansichtskanten
 62
5
100
AcDbLine
 10
409.679887
 20
1696.226358
 30
0.0
 11
362.468126
 21
1696.226358
 31
0.0
  0
LINE
  5
2c5
100
AcDbEntity
  8
Ansichtskanten
 62
5
100
AcDbLine
 10
340.561814
 20
1682.440512
 30
0.0
 11
293.727742
 21
1682.440512
 31
0.0
  0
LINE
  5
2c6
100
AcDbEntity
  8
Ansichtskanten
 62
5
100
AcDbLine
 10
340.561814
 20
1696.226358
 30
0.0
 11
293.727742
 21
1696.226358
 31
0.0
  0
LINE
  5
2c7
100
AcDbEntity
  8
Ansichtskanten
 62
5
100
AcDbLine
 10
118.099747
 20
1393.881917
 30
0.0
 11
118.099747
 21
1347.047844
 31
0.0
  0
LINE
  5
2c8
100
AcDbEntity
  8
Ansichtskanten
 62
5
100
AcDbLine
 10
104.313901
 20
1393.881917
 30
0.0
 11
104.313901
 21
1347.047844
 31
0.0
  0
LINE
  5
2c9
100
AcDbEntity
  8
Ansichtskanten
 62
5
100
AcDbLine
 10
508.824680
 20
1620.309813
 30
0.0
 11
495.038863
 21
1620.309813
 31
0.0
  0
LINE
  5
2ca
100
AcDbEntity
  8
Ansichtskanten
 62
5
100
AcDbLine
 10
508.824680
 20
1297.003309
 30
0.0
 11
495.038863
 21
1297.003309
 31
0.0
  0
LINE
  5
2cb
100
AcDbEntity
  8
Ansichtskanten
 62
5
100
AcDbLine
 10
118.099747
 20
1408.800855
 30
0.0
 11
118.099747
 21
1452.235762
 31
0.0
  0
LINE
  5
2cc
100
AcDbEntity
  8
Ansichtskanten
 62
5
100
AcDbLine
 10
522.988271
 20
1694.007482
 30
0.0
 11
594.183657
 21
1694.007482
 31
0.0
  0
LINE
  5
2cd
100
AcDbEntity
  8
Ansichtskanten
 62
5
100
AcDbLine
 10
522.988271
 20
1688.342018
 30
0.0
 11
594.183657
 21
1688.342018
 31
0.0
  0
LINE
  5
2ce
100
AcDbEntity
  8
Ansichtskanten
 62
5
100
AcDbLine
 10
655.559036
 20
1694.007482
 30
0.0
 11
693.706195
 21
1694.007482
 31
0.0
  0
LINE
  5
2cf
100
AcDbEntity
  8
Ansichtskanten
 62
5
100
AcDbLine
 10
655.559036
 20
1688.342018
 30
0.0
 11
693.706195
 21
1688.342018
 31
0.0
  0
LINE
  5
2d0
100
AcDbEntity
  8
Ansichtskanten
 62
5
100
AcDbLine
 10
701.260101
 20
1694.007482
 30
0.0
 11
739.407203
 21
1694.007482
 31
0.0
  0
LINE
  5
2d1
100
AcDbEntity
  8
Ansichtskanten
 62
5
100
AcDbLine
 10
701.260101
 20
1688.342018
 30
0.0
 11
739.407203
 21
1688.342018
 31
0.0
  0
LINE
  5
2d2
100
AcDbEntity
  8
Ansichtskanten
 62
5
100
AcDbLine
 10
791.340265
 20
1694.007482
 30
0.0
 11
881.420372
 21
1694.007482
 31
0.0
  0
LINE
  5
2d3
100
AcDbEntity
  8
Ansichtskanten
 62
5
100
AcDbLine
 10
791.340265
 20
1688.342018
 30
0.0
 11
881.420372
 21
1688.342018
 31
0.0
  0
LINE
  5
2d4
100
AcDbEntity
  8
Ansichtskanten
 62
5
100
AcDbLine
 10
936.186066
 20
1694.007482
 30
0.0
 11
1026.266173
 21
1694.007482
 31
0.0
  0
LINE
  5
2d5
100
AcDbEntity
  8
Ansichtskanten
 62
5
100
AcDbLine
 10
1026.266173
 20
1688.342018
 30
0.0
 11
936.186066
 21
1688.342018
 31
0.0
  0
LINE
  5
2d6
100
AcDbEntity
  8
Ansichtskanten
 62
5
100
AcDbLine
 10
1075.366460
 20
1688.342018
 30
0.0
 11
1113.513562
 21
1688.342018
 31
0.0
  0
LINE
  5
2d7
100
AcDbEntity
  8
Ansichtskanten
 62
5
100
AcDbLine
 10
1075.366460
 20
1694.007482
 30
0.0
 11
1113.513562
 21
1694.007482
 31
0.0
  0
LINE
  5
2d8
100
AcDbEntity
  8
Ansichtskanten
 62
5
100
AcDbLine
 10
1166.390787
 20
1688.342018
 30
0.0
 11
1204.537918
 21
1688.342018
 31
0.0
  0
LINE
  5
2d9
100
AcDbEntity
  8
Ansichtskanten
 62
5
100
AcDbLine
 10
1166.390787
 20
1694.007482
 30
0.0
 11
1204.537918
 21
1694.007482
 31
0.0
  0
LINE
  5
2da
100
AcDbEntity
  8
Ansichtskanten
 62
5
100
AcDbLine
 10
1260.840189
 20
1688.342018
 30
0.0
 11
1298.987263
 21
1688.342018
 31
0.0
  0
LINE
  5
2db
100
AcDbEntity
  8
Ansichtskanten
 62
5
100
AcDbLine
 10
1260.840189
 20
1694.007482
 30
0.0
 11
1298.987263
 21
1694.007482
 31
0.0
  0
LINE
  5
2dc
100
AcDbEntity
  8
Ansichtskanten
 62
5
100
AcDbLine
 10
1355.641483
 20
1694.007482
 30
0.0
 11
1393.788643
 21
1694.007482
 31
0.0
  0
LINE
  5
2dd
100
AcDbEntity
  8
Ansichtskanten
 62
5
100
AcDbLine
 10
1393.788643
 20
1688.342018
 30
0.0
 11
1355.641483
 21
1688.342018
 31
0.0
  0
LINE
  5
2de
100
AcDbEntity
  8
Ansichtskanten
 62
5
100
AcDbLine
 10
1545.244044
 20
1694.007482
 30
0.0
 11
1583.391288
 21
1694.007482
 31
0.0
  0
LINE
  5
2df
100
AcDbEntity
  8
Ansichtskanten
 62
5
100
AcDbLine
 10
1583.391288
 20
1688.342018
 30
0.0
 11
1545.244044
 21
1688.342018
 31
0.0
  0
LINE
  5
2e0
100
AcDbEntity
  8
Ansichtskanten
 62
5
100
AcDbLine
 10
1640.019855
 20
1694.007482
 30
0.0
 11
1678.166816
 21
1694.007482
 31
0.0
  0
LINE
  5
2e1
100
AcDbEntity
  8
Ansichtskanten
 62
5
100
AcDbLine
 10
1678.166816
 20
1688.342018
 30
0.0
 11
1640.019855
 21
1688.342018
 31
0.0
  0
LINE
  5
2e2
100
AcDbEntity
  8
Ansichtskanten
 62
5
100
AcDbLine
 10
1734.820894
 20
1688.342018
 30
0.0
 11
1772.968139
 21
1688.342018
 31
0.0
  0
LINE
  5
2e3
100
AcDbEntity
  8
Ansichtskanten
 62
5
100
AcDbLine
 10
1734.820894
 20
1694.007482
 30
0.0
 11
1772.968139
 21
1694.007482
 31
0.0
  0
LINE
  5
2e4
100
AcDbEntity
  8
Ansichtskanten
 62
5
100
AcDbLine
 10
1829.622217
 20
1688.342018
 30
0.0
 11
1867.769461
 21
1688.342018
 31
0.0
  0
LINE
  5
2e5
100
AcDbEntity
  8
Ansichtskanten
 62
5
100
AcDbLine
 10
1867.769461
 20
1694.007482
 30
0.0
 11
1829.622217
 21
1694.007482
 31
0.0
  0
LINE
  5
2e6
100
AcDbEntity
  8
Ansichtskanten
 62
5
100
AcDbLine
 10
1924.423540
 20
1694.007482
 30
0.0
 11
1962.570784
 21
1694.007482
 31
0.0
  0
LINE
  5
2e7
100
AcDbEntity
  8
Ansichtskanten
 62
5
100
AcDbLine
 10
1924.423540
 20
1688.342018
 30
0.0
 11
1962.570784
 21
1688.342018
 31
0.0
  0
LINE
  5
2e8
100
AcDbEntity
  8
Ansichtskanten
 62
5
100
AcDbLine
 10
571.144365
 20
1228.971161
 30
0.0
 11
661.224501
 21
1228.971161
 31
0.0
  0
LINE
  5
2e9
100
AcDbEntity
  8
Ansichtskanten
 62
5
100
AcDbLine
 10
571.144365
 20
1223.305696
 30
0.0
 11
661.224501
 21
1223.305696
 31
0.0
  0
LINE
  5
2ea
100
AcDbEntity
  8
Ansichtskanten
 62
5
100
AcDbLine
 10
715.990167
 20
1228.971161
 30
0.0
 11
791.906712
 21
1228.971161
 31
0.0
  0
LINE
  5
2eb
100
AcDbEntity
  8
Ansichtskanten
 62
5
100
AcDbLine
 10
715.990167
 20
1223.305696
 30
0.0
 11
791.906712
 21
1223.305696
 31
0.0
  0
LINE
  5
2ec
100
AcDbEntity
  8
Ansichtskanten
 62
5
100
AcDbLine
 10
843.839717
 20
1228.971161
 30
0.0
 11
881.986819
 21
1228.971161
 31
0.0
  0
LINE
  5
2ed
100
AcDbEntity
  8
Ansichtskanten
 62
5
100
AcDbLine
 10
843.839717
 20
1223.305696
 30
0.0
 11
881.986819
 21
1223.305696
 31
0.0
  0
LINE
  5
2ee
100
AcDbEntity
  8
Ansichtskanten
 62
5
100
AcDbLine
 10
889.540724
 20
1228.971161
 30
0.0
 11
927.687940
 21
1228.971161
 31
0.0
  0
LINE
  5
2ef
100
AcDbEntity
  8
Ansichtskanten
 62
5
100
AcDbLine
 10
889.540724
 20
1223.305696
 30
0.0
 11
927.687940
 21
1223.305696
 31
0.0
  0
LINE
  5
2f0
100
AcDbEntity
  8
Ansichtskanten
 62
5
100
AcDbLine
 10
1108.792403
 20
1228.971161
 30
0.0
 11
1160.347663
 21
1228.971161
 31
0.0
  0
LINE
  5
2f1
100
AcDbEntity
  8
Ansichtskanten
 62
5
100
AcDbLine
 10
1108.792403
 20
1223.305696
 30
0.0
 11
1160.347663
 21
1223.305696
 31
0.0
  0
LINE
  5
2f2
100
AcDbEntity
  8
Ansichtskanten
 62
5
100
AcDbLine
 10
1257.037483
 20
1228.971161
 30
0.0
 11
1299.528085
 21
1228.971161
 31
0.0
  0
LINE
  5
2f3
100
AcDbEntity
  8
Ansichtskanten
 62
5
100
AcDbLine
 10
1257.037483
 20
1223.305696
 30
0.0
 11
1299.528085
 21
1223.305696
 31
0.0
  0
LINE
  5
2f4
100
AcDbEntity
  8
Ansichtskanten
 62
5
100
AcDbLine
 10
1399.617241
 20
1228.971161
 30
0.0
 11
1437.764202
 21
1228.971161
 31
0.0
  0
LINE
  5
2f5
100
AcDbEntity
  8
Ansichtskanten
 62
5
100
AcDbLine
 10
1399.617241
 20
1223.305696
 30
0.0
 11
1437.764202
 21
1223.305696
 31
0.0
  0
LINE
  5
2f6
100
AcDbEntity
  8
Ansichtskanten
 62
5
100
AcDbLine
 10
1553.527729
 20
1228.971161
 30
0.0
 11
1638.886564
 21
1228.971161
 31
0.0
  0
LINE
  5
2f7
100
AcDbEntity
  8
Ansichtskanten
 62
5
100
AcDbLine
 10
1553.527729
 20
1223.305696
 30
0.0
 11
1638.886564
 21
1223.305696
 31
0.0
  0
LINE
  5
2f8
100
AcDbEntity
  8
Ansichtskanten
 62
5
100
AcDbLine
 10
1741.430721
 20
1228.971161
 30
0.0
 11
1826.789556
 21
1228.971161
 31
0.0
  0
LINE
  5
2f9
100
AcDbEntity
  8
Ansichtskanten
 62
5
100
AcDbLine
 10
1741.430721
 20
1223.305696
 30
0.0
 11
1826.789556
 21
1223.305696
 31
0.0
  0
LINE
  5
2fa
100
AcDbEntity
  8
Ansichtskanten
 62
5
100
AcDbLine
 10
1936.698690
 20
1228.971161
 30
0.0
 11
1974.845934
 21
1228.971161
 31
0.0
  0
LINE
  5
2fb
100
AcDbEntity
  8
Ansichtskanten
 62
5
100
AcDbLine
 10
1936.698690
 20
1223.305696
 30
0.0
 11
1974.845934
 21
1223.305696
 31
0.0
  0
LINE
  5
2fc
100
AcDbEntity
  8
Ansichtskanten
 62
5
100
AcDbLine
 10
1450.442721
 20
1688.342018
 30
0.0
 11
1488.589965
 21
1688.342018
 31
0.0
  0
LINE
  5
2fd
100
AcDbEntity
  8
Ansichtskanten
 62
5
100
AcDbLine
 10
1488.703351
 20
1694.007482
 30
0.0
 11
1450.442721
 21
1694.007482
 31
0.0
  0
LINE
  5
2fe
100
AcDbEntity
  8
Ansichtskanten
 62
5
100
AcDbLine
 10
1064.979808
 20
1493.357287
 30
0.0
 11
1064.979808
 21
1422.161816
 31
0.0
  0
LINE
  5
2ff
100
AcDbEntity
  8
Ansichtskanten
 62
5
100
AcDbLine
 10
1070.645301
 20
1422.161816
 30
0.0
 11
1070.645301
 21
1493.357287
 31
0.0
  0
LINE
  5
300
100
AcDbEntity
  8
Ansichtskanten
 62
5
100
AcDbLine
 10
695.783537
 20
1243.323539
 30
0.0
 11
695.783537
 21
1266.740603
 31
0.0
  0
LINE
  5
301
100
AcDbEntity
  8
Ansichtskanten
 62
5
100
AcDbLine
 10
695.783537
 20
1266.740603
 30
0.0
 11
699.560476
 21
1266.740603
 31
0.0
  0
LINE
  5
302
100
AcDbEntity
  8
Ansichtskanten
 62
5
100
AcDbLine
 10
699.560476
 20
1266.740603
 30
0.0
 11
699.560476
 21
1243.323539
 31
0.0
  0
LINE
  5
303
100
AcDbEntity
  8
Ansichtskanten
 62
5
100
AcDbLine
 10
884.630778
 20
1243.323539
 30
0.0
 11
884.630778
 21
1266.740603
 31
0.0
  0
LINE
  5
304
100
AcDbEntity
  8
Ansichtskanten
 62
5
100
AcDbLine
 10
884.630778
 20
1266.740603
 30
0.0
 11
888.407660
 21
1266.740603
 31
0.0
  0
LINE
  5
305
100
AcDbEntity
  8
Ansichtskanten
 62
5
100
AcDbLine
 10
888.407660
 20
1266.740603
 30
0.0
 11
888.407660
 21
1243.323539
 31
0.0
  0
LINE
  5
306
100
AcDbEntity
  8
Ansichtskanten
 62
5
100
AcDbLine
 10
699.560476
 20
1673.989583
 30
0.0
 11
699.560476
 21
1650.572547
 31
0.0
  0
LINE
  5
307
100
AcDbEntity
  8
Ansichtskanten
 62
5
100
AcDbLine
 10
699.560476
 20
1650.572547
 30
0.0
 11
695.783537
 21
1650.572547
 31
0.0
  0
LINE
  5
308
100
AcDbEntity
  8
Ansichtskanten
 62
5
100
AcDbLine
 10
695.783537
 20
1650.572547
 30
0.0
 11
695.783537
 21
1673.989583
 31
0.0
  0
LINE
  5
309
100
AcDbEntity
  8
Ansichtskanten
 62
5
100
AcDbLine
 10
888.407660
 20
1673.989583
 30
0.0
 11
888.407660
 21
1650.572547
 31
0.0
  0
LINE
  5
30a
100
AcDbEntity
  8
Ansichtskanten
 62
5
100
AcDbLine
 10
888.407660
 20
1650.572547
 30
0.0
 11
884.630778
 21
1650.572547
 31
0.0
  0
LINE
  5
30b
100
AcDbEntity
  8
Ansichtskanten
 62
5
100
AcDbLine
 10
884.630778
 20
1650.572547
 30
0.0
 11
884.630778
 21
1673.989583
 31
0.0
  0
LINE
  5
30c
100
AcDbEntity
  8
Ansichtskanten
 62
5
100
AcDbLine
 10
2018.280643
 20
1311.123416
 30
0.0
 11
2018.280643
 21
1272.976314
 31
0.0
  0
LINE
  5
30d
100
AcDbEntity
  8
Ansichtskanten
 62
5
100
AcDbLine
 10
2012.615320
 20
1311.123416
 30
0.0
 11
2012.615320
 21
1272.976314
 31
0.0
  0
LINE
  5
30e
100
AcDbEntity
  8
Tuerkanten
 62
5
100
AcDbLine
 10
227.834295
 20
1248.568909
 30
0.0
 11
227.834295
 21
1281.428377
 31
0.0
  0
LINE
  5
30f
100
AcDbEntity
  8
Tuerkanten
 62
5
100
AcDbLine
 10
232.177709
 20
1248.568909
 30
0.0
 11
232.177709
 21
1281.428377
 31
0.0
  0
LINE
  5
310
100
AcDbEntity
  8
Tuerkanten
 62
5
100
AcDbLine
 10
232.177709
 20
1457.811709
 30
0.0
 11
232.177709
 21
1413.432581
 31
0.0
  0
LINE
  5
311
100
AcDbEntity
  8
Tuerkanten
 62
5
100
AcDbLine
 10
235.199328
 20
1460.077781
 30
0.0
 11
279.578456
 21
1460.077781
 31
0.0
  0
LINE
  5
312
100
AcDbEntity
  8
Tuerkanten
 62
5
100
AcDbLine
 10
235.199328
 20
1464.421281
 30
0.0
 11
279.578456
 21
1464.421281
 31
0.0
  0
LINE
  5
313
100
AcDbEntity
  8
Tuerkanten
 62
5
100
AcDbLine
 10
158.905010
 20
1460.077781
 30
0.0
 11
203.095265
 21
1460.077781
 31
0.0
  0
LINE
  5
314
100
AcDbEntity
  8
Tuerkanten
 62
5
100
AcDbLine
 10
158.905010
 20
1464.421281
 30
0.0
 11
203.095265
 21
1464.421281
 31
0.0
  0
LINE
  5
315
100
AcDbEntity
  8
Tuerkanten
 62
5
100
AcDbLine
 10
126.800975
 20
1402.857142
 30
0.0
 11
160.415791
 21
1402.857142
 31
0.0
  0
LINE
  5
316
100
AcDbEntity
  8
Tuerkanten
 62
5
100
AcDbLine
 10
126.800975
 20
1398.513614
 30
0.0
 11
160.415791
 21
1398.513614
 31
0.0
  0
LINE
  5
317
100
AcDbEntity
  8
Tuerkanten
 62
5
100
AcDbLine
 10
227.834295
 20
1413.432581
 30
0.0
 11
227.834295
 21
1457.811709
 31
0.0
  0
LINE
  5
318
100
AcDbEntity
  8
Tuerkanten
 62
5
100
AcDbLine
 10
993.798624
 20
1229.070487
 30
0.0
 11
1064.993981
 21
1229.070487
 31
0.0
  0
LINE
  5
319
100
AcDbEntity
  8
Tuerkanten
 62
5
100
AcDbLine
 10
993.798624
 20
1223.405022
 30
0.0
 11
1064.993981
 21
1223.405022
 31
0.0
  0
LINE
  5
31a
100
AcDbEntity
  8
Tuerkanten
 62
5
100
AcDbLine
 10
1165.083080
 20
1417.539983
 30
0.0
 11
1198.509109
 21
1417.539983
 31
0.0
  0
LINE
  5
31b
100
AcDbEntity
  8
Tuerkanten
 62
5
100
AcDbLine
 10
1165.083080
 20
1411.874632
 30
0.0
 11
1198.509109
 21
1411.874632
 31
0.0
  0
LINE
  5
31c
100
AcDbEntity
  8
Tuerkanten
 62
5
100
AcDbLine
 10
1209.839981
 20
1411.874632
 30
0.0
 11
1243.265868
 21
1411.874632
 31
0.0
  0
LINE
  5
31d
100
AcDbEntity
  8
Tuerkanten
 62
5
100
AcDbLine
 10
1243.265868
 20
1417.539983
 30
0.0
 11
1209.839981
 21
1417.539983
 31
0.0
  0
LINE
  5
31e
100
AcDbEntity
  8
Tuerkanten
 62
5
100
AcDbLine
 10
1420.215761
 20
1417.539983
 30
0.0
 11
1453.641619
 21
1417.539983
 31
0.0
  0
LINE
  5
31f
100
AcDbEntity
  8
Tuerkanten
 62
5
100
AcDbLine
 10
1420.215761
 20
1411.874632
 30
0.0
 11
1453.641619
 21
1411.874632
 31
0.0
  0
LINE
  5
320
100
AcDbEntity
  8
Tuerkanten
 62
5
100
AcDbLine
 10
1566.950060
 20
1417.539983
 30
0.0
 11
1600.375918
 21
1417.539983
 31
0.0
  0
LINE
  5
321
100
AcDbEntity
  8
Tuerkanten
 62
5
100
AcDbLine
 10
1600.375918
 20
1411.874632
 30
0.0
 11
1566.950060
 21
1411.874632
 31
0.0
  0
LINE
  5
322
100
AcDbEntity
  8
Tuerkanten
 62
5
100
AcDbLine
 10
1756.175131
 20
1417.539983
 30
0.0
 11
1789.600989
 21
1417.539983
 31
0.0
  0
LINE
  5
323
100
AcDbEntity
  8
Tuerkanten
 62
5
100
AcDbLine
 10
1789.600989
 20
1411.874632
 30
0.0
 11
1756.175131
 21
1411.874632
 31
0.0
  0
LINE
  5
324
100
AcDbEntity
  8
Tuerkanten
 62
5
100
AcDbLine
 10
1935.957430
 20
1417.539983
 30
0.0
 11
1969.383572
 21
1417.539983
 31
0.0
  0
LINE
  5
325
100
AcDbEntity
  8
Tuerkanten
 62
5
100
AcDbLine
 10
1969.383572
 20
1411.874632
 30
0.0
 11
1935.957430
 21
1411.874632
 31
0.0
  0
LINE
  5
326
100
AcDbEntity
  8
Tuerkanten
 62
5
100
AcDbLine
 10
1115.982879
 20
1503.843180
 30
0.0
 11
1149.408794
 21
1503.843180
 31
0.0
  0
LINE
  5
327
100
AcDbEntity
  8
Tuerkanten
 62
5
100
AcDbLine
 10
1149.408794
 20
1498.177772
 30
0.0
 11
1115.982879
 21
1498.177772
 31
0.0
  0
LINE
  5
328
100
AcDbEntity
  8
Tuerkanten
 62
5
100
AcDbLine
 10
1205.685156
 20
1503.843180
 30
0.0
 11
1239.111269
 21
1503.843180
 31
0.0
  0
LINE
  5
329
100
AcDbEntity
  8
Tuerkanten
 62
5
100
AcDbLine
 10
1239.111269
 20
1498.177772
 30
0.0
 11
1205.685156
 21
1498.177772
 31
0.0
  0
LINE
  5
32a
100
AcDbEntity
  8
Tuerkanten
 62
5
100
AcDbLine
 10
1295.765376
 20
1503.843180
 30
0.0
 11
1329.191405
 21
1503.843180
 31
0.0
  0
LINE
  5
32b
100
AcDbEntity
  8
Tuerkanten
 62
5
100
AcDbLine
 10
1329.191405
 20
1498.177772
 30
0.0
 11
1295.765376
 21
1498.177772
 31
0.0
  0
LINE
  5
32c
100
AcDbEntity
  8
Tuerkanten
 62
5
100
AcDbLine
 10
1385.845398
 20
1503.843180
 30
0.0
 11
1419.271540
 21
1503.843180
 31
0.0
  0
LINE
  5
32d
100
AcDbEntity
  8
Tuerkanten
 62
5
100
AcDbLine
 10
1419.271540
 20
1498.177772
 30
0.0
 11
1385.845398
 21
1498.177772
 31
0.0
  0
LINE
  5
32e
100
AcDbEntity
  8
Tuerkanten
 62
5
100
AcDbLine
 10
1480.646721
 20
1503.843180
 30
0.0
 11
1514.072863
 21
1503.843180
 31
0.0
  0
LINE
  5
32f
100
AcDbEntity
  8
Tuerkanten
 62
5
100
AcDbLine
 10
1514.072863
 20
1498.177772
 30
0.0
 11
1480.646721
 21
1498.177772
 31
0.0
  0
LINE
  5
330
100
AcDbEntity
  8
Tuerkanten
 62
5
100
AcDbLine
 10
1575.448044
 20
1503.843180
 30
0.0
 11
1608.874186
 21
1503.843180
 31
0.0
  0
LINE
  5
331
100
AcDbEntity
  8
Tuerkanten
 62
5
100
AcDbLine
 10
1608.874186
 20
1498.177772
 30
0.0
 11
1575.448044
 21
1498.177772
 31
0.0
  0
LINE
  5
332
100
AcDbEntity
  8
Tuerkanten
 62
5
100
AcDbLine
 10
1670.249367
 20
1503.843180
 30
0.0
 11
1703.675509
 21
1503.843180
 31
0.0
  0
LINE
  5
333
100
AcDbEntity
  8
Tuerkanten
 62
5
100
AcDbLine
 10
1703.675509
 20
1498.177772
 30
0.0
 11
1670.249367
 21
1498.177772
 31
0.0
  0
LINE
  5
334
100
AcDbEntity
  8
Tuerkanten
 62
5
100
AcDbLine
 10
1741.444894
 20
1503.843180
 30
0.0
 11
1774.870753
 21
1503.843180
 31
0.0
  0
LINE
  5
335
100
AcDbEntity
  8
Tuerkanten
 62
5
100
AcDbLine
 10
1774.870753
 20
1498.177772
 30
0.0
 11
1741.444894
 21
1498.177772
 31
0.0
  0
LINE
  5
336
100
AcDbEntity
  8
Tuerkanten
 62
5
100
AcDbLine
 10
1828.692454
 20
1503.843180
 30
0.0
 11
1862.118312
 21
1503.843180
 31
0.0
  0
LINE
  5
337
100
AcDbEntity
  8
Tuerkanten
 62
5
100
AcDbLine
 10
1862.118312
 20
1498.177772
 30
0.0
 11
1828.692454
 21
1498.177772
 31
0.0
  0
LINE
  5
338
100
AcDbEntity
  8
Tuerkanten
 62
5
100
AcDbLine
 10
1914.051288
 20
1542.556814
 30
0.0
 11
1914.051288
 21
1509.130871
 31
0.0
  0
LINE
  5
339
100
AcDbEntity
  8
Tuerkanten
 62
5
100
AcDbLine
 10
1919.716611
 20
1542.556814
 30
0.0
 11
1919.716611
 21
1509.130871
 31
0.0
  0
LINE
  5
33a
100
AcDbEntity
  8
Tuerkanten
 62
5
100
AcDbLine
 10
2012.629493
 20
1493.456641
 30
0.0
 11
2012.629493
 21
1422.261170
 31
0.0
  0
LINE
  5
33b
100
AcDbEntity
  8
Tuerkanten
 62
5
100
AcDbLine
 10
2018.294816
 20
1493.456641
 30
0.0
 11
2018.294816
 21
1422.261170
 31
0.0
  0
ENDSEC
  0
SECTION
  2
OBJECTS
  0
DICTIONARY
  5
C
330
0
100
AcDbDictionary
  3
ACAD_GROUP
350
D
  3
ACAD_MLINESTYLE
350
17
  0
DICTIONARY
  5
D
330
C
100
AcDbDictionary
  0
DICTIONARY
  5
1A
330
C
100
AcDbDictionary
  0
DICTIONARY
  5
17
330
C
100
AcDbDictionary
  3
STANDARD
350
18
  0
DICTIONARY
  5
19
330
C
100
AcDbDictionary
  0
ENDSEC
  0
EOF
