  0
SECTION
  2
HEADER
  9
$ACADVER
  1
AC1014
  9
$HANDSEED
  5
FFFF
  9
$MEASUREMENT
 70
     1
  0
ENDSEC
  0
SECTION
  2
TABLES
  0
TABLE
  2
VPORT
  5
8
330
0
100
AcDbSymbolTable
 70
     4
  0
VPORT
  5
2E
330
8
100
AcDbSymbolTableRecord
100
AcDbViewportTableRecord
  2
*ACTIVE
 70
     0
 10
0.0
 20
0.0
 11
1.0
 21
1.0
 12
210.0
 22
148.5
 13
0.0
 23
0.0
 14
10.0
 24
10.0
 15
10.0
 25
10.0
 16
0.0
 26
0.0
 36
1.0
 17
0.0
 27
0.0
 37
0.0
 40
341.0
 41
1.24
 42
50.0
 43
0.0
 44
0.0
 50
0.0
 51
0.0
 71
     0
 72
   100
 73
     1
 74
     3
 75
     0
 76
     0
 77
     0
 78
     0
  0
ENDTAB
  0
TABLE
  2
LTYPE
  5
5
330
0
100
AcDbSymbolTable
 70
     1
  0
LTYPE
  5
14
330
5
100
AcDbSymbolTableRecord
100
AcDbLinetypeTableRecord
  2
BYBLOCK
 70
     0
  3

 72
    65
 73
     0
 40
0.0
  0
LTYPE
  5
15
330
5
100
AcDbSymbolTableRecord
100
AcDbLinetypeTableRecord
  2
BYLAYER
 70
     0
  3

 72
    65
 73
     0
 40
0.0
  0
LTYPE
  5
16
330
5
100
AcDbSymbolTableRecord
100
AcDbLinetypeTableRecord
  2
CONTINUOUS
 70
     0
  3
Solid line
 72
    65
 73
     0
 40
0.0
  0
ENDTAB
  0
TABLE
  2
LAYER
  5
2
100
AcDbSymbolTable
 70
3
  0
LAYER
  5
50
100
AcDbSymbolTableRecord
100
AcDbLayerTableRecord
  2
0
 70
0
  6
CONTINUOUS
  0
LAYER
  5
51
100
AcDbSymbolTableRecord
100
AcDbLayerTableRecord
  2
Ebene_1
 70
0
  6
CONTINUOUS
  0
LAYER
  5
52
100
AcDbSymbolTableRecord
100
AcDbLayerTableRecord
  2
Waende
 70
0
  6
CONTINUOUS
  0
ENDTAB
  0
TABLE
  2
STYLE
  5
3
330
0
100
AcDbSymbolTable
 70
     1
  0
STYLE
  5
11
330
3
100
AcDbSymbolTableRecord
100
AcDbTextStyleTableRecord
  2
STANDARD
 70
     0
 40
0.0
 41
1.0
 50
0.0
 71
     0
 42
2.5
  3
txt
  4

  0
ENDTAB
  0
TABLE
  2
VIEW
  5
6
330
0
100
AcDbSymbolTable
 70
     0
  0
ENDTAB
  0
TABLE
  2
UCS
  5
7
330
0
100
AcDbSymbolTable
 70
     0
  0
ENDTAB
  0
TABLE
  2
APPID
  5
9
330
0
100
AcDbSymbolTable
 70
     2
  0
APPID
  5
12
330
9
100
AcDbSymbolTableRecord
100
AcDbRegAppTableRecord
  2
ACAD
 70
     0
  0
ENDTAB
  0
TABLE
  2
DIMSTYLE
  5
A
330
0
100
AcDbSymbolTable
 70
     1
  0
DIMSTYLE
105
27
330
A
100
AcDbSymbolTableRecord
100
AcDbDimStyleTableRecord
  2
ISO-25
 70
     0
  3

  4

  5

  6

  7

 40
1.0
 41
2.5
 42
0.625
 43
3.75
 44
1.25
 45
0.0
 46
0.0
 47
0.0
 48
0.0
140
2.5
141
2.5
142
0.0
143
0.03937007874016
144
1.0
145
0.0
146
1.0
147
0.625
 71
     0
 72
     0
 73
     0
 74
     0
 75
     0
 76
     0
 77
     1
 78
     8
170
     0
171
     3
172
     1
173
     0
174
     0
175
     0
176
     0
177
     0
178
     0
270
     2
271
     2
272
     2
273
     2
274
     3
340
11
275
     0
280
     0
281
     0
282
     0
283
     0
284
     8
285
     0
286
     0
287
     3
288
     0
  0
ENDTAB
  0
TABLE
  2
BLOCK_RECORD
  5
1
330
0
100
AcDbSymbolTable
 70
     1
  0
BLOCK_RECORD
  5
1F
330
1
100
AcDbSymbolTableRecord
100
AcDbBlockTableRecord
  2
*MODEL_SPACE
  0
BLOCK_RECORD
  5
1B
330
1
100
AcDbSymbolTableRecord
100
AcDbBlockTableRecord
  2
*PAPER_SPACE
  0
ENDTAB
  0
ENDSEC
  0
SECTION
  2
BLOCKS
  0
BLOCK
  5
20
330
1F
100
AcDbEntity
  8
0
100
AcDbBlockBegin
  2
*MODEL_SPACE
 70
     0
 10
0.0
 20
0.0
 30
0.0
  3
*MODEL_SPACE
  1

  0
ENDBLK
  5
21
330
1F
100
AcDbEntity
  8
0
100
AcDbBlockEnd
  0
BLOCK
  5
1C
330
1B
100
AcDbEntity
 67
     1
  8
0
100
AcDbBlockBegin
  2
*PAPER_SPACE
  1

  0
ENDBLK
  5
1D
330
1B
100
AcDbEntity
 67
     1
  8
0
100
AcDbBlockEnd
  0
ENDSEC
  0
SECTION
  2
ENTITIES
  0
LINE
  5
100
100
AcDbEntity
  8
Waende
 62
7
100
AcDbLine
 10
9.504615
 20
247.384828
 30
0.0
 11
34.641211
 21
247.384828
 31
0.0
  0
LINE
  5
101
100
AcDbEntity
  8
Waende
 62
7
100
AcDbLine
 10
23.091744
 20
243.347397
 30
0.0
 11
34.641211
 21
243.347397
 31
0.0
  0
LINE
  5
102
100
AcDbEntity
  8
Waende
 62
7
100
AcDbLine
 10
9.511106
 20
243.347097
 30
0.0
 11
20.175604
 21
243.347097
 31
0.0
  0
LINE
  5
103
100
AcDbEntity
  8
Waende
 62
7
100
AcDbLine
 10
50.796704
 20
254.996618
 30
0.0
 11
75.933320
 21
254.996618
 31
0.0
  0
LINE
  5
104
100
AcDbEntity
  8
Waende
 62
7
100
AcDbLine
 10
64.383514
 20
250.960005
 30
0.0
 11
73.330068
 21
250.960005
 31
0.0
  0
LINE
  5
105
100
AcDbEntity
  8
Waende
 62
7
100
AcDbLine
 10
50.796026
 20
250.959683
 30
0.0
 11
61.460501
 21
250.959683
 31
0.0
  0
LINE
  5
106
100
AcDbEntity
  8
Waende
 62
7
100
AcDbLine
 10
94.070447
 20
251.190036
 30
0.0
 11
139.894620
 21
251.190036
 31
0.0
  0
LINE
  5
107
100
AcDbEntity
  8
Waende
 62
7
100
AcDbLine
 10
107.657257
 20
247.153420
 30
0.0
 11
119.206721
 21
247.153420
 31
0.0
  0
LINE
  5
108
100
AcDbEntity
  8
Waende
 62
7
100
AcDbLine
 10
94.070447
 20
247.153121
 30
0.0
 11
104.734919
 21
247.153121
 31
0.0
  0
LINE
  5
109
100
AcDbEntity
  8
Waende
 62
7
100
AcDbLine
 10
123.191662
 20
247.153843
 30
0.0
 11
139.894620
 21
247.153843
 31
0.0
  0
LINE
  5
10a
100
AcDbEntity
  8
Waende
 62
7
100
AcDbLine
 10
151.218237
 20
248.727263
 30
0.0
 11
197.042436
 21
248.727263
 31
0.0
  0
LINE
  5
10b
100
AcDbEntity
  8
Waende
 62
7
100
AcDbLine
 10
164.805047
 20
244.690630
 30
0.0
 11
176.354514
 21
244.690630
 31
0.0
  0
LINE
  5
10c
100
AcDbEntity
  8
Waende
 62
7
100
AcDbLine
 10
151.217557
 20
244.690328
 30
0.0
 11
161.882034
 21
244.690328
 31
0.0
  0
LINE
  5
10d
100
AcDbEntity
  8
Waende
 62
7
100
AcDbLine
 10
179.506959
 20
244.690230
 30
0.0
 11
195.620939
 21
244.690230
 31
0.0
  0
LINE
  5
10e
100
AcDbEntity
  8
Waende
 62
7
100
AcDbLine
 10
7.640904
 20
203.177212
 30
0.0
 11
32.777520
 21
203.177212
 31
0.0
  0
LINE
  5
10f
100
AcDbEntity
  8
Waende
 62
7
100
AcDbLine
 10
21.329147
 20
199.139456
 30
0.0
 11
27.044136
 21
199.139456
 31
0.0
  0
LINE
  5
110
100
AcDbEntity
  8
Waende
 62
7
100
AcDbLine
 10
7.640904
 20
199.139456
 30
0.0
 11
18.305381
 21
199.139456
 31
0.0
  0
LINE
  5
111
100
AcDbEntity
  8
Waende
 62
7
100
AcDbLine
 10
46.246288
 20
188.175904
 30
0.0
 11
71.382904
 21
188.175904
 31
0.0
  0
LINE
  5
112
100
AcDbEntity
  8
Waende
 62
7
100
AcDbLine
 10
59.833101
 20
184.139274
 30
0.0
 11
68.779672
 21
184.139274
 31
0.0
  0
LINE
  5
113
100
AcDbEntity
  8
Waende
 62
7
100
AcDbLine
 10
46.245611
 20
184.138972
 30
0.0
 11
50.480914
 21
184.138972
 31
0.0
  0
LINE
  5
114
100
AcDbEntity
  8
Waende
 62
7
100
AcDbLine
 10
91.311166
 20
202.168736
 30
0.0
 11
137.135339
 21
202.168736
 31
0.0
  0
LINE
  5
115
100
AcDbEntity
  8
Waende
 62
7
100
AcDbLine
 10
104.897976
 20
198.132120
 30
0.0
 11
116.447440
 21
198.132120
 31
0.0
  0
LINE
  5
116
100
AcDbEntity
  8
Waende
 62
7
100
AcDbLine
 10
91.311166
 20
198.131804
 30
0.0
 11
101.975641
 21
198.131804
 31
0.0
  0
LINE
  5
117
100
AcDbEntity
  8
Waende
 62
7
100
AcDbLine
 10
120.425388
 20
198.132524
 30
0.0
 11
130.299957
 21
198.132524
 31
0.0
  0
LINE
  5
118
100
AcDbEntity
  8
Waende
 62
7
100
AcDbLine
 10
153.832365
 20
182.578227
 30
0.0
 11
193.470990
 21
182.578227
 31
0.0
  0
LINE
  5
119
100
AcDbEntity
  8
Waende
 62
7
100
AcDbLine
 10
167.419175
 20
178.541594
 30
0.0
 11
178.968643
 21
178.541594
 31
0.0
  0
LINE
  5
11a
100
AcDbEntity
  8
Waende
 62
7
100
AcDbLine
 10
153.831688
 20
178.541292
 30
0.0
 11
164.496183
 21
178.541292
 31
0.0
  0
LINE
  5
11b
100
AcDbEntity
  8
Waende
 62
7
100
AcDbLine
 10
182.121088
 20
178.541190
 30
0.0
 11
197.512773
 21
178.541190
 31
0.0
  0
LINE
  5
11c
100
AcDbEntity
  8
Waende
 62
7
100
AcDbLine
 10
27.044136
 20
199.139456
 30
0.0
 11
32.777520
 21
199.139456
 31
0.0
  0
LINE
  5
11d
100
AcDbEntity
  8
Waende
 62
7
100
AcDbLine
 10
50.480914
 20
184.138972
 30
0.0
 11
57.891779
 21
184.138972
 31
0.0
  0
LINE
  5
11e
100
AcDbEntity
  8
Waende
 62
7
100
AcDbLine
 10
130.299957
 20
198.132524
 30
0.0
 11
133.101184
 21
198.132524
 31
0.0
  0
LINE
  5
11f
100
AcDbEntity
  8
Waende
 62
7
100
AcDbLine
 10
63.751607
 20
215.305766
 30
0.0
 11
75.301074
 21
215.305766
 31
0.0
  0
LINE
  5
120
100
AcDbEntity
  8
Waende
 62
7
100
AcDbLine
 10
49.107304
 20
215.305466
 30
0.0
 11
59.771780
 21
215.305466
 31
0.0
  0
LINE
  5
121
100
AcDbEntity
  8
Waende
 62
7
100
AcDbLine
 10
63.751607
 20
219.343440
 30
0.0
 11
75.301074
 21
219.343440
 31
0.0
  0
LINE
  5
122
100
AcDbEntity
  8
Waende
 62
7
100
AcDbLine
 10
49.107304
 20
219.343141
 30
0.0
 11
59.771780
 21
219.343141
 31
0.0
  0
LINE
  5
123
100
AcDbEntity
  8
Waende
 62
7
100
AcDbLine
 10
59.743854
 20
215.334908
 30
0.0
 11
59.743854
 21
203.785440
 31
0.0
  0
LINE
  5
124
100
AcDbEntity
  8
Waende
 62
7
100
AcDbLine
 10
59.743535
 20
229.978696
 30
0.0
 11
59.743535
 21
219.314216
 31
0.0
  0
LINE
  5
125
100
AcDbEntity
  8
Waende
 62
7
100
AcDbLine
 10
63.781528
 20
215.334908
 30
0.0
 11
63.781528
 21
203.785440
 31
0.0
  0
LINE
  5
126
100
AcDbEntity
  8
Waende
 62
7
100
AcDbLine
 10
63.781209
 20
229.978696
 30
0.0
 11
63.781209
 21
219.314216
 31
0.0
  0
LINE
  5
127
100
AcDbEntity
  8
Waende
 62
7
100
AcDbLine
 10
116.822327
 20
227.655663
 30
0.0
 11
128.371814
 21
227.655663
 31
0.0
  0
LINE
  5
128
100
AcDbEntity
  8
Waende
 62
7
100
AcDbLine
 10
102.178045
 20
227.655341
 30
0.0
 11
112.842523
 21
227.655341
 31
0.0
  0
LINE
  5
129
100
AcDbEntity
  8
Waende
 62
7
100
AcDbLine
 10
116.822327
 20
231.693338
 30
0.0
 11
128.371814
 21
231.693338
 31
0.0
  0
LINE
  5
12a
100
AcDbEntity
  8
Waende
 62
7
100
AcDbLine
 10
102.178045
 20
231.693016
 30
0.0
 11
112.842523
 21
231.693016
 31
0.0
  0
LINE
  5
12b
100
AcDbEntity
  8
Waende
 62
7
100
AcDbLine
 10
112.814577
 20
227.684789
 30
0.0
 11
112.814577
 21
216.135321
 31
0.0
  0
LINE
  5
12c
100
AcDbEntity
  8
Waende
 62
7
100
AcDbLine
 10
116.852251
 20
227.684789
 30
0.0
 11
116.852251
 21
216.135321
 31
0.0
  0
LINE
  5
12d
100
AcDbEntity
  8
Waende
 62
7
100
AcDbLine
 10
112.842599
 20
231.693137
 30
0.0
 11
116.822248
 21
231.693137
 31
0.0
  0
LINE
  5
12e
100
AcDbEntity
  8
Waende
 62
7
100
AcDbLine
 10
173.235036
 20
222.892003
 30
0.0
 11
184.764889
 21
222.892003
 31
0.0
  0
LINE
  5
12f
100
AcDbEntity
  8
Waende
 62
7
100
AcDbLine
 10
158.571139
 20
222.891704
 30
0.0
 11
169.215999
 21
222.891704
 31
0.0
  0
LINE
  5
130
100
AcDbEntity
  8
Waende
 62
7
100
AcDbLine
 10
158.571139
 20
226.929376
 30
0.0
 11
184.972367
 21
226.929376
 31
0.0
  0
LINE
  5
131
100
AcDbEntity
  8
Waende
 62
7
100
AcDbLine
 10
169.207668
 20
222.898257
 30
0.0
 11
169.207668
 21
211.371681
 31
0.0
  0
LINE
  5
132
100
AcDbEntity
  8
Waende
 62
7
100
AcDbLine
 10
173.245343
 20
222.901534
 30
0.0
 11
173.245343
 21
211.371681
 31
0.0
  0
LINE
  5
133
100
AcDbEntity
  8
Waende
 62
7
100
AcDbLine
 10
193.335193
 20
193.972845
 30
0.0
 11
193.335193
 21
182.446268
 31
0.0
  0
LINE
  5
134
100
AcDbEntity
  8
Waende
 62
7
100
AcDbLine
 10
197.372867
 20
191.667535
 30
0.0
 11
197.372867
 21
178.406105
 31
0.0
  0
LINE
  5
135
100
AcDbEntity
  8
Waende
 62
7
100
AcDbLine
 10
132.960062
 20
198.014018
 30
0.0
 11
132.960062
 21
186.464551
 31
0.0
  0
LINE
  5
136
100
AcDbEntity
  8
Waende
 62
7
100
AcDbLine
 10
136.997736
 20
202.308329
 30
0.0
 11
136.997736
 21
186.464551
 31
0.0
  0
LINE
  5
137
100
AcDbEntity
  8
Waende
 62
7
100
AcDbLine
 10
79.199698
 20
174.962776
 30
0.0
 11
125.023872
 21
174.962776
 31
0.0
  0
LINE
  5
138
100
AcDbEntity
  8
Waende
 62
7
100
AcDbLine
 10
81.647879
 20
170.926160
 30
0.0
 11
104.331025
 21
170.926160
 31
0.0
  0
LINE
  5
139
100
AcDbEntity
  8
Waende
 62
7
100
AcDbLine
 10
104.326346
 20
170.926564
 30
0.0
 11
118.188489
 21
170.926564
 31
0.0
  0
LINE
  5
13a
100
AcDbEntity
  8
Waende
 62
7
100
AcDbLine
 10
118.188489
 20
170.926564
 30
0.0
 11
120.989717
 21
170.926564
 31
0.0
  0
LINE
  5
13b
100
AcDbEntity
  8
Waende
 62
7
100
AcDbLine
 10
120.848594
 20
170.808059
 30
0.0
 11
120.848594
 21
159.258591
 31
0.0
  0
LINE
  5
13c
100
AcDbEntity
  8
Waende
 62
7
100
AcDbLine
 10
124.886268
 20
175.102369
 30
0.0
 11
124.886268
 21
159.258591
 31
0.0
  0
ENDSEC
  0
SECTION
  2
OBJECTS
  0
DICTIONARY
  5
C
330
0
100
AcDbDictionary
  3
ACAD_GROUP
350
D
  3
ACAD_MLINESTYLE
350
17
  0
DICTIONARY
  5
D
330
C
100
AcDbDictionary
  0
DICTIONARY
  5
1A
330
C
100
AcDbDictionary
  0
DICTIONARY
  5
17
330
C
100
AcDbDictionary
  3
STANDARD
350
18
  0
DICTIONARY
  5
19
330
C
100
AcDbDictionary
  0
ENDSEC
  0
EOF
