  0
SECTION
  2
HEADER
  9
$ACADVER
  1
AC1014
  9
$HANDSEED
  5
FFFF
  9
$MEASUREMENT
 70
     1
  0
ENDSEC
  0
SECTION
  2
TABLES
  0
TABLE
  2
VPORT
  5
8
330
0
100
AcDbSymbolTable
 70
     4
  0
VPORT
  5
2E
330
8
100
AcDbSymbolTableRecord
100
AcDbViewportTableRecord
  2
*ACTIVE
 70
     0
 10
0.0
 20
0.0
 11
1.0
 21
1.0
 12
210.0
 22
148.5
 13
0.0
 23
0.0
 14
10.0
 24
10.0
 15
10.0
 25
10.0
 16
0.0
 26
0.0
 36
1.0
 17
0.0
 27
0.0
 37
0.0
 40
341.0
 41
1.24
 42
50.0
 43
0.0
 44
0.0
 50
0.0
 51
0.0
 71
     0
 72
   100
 73
     1
 74
     3
 75
     0
 76
     0
 77
     0
 78
     0
  0
ENDTAB
  0
TABLE
  2
LTYPE
  5
5
330
0
100
AcDbSymbolTable
 70
     1
  0
LTYPE
  5
14
330
5
100
AcDbSymbolTableRecord
100
AcDbLinetypeTableRecord
  2
BYBLOCK
 70
     0
  3

 72
    65
 73
     0
 40
0.0
  0
LTYPE
  5
15
330
5
100
AcDbSymbolTableRecord
100
AcDbLinetypeTableRecord
  2
BYLAYER
 70
     0
  3

 72
    65
 73
     0
 40
0.0
  0
LTYPE
  5
16
330
5
100
AcDbSymbolTableRecord
100
AcDbLinetypeTableRecord
  2
CONTINUOUS
 70
     0
  3
Solid line
 72
    65
 73
     0
 40
0.0
  0
ENDTAB
  0
TABLE
  2
LAYER
  5
2
100
AcDbSymbolTable
 70
4
  0
LAYER
  5
50
100
AcDbSymbolTableRecord
100
AcDbLayerTableRecord
  2
0
 70
0
  6
CONTINUOUS
  0
LAYER
  5
51
100
AcDbSymbolTableRecord
100
AcDbLayerTableRecord
  2
WALLS
 70
0
  6
CONTINUOUS
  0
LAYER
  5
52
100
AcDbSymbolTableRecord
100
AcDbLayerTableRecord
  2
DOORS
 70
0
  6
CONTINUOUS
  0
LAYER
  5
53
100
AcDbSymbolTableRecord
100
AcDbLayerTableRecord
  2
WINDOWS
 70
0
  6
CONTINUOUS
  0
ENDTAB
  0
TABLE
  2
STYLE
  5
3
330
0
100
AcDbSymbolTable
 70
     1
  0
STYLE
  5
11
330
3
100
AcDbSymbolTableRecord
100
AcDbTextStyleTableRecord
  2
STANDARD
 70
     0
 40
0.0
 41
1.0
 50
0.0
 71
     0
 42
2.5
  3
txt
  4

  0
ENDTAB
  0
TABLE
  2
VIEW
  5
6
330
0
100
AcDbSymbolTable
 70
     0
  0
ENDTAB
  0
TABLE
  2
UCS
  5
7
330
0
100
AcDbSymbolTable
 70
     0
  0
ENDTAB
  0
TABLE
  2
APPID
  5
9
330
0
100
AcDbSymbolTable
 70
     2
  0
APPID
  5
12
330
9
100
AcDbSymbolTableRecord
100
AcDbRegAppTableRecord
  2
ACAD
 70
     0
  0
ENDTAB
  0
TABLE
  2
DIMSTYLE
  5
A
330
0
100
AcDbSymbolTable
 70
     1
  0
DIMSTYLE
105
27
330
A
100
AcDbSymbolTableRecord
100
AcDbDimStyleTableRecord
  2
ISO-25
 70
     0
  3

  4

  5

  6

  7

 40
1.0
 41
2.5
 42
0.625
 43
3.75
 44
1.25
 45
0.0
 46
0.0
 47
0.0
 48
0.0
140
2.5
141
2.5
142
0.0
143
0.03937007874016
144
1.0
145
0.0
146
1.0
147
0.625
 71
     0
 72
     0
 73
     0
 74
     0
 75
     0
 76
     0
 77
     1
 78
     8
170
     0
171
     3
172
     1
173
     0
174
     0
175
     0
176
     0
177
     0
178
     0
270
     2
271
     2
272
     2
273
     2
274
     3
340
11
275
     0
280
     0
281
     0
282
     0
283
     0
284
     8
285
     0
286
     0
287
     3
288
     0
  0
ENDTAB
  0
TABLE
  2
BLOCK_RECORD
  5
1
330
0
100
AcDbSymbolTable
 70
     1
  0
BLOCK_RECORD
  5
1F
330
1
100
AcDbSymbolTableRecord
100
AcDbBlockTableRecord
  2
*MODEL_SPACE
  0
BLOCK_RECORD
  5
1B
330
1
100
AcDbSymbolTableRecord
100
AcDbBlockTableRecord
  2
*PAPER_SPACE
  0
ENDTAB
  0
ENDSEC
  0
SECTION
  2
BLOCKS
  0
BLOCK
  5
20
330
1F
100
AcDbEntity
  8
0
100
AcDbBlockBegin
  2
*MODEL_SPACE
 70
     0
 10
0.0
 20
0.0
 30
0.0
  3
*MODEL_SPACE
  1

  0
ENDBLK
  5
21
330
1F
100
AcDbEntity
  8
0
100
AcDbBlockEnd
  0
BLOCK
  5
1C
330
1B
100
AcDbEntity
 67
     1
  8
0
100
AcDbBlockBegin
  2
*PAPER_SPACE
  1

  0
ENDBLK
  5
1D
330
1B
100
AcDbEntity
 67
     1
  8
0
100
AcDbBlockEnd
  0
ENDSEC
  0
SECTION
  2
ENTITIES
  0
LINE
  5
100
100
AcDbEntity
  8
WALLS
 62
3
100
AcDbLine
 10
11.761691
 20
283.290112
 30
0.0
 11
11.761691
 21
217.221194
 31
0.0
  0
LINE
  5
101
100
AcDbEntity
  8
WALLS
 62
3
100
AcDbLine
 10
11.761691
 20
217.221194
 30
0.0
 11
20.020314
 21
217.221194
 31
0.0
  0
LINE
  5
102
100
AcDbEntity
  8
WALLS
 62
3
100
AcDbLine
 10
20.020314
 20
217.221194
 30
0.0
 11
20.020314
 21
258.514267
 31
0.0
  0
LINE
  5
103
100
AcDbEntity
  8
WALLS
 62
3
100
AcDbLine
 10
20.020314
 20
258.514267
 30
0.0
 11
61.661492
 21
258.514267
 31
0.0
  0
LINE
  5
104
100
AcDbEntity
  8
WALLS
 62
3
100
AcDbLine
 10
139.770237
 20
258.514267
 30
0.0
 11
139.770237
 21
223.415150
 31
0.0
  0
LINE
  5
105
100
AcDbEntity
  8
WALLS
 62
3
100
AcDbLine
 10
139.770237
 20
223.415150
 30
0.0
 11
145.964182
 21
223.415150
 31
0.0
  0
LINE
  5
106
100
AcDbEntity
  8
WALLS
 62
3
100
AcDbLine
 10
145.964182
 20
223.415150
 30
0.0
 11
145.964182
 21
258.514267
 31
0.0
  0
LINE
  5
107
100
AcDbEntity
  8
WALLS
 62
3
100
AcDbLine
 10
145.964182
 20
258.514267
 30
0.0
 11
154.222806
 21
258.514267
 31
0.0
  0
LINE
  5
108
100
AcDbEntity
  8
WALLS
 62
3
100
AcDbLine
 10
154.222806
 20
258.514267
 30
0.0
 11
154.222806
 21
264.708232
 31
0.0
  0
LINE
  5
109
100
AcDbEntity
  8
WALLS
 62
3
100
AcDbLine
 10
154.222806
 20
264.708232
 30
0.0
 11
20.020314
 21
264.708232
 31
0.0
  0
LINE
  5
10a
100
AcDbEntity
  8
WALLS
 62
3
100
AcDbLine
 10
20.020314
 20
264.708232
 30
0.0
 11
20.020314
 21
283.290112
 31
0.0
  0
LINE
  5
10b
100
AcDbEntity
  8
WALLS
 62
3
100
AcDbLine
 10
20.020314
 20
283.290112
 30
0.0
 11
11.761691
 21
283.290112
 31
0.0
  0
LINE
  5
10c
100
AcDbEntity
  8
WALLS
 62
3
100
AcDbLine
 10
139.770237
 20
192.445348
 30
0.0
 11
139.770237
 21
147.022951
 31
0.0
  0
LINE
  5
10d
100
AcDbEntity
  8
WALLS
 62
3
100
AcDbLine
 10
72.944324
 20
147.022951
 30
0.0
 11
20.020314
 21
147.022951
 31
0.0
  0
LINE
  5
10e
100
AcDbEntity
  8
WALLS
 62
3
100
AcDbLine
 10
20.020314
 20
147.022951
 30
0.0
 11
20.020314
 21
173.863447
 31
0.0
  0
LINE
  5
10f
100
AcDbEntity
  8
WALLS
 62
3
100
AcDbLine
 10
20.020314
 20
173.863447
 30
0.0
 11
11.761691
 21
173.863447
 31
0.0
  0
LINE
  5
110
100
AcDbEntity
  8
WALLS
 62
3
100
AcDbLine
 10
11.761691
 20
101.980189
 30
0.0
 11
11.761691
 21
80.954004
 31
0.0
  0
LINE
  5
111
100
AcDbEntity
  8
WALLS
 62
3
100
AcDbLine
 10
11.761691
 20
80.954004
 30
0.0
 11
20.020314
 21
80.954004
 31
0.0
  0
LINE
  5
112
100
AcDbEntity
  8
WALLS
 62
3
100
AcDbLine
 10
20.020314
 20
80.954004
 30
0.0
 11
20.020314
 21
140.828992
 31
0.0
  0
LINE
  5
113
100
AcDbEntity
  8
WALLS
 62
3
100
AcDbLine
 10
20.020314
 20
140.828992
 30
0.0
 11
145.964182
 21
140.828992
 31
0.0
  0
LINE
  5
114
100
AcDbEntity
  8
WALLS
 62
3
100
AcDbLine
 10
145.964182
 20
140.828992
 30
0.0
 11
145.964182
 21
192.445348
 31
0.0
  0
LINE
  5
115
100
AcDbEntity
  8
WALLS
 62
3
100
AcDbLine
 10
145.964182
 20
192.445348
 30
0.0
 11
139.770237
 21
192.445348
 31
0.0
  0
LINE
  5
116
100
AcDbEntity
  8
WALLS
 62
3
100
AcDbLine
 10
205.839176
 20
264.708232
 30
0.0
 11
187.257272
 21
264.708232
 31
0.0
  0
LINE
  5
117
100
AcDbEntity
  8
WALLS
 62
3
100
AcDbLine
 10
187.257272
 20
264.708232
 30
0.0
 11
187.257272
 21
258.514267
 31
0.0
  0
LINE
  5
118
100
AcDbEntity
  8
WALLS
 62
3
100
AcDbLine
 10
187.257272
 20
258.514267
 30
0.0
 11
205.839176
 21
258.514267
 31
0.0
  0
LINE
  5
119
100
AcDbEntity
  8
WALLS
 62
3
100
AcDbLine
 10
61.659087
 20
258.515399
 30
0.0
 11
115.742367
 21
258.515399
 31
0.0
  0
LINE
  5
11a
100
AcDbEntity
  8
WALLS
 62
3
100
AcDbLine
 10
115.740761
 20
258.516497
 30
0.0
 11
139.780924
 21
258.516497
 31
0.0
  0
LINE
  5
11b
100
AcDbEntity
  8
WALLS
 62
3
100
AcDbLine
 10
11.761087
 20
156.987549
 30
0.0
 11
11.761087
 21
101.980197
 31
0.0
  0
LINE
  5
11c
100
AcDbEntity
  8
WALLS
 62
3
100
AcDbLine
 10
11.762114
 20
173.863701
 30
0.0
 11
11.762114
 21
156.987984
 31
0.0
  0
LINE
  5
11d
100
AcDbEntity
  8
WALLS
 62
3
100
AcDbLine
 10
81.144641
 20
147.003368
 30
0.0
 11
81.144641
 21
165.585249
 31
0.0
  0
LINE
  5
11e
100
AcDbEntity
  8
WALLS
 62
3
100
AcDbLine
 10
81.162517
 20
165.585249
 30
0.0
 11
72.880260
 21
165.585249
 31
0.0
  0
LINE
  5
11f
100
AcDbEntity
  8
WALLS
 62
3
100
AcDbLine
 10
72.912834
 20
147.028703
 30
0.0
 11
72.912834
 21
165.610584
 31
0.0
  0
LINE
  5
120
100
AcDbEntity
  8
WALLS
 62
3
100
AcDbLine
 10
139.765888
 20
147.022951
 30
0.0
 11
81.084073
 21
147.022951
 31
0.0
  0
LINE
  5
121
100
AcDbEntity
  8
DOORS
 62
1
100
AcDbLine
 10
154.222806
 20
264.708232
 30
0.0
 11
187.257272
 21
264.708232
 31
0.0
  0
LINE
  5
122
100
AcDbEntity
  8
DOORS
 62
1
100
AcDbLine
 10
154.222806
 20
258.514267
 30
0.0
 11
187.257272
 21
258.514267
 31
0.0
  0
LINE
  5
123
100
AcDbEntity
  8
DOORS
 62
1
100
AcDbLine
 10
139.770231
 20
223.415150
 30
0.0
 11
139.770231
 21
192.445348
 31
0.0
  0
LINE
  5
124
100
AcDbEntity
  8
DOORS
 62
1
100
AcDbLine
 10
145.964182
 20
223.415150
 30
0.0
 11
145.964182
 21
192.445348
 31
0.0
  0
LINE
  5
125
100
AcDbEntity
  8
WINDOWS
 62
1
100
AcDbLine
 10
11.761691
 20
217.221194
 30
0.0
 11
11.761691
 21
173.863447
 31
0.0
  0
LINE
  5
126
100
AcDbEntity
  8
WINDOWS
 62
1
100
AcDbLine
 10
20.020314
 20
217.221194
 30
0.0
 11
20.020314
 21
173.863447
 31
0.0
  0
ENDSEC
  0
SECTION
  2
OBJECTS
  0
DICTIONARY
  5
C
330
0
100
AcDbDictionary
  3
ACAD_GROUP
350
D
  3
ACAD_MLINESTYLE
350
17
  0
DICTIONARY
  5
D
330
C
100
AcDbDictionary
  0
DICTIONARY
  5
1A
330
C
100
AcDbDictionary
  0
DICTIONARY
  5
17
330
C
100
AcDbDictionary
  3
STANDARD
350
18
  0
DICTIONARY
  5
19
330
C
100
AcDbDictionary
  0
ENDSEC
  0
EOF
