  0
SECTION
  2
HEADER
  9
$ACADVER
  1
AC1014
  9
$HANDSEED
  5
FFFF
  9
$MEASUREMENT
 70
     1
  0
ENDSEC
  0
SECTION
  2
TABLES
  0
TABLE
  2
VPORT
  5
8
330
0
100
AcDbSymbolTable
 70
     4
  0
VPORT
  5
2E
330
8
100
AcDbSymbolTableRecord
100
AcDbViewportTableRecord
  2
*ACTIVE
 70
     0
 10
0.0
 20
0.0
 11
1.0
 21
1.0
 12
210.0
 22
148.5
 13
0.0
 23
0.0
 14
10.0
 24
10.0
 15
10.0
 25
10.0
 16
0.0
 26
0.0
 36
1.0
 17
0.0
 27
0.0
 37
0.0
 40
341.0
 41
1.24
 42
50.0
 43
0.0
 44
0.0
 50
0.0
 51
0.0
 71
     0
 72
   100
 73
     1
 74
     3
 75
     0
 76
     0
 77
     0
 78
     0
  0
ENDTAB
  0
TABLE
  2
LTYPE
  5
5
330
0
100
AcDbSymbolTable
 70
     1
  0
LTYPE
  5
14
330
5
100
AcDbSymbolTableRecord
100
AcDbLinetypeTableRecord
  2
BYBLOCK
 70
     0
  3

 72
    65
 73
     0
 40
0.0
  0
LTYPE
  5
15
330
5
100
AcDbSymbolTableRecord
100
AcDbLinetypeTableRecord
  2
BYLAYER
 70
     0
  3

 72
    65
 73
     0
 40
0.0
  0
LTYPE
  5
16
330
5
100
AcDbSymbolTableRecord
100
AcDbLinetypeTableRecord
  2
CONTINUOUS
 70
     0
  3
Solid line
 72
    65
 73
     0
 40
0.0
  0
ENDTAB
  0
TABLE
  2
LAYER
  5
2
100
AcDbSymbolTable
 70
4
  0
LAYER
  5
50
100
AcDbSymbolTableRecord
100
AcDbLayerTableRecord
  2
0
 70
0
  6
CONTINUOUS
  0
LAYER
  5
51
100
AcDbSymbolTableRecord
100
AcDbLayerTableRecord
  2
WALLS
 70
0
  6
CONTINUOUS
  0
LAYER
  5
52
100
AcDbSymbolTableRecord
100
AcDbLayerTableRecord
  2
DOORS
 70
0
  6
CONTINUOUS
  0
LAYER
  5
53
100
AcDbSymbolTableRecord
100
AcDbLayerTableRecord
  2
WINDOWS
 70
0
  6
CONTINUOUS
  0
ENDTAB
  0
TABLE
  2
STYLE
  5
3
330
0
100
AcDbSymbolTable
 70
     1
  0
STYLE
  5
11
330
3
100
AcDbSymbolTableRecord
100
AcDbTextStyleTableRecord
  2
STANDARD
 70
     0
 40
0.0
 41
1.0
 50
0.0
 71
     0
 42
2.5
  3
txt
  4

  0
ENDTAB
  0
TABLE
  2
VIEW
  5
6
330
0
100
AcDbSymbolTable
 70
     0
  0
ENDTAB
  0
TABLE
  2
UCS
  5
7
330
0
100
AcDbSymbolTable
 70
     0
  0
ENDTAB
  0
TABLE
  2
APPID
  5
9
330
0
100
AcDbSymbolTable
 70
     2
  0
APPID
  5
12
330
9
100
AcDbSymbolTableRecord
100
AcDbRegAppTableRecord
  2
ACAD
 70
     0
  0
ENDTAB
  0
TABLE
  2
DIMSTYLE
  5
A
330
0
100
AcDbSymbolTable
 70
     1
  0
DIMSTYLE
105
27
330
A
100
AcDbSymbolTableRecord
100
AcDbDimStyleTableRecord
  2
ISO-25
 70
     0
  3

  4

  5

  6

  7

 40
1.0
 41
2.5
 42
0.625
 43
3.75
 44
1.25
 45
0.0
 46
0.0
 47
0.0
 48
0.0
140
2.5
141
2.5
142
0.0
143
0.03937007874016
144
1.0
145
0.0
146
1.0
147
0.625
 71
     0
 72
     0
 73
     0
 74
     0
 75
     0
 76
     0
 77
     1
 78
     8
170
     0
171
     3
172
     1
173
     0
174
     0
175
     0
176
     0
177
     0
178
     0
270
     2
271
     2
272
     2
273
     2
274
     3
340
11
275
     0
280
     0
281
     0
282
     0
283
     0
284
     8
285
     0
286
     0
287
     3
288
     0
  0
ENDTAB
  0
TABLE
  2
BLOCK_RECORD
  5
1
330
0
100
AcDbSymbolTable
 70
     1
  0
BLOCK_RECORD
  5
1F
330
1
100
AcDbSymbolTableRecord
100
AcDbBlockTableRecord
  2
*MODEL_SPACE
  0
BLOCK_RECORD
  5
1B
330
1
100
AcDbSymbolTableRecord
100
AcDbBlockTableRecord
  2
*PAPER_SPACE
  0
ENDTAB
  0
ENDSEC
  0
SECTION
  2
BLOCKS
  0
BLOCK
  5
20
330
1F
100
AcDbEntity
  8
0
100
AcDbBlockBegin
  2
*MODEL_SPACE
 70
     0
 10
0.0
 20
0.0
 30
0.0
  3
*MODEL_SPACE
  1

  0
ENDBLK
  5
21
330
1F
100
AcDbEntity
  8
0
100
AcDbBlockEnd
  0
BLOCK
  5
1C
330
1B
100
AcDbEntity
 67
     1
  8
0
100
AcDbBlockBegin
  2
*PAPER_SPACE
  1

  0
ENDBLK
  5
1D
330
1B
100
AcDbEntity
 67
     1
  8
0
100
AcDbBlockEnd
  0
ENDSEC
  0
SECTION
  2
ENTITIES
  0
LINE
  5
100
100
AcDbEntity
  8
WALLS
 62
3
100
AcDbLine
 10
54.228044
 20
828.593835
 30
0.0
 11
54.228044
 21
601.113075
 31
0.0
  0
LINE
  5
101
100
AcDbEntity
  8
WALLS
 62
3
100
AcDbLine
 10
54.228044
 20
601.113075
 30
0.0
 11
82.663166
 21
601.113075
 31
0.0
  0
LINE
  5
102
100
AcDbEntity
  8
WALLS
 62
3
100
AcDbLine
 10
82.663166
 20
601.113075
 30
0.0
 11
82.663166
 21
743.288555
 31
0.0
  0
LINE
  5
103
100
AcDbEntity
  8
WALLS
 62
3
100
AcDbLine
 10
82.663166
 20
743.288555
 30
0.0
 11
226.037180
 21
743.288555
 31
0.0
  0
LINE
  5
104
100
AcDbEntity
  8
WALLS
 62
3
100
AcDbLine
 10
494.972040
 20
743.288555
 30
0.0
 11
494.972040
 21
622.439395
 31
0.0
  0
LINE
  5
105
100
AcDbEntity
  8
WALLS
 62
3
100
AcDbLine
 10
494.972040
 20
622.439395
 30
0.0
 11
516.298310
 21
622.439395
 31
0.0
  0
LINE
  5
106
100
AcDbEntity
  8
WALLS
 62
3
100
AcDbLine
 10
516.298310
 20
622.439395
 30
0.0
 11
516.298310
 21
743.288555
 31
0.0
  0
LINE
  5
107
100
AcDbEntity
  8
WALLS
 62
3
100
AcDbLine
 10
516.298310
 20
743.288555
 30
0.0
 11
544.733430
 21
743.288555
 31
0.0
  0
LINE
  5
108
100
AcDbEntity
  8
WALLS
 62
3
100
AcDbLine
 10
544.733430
 20
743.288555
 30
0.0
 11
544.733430
 21
764.614885
 31
0.0
  0
LINE
  5
109
100
AcDbEntity
  8
WALLS
 62
3
100
AcDbLine
 10
544.733430
 20
764.614885
 30
0.0
 11
82.663166
 21
764.614885
 31
0.0
  0
LINE
  5
10a
100
AcDbEntity
  8
WALLS
 62
3
100
AcDbLine
 10
82.663166
 20
764.614885
 30
0.0
 11
82.663166
 21
828.593835
 31
0.0
  0
LINE
  5
10b
100
AcDbEntity
  8
WALLS
 62
3
100
AcDbLine
 10
82.663166
 20
828.593835
 30
0.0
 11
54.228044
 21
828.593835
 31
0.0
  0
LINE
  5
10c
100
AcDbEntity
  8
WALLS
 62
3
100
AcDbLine
 10
494.972040
 20
515.807795
 30
0.0
 11
494.972040
 21
359.414745
 31
0.0
  0
LINE
  5
10d
100
AcDbEntity
  8
WALLS
 62
3
100
AcDbLine
 10
494.972040
 20
359.414745
 30
0.0
 11
82.663166
 21
359.414745
 31
0.0
  0
LINE
  5
10e
100
AcDbEntity
  8
WALLS
 62
3
100
AcDbLine
 10
82.663166
 20
359.414745
 30
0.0
 11
82.663166
 21
451.828785
 31
0.0
  0
LINE
  5
10f
100
AcDbEntity
  8
WALLS
 62
3
100
AcDbLine
 10
82.663166
 20
451.828785
 30
0.0
 11
54.228044
 21
451.828785
 31
0.0
  0
LINE
  5
110
100
AcDbEntity
  8
WALLS
 62
3
100
AcDbLine
 10
54.228044
 20
204.328785
 30
0.0
 11
54.228044
 21
131.933895
 31
0.0
  0
LINE
  5
111
100
AcDbEntity
  8
WALLS
 62
3
100
AcDbLine
 10
54.228044
 20
131.933895
 30
0.0
 11
82.663166
 21
131.933895
 31
0.0
  0
LINE
  5
112
100
AcDbEntity
  8
WALLS
 62
3
100
AcDbLine
 10
82.663166
 20
131.933895
 30
0.0
 11
82.663166
 21
338.088435
 31
0.0
  0
LINE
  5
113
100
AcDbEntity
  8
WALLS
 62
3
100
AcDbLine
 10
82.663166
 20
338.088435
 30
0.0
 11
516.298310
 21
338.088435
 31
0.0
  0
LINE
  5
114
100
AcDbEntity
  8
WALLS
 62
3
100
AcDbLine
 10
516.298310
 20
338.088435
 30
0.0
 11
516.298310
 21
515.807795
 31
0.0
  0
LINE
  5
115
100
AcDbEntity
  8
WALLS
 62
3
100
AcDbLine
 10
516.298310
 20
515.807795
 30
0.0
 11
494.972040
 21
515.807795
 31
0.0
  0
LINE
  5
116
100
AcDbEntity
  8
WALLS
 62
3
100
AcDbLine
 10
722.452860
 20
764.614885
 30
0.0
 11
658.473830
 21
764.614885
 31
0.0
  0
LINE
  5
117
100
AcDbEntity
  8
WALLS
 62
3
100
AcDbLine
 10
658.473830
 20
764.614885
 30
0.0
 11
658.473830
 21
743.288555
 31
0.0
  0
LINE
  5
118
100
AcDbEntity
  8
WALLS
 62
3
100
AcDbLine
 10
658.473830
 20
743.288555
 30
0.0
 11
722.452860
 21
743.288555
 31
0.0
  0
LINE
  5
119
100
AcDbEntity
  8
WALLS
 62
3
100
AcDbLine
 10
226.028910
 20
743.292445
 30
0.0
 11
412.242110
 21
743.292445
 31
0.0
  0
LINE
  5
11a
100
AcDbEntity
  8
WALLS
 62
3
100
AcDbLine
 10
412.236570
 20
743.296225
 30
0.0
 11
495.008850
 21
743.296225
 31
0.0
  0
LINE
  5
11b
100
AcDbEntity
  8
WALLS
 62
3
100
AcDbLine
 10
54.225968
 20
393.723675
 30
0.0
 11
54.225968
 21
204.328815
 31
0.0
  0
LINE
  5
11c
100
AcDbEntity
  8
WALLS
 62
3
100
AcDbLine
 10
54.229503
 20
451.829655
 30
0.0
 11
54.229503
 21
393.725165
 31
0.0
  0
LINE
  5
11d
100
AcDbEntity
  8
DOORS
 62
1
100
AcDbLine
 10
544.733430
 20
764.614885
 30
0.0
 11
658.473830
 21
764.614885
 31
0.0
  0
LINE
  5
11e
100
AcDbEntity
  8
DOORS
 62
1
100
AcDbLine
 10
544.733430
 20
743.288555
 30
0.0
 11
658.473830
 21
743.288555
 31
0.0
  0
LINE
  5
11f
100
AcDbEntity
  8
DOORS
 62
1
100
AcDbLine
 10
494.972020
 20
622.439395
 30
0.0
 11
494.972020
 21
515.807795
 31
0.0
  0
LINE
  5
120
100
AcDbEntity
  8
DOORS
 62
1
100
AcDbLine
 10
516.298310
 20
622.439395
 30
0.0
 11
516.298310
 21
515.807795
 31
0.0
  0
LINE
  5
121
100
AcDbEntity
  8
WINDOWS
 62
1
100
AcDbLine
 10
54.228044
 20
601.113075
 30
0.0
 11
54.228044
 21
451.828785
 31
0.0
  0
LINE
  5
122
100
AcDbEntity
  8
WINDOWS
 62
1
100
AcDbLine
 10
82.663166
 20
601.113075
 30
0.0
 11
82.663166
 21
451.828785
 31
0.0
  0
ENDSEC
  0
SECTION
  2
OBJECTS
  0
DICTIONARY
  5
C
330
0
100
AcDbDictionary
  3
ACAD_GROUP
350
D
  3
ACAD_MLINESTYLE
350
17
  0
DICTIONARY
  5
D
330
C
100
AcDbDictionary
  0
DICTIONARY
  5
1A
330
C
100
AcDbDictionary
  0
DICTIONARY
  5
17
330
C
100
AcDbDictionary
  3
STANDARD
350
18
  0
DICTIONARY
  5
19
330
C
100
AcDbDictionary
  0
ENDSEC
  0
EOF
